M48
; DRILL file {KiCad 5.1.10-88a1d61d58~88~ubuntu20.04.1} date Tue Jun 15 20:35:27 2021
; FORMAT={-:-/ absolute / inch / decimal}
; #@! TF.CreationDate,2021-06-15T20:35:27-04:00
; #@! TF.GenerationSoftware,Kicad,Pcbnew,5.1.10-88a1d61d58~88~ubuntu20.04.1
; #@! TF.FileFunction,Plated,1,4,PTH
FMAT,2
INCH
T1C0.0120
T2C0.0220
T3C0.0283
T4C0.0394
%
G90
G05
T1
X0.033Y-0.874
X0.052Y-0.557
X0.052Y-0.846
X0.07Y-1.45
X0.07Y-1.55
X0.091Y-0.531
X0.102Y-0.933
X0.122Y-0.701
X0.1268Y-0.7718
X0.127Y-0.906
X0.1324Y-0.8033
X0.14Y-0.644
X0.141Y-0.735
X0.169Y-0.994
X0.173Y-1.818
X0.175Y-1.454
X0.208Y-1.11
X0.2217Y-0.8335
X0.235Y-1.455
X0.235Y-0.175
X0.24Y-1.407
X0.266Y-0.452
X0.2936Y-0.8335
X0.305Y-0.645
X0.305Y-0.745
X0.3055Y-0.452
X0.3802Y-0.447
X0.405Y-0.645
X0.405Y-0.745
X0.405Y-0.969
X0.41Y-0.334
X0.422Y-0.395
X0.426Y-1.105
X0.4344Y-0.8337
X0.471Y-1.172
X0.4905Y-0.8315
X0.494Y-0.202
X0.495Y-1.201
X0.544Y-0.335
X0.552Y-1.091
X0.5613Y-0.7641
X0.578Y-0.886
X0.579Y-0.993
X0.59Y-1.09
X0.602Y-0.968
X0.627Y-0.862
X0.655Y-1.133
X0.675Y-0.897
X0.697Y-0.283
X0.709Y-0.804
X0.712Y-0.567
X0.718Y-0.261
X0.719Y-0.658
X0.723Y-0.709
X0.737Y-1.074
X0.753Y-0.51
X0.77Y-0.478
X0.795Y-0.069
X0.8Y-0.4532
X0.8Y-0.25
X0.8Y-0.35
X0.803Y-0.778
X0.832Y-0.349
X0.856Y-0.1
X0.937Y-1.091
X0.94Y-0.714
X0.941Y-0.778
X0.946Y-1.025
X0.953Y-0.516
X0.975Y-0.495
X0.975Y-0.565
X0.986Y-1.024
X0.998Y-0.542
X1.035Y-0.069
X1.036Y-0.385
X1.042Y-0.741
X1.045Y-0.9
X1.045Y-1.135
X1.086Y-0.49
X1.09Y-0.156
X1.0951Y-0.7557
X1.0964Y-0.8197
X1.11Y-0.372
X1.1159Y-0.5904
X1.1202Y-0.6232
X1.123Y-0.696
X1.126Y-0.247
X1.132Y-1.194
X1.147Y-0.525
X1.189Y-0.819
X1.2059Y-0.5822
X1.206Y-0.38
X1.213Y-0.098
X1.2131Y-0.6142
X1.216Y-0.279
X1.22Y-0.655
X1.222Y-0.696
X1.246Y-0.622
X1.275Y-0.341
X1.285Y-0.093
X1.298Y-0.581
X1.31Y-1.091
X1.324Y-0.604
X1.335Y-0.43
X1.349Y-0.813
X1.35Y-0.213
X1.35Y-0.581
X1.376Y-0.6661
X1.382Y-0.628
X1.385Y-0.121
X1.3972Y-0.0911
X1.435Y-0.545
X1.45Y-0.151
X1.45Y-0.265
X1.45Y-0.682
X1.547Y-0.12
X1.548Y-0.65
X1.6Y-0.343
X1.6Y-0.873
X1.664Y-0.695
X1.664Y-1.175
X1.665Y-0.076
X1.665Y-0.257
X1.665Y-0.448
X1.665Y-0.965
X1.805Y-1.85
X1.81Y-1.775
X1.838Y-0.205
X1.838Y-0.5
X1.872Y-0.965
T4
X0.125Y-0.35
X0.225Y-0.35
X0.5Y-1.35
X0.5Y-1.45
X0.5Y-1.55
X0.5Y-1.65
X0.5Y-1.75
X0.5Y-1.85
X1.6Y-1.35
X1.6Y-1.45
X1.6Y-1.55
X1.6Y-1.65
X1.6Y-1.75
X1.6Y-1.85
X1.875Y-0.35
X1.975Y-0.35
T2
G00X0.4027Y-0.1717
M15
G01X0.4027Y-0.1323
M16
G05
G00X0.6873Y-0.1717
M15
G01X0.6873Y-0.1323
M16
G05
T3
G00X0.4169Y-0.0811
M15
G01X0.4169Y-0.0339
M16
G05
G00X0.6731Y-0.0811
M15
G01X0.6731Y-0.0339
M16
G05
T0
M30
