<?xml version="1.0" encoding="UTF-8" standalone="no"?>
<!-- Created with Inkscape (http://www.inkscape.org/) -->

<svg
   xmlns:dc="http://purl.org/dc/elements/1.1/"
   xmlns:cc="http://creativecommons.org/ns#"
   xmlns:rdf="http://www.w3.org/1999/02/22-rdf-syntax-ns#"
   xmlns:svg="http://www.w3.org/2000/svg"
   xmlns="http://www.w3.org/2000/svg"
   xmlns:sodipodi="http://sodipodi.sourceforge.net/DTD/sodipodi-0.dtd"
   xmlns:inkscape="http://www.inkscape.org/namespaces/inkscape"
   width="255.99998"
   height="255.99998"
   viewBox="0 0 67.733329 67.733329"
   version="1.1"
   id="svg8"
   inkscape:version="0.92.2 5c3e80d, 2017-08-06"
   sodipodi:docname="oscope_icon.svg">
  <defs
     id="defs2">
    <clipPath
       id="clipPath16"
       clipPathUnits="userSpaceOnUse">
      <path
         inkscape:connector-curvature="0"
         id="path18"
         d="M 0,0 660,0 660,120 0,120 0,0 Z" />
    </clipPath>
  </defs>
  <sodipodi:namedview
     id="base"
     pagecolor="#ffffff"
     bordercolor="#666666"
     borderopacity="1.0"
     inkscape:pageopacity="0.0"
     inkscape:pageshadow="2"
     inkscape:zoom="1.46"
     inkscape:cx="67.653444"
     inkscape:cy="127.99999"
     inkscape:document-units="px"
     inkscape:current-layer="layer1"
     showgrid="false"
     units="px"
     inkscape:snap-smooth-nodes="true"
     fit-margin-top="0"
     fit-margin-left="0"
     fit-margin-right="0"
     fit-margin-bottom="0"
     inkscape:window-width="1440"
     inkscape:window-height="855"
     inkscape:window-x="0"
     inkscape:window-y="1"
     inkscape:window-maximized="1" />
  <metadata
     id="metadata5">
    <rdf:RDF>
      <cc:Work
         rdf:about="">
        <dc:format>image/svg+xml</dc:format>
        <dc:type
           rdf:resource="http://purl.org/dc/dcmitype/StillImage" />
        <dc:title></dc:title>
      </cc:Work>
    </rdf:RDF>
  </metadata>
  <g
     inkscape:label="Layer 1"
     inkscape:groupmode="layer"
     id="layer1"
     transform="translate(-56.598293,-61.770546)">
    <g
       id="g1763">
      <rect
         rx="16.933332"
         ry="16.933332"
         y="61.770546"
         x="56.598293"
         height="67.73333"
         width="67.73333"
         id="rect925"
         style="opacity:1;fill:#32a5cf;fill-opacity:1;stroke:none;stroke-width:3.48767543;stroke-linecap:round;stroke-linejoin:round;stroke-miterlimit:4;stroke-dasharray:none;stroke-dashoffset:0;stroke-opacity:1" />
      <g
         transform="translate(1.689568e-6,-9.0860667)"
         id="g989">
        <path
           id="polyline884"
           style="fill:none;stroke:#ffffff;stroke-width:0.79374993;stroke-linecap:round;stroke-miterlimit:4;stroke-dasharray:none"
           d="m 73.879615,93.690005 0.110067,-0.2791 0.110066,-0.278 0.110067,-0.27581 0.110067,-0.27251 0.110066,-0.26816 0.110067,-0.26273 0.110067,-0.25627 0.110066,-0.24881 0.110067,-0.24036 0.110067,-0.23095 0.110066,-0.22065 0.110067,-0.20946 0.110067,-0.19745 0.110066,-0.18467 0.110067,-0.17115 0.110066,-0.15695 0.110067,-0.14215 0.110067,-0.12677 0.110066,-0.1109 0.110067,-0.0946 0.110067,-0.0779 0.110066,-0.0609 0.110067,-0.0437 0.110067,-0.0263 0.110066,-0.009 0.110067,0.009 0.110067,0.0263 0.110066,0.0437 0.110067,0.0609 0.110067,0.0779 0.110066,0.0946 0.110067,0.1109 0.110067,0.12677 0.110066,0.14215 0.110067,0.15695 0.110067,0.17115 0.110066,0.18467 0.110067,0.19745 0.110067,0.20946 0.110066,0.22065 0.110067,0.23095 0.110066,0.24036 0.110067,0.24881 0.110067,0.25627 0.110066,0.26273 0.110067,0.26816 0.110067,0.27251 0.110066,0.27581 0.110067,0.278 0.110067,0.2791 0.110066,0.27911 0.110067,0.278 0.110067,0.2758 0.110066,0.27252 0.110067,0.26815 0.110067,0.26274 0.110066,0.25627 0.110067,0.24881 0.110067,0.24035 0.110066,0.23096 0.110067,0.22064 0.110067,0.20947 0.110066,0.19745 0.110067,0.18466 0.110066,0.17115 0.110067,0.15696 0.110067,0.14215 0.110066,0.12677 0.110067,0.1109 0.110067,0.0946 0.110066,0.0779 0.110067,0.0609 0.110067,0.0437 0.110066,0.0263 0.110067,0.009 0.110067,-0.009 0.110066,-0.0263 0.110067,-0.0437 0.110067,-0.0609 0.110066,-0.0779 0.110067,-0.0946 0.110067,-0.1109 0.110066,-0.12677 0.110067,-0.14215 0.110067,-0.15696 0.110066,-0.17115 0.110067,-0.18466 0.110066,-0.19745 0.110067,-0.20947 0.110067,-0.22064 0.110066,-0.23096 0.110067,-0.24035 0.110067,-0.24881 0.110066,-0.25627 0.110067,-0.26274 0.110067,-0.26815 0.110066,-0.27252 0.110067,-0.2758 0.110067,-0.278 0.110066,-0.27911 m -22.01333,0 0.110067,-0.2791 0.110066,-0.278 0.110067,-0.27581 0.110067,-0.27251 0.110066,-0.26816 0.110067,-0.26273 0.110067,-0.25627 0.110066,-0.24881 0.110067,-0.24036 0.110067,-0.23095 0.110066,-0.22065 0.110067,-0.20946 0.110067,-0.19745 0.110066,-0.18467 0.110067,-0.17115 0.110066,-0.15695 0.110067,-0.14215 0.110067,-0.12677 0.110066,-0.1109 0.110067,-0.0946 0.110067,-0.0779 0.110066,-0.0609 0.110067,-0.0437 0.110067,-0.0263 0.110066,-0.009 0.110067,0.009 0.110067,0.0263 0.110066,0.0437 0.110067,0.0609 0.110067,0.0779 0.110066,0.0946 0.110067,0.1109 0.110067,0.12677 0.110066,0.14215 0.110067,0.15695 0.110067,0.17115 0.110066,0.18467 0.110067,0.19745 0.110066,0.20946 0.110067,0.22065 0.110067,0.23095 0.110066,0.24036 0.110067,0.24881 0.110067,0.25627 0.110066,0.26273 0.110067,0.26816 0.110067,0.27251 0.110066,0.27581 0.110067,0.278 0.110067,0.2791 0.110066,0.27911 0.110067,0.278 0.110067,0.2758 0.110066,0.27252 0.110067,0.26815 0.110067,0.26274 0.110066,0.25627 0.110067,0.24881 0.110067,0.24035 0.110066,0.23096 0.110067,0.22064 0.110067,0.20947 0.110066,0.19745 0.110067,0.18466 0.110066,0.17115 0.110067,0.15696 0.110067,0.14215 0.110066,0.12677 0.110067,0.1109 0.110067,0.0946 0.110066,0.0779 0.110067,0.0609 0.110067,0.0437 0.110066,0.0263 0.110067,0.009 0.110067,-0.009 0.110066,-0.0263 0.110067,-0.0437 0.110067,-0.0609 0.110066,-0.0779 0.110067,-0.0946 0.110067,-0.1109 0.110066,-0.12677 0.110067,-0.14215 0.110067,-0.15696 0.110066,-0.17115 0.110067,-0.18466 0.110067,-0.19745 0.110066,-0.20947 0.110067,-0.22064 0.110066,-0.23096 0.110067,-0.24035 0.110067,-0.24881 0.110066,-0.25627 0.110067,-0.26274 0.110067,-0.26815 0.110066,-0.27252 0.110067,-0.2758 0.110067,-0.278 0.110066,-0.27911"
           inkscape:connector-curvature="0" />
        <path
           style="fill:none;stroke:#ffffff;stroke-width:1.58749986;stroke-linecap:round;stroke-miterlimit:4;stroke-dasharray:none"
           d="m 86.400268,96.231145 0.220134,-0.44128 0.220132,-0.46192 0.220134,-0.4807 0.220134,-0.49762 0.220132,-0.51254 0.220134,-0.52548 0.220134,-0.5363 0.220132,-0.54504 0.220134,-0.5516 0.220134,-0.556 0.220132,-0.55822"
           id="path906"
           inkscape:connector-curvature="0" />
        <path
           sodipodi:nodetypes="sssssss"
           inkscape:connector-curvature="0"
           id="path980"
           d="m 103.45649,89.166225 c 0,2.75902 -1.11831,5.25685 -2.92638,7.06492 -1.80807,1.80807 -4.305897,2.92639 -7.06492,2.92639 -2.759024,0 -5.256851,-1.11831 -7.064922,-2.92639 -1.808071,-1.80807 -2.926386,-4.30589 -2.926386,-7.06492 10e-7,-5.518047 4.473261,-9.991309 9.991308,-9.991309 5.518046,2e-6 9.9913,4.473263 9.9913,9.991309 z"
           style="opacity:1;fill:none;fill-opacity:1;stroke:#32a5cf;stroke-width:3.70416665;stroke-linecap:round;stroke-linejoin:round;stroke-miterlimit:4;stroke-dasharray:none;stroke-dashoffset:0;stroke-opacity:1" />
        <path
           style="opacity:1;fill:none;fill-opacity:1;stroke:#ffffff;stroke-width:2.11666656;stroke-linecap:round;stroke-linejoin:round;stroke-miterlimit:4;stroke-dasharray:none;stroke-dashoffset:0;stroke-opacity:1"
           d="m 103.45649,89.166225 c 0,2.75902 -1.11831,5.25685 -2.92638,7.06492 -1.80807,1.80807 -4.305897,2.92639 -7.06492,2.92639 -2.759024,0 -5.256851,-1.11831 -7.064922,-2.92639 -1.808071,-1.80807 -2.926386,-4.30589 -2.926386,-7.06492 10e-7,-5.518047 4.473261,-9.991309 9.991308,-9.991309 5.518046,2e-6 9.9913,4.473263 9.9913,9.991309 z"
           id="path893"
           inkscape:connector-curvature="0"
           sodipodi:nodetypes="sssssss" />
        <path
           style="fill:none;fill-rule:evenodd;stroke:#ffffff;stroke-width:4.23333311;stroke-linecap:round;stroke-linejoin:miter;stroke-miterlimit:4;stroke-dasharray:none;stroke-opacity:1"
           d="m 102.38219,98.083225 13.9357,13.935695"
           id="path895"
           inkscape:connector-curvature="0" />
        <path
           id="circle897"
           style="opacity:1;fill:none;fill-opacity:1;stroke:#ffffff;stroke-width:1.52050555;stroke-linecap:round;stroke-linejoin:round;stroke-miterlimit:4;stroke-dasharray:none;stroke-dashoffset:0;stroke-opacity:1"
           sodipodi:type="arc"
           sodipodi:cx="93.465187"
           sodipodi:cy="89.166222"
           sodipodi:rx="7.1772475"
           sodipodi:ry="7.177247"
           sodipodi:start="4.5845008"
           sodipodi:end="0.15943583"
           d="m 92.549802,82.047588 a 7.1772475,7.177247 0 0 1 6.069884,2.124235 7.1772475,7.177247 0 0 1 1.931724,6.133867"
           sodipodi:open="true" />
        <path
           style="fill:none;fill-rule:evenodd;stroke:#ffffff;stroke-width:0.79374999;stroke-linecap:round;stroke-linejoin:round;stroke-miterlimit:4;stroke-dasharray:none;stroke-opacity:1"
           d="m 62.876504,111.43988 h 5.427734 l 0.529167,-9.24738 h 5.610449 l 0.529167,9.24738 h 10.624499 5.427734 l 0.529167,-9.24738 h 5.610449 l 0.529167,9.24738 h 10.624493"
           id="path910"
           inkscape:connector-curvature="0"
           sodipodi:nodetypes="ccccccccccc" />
      </g>
      <g
         style="fill:#ffffff"
         transform="matrix(0.21616202,0,0,-0.21616202,46.423417,128.51499)"
         id="g3034">
        <g
           style="fill:#ffffff"
           id="g20"
           transform="translate(235.1271,96.811)">
          <path
             d="m 0,0 c 6.276,-5.56 3.778,-19.976 -7.344,-36.429 -11.622,-17.19 -28.945,-31.121 -42.07,-34.654 36.817,-2.639 75.464,8.372 89.509,26.308 C 54.885,-25.887 36.974,-6.257 0,0"
             style="fill:#ffffff;fill-opacity:1;fill-rule:nonzero;stroke:none"
             id="path22"
             inkscape:connector-curvature="0" />
        </g>
        <g
           style="fill:#ffffff"
           id="g24"
           transform="translate(221.7726,98.3901)">
          <path
             d="m 0,0 c -36.816,2.64 -75.462,-8.371 -89.508,-26.308 -14.791,-18.888 3.122,-38.518 40.093,-44.774 -6.274,5.559 -3.778,19.975 7.344,36.428 C -30.449,-17.463 -13.124,-3.532 0,0"
             style="fill:#ffffff;fill-opacity:1;fill-rule:nonzero;stroke:none"
             id="path26"
             inkscape:connector-curvature="0" />
        </g>
      </g>
    </g>
  </g>
</svg>
