G04 #@! TF.GenerationSoftware,KiCad,Pcbnew,5.1.10-88a1d61d58~88~ubuntu20.04.1*
G04 #@! TF.CreationDate,2021-06-15T20:39:53-04:00*
G04 #@! TF.ProjectId,oscope,6f73636f-7065-42e6-9b69-6361645f7063,rev?*
G04 #@! TF.SameCoordinates,PX3c8eee0PY31a8670*
G04 #@! TF.FileFunction,Copper,L1,Top*
G04 #@! TF.FilePolarity,Positive*
%FSLAX46Y46*%
G04 Gerber Fmt 4.6, Leading zero omitted, Abs format (unit mm)*
G04 Created by KiCad (PCBNEW 5.1.10-88a1d61d58~88~ubuntu20.04.1) date 2021-06-15 20:39:53*
%MOMM*%
%LPD*%
G01*
G04 APERTURE LIST*
G04 #@! TA.AperFunction,SMDPad,CuDef*
%ADD10R,0.250000X0.850000*%
G04 #@! TD*
G04 #@! TA.AperFunction,SMDPad,CuDef*
%ADD11R,2.380000X1.650000*%
G04 #@! TD*
G04 #@! TA.AperFunction,ComponentPad*
%ADD12C,0.609600*%
G04 #@! TD*
G04 #@! TA.AperFunction,SMDPad,CuDef*
%ADD13R,0.400000X1.350000*%
G04 #@! TD*
G04 #@! TA.AperFunction,ComponentPad*
%ADD14O,1.160000X2.160000*%
G04 #@! TD*
G04 #@! TA.AperFunction,ComponentPad*
%ADD15O,1.320000X2.520000*%
G04 #@! TD*
G04 #@! TA.AperFunction,SMDPad,CuDef*
%ADD16R,1.900000X1.900000*%
G04 #@! TD*
G04 #@! TA.AperFunction,SMDPad,CuDef*
%ADD17R,0.900000X1.700000*%
G04 #@! TD*
G04 #@! TA.AperFunction,SMDPad,CuDef*
%ADD18R,0.800000X0.900000*%
G04 #@! TD*
G04 #@! TA.AperFunction,SMDPad,CuDef*
%ADD19R,0.650000X1.060000*%
G04 #@! TD*
G04 #@! TA.AperFunction,SMDPad,CuDef*
%ADD20R,0.450000X1.450000*%
G04 #@! TD*
G04 #@! TA.AperFunction,SMDPad,CuDef*
%ADD21R,0.450000X1.500000*%
G04 #@! TD*
G04 #@! TA.AperFunction,SMDPad,CuDef*
%ADD22R,0.400000X1.220000*%
G04 #@! TD*
G04 #@! TA.AperFunction,ComponentPad*
%ADD23O,1.700000X1.700000*%
G04 #@! TD*
G04 #@! TA.AperFunction,ComponentPad*
%ADD24R,1.700000X1.700000*%
G04 #@! TD*
G04 #@! TA.AperFunction,SMDPad,CuDef*
%ADD25R,1.075000X1.400000*%
G04 #@! TD*
G04 #@! TA.AperFunction,SMDPad,CuDef*
%ADD26R,1.524000X1.524000*%
G04 #@! TD*
G04 #@! TA.AperFunction,SMDPad,CuDef*
%ADD27C,1.524000*%
G04 #@! TD*
G04 #@! TA.AperFunction,SMDPad,CuDef*
%ADD28R,0.300000X0.850000*%
G04 #@! TD*
G04 #@! TA.AperFunction,SMDPad,CuDef*
%ADD29R,0.850000X0.300000*%
G04 #@! TD*
G04 #@! TA.AperFunction,SMDPad,CuDef*
%ADD30R,5.499999X5.499999*%
G04 #@! TD*
G04 #@! TA.AperFunction,ViaPad*
%ADD31C,0.609600*%
G04 #@! TD*
G04 #@! TA.AperFunction,Conductor*
%ADD32C,0.203200*%
G04 #@! TD*
G04 #@! TA.AperFunction,Conductor*
%ADD33C,0.508000*%
G04 #@! TD*
G04 #@! TA.AperFunction,Conductor*
%ADD34C,0.304800*%
G04 #@! TD*
G04 #@! TA.AperFunction,Conductor*
%ADD35C,0.381000*%
G04 #@! TD*
G04 APERTURE END LIST*
G04 #@! TA.AperFunction,SMDPad,CuDef*
G36*
G01*
X16888750Y-14904000D02*
X17401250Y-14904000D01*
G75*
G02*
X17620000Y-15122750I0J-218750D01*
G01*
X17620000Y-15560250D01*
G75*
G02*
X17401250Y-15779000I-218750J0D01*
G01*
X16888750Y-15779000D01*
G75*
G02*
X16670000Y-15560250I0J218750D01*
G01*
X16670000Y-15122750D01*
G75*
G02*
X16888750Y-14904000I218750J0D01*
G01*
G37*
G04 #@! TD.AperFunction*
G04 #@! TA.AperFunction,SMDPad,CuDef*
G36*
G01*
X16888750Y-16479000D02*
X17401250Y-16479000D01*
G75*
G02*
X17620000Y-16697750I0J-218750D01*
G01*
X17620000Y-17135250D01*
G75*
G02*
X17401250Y-17354000I-218750J0D01*
G01*
X16888750Y-17354000D01*
G75*
G02*
X16670000Y-17135250I0J218750D01*
G01*
X16670000Y-16697750D01*
G75*
G02*
X16888750Y-16479000I218750J0D01*
G01*
G37*
G04 #@! TD.AperFunction*
D10*
X21320000Y-4900000D03*
X20820000Y-4900000D03*
X20320000Y-4900000D03*
X19820000Y-4900000D03*
X19320000Y-4900000D03*
X19320000Y-7800000D03*
X19820000Y-7800000D03*
X20320000Y-7800000D03*
X20820000Y-7800000D03*
X21320000Y-7800000D03*
D11*
X20320000Y-6350000D03*
D12*
X20320000Y-6350000D03*
G04 #@! TA.AperFunction,SMDPad,CuDef*
G36*
G01*
X1777050Y-21033800D02*
X864550Y-21033800D01*
G75*
G02*
X620800Y-20790050I0J243750D01*
G01*
X620800Y-20302550D01*
G75*
G02*
X864550Y-20058800I243750J0D01*
G01*
X1777050Y-20058800D01*
G75*
G02*
X2020800Y-20302550I0J-243750D01*
G01*
X2020800Y-20790050D01*
G75*
G02*
X1777050Y-21033800I-243750J0D01*
G01*
G37*
G04 #@! TD.AperFunction*
G04 #@! TA.AperFunction,SMDPad,CuDef*
G36*
G01*
X1777050Y-19158800D02*
X864550Y-19158800D01*
G75*
G02*
X620800Y-18915050I0J243750D01*
G01*
X620800Y-18427550D01*
G75*
G02*
X864550Y-18183800I243750J0D01*
G01*
X1777050Y-18183800D01*
G75*
G02*
X2020800Y-18427550I0J-243750D01*
G01*
X2020800Y-18915050D01*
G75*
G02*
X1777050Y-19158800I-243750J0D01*
G01*
G37*
G04 #@! TD.AperFunction*
G04 #@! TA.AperFunction,SMDPad,CuDef*
G36*
G01*
X1064550Y-15081800D02*
X1577050Y-15081800D01*
G75*
G02*
X1795800Y-15300550I0J-218750D01*
G01*
X1795800Y-15738050D01*
G75*
G02*
X1577050Y-15956800I-218750J0D01*
G01*
X1064550Y-15956800D01*
G75*
G02*
X845800Y-15738050I0J218750D01*
G01*
X845800Y-15300550D01*
G75*
G02*
X1064550Y-15081800I218750J0D01*
G01*
G37*
G04 #@! TD.AperFunction*
G04 #@! TA.AperFunction,SMDPad,CuDef*
G36*
G01*
X1064550Y-16656800D02*
X1577050Y-16656800D01*
G75*
G02*
X1795800Y-16875550I0J-218750D01*
G01*
X1795800Y-17313050D01*
G75*
G02*
X1577050Y-17531800I-218750J0D01*
G01*
X1064550Y-17531800D01*
G75*
G02*
X845800Y-17313050I0J218750D01*
G01*
X845800Y-16875550D01*
G75*
G02*
X1064550Y-16656800I218750J0D01*
G01*
G37*
G04 #@! TD.AperFunction*
G04 #@! TA.AperFunction,SMDPad,CuDef*
G36*
G01*
X11305250Y-27387000D02*
X10792750Y-27387000D01*
G75*
G02*
X10574000Y-27168250I0J218750D01*
G01*
X10574000Y-26730750D01*
G75*
G02*
X10792750Y-26512000I218750J0D01*
G01*
X11305250Y-26512000D01*
G75*
G02*
X11524000Y-26730750I0J-218750D01*
G01*
X11524000Y-27168250D01*
G75*
G02*
X11305250Y-27387000I-218750J0D01*
G01*
G37*
G04 #@! TD.AperFunction*
G04 #@! TA.AperFunction,SMDPad,CuDef*
G36*
G01*
X11305250Y-25812000D02*
X10792750Y-25812000D01*
G75*
G02*
X10574000Y-25593250I0J218750D01*
G01*
X10574000Y-25155750D01*
G75*
G02*
X10792750Y-24937000I218750J0D01*
G01*
X11305250Y-24937000D01*
G75*
G02*
X11524000Y-25155750I0J-218750D01*
G01*
X11524000Y-25593250D01*
G75*
G02*
X11305250Y-25812000I-218750J0D01*
G01*
G37*
G04 #@! TD.AperFunction*
G04 #@! TA.AperFunction,SMDPad,CuDef*
G36*
G01*
X17401250Y-20859000D02*
X16888750Y-20859000D01*
G75*
G02*
X16670000Y-20640250I0J218750D01*
G01*
X16670000Y-20202750D01*
G75*
G02*
X16888750Y-19984000I218750J0D01*
G01*
X17401250Y-19984000D01*
G75*
G02*
X17620000Y-20202750I0J-218750D01*
G01*
X17620000Y-20640250D01*
G75*
G02*
X17401250Y-20859000I-218750J0D01*
G01*
G37*
G04 #@! TD.AperFunction*
G04 #@! TA.AperFunction,SMDPad,CuDef*
G36*
G01*
X17401250Y-22434000D02*
X16888750Y-22434000D01*
G75*
G02*
X16670000Y-22215250I0J218750D01*
G01*
X16670000Y-21777750D01*
G75*
G02*
X16888750Y-21559000I218750J0D01*
G01*
X17401250Y-21559000D01*
G75*
G02*
X17620000Y-21777750I0J-218750D01*
G01*
X17620000Y-22215250D01*
G75*
G02*
X17401250Y-22434000I-218750J0D01*
G01*
G37*
G04 #@! TD.AperFunction*
G04 #@! TA.AperFunction,SMDPad,CuDef*
G36*
G01*
X9494000Y-10289250D02*
X9494000Y-9776750D01*
G75*
G02*
X9712750Y-9558000I218750J0D01*
G01*
X10150250Y-9558000D01*
G75*
G02*
X10369000Y-9776750I0J-218750D01*
G01*
X10369000Y-10289250D01*
G75*
G02*
X10150250Y-10508000I-218750J0D01*
G01*
X9712750Y-10508000D01*
G75*
G02*
X9494000Y-10289250I0J218750D01*
G01*
G37*
G04 #@! TD.AperFunction*
G04 #@! TA.AperFunction,SMDPad,CuDef*
G36*
G01*
X7919000Y-10289250D02*
X7919000Y-9776750D01*
G75*
G02*
X8137750Y-9558000I218750J0D01*
G01*
X8575250Y-9558000D01*
G75*
G02*
X8794000Y-9776750I0J-218750D01*
G01*
X8794000Y-10289250D01*
G75*
G02*
X8575250Y-10508000I-218750J0D01*
G01*
X8137750Y-10508000D01*
G75*
G02*
X7919000Y-10289250I0J218750D01*
G01*
G37*
G04 #@! TD.AperFunction*
G04 #@! TA.AperFunction,SMDPad,CuDef*
G36*
G01*
X8941750Y-6068000D02*
X9854250Y-6068000D01*
G75*
G02*
X10098000Y-6311750I0J-243750D01*
G01*
X10098000Y-6799250D01*
G75*
G02*
X9854250Y-7043000I-243750J0D01*
G01*
X8941750Y-7043000D01*
G75*
G02*
X8698000Y-6799250I0J243750D01*
G01*
X8698000Y-6311750D01*
G75*
G02*
X8941750Y-6068000I243750J0D01*
G01*
G37*
G04 #@! TD.AperFunction*
G04 #@! TA.AperFunction,SMDPad,CuDef*
G36*
G01*
X8941750Y-7943000D02*
X9854250Y-7943000D01*
G75*
G02*
X10098000Y-8186750I0J-243750D01*
G01*
X10098000Y-8674250D01*
G75*
G02*
X9854250Y-8918000I-243750J0D01*
G01*
X8941750Y-8918000D01*
G75*
G02*
X8698000Y-8674250I0J243750D01*
G01*
X8698000Y-8186750D01*
G75*
G02*
X8941750Y-7943000I243750J0D01*
G01*
G37*
G04 #@! TD.AperFunction*
G04 #@! TA.AperFunction,SMDPad,CuDef*
G36*
G01*
X15289850Y-7043000D02*
X14377350Y-7043000D01*
G75*
G02*
X14133600Y-6799250I0J243750D01*
G01*
X14133600Y-6311750D01*
G75*
G02*
X14377350Y-6068000I243750J0D01*
G01*
X15289850Y-6068000D01*
G75*
G02*
X15533600Y-6311750I0J-243750D01*
G01*
X15533600Y-6799250D01*
G75*
G02*
X15289850Y-7043000I-243750J0D01*
G01*
G37*
G04 #@! TD.AperFunction*
G04 #@! TA.AperFunction,SMDPad,CuDef*
G36*
G01*
X15289850Y-8918000D02*
X14377350Y-8918000D01*
G75*
G02*
X14133600Y-8674250I0J243750D01*
G01*
X14133600Y-8186750D01*
G75*
G02*
X14377350Y-7943000I243750J0D01*
G01*
X15289850Y-7943000D01*
G75*
G02*
X15533600Y-8186750I0J-243750D01*
G01*
X15533600Y-8674250D01*
G75*
G02*
X15289850Y-8918000I-243750J0D01*
G01*
G37*
G04 #@! TD.AperFunction*
G04 #@! TA.AperFunction,SMDPad,CuDef*
G36*
G01*
X17782250Y-27717000D02*
X17269750Y-27717000D01*
G75*
G02*
X17051000Y-27498250I0J218750D01*
G01*
X17051000Y-27060750D01*
G75*
G02*
X17269750Y-26842000I218750J0D01*
G01*
X17782250Y-26842000D01*
G75*
G02*
X18001000Y-27060750I0J-218750D01*
G01*
X18001000Y-27498250D01*
G75*
G02*
X17782250Y-27717000I-218750J0D01*
G01*
G37*
G04 #@! TD.AperFunction*
G04 #@! TA.AperFunction,SMDPad,CuDef*
G36*
G01*
X17782250Y-29292000D02*
X17269750Y-29292000D01*
G75*
G02*
X17051000Y-29073250I0J218750D01*
G01*
X17051000Y-28635750D01*
G75*
G02*
X17269750Y-28417000I218750J0D01*
G01*
X17782250Y-28417000D01*
G75*
G02*
X18001000Y-28635750I0J-218750D01*
G01*
X18001000Y-29073250D01*
G75*
G02*
X17782250Y-29292000I-218750J0D01*
G01*
G37*
G04 #@! TD.AperFunction*
G04 #@! TA.AperFunction,SMDPad,CuDef*
G36*
G01*
X17782250Y-26244000D02*
X17269750Y-26244000D01*
G75*
G02*
X17051000Y-26025250I0J218750D01*
G01*
X17051000Y-25587750D01*
G75*
G02*
X17269750Y-25369000I218750J0D01*
G01*
X17782250Y-25369000D01*
G75*
G02*
X18001000Y-25587750I0J-218750D01*
G01*
X18001000Y-26025250D01*
G75*
G02*
X17782250Y-26244000I-218750J0D01*
G01*
G37*
G04 #@! TD.AperFunction*
G04 #@! TA.AperFunction,SMDPad,CuDef*
G36*
G01*
X17782250Y-24669000D02*
X17269750Y-24669000D01*
G75*
G02*
X17051000Y-24450250I0J218750D01*
G01*
X17051000Y-24012750D01*
G75*
G02*
X17269750Y-23794000I218750J0D01*
G01*
X17782250Y-23794000D01*
G75*
G02*
X18001000Y-24012750I0J-218750D01*
G01*
X18001000Y-24450250D01*
G75*
G02*
X17782250Y-24669000I-218750J0D01*
G01*
G37*
G04 #@! TD.AperFunction*
G04 #@! TA.AperFunction,SMDPad,CuDef*
G36*
G01*
X48799000Y-912150D02*
X48799000Y-1424650D01*
G75*
G02*
X48580250Y-1643400I-218750J0D01*
G01*
X48142750Y-1643400D01*
G75*
G02*
X47924000Y-1424650I0J218750D01*
G01*
X47924000Y-912150D01*
G75*
G02*
X48142750Y-693400I218750J0D01*
G01*
X48580250Y-693400D01*
G75*
G02*
X48799000Y-912150I0J-218750D01*
G01*
G37*
G04 #@! TD.AperFunction*
G04 #@! TA.AperFunction,SMDPad,CuDef*
G36*
G01*
X50374000Y-912150D02*
X50374000Y-1424650D01*
G75*
G02*
X50155250Y-1643400I-218750J0D01*
G01*
X49717750Y-1643400D01*
G75*
G02*
X49499000Y-1424650I0J218750D01*
G01*
X49499000Y-912150D01*
G75*
G02*
X49717750Y-693400I218750J0D01*
G01*
X50155250Y-693400D01*
G75*
G02*
X50374000Y-912150I0J-218750D01*
G01*
G37*
G04 #@! TD.AperFunction*
G04 #@! TA.AperFunction,SMDPad,CuDef*
G36*
G01*
X50374000Y-16634750D02*
X50374000Y-17147250D01*
G75*
G02*
X50155250Y-17366000I-218750J0D01*
G01*
X49717750Y-17366000D01*
G75*
G02*
X49499000Y-17147250I0J218750D01*
G01*
X49499000Y-16634750D01*
G75*
G02*
X49717750Y-16416000I218750J0D01*
G01*
X50155250Y-16416000D01*
G75*
G02*
X50374000Y-16634750I0J-218750D01*
G01*
G37*
G04 #@! TD.AperFunction*
G04 #@! TA.AperFunction,SMDPad,CuDef*
G36*
G01*
X48799000Y-16634750D02*
X48799000Y-17147250D01*
G75*
G02*
X48580250Y-17366000I-218750J0D01*
G01*
X48142750Y-17366000D01*
G75*
G02*
X47924000Y-17147250I0J218750D01*
G01*
X47924000Y-16634750D01*
G75*
G02*
X48142750Y-16416000I218750J0D01*
G01*
X48580250Y-16416000D01*
G75*
G02*
X48799000Y-16634750I0J-218750D01*
G01*
G37*
G04 #@! TD.AperFunction*
G04 #@! TA.AperFunction,SMDPad,CuDef*
G36*
G01*
X48799000Y-18158750D02*
X48799000Y-18671250D01*
G75*
G02*
X48580250Y-18890000I-218750J0D01*
G01*
X48142750Y-18890000D01*
G75*
G02*
X47924000Y-18671250I0J218750D01*
G01*
X47924000Y-18158750D01*
G75*
G02*
X48142750Y-17940000I218750J0D01*
G01*
X48580250Y-17940000D01*
G75*
G02*
X48799000Y-18158750I0J-218750D01*
G01*
G37*
G04 #@! TD.AperFunction*
G04 #@! TA.AperFunction,SMDPad,CuDef*
G36*
G01*
X50374000Y-18158750D02*
X50374000Y-18671250D01*
G75*
G02*
X50155250Y-18890000I-218750J0D01*
G01*
X49717750Y-18890000D01*
G75*
G02*
X49499000Y-18671250I0J218750D01*
G01*
X49499000Y-18158750D01*
G75*
G02*
X49717750Y-17940000I218750J0D01*
G01*
X50155250Y-17940000D01*
G75*
G02*
X50374000Y-18158750I0J-218750D01*
G01*
G37*
G04 #@! TD.AperFunction*
G04 #@! TA.AperFunction,SMDPad,CuDef*
G36*
G01*
X48799000Y-30350750D02*
X48799000Y-30863250D01*
G75*
G02*
X48580250Y-31082000I-218750J0D01*
G01*
X48142750Y-31082000D01*
G75*
G02*
X47924000Y-30863250I0J218750D01*
G01*
X47924000Y-30350750D01*
G75*
G02*
X48142750Y-30132000I218750J0D01*
G01*
X48580250Y-30132000D01*
G75*
G02*
X48799000Y-30350750I0J-218750D01*
G01*
G37*
G04 #@! TD.AperFunction*
G04 #@! TA.AperFunction,SMDPad,CuDef*
G36*
G01*
X50374000Y-30350750D02*
X50374000Y-30863250D01*
G75*
G02*
X50155250Y-31082000I-218750J0D01*
G01*
X49717750Y-31082000D01*
G75*
G02*
X49499000Y-30863250I0J218750D01*
G01*
X49499000Y-30350750D01*
G75*
G02*
X49717750Y-30132000I218750J0D01*
G01*
X50155250Y-30132000D01*
G75*
G02*
X50374000Y-30350750I0J-218750D01*
G01*
G37*
G04 #@! TD.AperFunction*
G04 #@! TA.AperFunction,SMDPad,CuDef*
G36*
G01*
X47326000Y-912150D02*
X47326000Y-1424650D01*
G75*
G02*
X47107250Y-1643400I-218750J0D01*
G01*
X46669750Y-1643400D01*
G75*
G02*
X46451000Y-1424650I0J218750D01*
G01*
X46451000Y-912150D01*
G75*
G02*
X46669750Y-693400I218750J0D01*
G01*
X47107250Y-693400D01*
G75*
G02*
X47326000Y-912150I0J-218750D01*
G01*
G37*
G04 #@! TD.AperFunction*
G04 #@! TA.AperFunction,SMDPad,CuDef*
G36*
G01*
X45751000Y-912150D02*
X45751000Y-1424650D01*
G75*
G02*
X45532250Y-1643400I-218750J0D01*
G01*
X45094750Y-1643400D01*
G75*
G02*
X44876000Y-1424650I0J218750D01*
G01*
X44876000Y-912150D01*
G75*
G02*
X45094750Y-693400I218750J0D01*
G01*
X45532250Y-693400D01*
G75*
G02*
X45751000Y-912150I0J-218750D01*
G01*
G37*
G04 #@! TD.AperFunction*
G04 #@! TA.AperFunction,SMDPad,CuDef*
G36*
G01*
X45751000Y-16634750D02*
X45751000Y-17147250D01*
G75*
G02*
X45532250Y-17366000I-218750J0D01*
G01*
X45094750Y-17366000D01*
G75*
G02*
X44876000Y-17147250I0J218750D01*
G01*
X44876000Y-16634750D01*
G75*
G02*
X45094750Y-16416000I218750J0D01*
G01*
X45532250Y-16416000D01*
G75*
G02*
X45751000Y-16634750I0J-218750D01*
G01*
G37*
G04 #@! TD.AperFunction*
G04 #@! TA.AperFunction,SMDPad,CuDef*
G36*
G01*
X47326000Y-16634750D02*
X47326000Y-17147250D01*
G75*
G02*
X47107250Y-17366000I-218750J0D01*
G01*
X46669750Y-17366000D01*
G75*
G02*
X46451000Y-17147250I0J218750D01*
G01*
X46451000Y-16634750D01*
G75*
G02*
X46669750Y-16416000I218750J0D01*
G01*
X47107250Y-16416000D01*
G75*
G02*
X47326000Y-16634750I0J-218750D01*
G01*
G37*
G04 #@! TD.AperFunction*
G04 #@! TA.AperFunction,SMDPad,CuDef*
G36*
G01*
X47326000Y-18158750D02*
X47326000Y-18671250D01*
G75*
G02*
X47107250Y-18890000I-218750J0D01*
G01*
X46669750Y-18890000D01*
G75*
G02*
X46451000Y-18671250I0J218750D01*
G01*
X46451000Y-18158750D01*
G75*
G02*
X46669750Y-17940000I218750J0D01*
G01*
X47107250Y-17940000D01*
G75*
G02*
X47326000Y-18158750I0J-218750D01*
G01*
G37*
G04 #@! TD.AperFunction*
G04 #@! TA.AperFunction,SMDPad,CuDef*
G36*
G01*
X45751000Y-18158750D02*
X45751000Y-18671250D01*
G75*
G02*
X45532250Y-18890000I-218750J0D01*
G01*
X45094750Y-18890000D01*
G75*
G02*
X44876000Y-18671250I0J218750D01*
G01*
X44876000Y-18158750D01*
G75*
G02*
X45094750Y-17940000I218750J0D01*
G01*
X45532250Y-17940000D01*
G75*
G02*
X45751000Y-18158750I0J-218750D01*
G01*
G37*
G04 #@! TD.AperFunction*
G04 #@! TA.AperFunction,SMDPad,CuDef*
G36*
G01*
X47326000Y-30350750D02*
X47326000Y-30863250D01*
G75*
G02*
X47107250Y-31082000I-218750J0D01*
G01*
X46669750Y-31082000D01*
G75*
G02*
X46451000Y-30863250I0J218750D01*
G01*
X46451000Y-30350750D01*
G75*
G02*
X46669750Y-30132000I218750J0D01*
G01*
X47107250Y-30132000D01*
G75*
G02*
X47326000Y-30350750I0J-218750D01*
G01*
G37*
G04 #@! TD.AperFunction*
G04 #@! TA.AperFunction,SMDPad,CuDef*
G36*
G01*
X45751000Y-30350750D02*
X45751000Y-30863250D01*
G75*
G02*
X45532250Y-31082000I-218750J0D01*
G01*
X45094750Y-31082000D01*
G75*
G02*
X44876000Y-30863250I0J218750D01*
G01*
X44876000Y-30350750D01*
G75*
G02*
X45094750Y-30132000I218750J0D01*
G01*
X45532250Y-30132000D01*
G75*
G02*
X45751000Y-30350750I0J-218750D01*
G01*
G37*
G04 #@! TD.AperFunction*
G04 #@! TA.AperFunction,SMDPad,CuDef*
G36*
G01*
X42703000Y-912150D02*
X42703000Y-1424650D01*
G75*
G02*
X42484250Y-1643400I-218750J0D01*
G01*
X42046750Y-1643400D01*
G75*
G02*
X41828000Y-1424650I0J218750D01*
G01*
X41828000Y-912150D01*
G75*
G02*
X42046750Y-693400I218750J0D01*
G01*
X42484250Y-693400D01*
G75*
G02*
X42703000Y-912150I0J-218750D01*
G01*
G37*
G04 #@! TD.AperFunction*
G04 #@! TA.AperFunction,SMDPad,CuDef*
G36*
G01*
X44278000Y-912150D02*
X44278000Y-1424650D01*
G75*
G02*
X44059250Y-1643400I-218750J0D01*
G01*
X43621750Y-1643400D01*
G75*
G02*
X43403000Y-1424650I0J218750D01*
G01*
X43403000Y-912150D01*
G75*
G02*
X43621750Y-693400I218750J0D01*
G01*
X44059250Y-693400D01*
G75*
G02*
X44278000Y-912150I0J-218750D01*
G01*
G37*
G04 #@! TD.AperFunction*
G04 #@! TA.AperFunction,SMDPad,CuDef*
G36*
G01*
X44278000Y-16634750D02*
X44278000Y-17147250D01*
G75*
G02*
X44059250Y-17366000I-218750J0D01*
G01*
X43621750Y-17366000D01*
G75*
G02*
X43403000Y-17147250I0J218750D01*
G01*
X43403000Y-16634750D01*
G75*
G02*
X43621750Y-16416000I218750J0D01*
G01*
X44059250Y-16416000D01*
G75*
G02*
X44278000Y-16634750I0J-218750D01*
G01*
G37*
G04 #@! TD.AperFunction*
G04 #@! TA.AperFunction,SMDPad,CuDef*
G36*
G01*
X42703000Y-16634750D02*
X42703000Y-17147250D01*
G75*
G02*
X42484250Y-17366000I-218750J0D01*
G01*
X42046750Y-17366000D01*
G75*
G02*
X41828000Y-17147250I0J218750D01*
G01*
X41828000Y-16634750D01*
G75*
G02*
X42046750Y-16416000I218750J0D01*
G01*
X42484250Y-16416000D01*
G75*
G02*
X42703000Y-16634750I0J-218750D01*
G01*
G37*
G04 #@! TD.AperFunction*
G04 #@! TA.AperFunction,SMDPad,CuDef*
G36*
G01*
X42703000Y-18158750D02*
X42703000Y-18671250D01*
G75*
G02*
X42484250Y-18890000I-218750J0D01*
G01*
X42046750Y-18890000D01*
G75*
G02*
X41828000Y-18671250I0J218750D01*
G01*
X41828000Y-18158750D01*
G75*
G02*
X42046750Y-17940000I218750J0D01*
G01*
X42484250Y-17940000D01*
G75*
G02*
X42703000Y-18158750I0J-218750D01*
G01*
G37*
G04 #@! TD.AperFunction*
G04 #@! TA.AperFunction,SMDPad,CuDef*
G36*
G01*
X44278000Y-18158750D02*
X44278000Y-18671250D01*
G75*
G02*
X44059250Y-18890000I-218750J0D01*
G01*
X43621750Y-18890000D01*
G75*
G02*
X43403000Y-18671250I0J218750D01*
G01*
X43403000Y-18158750D01*
G75*
G02*
X43621750Y-17940000I218750J0D01*
G01*
X44059250Y-17940000D01*
G75*
G02*
X44278000Y-18158750I0J-218750D01*
G01*
G37*
G04 #@! TD.AperFunction*
G04 #@! TA.AperFunction,SMDPad,CuDef*
G36*
G01*
X44278000Y-30350750D02*
X44278000Y-30863250D01*
G75*
G02*
X44059250Y-31082000I-218750J0D01*
G01*
X43621750Y-31082000D01*
G75*
G02*
X43403000Y-30863250I0J218750D01*
G01*
X43403000Y-30350750D01*
G75*
G02*
X43621750Y-30132000I218750J0D01*
G01*
X44059250Y-30132000D01*
G75*
G02*
X44278000Y-30350750I0J-218750D01*
G01*
G37*
G04 #@! TD.AperFunction*
G04 #@! TA.AperFunction,SMDPad,CuDef*
G36*
G01*
X42703000Y-30350750D02*
X42703000Y-30863250D01*
G75*
G02*
X42484250Y-31082000I-218750J0D01*
G01*
X42046750Y-31082000D01*
G75*
G02*
X41828000Y-30863250I0J218750D01*
G01*
X41828000Y-30350750D01*
G75*
G02*
X42046750Y-30132000I218750J0D01*
G01*
X42484250Y-30132000D01*
G75*
G02*
X42703000Y-30350750I0J-218750D01*
G01*
G37*
G04 #@! TD.AperFunction*
G04 #@! TA.AperFunction,SMDPad,CuDef*
G36*
G01*
X34922750Y-5049000D02*
X35435250Y-5049000D01*
G75*
G02*
X35654000Y-5267750I0J-218750D01*
G01*
X35654000Y-5705250D01*
G75*
G02*
X35435250Y-5924000I-218750J0D01*
G01*
X34922750Y-5924000D01*
G75*
G02*
X34704000Y-5705250I0J218750D01*
G01*
X34704000Y-5267750D01*
G75*
G02*
X34922750Y-5049000I218750J0D01*
G01*
G37*
G04 #@! TD.AperFunction*
G04 #@! TA.AperFunction,SMDPad,CuDef*
G36*
G01*
X34922750Y-3474000D02*
X35435250Y-3474000D01*
G75*
G02*
X35654000Y-3692750I0J-218750D01*
G01*
X35654000Y-4130250D01*
G75*
G02*
X35435250Y-4349000I-218750J0D01*
G01*
X34922750Y-4349000D01*
G75*
G02*
X34704000Y-4130250I0J218750D01*
G01*
X34704000Y-3692750D01*
G75*
G02*
X34922750Y-3474000I218750J0D01*
G01*
G37*
G04 #@! TD.AperFunction*
G04 #@! TA.AperFunction,SMDPad,CuDef*
G36*
G01*
X37242000Y-2791750D02*
X37242000Y-3304250D01*
G75*
G02*
X37023250Y-3523000I-218750J0D01*
G01*
X36585750Y-3523000D01*
G75*
G02*
X36367000Y-3304250I0J218750D01*
G01*
X36367000Y-2791750D01*
G75*
G02*
X36585750Y-2573000I218750J0D01*
G01*
X37023250Y-2573000D01*
G75*
G02*
X37242000Y-2791750I0J-218750D01*
G01*
G37*
G04 #@! TD.AperFunction*
G04 #@! TA.AperFunction,SMDPad,CuDef*
G36*
G01*
X38817000Y-2791750D02*
X38817000Y-3304250D01*
G75*
G02*
X38598250Y-3523000I-218750J0D01*
G01*
X38160750Y-3523000D01*
G75*
G02*
X37942000Y-3304250I0J218750D01*
G01*
X37942000Y-2791750D01*
G75*
G02*
X38160750Y-2573000I218750J0D01*
G01*
X38598250Y-2573000D01*
G75*
G02*
X38817000Y-2791750I0J-218750D01*
G01*
G37*
G04 #@! TD.AperFunction*
G04 #@! TA.AperFunction,SMDPad,CuDef*
G36*
G01*
X37242000Y-16253750D02*
X37242000Y-16766250D01*
G75*
G02*
X37023250Y-16985000I-218750J0D01*
G01*
X36585750Y-16985000D01*
G75*
G02*
X36367000Y-16766250I0J218750D01*
G01*
X36367000Y-16253750D01*
G75*
G02*
X36585750Y-16035000I218750J0D01*
G01*
X37023250Y-16035000D01*
G75*
G02*
X37242000Y-16253750I0J-218750D01*
G01*
G37*
G04 #@! TD.AperFunction*
G04 #@! TA.AperFunction,SMDPad,CuDef*
G36*
G01*
X38817000Y-16253750D02*
X38817000Y-16766250D01*
G75*
G02*
X38598250Y-16985000I-218750J0D01*
G01*
X38160750Y-16985000D01*
G75*
G02*
X37942000Y-16766250I0J218750D01*
G01*
X37942000Y-16253750D01*
G75*
G02*
X38160750Y-16035000I218750J0D01*
G01*
X38598250Y-16035000D01*
G75*
G02*
X38817000Y-16253750I0J-218750D01*
G01*
G37*
G04 #@! TD.AperFunction*
G04 #@! TA.AperFunction,SMDPad,CuDef*
G36*
G01*
X26794750Y-1315000D02*
X27307250Y-1315000D01*
G75*
G02*
X27526000Y-1533750I0J-218750D01*
G01*
X27526000Y-1971250D01*
G75*
G02*
X27307250Y-2190000I-218750J0D01*
G01*
X26794750Y-2190000D01*
G75*
G02*
X26576000Y-1971250I0J218750D01*
G01*
X26576000Y-1533750D01*
G75*
G02*
X26794750Y-1315000I218750J0D01*
G01*
G37*
G04 #@! TD.AperFunction*
G04 #@! TA.AperFunction,SMDPad,CuDef*
G36*
G01*
X26794750Y-2890000D02*
X27307250Y-2890000D01*
G75*
G02*
X27526000Y-3108750I0J-218750D01*
G01*
X27526000Y-3546250D01*
G75*
G02*
X27307250Y-3765000I-218750J0D01*
G01*
X26794750Y-3765000D01*
G75*
G02*
X26576000Y-3546250I0J218750D01*
G01*
X26576000Y-3108750D01*
G75*
G02*
X26794750Y-2890000I218750J0D01*
G01*
G37*
G04 #@! TD.AperFunction*
G04 #@! TA.AperFunction,SMDPad,CuDef*
G36*
G01*
X27909000Y-13591250D02*
X27909000Y-13078750D01*
G75*
G02*
X28127750Y-12860000I218750J0D01*
G01*
X28565250Y-12860000D01*
G75*
G02*
X28784000Y-13078750I0J-218750D01*
G01*
X28784000Y-13591250D01*
G75*
G02*
X28565250Y-13810000I-218750J0D01*
G01*
X28127750Y-13810000D01*
G75*
G02*
X27909000Y-13591250I0J218750D01*
G01*
G37*
G04 #@! TD.AperFunction*
G04 #@! TA.AperFunction,SMDPad,CuDef*
G36*
G01*
X26334000Y-13591250D02*
X26334000Y-13078750D01*
G75*
G02*
X26552750Y-12860000I218750J0D01*
G01*
X26990250Y-12860000D01*
G75*
G02*
X27209000Y-13078750I0J-218750D01*
G01*
X27209000Y-13591250D01*
G75*
G02*
X26990250Y-13810000I-218750J0D01*
G01*
X26552750Y-13810000D01*
G75*
G02*
X26334000Y-13591250I0J218750D01*
G01*
G37*
G04 #@! TD.AperFunction*
G04 #@! TA.AperFunction,SMDPad,CuDef*
G36*
G01*
X19687250Y-2190000D02*
X19174750Y-2190000D01*
G75*
G02*
X18956000Y-1971250I0J218750D01*
G01*
X18956000Y-1533750D01*
G75*
G02*
X19174750Y-1315000I218750J0D01*
G01*
X19687250Y-1315000D01*
G75*
G02*
X19906000Y-1533750I0J-218750D01*
G01*
X19906000Y-1971250D01*
G75*
G02*
X19687250Y-2190000I-218750J0D01*
G01*
G37*
G04 #@! TD.AperFunction*
G04 #@! TA.AperFunction,SMDPad,CuDef*
G36*
G01*
X19687250Y-3765000D02*
X19174750Y-3765000D01*
G75*
G02*
X18956000Y-3546250I0J218750D01*
G01*
X18956000Y-3108750D01*
G75*
G02*
X19174750Y-2890000I218750J0D01*
G01*
X19687250Y-2890000D01*
G75*
G02*
X19906000Y-3108750I0J-218750D01*
G01*
X19906000Y-3546250D01*
G75*
G02*
X19687250Y-3765000I-218750J0D01*
G01*
G37*
G04 #@! TD.AperFunction*
G04 #@! TA.AperFunction,SMDPad,CuDef*
G36*
G01*
X22222750Y-2890000D02*
X22735250Y-2890000D01*
G75*
G02*
X22954000Y-3108750I0J-218750D01*
G01*
X22954000Y-3546250D01*
G75*
G02*
X22735250Y-3765000I-218750J0D01*
G01*
X22222750Y-3765000D01*
G75*
G02*
X22004000Y-3546250I0J218750D01*
G01*
X22004000Y-3108750D01*
G75*
G02*
X22222750Y-2890000I218750J0D01*
G01*
G37*
G04 #@! TD.AperFunction*
G04 #@! TA.AperFunction,SMDPad,CuDef*
G36*
G01*
X22222750Y-1315000D02*
X22735250Y-1315000D01*
G75*
G02*
X22954000Y-1533750I0J-218750D01*
G01*
X22954000Y-1971250D01*
G75*
G02*
X22735250Y-2190000I-218750J0D01*
G01*
X22222750Y-2190000D01*
G75*
G02*
X22004000Y-1971250I0J218750D01*
G01*
X22004000Y-1533750D01*
G75*
G02*
X22222750Y-1315000I218750J0D01*
G01*
G37*
G04 #@! TD.AperFunction*
G04 #@! TA.AperFunction,SMDPad,CuDef*
G36*
G01*
X20698750Y-1315000D02*
X21211250Y-1315000D01*
G75*
G02*
X21430000Y-1533750I0J-218750D01*
G01*
X21430000Y-1971250D01*
G75*
G02*
X21211250Y-2190000I-218750J0D01*
G01*
X20698750Y-2190000D01*
G75*
G02*
X20480000Y-1971250I0J218750D01*
G01*
X20480000Y-1533750D01*
G75*
G02*
X20698750Y-1315000I218750J0D01*
G01*
G37*
G04 #@! TD.AperFunction*
G04 #@! TA.AperFunction,SMDPad,CuDef*
G36*
G01*
X20698750Y-2890000D02*
X21211250Y-2890000D01*
G75*
G02*
X21430000Y-3108750I0J-218750D01*
G01*
X21430000Y-3546250D01*
G75*
G02*
X21211250Y-3765000I-218750J0D01*
G01*
X20698750Y-3765000D01*
G75*
G02*
X20480000Y-3546250I0J218750D01*
G01*
X20480000Y-3108750D01*
G75*
G02*
X20698750Y-2890000I218750J0D01*
G01*
G37*
G04 #@! TD.AperFunction*
G04 #@! TA.AperFunction,SMDPad,CuDef*
G36*
G01*
X23116250Y-20148000D02*
X22603750Y-20148000D01*
G75*
G02*
X22385000Y-19929250I0J218750D01*
G01*
X22385000Y-19491750D01*
G75*
G02*
X22603750Y-19273000I218750J0D01*
G01*
X23116250Y-19273000D01*
G75*
G02*
X23335000Y-19491750I0J-218750D01*
G01*
X23335000Y-19929250D01*
G75*
G02*
X23116250Y-20148000I-218750J0D01*
G01*
G37*
G04 #@! TD.AperFunction*
G04 #@! TA.AperFunction,SMDPad,CuDef*
G36*
G01*
X23116250Y-18573000D02*
X22603750Y-18573000D01*
G75*
G02*
X22385000Y-18354250I0J218750D01*
G01*
X22385000Y-17916750D01*
G75*
G02*
X22603750Y-17698000I218750J0D01*
G01*
X23116250Y-17698000D01*
G75*
G02*
X23335000Y-17916750I0J-218750D01*
G01*
X23335000Y-18354250D01*
G75*
G02*
X23116250Y-18573000I-218750J0D01*
G01*
G37*
G04 #@! TD.AperFunction*
G04 #@! TA.AperFunction,SMDPad,CuDef*
G36*
G01*
X5784000Y-43382250D02*
X5784000Y-42469750D01*
G75*
G02*
X6027750Y-42226000I243750J0D01*
G01*
X6515250Y-42226000D01*
G75*
G02*
X6759000Y-42469750I0J-243750D01*
G01*
X6759000Y-43382250D01*
G75*
G02*
X6515250Y-43626000I-243750J0D01*
G01*
X6027750Y-43626000D01*
G75*
G02*
X5784000Y-43382250I0J243750D01*
G01*
G37*
G04 #@! TD.AperFunction*
G04 #@! TA.AperFunction,SMDPad,CuDef*
G36*
G01*
X3909000Y-43382250D02*
X3909000Y-42469750D01*
G75*
G02*
X4152750Y-42226000I243750J0D01*
G01*
X4640250Y-42226000D01*
G75*
G02*
X4884000Y-42469750I0J-243750D01*
G01*
X4884000Y-43382250D01*
G75*
G02*
X4640250Y-43626000I-243750J0D01*
G01*
X4152750Y-43626000D01*
G75*
G02*
X3909000Y-43382250I0J243750D01*
G01*
G37*
G04 #@! TD.AperFunction*
G04 #@! TA.AperFunction,SMDPad,CuDef*
G36*
G01*
X5784000Y-45541250D02*
X5784000Y-44628750D01*
G75*
G02*
X6027750Y-44385000I243750J0D01*
G01*
X6515250Y-44385000D01*
G75*
G02*
X6759000Y-44628750I0J-243750D01*
G01*
X6759000Y-45541250D01*
G75*
G02*
X6515250Y-45785000I-243750J0D01*
G01*
X6027750Y-45785000D01*
G75*
G02*
X5784000Y-45541250I0J243750D01*
G01*
G37*
G04 #@! TD.AperFunction*
G04 #@! TA.AperFunction,SMDPad,CuDef*
G36*
G01*
X3909000Y-45541250D02*
X3909000Y-44628750D01*
G75*
G02*
X4152750Y-44385000I243750J0D01*
G01*
X4640250Y-44385000D01*
G75*
G02*
X4884000Y-44628750I0J-243750D01*
G01*
X4884000Y-45541250D01*
G75*
G02*
X4640250Y-45785000I-243750J0D01*
G01*
X4152750Y-45785000D01*
G75*
G02*
X3909000Y-45541250I0J243750D01*
G01*
G37*
G04 #@! TD.AperFunction*
G04 #@! TA.AperFunction,SMDPad,CuDef*
G36*
G01*
X3909000Y-47700250D02*
X3909000Y-46787750D01*
G75*
G02*
X4152750Y-46544000I243750J0D01*
G01*
X4640250Y-46544000D01*
G75*
G02*
X4884000Y-46787750I0J-243750D01*
G01*
X4884000Y-47700250D01*
G75*
G02*
X4640250Y-47944000I-243750J0D01*
G01*
X4152750Y-47944000D01*
G75*
G02*
X3909000Y-47700250I0J243750D01*
G01*
G37*
G04 #@! TD.AperFunction*
G04 #@! TA.AperFunction,SMDPad,CuDef*
G36*
G01*
X5784000Y-47700250D02*
X5784000Y-46787750D01*
G75*
G02*
X6027750Y-46544000I243750J0D01*
G01*
X6515250Y-46544000D01*
G75*
G02*
X6759000Y-46787750I0J-243750D01*
G01*
X6759000Y-47700250D01*
G75*
G02*
X6515250Y-47944000I-243750J0D01*
G01*
X6027750Y-47944000D01*
G75*
G02*
X5784000Y-47700250I0J243750D01*
G01*
G37*
G04 #@! TD.AperFunction*
G04 #@! TA.AperFunction,SMDPad,CuDef*
G36*
G01*
X46200000Y-47446250D02*
X46200000Y-46533750D01*
G75*
G02*
X46443750Y-46290000I243750J0D01*
G01*
X46931250Y-46290000D01*
G75*
G02*
X47175000Y-46533750I0J-243750D01*
G01*
X47175000Y-47446250D01*
G75*
G02*
X46931250Y-47690000I-243750J0D01*
G01*
X46443750Y-47690000D01*
G75*
G02*
X46200000Y-47446250I0J243750D01*
G01*
G37*
G04 #@! TD.AperFunction*
G04 #@! TA.AperFunction,SMDPad,CuDef*
G36*
G01*
X48075000Y-47446250D02*
X48075000Y-46533750D01*
G75*
G02*
X48318750Y-46290000I243750J0D01*
G01*
X48806250Y-46290000D01*
G75*
G02*
X49050000Y-46533750I0J-243750D01*
G01*
X49050000Y-47446250D01*
G75*
G02*
X48806250Y-47690000I-243750J0D01*
G01*
X48318750Y-47690000D01*
G75*
G02*
X48075000Y-47446250I0J243750D01*
G01*
G37*
G04 #@! TD.AperFunction*
D13*
X15143000Y-4135500D03*
X14493000Y-4135500D03*
X13843000Y-4135500D03*
X13193000Y-4135500D03*
X12543000Y-4135500D03*
D14*
X17458000Y-3860500D03*
X10228000Y-3860500D03*
D15*
X17098000Y-1460500D03*
X10588000Y-1460500D03*
D16*
X15043000Y-1460500D03*
X12643000Y-1460500D03*
G04 #@! TA.AperFunction,SMDPad,CuDef*
G36*
G01*
X6225250Y-31146000D02*
X5712750Y-31146000D01*
G75*
G02*
X5494000Y-30927250I0J218750D01*
G01*
X5494000Y-30489750D01*
G75*
G02*
X5712750Y-30271000I218750J0D01*
G01*
X6225250Y-30271000D01*
G75*
G02*
X6444000Y-30489750I0J-218750D01*
G01*
X6444000Y-30927250D01*
G75*
G02*
X6225250Y-31146000I-218750J0D01*
G01*
G37*
G04 #@! TD.AperFunction*
G04 #@! TA.AperFunction,SMDPad,CuDef*
G36*
G01*
X6225250Y-32721000D02*
X5712750Y-32721000D01*
G75*
G02*
X5494000Y-32502250I0J218750D01*
G01*
X5494000Y-32064750D01*
G75*
G02*
X5712750Y-31846000I218750J0D01*
G01*
X6225250Y-31846000D01*
G75*
G02*
X6444000Y-32064750I0J-218750D01*
G01*
X6444000Y-32502250D01*
G75*
G02*
X6225250Y-32721000I-218750J0D01*
G01*
G37*
G04 #@! TD.AperFunction*
G04 #@! TA.AperFunction,SMDPad,CuDef*
G36*
G01*
X4701250Y-32721000D02*
X4188750Y-32721000D01*
G75*
G02*
X3970000Y-32502250I0J218750D01*
G01*
X3970000Y-32064750D01*
G75*
G02*
X4188750Y-31846000I218750J0D01*
G01*
X4701250Y-31846000D01*
G75*
G02*
X4920000Y-32064750I0J-218750D01*
G01*
X4920000Y-32502250D01*
G75*
G02*
X4701250Y-32721000I-218750J0D01*
G01*
G37*
G04 #@! TD.AperFunction*
G04 #@! TA.AperFunction,SMDPad,CuDef*
G36*
G01*
X4701250Y-31146000D02*
X4188750Y-31146000D01*
G75*
G02*
X3970000Y-30927250I0J218750D01*
G01*
X3970000Y-30489750D01*
G75*
G02*
X4188750Y-30271000I218750J0D01*
G01*
X4701250Y-30271000D01*
G75*
G02*
X4920000Y-30489750I0J-218750D01*
G01*
X4920000Y-30927250D01*
G75*
G02*
X4701250Y-31146000I-218750J0D01*
G01*
G37*
G04 #@! TD.AperFunction*
G04 #@! TA.AperFunction,SMDPad,CuDef*
G36*
G01*
X16888750Y-7741400D02*
X17401250Y-7741400D01*
G75*
G02*
X17620000Y-7960150I0J-218750D01*
G01*
X17620000Y-8397650D01*
G75*
G02*
X17401250Y-8616400I-218750J0D01*
G01*
X16888750Y-8616400D01*
G75*
G02*
X16670000Y-8397650I0J218750D01*
G01*
X16670000Y-7960150D01*
G75*
G02*
X16888750Y-7741400I218750J0D01*
G01*
G37*
G04 #@! TD.AperFunction*
G04 #@! TA.AperFunction,SMDPad,CuDef*
G36*
G01*
X16888750Y-6166400D02*
X17401250Y-6166400D01*
G75*
G02*
X17620000Y-6385150I0J-218750D01*
G01*
X17620000Y-6822650D01*
G75*
G02*
X17401250Y-7041400I-218750J0D01*
G01*
X16888750Y-7041400D01*
G75*
G02*
X16670000Y-6822650I0J218750D01*
G01*
X16670000Y-6385150D01*
G75*
G02*
X16888750Y-6166400I218750J0D01*
G01*
G37*
G04 #@! TD.AperFunction*
G04 #@! TA.AperFunction,SMDPad,CuDef*
G36*
G01*
X4188750Y-40355000D02*
X4701250Y-40355000D01*
G75*
G02*
X4920000Y-40573750I0J-218750D01*
G01*
X4920000Y-41011250D01*
G75*
G02*
X4701250Y-41230000I-218750J0D01*
G01*
X4188750Y-41230000D01*
G75*
G02*
X3970000Y-41011250I0J218750D01*
G01*
X3970000Y-40573750D01*
G75*
G02*
X4188750Y-40355000I218750J0D01*
G01*
G37*
G04 #@! TD.AperFunction*
G04 #@! TA.AperFunction,SMDPad,CuDef*
G36*
G01*
X4188750Y-38780000D02*
X4701250Y-38780000D01*
G75*
G02*
X4920000Y-38998750I0J-218750D01*
G01*
X4920000Y-39436250D01*
G75*
G02*
X4701250Y-39655000I-218750J0D01*
G01*
X4188750Y-39655000D01*
G75*
G02*
X3970000Y-39436250I0J218750D01*
G01*
X3970000Y-38998750D01*
G75*
G02*
X4188750Y-38780000I218750J0D01*
G01*
G37*
G04 #@! TD.AperFunction*
G04 #@! TA.AperFunction,SMDPad,CuDef*
G36*
G01*
X5712750Y-38780000D02*
X6225250Y-38780000D01*
G75*
G02*
X6444000Y-38998750I0J-218750D01*
G01*
X6444000Y-39436250D01*
G75*
G02*
X6225250Y-39655000I-218750J0D01*
G01*
X5712750Y-39655000D01*
G75*
G02*
X5494000Y-39436250I0J218750D01*
G01*
X5494000Y-38998750D01*
G75*
G02*
X5712750Y-38780000I218750J0D01*
G01*
G37*
G04 #@! TD.AperFunction*
G04 #@! TA.AperFunction,SMDPad,CuDef*
G36*
G01*
X5712750Y-40355000D02*
X6225250Y-40355000D01*
G75*
G02*
X6444000Y-40573750I0J-218750D01*
G01*
X6444000Y-41011250D01*
G75*
G02*
X6225250Y-41230000I-218750J0D01*
G01*
X5712750Y-41230000D01*
G75*
G02*
X5494000Y-41011250I0J218750D01*
G01*
X5494000Y-40573750D01*
G75*
G02*
X5712750Y-40355000I218750J0D01*
G01*
G37*
G04 #@! TD.AperFunction*
G04 #@! TA.AperFunction,SMDPad,CuDef*
G36*
G01*
X7236750Y-40355000D02*
X7749250Y-40355000D01*
G75*
G02*
X7968000Y-40573750I0J-218750D01*
G01*
X7968000Y-41011250D01*
G75*
G02*
X7749250Y-41230000I-218750J0D01*
G01*
X7236750Y-41230000D01*
G75*
G02*
X7018000Y-41011250I0J218750D01*
G01*
X7018000Y-40573750D01*
G75*
G02*
X7236750Y-40355000I218750J0D01*
G01*
G37*
G04 #@! TD.AperFunction*
G04 #@! TA.AperFunction,SMDPad,CuDef*
G36*
G01*
X7236750Y-38780000D02*
X7749250Y-38780000D01*
G75*
G02*
X7968000Y-38998750I0J-218750D01*
G01*
X7968000Y-39436250D01*
G75*
G02*
X7749250Y-39655000I-218750J0D01*
G01*
X7236750Y-39655000D01*
G75*
G02*
X7018000Y-39436250I0J218750D01*
G01*
X7018000Y-38998750D01*
G75*
G02*
X7236750Y-38780000I218750J0D01*
G01*
G37*
G04 #@! TD.AperFunction*
G04 #@! TA.AperFunction,SMDPad,CuDef*
G36*
G01*
X46527000Y-45341250D02*
X46527000Y-44828750D01*
G75*
G02*
X46745750Y-44610000I218750J0D01*
G01*
X47183250Y-44610000D01*
G75*
G02*
X47402000Y-44828750I0J-218750D01*
G01*
X47402000Y-45341250D01*
G75*
G02*
X47183250Y-45560000I-218750J0D01*
G01*
X46745750Y-45560000D01*
G75*
G02*
X46527000Y-45341250I0J218750D01*
G01*
G37*
G04 #@! TD.AperFunction*
G04 #@! TA.AperFunction,SMDPad,CuDef*
G36*
G01*
X48102000Y-45341250D02*
X48102000Y-44828750D01*
G75*
G02*
X48320750Y-44610000I218750J0D01*
G01*
X48758250Y-44610000D01*
G75*
G02*
X48977000Y-44828750I0J-218750D01*
G01*
X48977000Y-45341250D01*
G75*
G02*
X48758250Y-45560000I-218750J0D01*
G01*
X48320750Y-45560000D01*
G75*
G02*
X48102000Y-45341250I0J218750D01*
G01*
G37*
G04 #@! TD.AperFunction*
G04 #@! TA.AperFunction,SMDPad,CuDef*
G36*
G01*
X48946750Y-2207200D02*
X49859250Y-2207200D01*
G75*
G02*
X50103000Y-2450950I0J-243750D01*
G01*
X50103000Y-2938450D01*
G75*
G02*
X49859250Y-3182200I-243750J0D01*
G01*
X48946750Y-3182200D01*
G75*
G02*
X48703000Y-2938450I0J243750D01*
G01*
X48703000Y-2450950D01*
G75*
G02*
X48946750Y-2207200I243750J0D01*
G01*
G37*
G04 #@! TD.AperFunction*
G04 #@! TA.AperFunction,SMDPad,CuDef*
G36*
G01*
X48946750Y-4082200D02*
X49859250Y-4082200D01*
G75*
G02*
X50103000Y-4325950I0J-243750D01*
G01*
X50103000Y-4813450D01*
G75*
G02*
X49859250Y-5057200I-243750J0D01*
G01*
X48946750Y-5057200D01*
G75*
G02*
X48703000Y-4813450I0J243750D01*
G01*
X48703000Y-4325950D01*
G75*
G02*
X48946750Y-4082200I243750J0D01*
G01*
G37*
G04 #@! TD.AperFunction*
G04 #@! TA.AperFunction,SMDPad,CuDef*
G36*
G01*
X49859250Y-13901000D02*
X48946750Y-13901000D01*
G75*
G02*
X48703000Y-13657250I0J243750D01*
G01*
X48703000Y-13169750D01*
G75*
G02*
X48946750Y-12926000I243750J0D01*
G01*
X49859250Y-12926000D01*
G75*
G02*
X50103000Y-13169750I0J-243750D01*
G01*
X50103000Y-13657250D01*
G75*
G02*
X49859250Y-13901000I-243750J0D01*
G01*
G37*
G04 #@! TD.AperFunction*
G04 #@! TA.AperFunction,SMDPad,CuDef*
G36*
G01*
X49859250Y-15776000D02*
X48946750Y-15776000D01*
G75*
G02*
X48703000Y-15532250I0J243750D01*
G01*
X48703000Y-15044750D01*
G75*
G02*
X48946750Y-14801000I243750J0D01*
G01*
X49859250Y-14801000D01*
G75*
G02*
X50103000Y-15044750I0J-243750D01*
G01*
X50103000Y-15532250D01*
G75*
G02*
X49859250Y-15776000I-243750J0D01*
G01*
G37*
G04 #@! TD.AperFunction*
G04 #@! TA.AperFunction,SMDPad,CuDef*
G36*
G01*
X48946750Y-21405000D02*
X49859250Y-21405000D01*
G75*
G02*
X50103000Y-21648750I0J-243750D01*
G01*
X50103000Y-22136250D01*
G75*
G02*
X49859250Y-22380000I-243750J0D01*
G01*
X48946750Y-22380000D01*
G75*
G02*
X48703000Y-22136250I0J243750D01*
G01*
X48703000Y-21648750D01*
G75*
G02*
X48946750Y-21405000I243750J0D01*
G01*
G37*
G04 #@! TD.AperFunction*
G04 #@! TA.AperFunction,SMDPad,CuDef*
G36*
G01*
X48946750Y-19530000D02*
X49859250Y-19530000D01*
G75*
G02*
X50103000Y-19773750I0J-243750D01*
G01*
X50103000Y-20261250D01*
G75*
G02*
X49859250Y-20505000I-243750J0D01*
G01*
X48946750Y-20505000D01*
G75*
G02*
X48703000Y-20261250I0J243750D01*
G01*
X48703000Y-19773750D01*
G75*
G02*
X48946750Y-19530000I243750J0D01*
G01*
G37*
G04 #@! TD.AperFunction*
G04 #@! TA.AperFunction,SMDPad,CuDef*
G36*
G01*
X49859250Y-29492000D02*
X48946750Y-29492000D01*
G75*
G02*
X48703000Y-29248250I0J243750D01*
G01*
X48703000Y-28760750D01*
G75*
G02*
X48946750Y-28517000I243750J0D01*
G01*
X49859250Y-28517000D01*
G75*
G02*
X50103000Y-28760750I0J-243750D01*
G01*
X50103000Y-29248250D01*
G75*
G02*
X49859250Y-29492000I-243750J0D01*
G01*
G37*
G04 #@! TD.AperFunction*
G04 #@! TA.AperFunction,SMDPad,CuDef*
G36*
G01*
X49859250Y-27617000D02*
X48946750Y-27617000D01*
G75*
G02*
X48703000Y-27373250I0J243750D01*
G01*
X48703000Y-26885750D01*
G75*
G02*
X48946750Y-26642000I243750J0D01*
G01*
X49859250Y-26642000D01*
G75*
G02*
X50103000Y-26885750I0J-243750D01*
G01*
X50103000Y-27373250D01*
G75*
G02*
X49859250Y-27617000I-243750J0D01*
G01*
G37*
G04 #@! TD.AperFunction*
G04 #@! TA.AperFunction,SMDPad,CuDef*
G36*
G01*
X46451000Y-2872450D02*
X46451000Y-2359950D01*
G75*
G02*
X46669750Y-2141200I218750J0D01*
G01*
X47107250Y-2141200D01*
G75*
G02*
X47326000Y-2359950I0J-218750D01*
G01*
X47326000Y-2872450D01*
G75*
G02*
X47107250Y-3091200I-218750J0D01*
G01*
X46669750Y-3091200D01*
G75*
G02*
X46451000Y-2872450I0J218750D01*
G01*
G37*
G04 #@! TD.AperFunction*
G04 #@! TA.AperFunction,SMDPad,CuDef*
G36*
G01*
X44876000Y-2872450D02*
X44876000Y-2359950D01*
G75*
G02*
X45094750Y-2141200I218750J0D01*
G01*
X45532250Y-2141200D01*
G75*
G02*
X45751000Y-2359950I0J-218750D01*
G01*
X45751000Y-2872450D01*
G75*
G02*
X45532250Y-3091200I-218750J0D01*
G01*
X45094750Y-3091200D01*
G75*
G02*
X44876000Y-2872450I0J218750D01*
G01*
G37*
G04 #@! TD.AperFunction*
G04 #@! TA.AperFunction,SMDPad,CuDef*
G36*
G01*
X44876000Y-15623250D02*
X44876000Y-15110750D01*
G75*
G02*
X45094750Y-14892000I218750J0D01*
G01*
X45532250Y-14892000D01*
G75*
G02*
X45751000Y-15110750I0J-218750D01*
G01*
X45751000Y-15623250D01*
G75*
G02*
X45532250Y-15842000I-218750J0D01*
G01*
X45094750Y-15842000D01*
G75*
G02*
X44876000Y-15623250I0J218750D01*
G01*
G37*
G04 #@! TD.AperFunction*
G04 #@! TA.AperFunction,SMDPad,CuDef*
G36*
G01*
X46451000Y-15623250D02*
X46451000Y-15110750D01*
G75*
G02*
X46669750Y-14892000I218750J0D01*
G01*
X47107250Y-14892000D01*
G75*
G02*
X47326000Y-15110750I0J-218750D01*
G01*
X47326000Y-15623250D01*
G75*
G02*
X47107250Y-15842000I-218750J0D01*
G01*
X46669750Y-15842000D01*
G75*
G02*
X46451000Y-15623250I0J218750D01*
G01*
G37*
G04 #@! TD.AperFunction*
G04 #@! TA.AperFunction,SMDPad,CuDef*
G36*
G01*
X46451000Y-20195250D02*
X46451000Y-19682750D01*
G75*
G02*
X46669750Y-19464000I218750J0D01*
G01*
X47107250Y-19464000D01*
G75*
G02*
X47326000Y-19682750I0J-218750D01*
G01*
X47326000Y-20195250D01*
G75*
G02*
X47107250Y-20414000I-218750J0D01*
G01*
X46669750Y-20414000D01*
G75*
G02*
X46451000Y-20195250I0J218750D01*
G01*
G37*
G04 #@! TD.AperFunction*
G04 #@! TA.AperFunction,SMDPad,CuDef*
G36*
G01*
X44876000Y-20195250D02*
X44876000Y-19682750D01*
G75*
G02*
X45094750Y-19464000I218750J0D01*
G01*
X45532250Y-19464000D01*
G75*
G02*
X45751000Y-19682750I0J-218750D01*
G01*
X45751000Y-20195250D01*
G75*
G02*
X45532250Y-20414000I-218750J0D01*
G01*
X45094750Y-20414000D01*
G75*
G02*
X44876000Y-20195250I0J218750D01*
G01*
G37*
G04 #@! TD.AperFunction*
G04 #@! TA.AperFunction,SMDPad,CuDef*
G36*
G01*
X46451000Y-29339250D02*
X46451000Y-28826750D01*
G75*
G02*
X46669750Y-28608000I218750J0D01*
G01*
X47107250Y-28608000D01*
G75*
G02*
X47326000Y-28826750I0J-218750D01*
G01*
X47326000Y-29339250D01*
G75*
G02*
X47107250Y-29558000I-218750J0D01*
G01*
X46669750Y-29558000D01*
G75*
G02*
X46451000Y-29339250I0J218750D01*
G01*
G37*
G04 #@! TD.AperFunction*
G04 #@! TA.AperFunction,SMDPad,CuDef*
G36*
G01*
X44876000Y-29339250D02*
X44876000Y-28826750D01*
G75*
G02*
X45094750Y-28608000I218750J0D01*
G01*
X45532250Y-28608000D01*
G75*
G02*
X45751000Y-28826750I0J-218750D01*
G01*
X45751000Y-29339250D01*
G75*
G02*
X45532250Y-29558000I-218750J0D01*
G01*
X45094750Y-29558000D01*
G75*
G02*
X44876000Y-29339250I0J218750D01*
G01*
G37*
G04 #@! TD.AperFunction*
G04 #@! TA.AperFunction,SMDPad,CuDef*
G36*
G01*
X30355250Y-3765000D02*
X29842750Y-3765000D01*
G75*
G02*
X29624000Y-3546250I0J218750D01*
G01*
X29624000Y-3108750D01*
G75*
G02*
X29842750Y-2890000I218750J0D01*
G01*
X30355250Y-2890000D01*
G75*
G02*
X30574000Y-3108750I0J-218750D01*
G01*
X30574000Y-3546250D01*
G75*
G02*
X30355250Y-3765000I-218750J0D01*
G01*
G37*
G04 #@! TD.AperFunction*
G04 #@! TA.AperFunction,SMDPad,CuDef*
G36*
G01*
X30355250Y-2190000D02*
X29842750Y-2190000D01*
G75*
G02*
X29624000Y-1971250I0J218750D01*
G01*
X29624000Y-1533750D01*
G75*
G02*
X29842750Y-1315000I218750J0D01*
G01*
X30355250Y-1315000D01*
G75*
G02*
X30574000Y-1533750I0J-218750D01*
G01*
X30574000Y-1971250D01*
G75*
G02*
X30355250Y-2190000I-218750J0D01*
G01*
G37*
G04 #@! TD.AperFunction*
G04 #@! TA.AperFunction,SMDPad,CuDef*
G36*
G01*
X41828000Y-2872450D02*
X41828000Y-2359950D01*
G75*
G02*
X42046750Y-2141200I218750J0D01*
G01*
X42484250Y-2141200D01*
G75*
G02*
X42703000Y-2359950I0J-218750D01*
G01*
X42703000Y-2872450D01*
G75*
G02*
X42484250Y-3091200I-218750J0D01*
G01*
X42046750Y-3091200D01*
G75*
G02*
X41828000Y-2872450I0J218750D01*
G01*
G37*
G04 #@! TD.AperFunction*
G04 #@! TA.AperFunction,SMDPad,CuDef*
G36*
G01*
X43403000Y-2872450D02*
X43403000Y-2359950D01*
G75*
G02*
X43621750Y-2141200I218750J0D01*
G01*
X44059250Y-2141200D01*
G75*
G02*
X44278000Y-2359950I0J-218750D01*
G01*
X44278000Y-2872450D01*
G75*
G02*
X44059250Y-3091200I-218750J0D01*
G01*
X43621750Y-3091200D01*
G75*
G02*
X43403000Y-2872450I0J218750D01*
G01*
G37*
G04 #@! TD.AperFunction*
G04 #@! TA.AperFunction,SMDPad,CuDef*
G36*
G01*
X41828000Y-15623250D02*
X41828000Y-15110750D01*
G75*
G02*
X42046750Y-14892000I218750J0D01*
G01*
X42484250Y-14892000D01*
G75*
G02*
X42703000Y-15110750I0J-218750D01*
G01*
X42703000Y-15623250D01*
G75*
G02*
X42484250Y-15842000I-218750J0D01*
G01*
X42046750Y-15842000D01*
G75*
G02*
X41828000Y-15623250I0J218750D01*
G01*
G37*
G04 #@! TD.AperFunction*
G04 #@! TA.AperFunction,SMDPad,CuDef*
G36*
G01*
X43403000Y-15623250D02*
X43403000Y-15110750D01*
G75*
G02*
X43621750Y-14892000I218750J0D01*
G01*
X44059250Y-14892000D01*
G75*
G02*
X44278000Y-15110750I0J-218750D01*
G01*
X44278000Y-15623250D01*
G75*
G02*
X44059250Y-15842000I-218750J0D01*
G01*
X43621750Y-15842000D01*
G75*
G02*
X43403000Y-15623250I0J218750D01*
G01*
G37*
G04 #@! TD.AperFunction*
G04 #@! TA.AperFunction,SMDPad,CuDef*
G36*
G01*
X41828000Y-20195250D02*
X41828000Y-19682750D01*
G75*
G02*
X42046750Y-19464000I218750J0D01*
G01*
X42484250Y-19464000D01*
G75*
G02*
X42703000Y-19682750I0J-218750D01*
G01*
X42703000Y-20195250D01*
G75*
G02*
X42484250Y-20414000I-218750J0D01*
G01*
X42046750Y-20414000D01*
G75*
G02*
X41828000Y-20195250I0J218750D01*
G01*
G37*
G04 #@! TD.AperFunction*
G04 #@! TA.AperFunction,SMDPad,CuDef*
G36*
G01*
X43403000Y-20195250D02*
X43403000Y-19682750D01*
G75*
G02*
X43621750Y-19464000I218750J0D01*
G01*
X44059250Y-19464000D01*
G75*
G02*
X44278000Y-19682750I0J-218750D01*
G01*
X44278000Y-20195250D01*
G75*
G02*
X44059250Y-20414000I-218750J0D01*
G01*
X43621750Y-20414000D01*
G75*
G02*
X43403000Y-20195250I0J218750D01*
G01*
G37*
G04 #@! TD.AperFunction*
G04 #@! TA.AperFunction,SMDPad,CuDef*
G36*
G01*
X41828000Y-29339250D02*
X41828000Y-28826750D01*
G75*
G02*
X42046750Y-28608000I218750J0D01*
G01*
X42484250Y-28608000D01*
G75*
G02*
X42703000Y-28826750I0J-218750D01*
G01*
X42703000Y-29339250D01*
G75*
G02*
X42484250Y-29558000I-218750J0D01*
G01*
X42046750Y-29558000D01*
G75*
G02*
X41828000Y-29339250I0J218750D01*
G01*
G37*
G04 #@! TD.AperFunction*
G04 #@! TA.AperFunction,SMDPad,CuDef*
G36*
G01*
X43403000Y-29339250D02*
X43403000Y-28826750D01*
G75*
G02*
X43621750Y-28608000I218750J0D01*
G01*
X44059250Y-28608000D01*
G75*
G02*
X44278000Y-28826750I0J-218750D01*
G01*
X44278000Y-29339250D01*
G75*
G02*
X44059250Y-29558000I-218750J0D01*
G01*
X43621750Y-29558000D01*
G75*
G02*
X43403000Y-29339250I0J218750D01*
G01*
G37*
G04 #@! TD.AperFunction*
G04 #@! TA.AperFunction,SMDPad,CuDef*
G36*
G01*
X28318750Y-1315000D02*
X28831250Y-1315000D01*
G75*
G02*
X29050000Y-1533750I0J-218750D01*
G01*
X29050000Y-1971250D01*
G75*
G02*
X28831250Y-2190000I-218750J0D01*
G01*
X28318750Y-2190000D01*
G75*
G02*
X28100000Y-1971250I0J218750D01*
G01*
X28100000Y-1533750D01*
G75*
G02*
X28318750Y-1315000I218750J0D01*
G01*
G37*
G04 #@! TD.AperFunction*
G04 #@! TA.AperFunction,SMDPad,CuDef*
G36*
G01*
X28318750Y-2890000D02*
X28831250Y-2890000D01*
G75*
G02*
X29050000Y-3108750I0J-218750D01*
G01*
X29050000Y-3546250D01*
G75*
G02*
X28831250Y-3765000I-218750J0D01*
G01*
X28318750Y-3765000D01*
G75*
G02*
X28100000Y-3546250I0J218750D01*
G01*
X28100000Y-3108750D01*
G75*
G02*
X28318750Y-2890000I218750J0D01*
G01*
G37*
G04 #@! TD.AperFunction*
G04 #@! TA.AperFunction,SMDPad,CuDef*
G36*
G01*
X42034750Y-5176000D02*
X42547250Y-5176000D01*
G75*
G02*
X42766000Y-5394750I0J-218750D01*
G01*
X42766000Y-5832250D01*
G75*
G02*
X42547250Y-6051000I-218750J0D01*
G01*
X42034750Y-6051000D01*
G75*
G02*
X41816000Y-5832250I0J218750D01*
G01*
X41816000Y-5394750D01*
G75*
G02*
X42034750Y-5176000I218750J0D01*
G01*
G37*
G04 #@! TD.AperFunction*
G04 #@! TA.AperFunction,SMDPad,CuDef*
G36*
G01*
X42034750Y-3601000D02*
X42547250Y-3601000D01*
G75*
G02*
X42766000Y-3819750I0J-218750D01*
G01*
X42766000Y-4257250D01*
G75*
G02*
X42547250Y-4476000I-218750J0D01*
G01*
X42034750Y-4476000D01*
G75*
G02*
X41816000Y-4257250I0J218750D01*
G01*
X41816000Y-3819750D01*
G75*
G02*
X42034750Y-3601000I218750J0D01*
G01*
G37*
G04 #@! TD.AperFunction*
G04 #@! TA.AperFunction,SMDPad,CuDef*
G36*
G01*
X42547250Y-12731000D02*
X42034750Y-12731000D01*
G75*
G02*
X41816000Y-12512250I0J218750D01*
G01*
X41816000Y-12074750D01*
G75*
G02*
X42034750Y-11856000I218750J0D01*
G01*
X42547250Y-11856000D01*
G75*
G02*
X42766000Y-12074750I0J-218750D01*
G01*
X42766000Y-12512250D01*
G75*
G02*
X42547250Y-12731000I-218750J0D01*
G01*
G37*
G04 #@! TD.AperFunction*
G04 #@! TA.AperFunction,SMDPad,CuDef*
G36*
G01*
X42547250Y-14306000D02*
X42034750Y-14306000D01*
G75*
G02*
X41816000Y-14087250I0J218750D01*
G01*
X41816000Y-13649750D01*
G75*
G02*
X42034750Y-13431000I218750J0D01*
G01*
X42547250Y-13431000D01*
G75*
G02*
X42766000Y-13649750I0J-218750D01*
G01*
X42766000Y-14087250D01*
G75*
G02*
X42547250Y-14306000I-218750J0D01*
G01*
G37*
G04 #@! TD.AperFunction*
G04 #@! TA.AperFunction,SMDPad,CuDef*
G36*
G01*
X42034750Y-21000000D02*
X42547250Y-21000000D01*
G75*
G02*
X42766000Y-21218750I0J-218750D01*
G01*
X42766000Y-21656250D01*
G75*
G02*
X42547250Y-21875000I-218750J0D01*
G01*
X42034750Y-21875000D01*
G75*
G02*
X41816000Y-21656250I0J218750D01*
G01*
X41816000Y-21218750D01*
G75*
G02*
X42034750Y-21000000I218750J0D01*
G01*
G37*
G04 #@! TD.AperFunction*
G04 #@! TA.AperFunction,SMDPad,CuDef*
G36*
G01*
X42034750Y-22575000D02*
X42547250Y-22575000D01*
G75*
G02*
X42766000Y-22793750I0J-218750D01*
G01*
X42766000Y-23231250D01*
G75*
G02*
X42547250Y-23450000I-218750J0D01*
G01*
X42034750Y-23450000D01*
G75*
G02*
X41816000Y-23231250I0J218750D01*
G01*
X41816000Y-22793750D01*
G75*
G02*
X42034750Y-22575000I218750J0D01*
G01*
G37*
G04 #@! TD.AperFunction*
G04 #@! TA.AperFunction,SMDPad,CuDef*
G36*
G01*
X42547250Y-26447000D02*
X42034750Y-26447000D01*
G75*
G02*
X41816000Y-26228250I0J218750D01*
G01*
X41816000Y-25790750D01*
G75*
G02*
X42034750Y-25572000I218750J0D01*
G01*
X42547250Y-25572000D01*
G75*
G02*
X42766000Y-25790750I0J-218750D01*
G01*
X42766000Y-26228250D01*
G75*
G02*
X42547250Y-26447000I-218750J0D01*
G01*
G37*
G04 #@! TD.AperFunction*
G04 #@! TA.AperFunction,SMDPad,CuDef*
G36*
G01*
X42547250Y-28022000D02*
X42034750Y-28022000D01*
G75*
G02*
X41816000Y-27803250I0J218750D01*
G01*
X41816000Y-27365750D01*
G75*
G02*
X42034750Y-27147000I218750J0D01*
G01*
X42547250Y-27147000D01*
G75*
G02*
X42766000Y-27365750I0J-218750D01*
G01*
X42766000Y-27803250D01*
G75*
G02*
X42547250Y-28022000I-218750J0D01*
G01*
G37*
G04 #@! TD.AperFunction*
G04 #@! TA.AperFunction,SMDPad,CuDef*
G36*
G01*
X32890750Y-8224000D02*
X33403250Y-8224000D01*
G75*
G02*
X33622000Y-8442750I0J-218750D01*
G01*
X33622000Y-8880250D01*
G75*
G02*
X33403250Y-9099000I-218750J0D01*
G01*
X32890750Y-9099000D01*
G75*
G02*
X32672000Y-8880250I0J218750D01*
G01*
X32672000Y-8442750D01*
G75*
G02*
X32890750Y-8224000I218750J0D01*
G01*
G37*
G04 #@! TD.AperFunction*
G04 #@! TA.AperFunction,SMDPad,CuDef*
G36*
G01*
X32890750Y-6649000D02*
X33403250Y-6649000D01*
G75*
G02*
X33622000Y-6867750I0J-218750D01*
G01*
X33622000Y-7305250D01*
G75*
G02*
X33403250Y-7524000I-218750J0D01*
G01*
X32890750Y-7524000D01*
G75*
G02*
X32672000Y-7305250I0J218750D01*
G01*
X32672000Y-6867750D01*
G75*
G02*
X32890750Y-6649000I218750J0D01*
G01*
G37*
G04 #@! TD.AperFunction*
G04 #@! TA.AperFunction,SMDPad,CuDef*
G36*
G01*
X34414750Y-6649000D02*
X34927250Y-6649000D01*
G75*
G02*
X35146000Y-6867750I0J-218750D01*
G01*
X35146000Y-7305250D01*
G75*
G02*
X34927250Y-7524000I-218750J0D01*
G01*
X34414750Y-7524000D01*
G75*
G02*
X34196000Y-7305250I0J218750D01*
G01*
X34196000Y-6867750D01*
G75*
G02*
X34414750Y-6649000I218750J0D01*
G01*
G37*
G04 #@! TD.AperFunction*
G04 #@! TA.AperFunction,SMDPad,CuDef*
G36*
G01*
X34414750Y-8224000D02*
X34927250Y-8224000D01*
G75*
G02*
X35146000Y-8442750I0J-218750D01*
G01*
X35146000Y-8880250D01*
G75*
G02*
X34927250Y-9099000I-218750J0D01*
G01*
X34414750Y-9099000D01*
G75*
G02*
X34196000Y-8880250I0J218750D01*
G01*
X34196000Y-8442750D01*
G75*
G02*
X34414750Y-8224000I218750J0D01*
G01*
G37*
G04 #@! TD.AperFunction*
G04 #@! TA.AperFunction,SMDPad,CuDef*
G36*
G01*
X33403250Y-10572000D02*
X32890750Y-10572000D01*
G75*
G02*
X32672000Y-10353250I0J218750D01*
G01*
X32672000Y-9915750D01*
G75*
G02*
X32890750Y-9697000I218750J0D01*
G01*
X33403250Y-9697000D01*
G75*
G02*
X33622000Y-9915750I0J-218750D01*
G01*
X33622000Y-10353250D01*
G75*
G02*
X33403250Y-10572000I-218750J0D01*
G01*
G37*
G04 #@! TD.AperFunction*
G04 #@! TA.AperFunction,SMDPad,CuDef*
G36*
G01*
X33403250Y-12147000D02*
X32890750Y-12147000D01*
G75*
G02*
X32672000Y-11928250I0J218750D01*
G01*
X32672000Y-11490750D01*
G75*
G02*
X32890750Y-11272000I218750J0D01*
G01*
X33403250Y-11272000D01*
G75*
G02*
X33622000Y-11490750I0J-218750D01*
G01*
X33622000Y-11928250D01*
G75*
G02*
X33403250Y-12147000I-218750J0D01*
G01*
G37*
G04 #@! TD.AperFunction*
G04 #@! TA.AperFunction,SMDPad,CuDef*
G36*
G01*
X34927250Y-12147000D02*
X34414750Y-12147000D01*
G75*
G02*
X34196000Y-11928250I0J218750D01*
G01*
X34196000Y-11490750D01*
G75*
G02*
X34414750Y-11272000I218750J0D01*
G01*
X34927250Y-11272000D01*
G75*
G02*
X35146000Y-11490750I0J-218750D01*
G01*
X35146000Y-11928250D01*
G75*
G02*
X34927250Y-12147000I-218750J0D01*
G01*
G37*
G04 #@! TD.AperFunction*
G04 #@! TA.AperFunction,SMDPad,CuDef*
G36*
G01*
X34927250Y-10572000D02*
X34414750Y-10572000D01*
G75*
G02*
X34196000Y-10353250I0J218750D01*
G01*
X34196000Y-9915750D01*
G75*
G02*
X34414750Y-9697000I218750J0D01*
G01*
X34927250Y-9697000D01*
G75*
G02*
X35146000Y-9915750I0J-218750D01*
G01*
X35146000Y-10353250D01*
G75*
G02*
X34927250Y-10572000I-218750J0D01*
G01*
G37*
G04 #@! TD.AperFunction*
G04 #@! TA.AperFunction,SMDPad,CuDef*
G36*
G01*
X31366750Y-8224000D02*
X31879250Y-8224000D01*
G75*
G02*
X32098000Y-8442750I0J-218750D01*
G01*
X32098000Y-8880250D01*
G75*
G02*
X31879250Y-9099000I-218750J0D01*
G01*
X31366750Y-9099000D01*
G75*
G02*
X31148000Y-8880250I0J218750D01*
G01*
X31148000Y-8442750D01*
G75*
G02*
X31366750Y-8224000I218750J0D01*
G01*
G37*
G04 #@! TD.AperFunction*
G04 #@! TA.AperFunction,SMDPad,CuDef*
G36*
G01*
X31366750Y-6649000D02*
X31879250Y-6649000D01*
G75*
G02*
X32098000Y-6867750I0J-218750D01*
G01*
X32098000Y-7305250D01*
G75*
G02*
X31879250Y-7524000I-218750J0D01*
G01*
X31366750Y-7524000D01*
G75*
G02*
X31148000Y-7305250I0J218750D01*
G01*
X31148000Y-6867750D01*
G75*
G02*
X31366750Y-6649000I218750J0D01*
G01*
G37*
G04 #@! TD.AperFunction*
G04 #@! TA.AperFunction,SMDPad,CuDef*
G36*
G01*
X31879250Y-12147000D02*
X31366750Y-12147000D01*
G75*
G02*
X31148000Y-11928250I0J218750D01*
G01*
X31148000Y-11490750D01*
G75*
G02*
X31366750Y-11272000I218750J0D01*
G01*
X31879250Y-11272000D01*
G75*
G02*
X32098000Y-11490750I0J-218750D01*
G01*
X32098000Y-11928250D01*
G75*
G02*
X31879250Y-12147000I-218750J0D01*
G01*
G37*
G04 #@! TD.AperFunction*
G04 #@! TA.AperFunction,SMDPad,CuDef*
G36*
G01*
X31879250Y-10572000D02*
X31366750Y-10572000D01*
G75*
G02*
X31148000Y-10353250I0J218750D01*
G01*
X31148000Y-9915750D01*
G75*
G02*
X31366750Y-9697000I218750J0D01*
G01*
X31879250Y-9697000D01*
G75*
G02*
X32098000Y-9915750I0J-218750D01*
G01*
X32098000Y-10353250D01*
G75*
G02*
X31879250Y-10572000I-218750J0D01*
G01*
G37*
G04 #@! TD.AperFunction*
G04 #@! TA.AperFunction,SMDPad,CuDef*
G36*
G01*
X21465250Y-24669000D02*
X20952750Y-24669000D01*
G75*
G02*
X20734000Y-24450250I0J218750D01*
G01*
X20734000Y-24012750D01*
G75*
G02*
X20952750Y-23794000I218750J0D01*
G01*
X21465250Y-23794000D01*
G75*
G02*
X21684000Y-24012750I0J-218750D01*
G01*
X21684000Y-24450250D01*
G75*
G02*
X21465250Y-24669000I-218750J0D01*
G01*
G37*
G04 #@! TD.AperFunction*
G04 #@! TA.AperFunction,SMDPad,CuDef*
G36*
G01*
X21465250Y-26244000D02*
X20952750Y-26244000D01*
G75*
G02*
X20734000Y-26025250I0J218750D01*
G01*
X20734000Y-25587750D01*
G75*
G02*
X20952750Y-25369000I218750J0D01*
G01*
X21465250Y-25369000D01*
G75*
G02*
X21684000Y-25587750I0J-218750D01*
G01*
X21684000Y-26025250D01*
G75*
G02*
X21465250Y-26244000I-218750J0D01*
G01*
G37*
G04 #@! TD.AperFunction*
G04 #@! TA.AperFunction,SMDPad,CuDef*
G36*
G01*
X21465250Y-21621000D02*
X20952750Y-21621000D01*
G75*
G02*
X20734000Y-21402250I0J218750D01*
G01*
X20734000Y-20964750D01*
G75*
G02*
X20952750Y-20746000I218750J0D01*
G01*
X21465250Y-20746000D01*
G75*
G02*
X21684000Y-20964750I0J-218750D01*
G01*
X21684000Y-21402250D01*
G75*
G02*
X21465250Y-21621000I-218750J0D01*
G01*
G37*
G04 #@! TD.AperFunction*
G04 #@! TA.AperFunction,SMDPad,CuDef*
G36*
G01*
X21465250Y-23196000D02*
X20952750Y-23196000D01*
G75*
G02*
X20734000Y-22977250I0J218750D01*
G01*
X20734000Y-22539750D01*
G75*
G02*
X20952750Y-22321000I218750J0D01*
G01*
X21465250Y-22321000D01*
G75*
G02*
X21684000Y-22539750I0J-218750D01*
G01*
X21684000Y-22977250D01*
G75*
G02*
X21465250Y-23196000I-218750J0D01*
G01*
G37*
G04 #@! TD.AperFunction*
G04 #@! TA.AperFunction,SMDPad,CuDef*
G36*
G01*
X20952750Y-19273000D02*
X21465250Y-19273000D01*
G75*
G02*
X21684000Y-19491750I0J-218750D01*
G01*
X21684000Y-19929250D01*
G75*
G02*
X21465250Y-20148000I-218750J0D01*
G01*
X20952750Y-20148000D01*
G75*
G02*
X20734000Y-19929250I0J218750D01*
G01*
X20734000Y-19491750D01*
G75*
G02*
X20952750Y-19273000I218750J0D01*
G01*
G37*
G04 #@! TD.AperFunction*
G04 #@! TA.AperFunction,SMDPad,CuDef*
G36*
G01*
X20952750Y-17698000D02*
X21465250Y-17698000D01*
G75*
G02*
X21684000Y-17916750I0J-218750D01*
G01*
X21684000Y-18354250D01*
G75*
G02*
X21465250Y-18573000I-218750J0D01*
G01*
X20952750Y-18573000D01*
G75*
G02*
X20734000Y-18354250I0J218750D01*
G01*
X20734000Y-17916750D01*
G75*
G02*
X20952750Y-17698000I218750J0D01*
G01*
G37*
G04 #@! TD.AperFunction*
G04 #@! TA.AperFunction,SMDPad,CuDef*
G36*
G01*
X19814250Y-26244000D02*
X19301750Y-26244000D01*
G75*
G02*
X19083000Y-26025250I0J218750D01*
G01*
X19083000Y-25587750D01*
G75*
G02*
X19301750Y-25369000I218750J0D01*
G01*
X19814250Y-25369000D01*
G75*
G02*
X20033000Y-25587750I0J-218750D01*
G01*
X20033000Y-26025250D01*
G75*
G02*
X19814250Y-26244000I-218750J0D01*
G01*
G37*
G04 #@! TD.AperFunction*
G04 #@! TA.AperFunction,SMDPad,CuDef*
G36*
G01*
X19814250Y-24669000D02*
X19301750Y-24669000D01*
G75*
G02*
X19083000Y-24450250I0J218750D01*
G01*
X19083000Y-24012750D01*
G75*
G02*
X19301750Y-23794000I218750J0D01*
G01*
X19814250Y-23794000D01*
G75*
G02*
X20033000Y-24012750I0J-218750D01*
G01*
X20033000Y-24450250D01*
G75*
G02*
X19814250Y-24669000I-218750J0D01*
G01*
G37*
G04 #@! TD.AperFunction*
G04 #@! TA.AperFunction,SMDPad,CuDef*
G36*
G01*
X19814250Y-23196000D02*
X19301750Y-23196000D01*
G75*
G02*
X19083000Y-22977250I0J218750D01*
G01*
X19083000Y-22539750D01*
G75*
G02*
X19301750Y-22321000I218750J0D01*
G01*
X19814250Y-22321000D01*
G75*
G02*
X20033000Y-22539750I0J-218750D01*
G01*
X20033000Y-22977250D01*
G75*
G02*
X19814250Y-23196000I-218750J0D01*
G01*
G37*
G04 #@! TD.AperFunction*
G04 #@! TA.AperFunction,SMDPad,CuDef*
G36*
G01*
X19814250Y-21621000D02*
X19301750Y-21621000D01*
G75*
G02*
X19083000Y-21402250I0J218750D01*
G01*
X19083000Y-20964750D01*
G75*
G02*
X19301750Y-20746000I218750J0D01*
G01*
X19814250Y-20746000D01*
G75*
G02*
X20033000Y-20964750I0J-218750D01*
G01*
X20033000Y-21402250D01*
G75*
G02*
X19814250Y-21621000I-218750J0D01*
G01*
G37*
G04 #@! TD.AperFunction*
G04 #@! TA.AperFunction,SMDPad,CuDef*
G36*
G01*
X19814250Y-18573000D02*
X19301750Y-18573000D01*
G75*
G02*
X19083000Y-18354250I0J218750D01*
G01*
X19083000Y-17916750D01*
G75*
G02*
X19301750Y-17698000I218750J0D01*
G01*
X19814250Y-17698000D01*
G75*
G02*
X20033000Y-17916750I0J-218750D01*
G01*
X20033000Y-18354250D01*
G75*
G02*
X19814250Y-18573000I-218750J0D01*
G01*
G37*
G04 #@! TD.AperFunction*
G04 #@! TA.AperFunction,SMDPad,CuDef*
G36*
G01*
X19814250Y-20148000D02*
X19301750Y-20148000D01*
G75*
G02*
X19083000Y-19929250I0J218750D01*
G01*
X19083000Y-19491750D01*
G75*
G02*
X19301750Y-19273000I218750J0D01*
G01*
X19814250Y-19273000D01*
G75*
G02*
X20033000Y-19491750I0J-218750D01*
G01*
X20033000Y-19929250D01*
G75*
G02*
X19814250Y-20148000I-218750J0D01*
G01*
G37*
G04 #@! TD.AperFunction*
G04 #@! TA.AperFunction,SMDPad,CuDef*
G36*
G01*
X25783250Y-2190000D02*
X25270750Y-2190000D01*
G75*
G02*
X25052000Y-1971250I0J218750D01*
G01*
X25052000Y-1533750D01*
G75*
G02*
X25270750Y-1315000I218750J0D01*
G01*
X25783250Y-1315000D01*
G75*
G02*
X26002000Y-1533750I0J-218750D01*
G01*
X26002000Y-1971250D01*
G75*
G02*
X25783250Y-2190000I-218750J0D01*
G01*
G37*
G04 #@! TD.AperFunction*
G04 #@! TA.AperFunction,SMDPad,CuDef*
G36*
G01*
X25783250Y-3765000D02*
X25270750Y-3765000D01*
G75*
G02*
X25052000Y-3546250I0J218750D01*
G01*
X25052000Y-3108750D01*
G75*
G02*
X25270750Y-2890000I218750J0D01*
G01*
X25783250Y-2890000D01*
G75*
G02*
X26002000Y-3108750I0J-218750D01*
G01*
X26002000Y-3546250D01*
G75*
G02*
X25783250Y-3765000I-218750J0D01*
G01*
G37*
G04 #@! TD.AperFunction*
G04 #@! TA.AperFunction,SMDPad,CuDef*
G36*
G01*
X24259250Y-3765000D02*
X23746750Y-3765000D01*
G75*
G02*
X23528000Y-3546250I0J218750D01*
G01*
X23528000Y-3108750D01*
G75*
G02*
X23746750Y-2890000I218750J0D01*
G01*
X24259250Y-2890000D01*
G75*
G02*
X24478000Y-3108750I0J-218750D01*
G01*
X24478000Y-3546250D01*
G75*
G02*
X24259250Y-3765000I-218750J0D01*
G01*
G37*
G04 #@! TD.AperFunction*
G04 #@! TA.AperFunction,SMDPad,CuDef*
G36*
G01*
X24259250Y-2190000D02*
X23746750Y-2190000D01*
G75*
G02*
X23528000Y-1971250I0J218750D01*
G01*
X23528000Y-1533750D01*
G75*
G02*
X23746750Y-1315000I218750J0D01*
G01*
X24259250Y-1315000D01*
G75*
G02*
X24478000Y-1533750I0J-218750D01*
G01*
X24478000Y-1971250D01*
G75*
G02*
X24259250Y-2190000I-218750J0D01*
G01*
G37*
G04 #@! TD.AperFunction*
G04 #@! TA.AperFunction,SMDPad,CuDef*
G36*
G01*
X24513250Y-7956000D02*
X24000750Y-7956000D01*
G75*
G02*
X23782000Y-7737250I0J218750D01*
G01*
X23782000Y-7299750D01*
G75*
G02*
X24000750Y-7081000I218750J0D01*
G01*
X24513250Y-7081000D01*
G75*
G02*
X24732000Y-7299750I0J-218750D01*
G01*
X24732000Y-7737250D01*
G75*
G02*
X24513250Y-7956000I-218750J0D01*
G01*
G37*
G04 #@! TD.AperFunction*
G04 #@! TA.AperFunction,SMDPad,CuDef*
G36*
G01*
X24513250Y-6381000D02*
X24000750Y-6381000D01*
G75*
G02*
X23782000Y-6162250I0J218750D01*
G01*
X23782000Y-5724750D01*
G75*
G02*
X24000750Y-5506000I218750J0D01*
G01*
X24513250Y-5506000D01*
G75*
G02*
X24732000Y-5724750I0J-218750D01*
G01*
X24732000Y-6162250D01*
G75*
G02*
X24513250Y-6381000I-218750J0D01*
G01*
G37*
G04 #@! TD.AperFunction*
G04 #@! TA.AperFunction,SMDPad,CuDef*
G36*
G01*
X22989250Y-7956000D02*
X22476750Y-7956000D01*
G75*
G02*
X22258000Y-7737250I0J218750D01*
G01*
X22258000Y-7299750D01*
G75*
G02*
X22476750Y-7081000I218750J0D01*
G01*
X22989250Y-7081000D01*
G75*
G02*
X23208000Y-7299750I0J-218750D01*
G01*
X23208000Y-7737250D01*
G75*
G02*
X22989250Y-7956000I-218750J0D01*
G01*
G37*
G04 #@! TD.AperFunction*
G04 #@! TA.AperFunction,SMDPad,CuDef*
G36*
G01*
X22989250Y-6381000D02*
X22476750Y-6381000D01*
G75*
G02*
X22258000Y-6162250I0J218750D01*
G01*
X22258000Y-5724750D01*
G75*
G02*
X22476750Y-5506000I218750J0D01*
G01*
X22989250Y-5506000D01*
G75*
G02*
X23208000Y-5724750I0J-218750D01*
G01*
X23208000Y-6162250D01*
G75*
G02*
X22989250Y-6381000I-218750J0D01*
G01*
G37*
G04 #@! TD.AperFunction*
G04 #@! TA.AperFunction,SMDPad,CuDef*
G36*
G01*
X19814250Y-27717000D02*
X19301750Y-27717000D01*
G75*
G02*
X19083000Y-27498250I0J218750D01*
G01*
X19083000Y-27060750D01*
G75*
G02*
X19301750Y-26842000I218750J0D01*
G01*
X19814250Y-26842000D01*
G75*
G02*
X20033000Y-27060750I0J-218750D01*
G01*
X20033000Y-27498250D01*
G75*
G02*
X19814250Y-27717000I-218750J0D01*
G01*
G37*
G04 #@! TD.AperFunction*
G04 #@! TA.AperFunction,SMDPad,CuDef*
G36*
G01*
X19814250Y-29292000D02*
X19301750Y-29292000D01*
G75*
G02*
X19083000Y-29073250I0J218750D01*
G01*
X19083000Y-28635750D01*
G75*
G02*
X19301750Y-28417000I218750J0D01*
G01*
X19814250Y-28417000D01*
G75*
G02*
X20033000Y-28635750I0J-218750D01*
G01*
X20033000Y-29073250D01*
G75*
G02*
X19814250Y-29292000I-218750J0D01*
G01*
G37*
G04 #@! TD.AperFunction*
G04 #@! TA.AperFunction,SMDPad,CuDef*
G36*
G01*
X20952750Y-28417000D02*
X21465250Y-28417000D01*
G75*
G02*
X21684000Y-28635750I0J-218750D01*
G01*
X21684000Y-29073250D01*
G75*
G02*
X21465250Y-29292000I-218750J0D01*
G01*
X20952750Y-29292000D01*
G75*
G02*
X20734000Y-29073250I0J218750D01*
G01*
X20734000Y-28635750D01*
G75*
G02*
X20952750Y-28417000I218750J0D01*
G01*
G37*
G04 #@! TD.AperFunction*
G04 #@! TA.AperFunction,SMDPad,CuDef*
G36*
G01*
X20952750Y-26842000D02*
X21465250Y-26842000D01*
G75*
G02*
X21684000Y-27060750I0J-218750D01*
G01*
X21684000Y-27498250D01*
G75*
G02*
X21465250Y-27717000I-218750J0D01*
G01*
X20952750Y-27717000D01*
G75*
G02*
X20734000Y-27498250I0J218750D01*
G01*
X20734000Y-27060750D01*
G75*
G02*
X20952750Y-26842000I218750J0D01*
G01*
G37*
G04 #@! TD.AperFunction*
G04 #@! TA.AperFunction,SMDPad,CuDef*
G36*
G01*
X23116250Y-21621000D02*
X22603750Y-21621000D01*
G75*
G02*
X22385000Y-21402250I0J218750D01*
G01*
X22385000Y-20964750D01*
G75*
G02*
X22603750Y-20746000I218750J0D01*
G01*
X23116250Y-20746000D01*
G75*
G02*
X23335000Y-20964750I0J-218750D01*
G01*
X23335000Y-21402250D01*
G75*
G02*
X23116250Y-21621000I-218750J0D01*
G01*
G37*
G04 #@! TD.AperFunction*
G04 #@! TA.AperFunction,SMDPad,CuDef*
G36*
G01*
X23116250Y-23196000D02*
X22603750Y-23196000D01*
G75*
G02*
X22385000Y-22977250I0J218750D01*
G01*
X22385000Y-22539750D01*
G75*
G02*
X22603750Y-22321000I218750J0D01*
G01*
X23116250Y-22321000D01*
G75*
G02*
X23335000Y-22539750I0J-218750D01*
G01*
X23335000Y-22977250D01*
G75*
G02*
X23116250Y-23196000I-218750J0D01*
G01*
G37*
G04 #@! TD.AperFunction*
G04 #@! TA.AperFunction,SMDPad,CuDef*
G36*
G01*
X30482250Y-23831000D02*
X29969750Y-23831000D01*
G75*
G02*
X29751000Y-23612250I0J218750D01*
G01*
X29751000Y-23174750D01*
G75*
G02*
X29969750Y-22956000I218750J0D01*
G01*
X30482250Y-22956000D01*
G75*
G02*
X30701000Y-23174750I0J-218750D01*
G01*
X30701000Y-23612250D01*
G75*
G02*
X30482250Y-23831000I-218750J0D01*
G01*
G37*
G04 #@! TD.AperFunction*
G04 #@! TA.AperFunction,SMDPad,CuDef*
G36*
G01*
X30482250Y-22256000D02*
X29969750Y-22256000D01*
G75*
G02*
X29751000Y-22037250I0J218750D01*
G01*
X29751000Y-21599750D01*
G75*
G02*
X29969750Y-21381000I218750J0D01*
G01*
X30482250Y-21381000D01*
G75*
G02*
X30701000Y-21599750I0J-218750D01*
G01*
X30701000Y-22037250D01*
G75*
G02*
X30482250Y-22256000I-218750J0D01*
G01*
G37*
G04 #@! TD.AperFunction*
G04 #@! TA.AperFunction,SMDPad,CuDef*
G36*
G01*
X22603750Y-26842000D02*
X23116250Y-26842000D01*
G75*
G02*
X23335000Y-27060750I0J-218750D01*
G01*
X23335000Y-27498250D01*
G75*
G02*
X23116250Y-27717000I-218750J0D01*
G01*
X22603750Y-27717000D01*
G75*
G02*
X22385000Y-27498250I0J218750D01*
G01*
X22385000Y-27060750D01*
G75*
G02*
X22603750Y-26842000I218750J0D01*
G01*
G37*
G04 #@! TD.AperFunction*
G04 #@! TA.AperFunction,SMDPad,CuDef*
G36*
G01*
X22603750Y-28417000D02*
X23116250Y-28417000D01*
G75*
G02*
X23335000Y-28635750I0J-218750D01*
G01*
X23335000Y-29073250D01*
G75*
G02*
X23116250Y-29292000I-218750J0D01*
G01*
X22603750Y-29292000D01*
G75*
G02*
X22385000Y-29073250I0J218750D01*
G01*
X22385000Y-28635750D01*
G75*
G02*
X22603750Y-28417000I218750J0D01*
G01*
G37*
G04 #@! TD.AperFunction*
G04 #@! TA.AperFunction,SMDPad,CuDef*
G36*
G01*
X23116250Y-26244000D02*
X22603750Y-26244000D01*
G75*
G02*
X22385000Y-26025250I0J218750D01*
G01*
X22385000Y-25587750D01*
G75*
G02*
X22603750Y-25369000I218750J0D01*
G01*
X23116250Y-25369000D01*
G75*
G02*
X23335000Y-25587750I0J-218750D01*
G01*
X23335000Y-26025250D01*
G75*
G02*
X23116250Y-26244000I-218750J0D01*
G01*
G37*
G04 #@! TD.AperFunction*
G04 #@! TA.AperFunction,SMDPad,CuDef*
G36*
G01*
X23116250Y-24669000D02*
X22603750Y-24669000D01*
G75*
G02*
X22385000Y-24450250I0J218750D01*
G01*
X22385000Y-24012750D01*
G75*
G02*
X22603750Y-23794000I218750J0D01*
G01*
X23116250Y-23794000D01*
G75*
G02*
X23335000Y-24012750I0J-218750D01*
G01*
X23335000Y-24450250D01*
G75*
G02*
X23116250Y-24669000I-218750J0D01*
G01*
G37*
G04 #@! TD.AperFunction*
G04 #@! TA.AperFunction,SMDPad,CuDef*
G36*
G01*
X31493750Y-22956000D02*
X32006250Y-22956000D01*
G75*
G02*
X32225000Y-23174750I0J-218750D01*
G01*
X32225000Y-23612250D01*
G75*
G02*
X32006250Y-23831000I-218750J0D01*
G01*
X31493750Y-23831000D01*
G75*
G02*
X31275000Y-23612250I0J218750D01*
G01*
X31275000Y-23174750D01*
G75*
G02*
X31493750Y-22956000I218750J0D01*
G01*
G37*
G04 #@! TD.AperFunction*
G04 #@! TA.AperFunction,SMDPad,CuDef*
G36*
G01*
X31493750Y-21381000D02*
X32006250Y-21381000D01*
G75*
G02*
X32225000Y-21599750I0J-218750D01*
G01*
X32225000Y-22037250D01*
G75*
G02*
X32006250Y-22256000I-218750J0D01*
G01*
X31493750Y-22256000D01*
G75*
G02*
X31275000Y-22037250I0J218750D01*
G01*
X31275000Y-21599750D01*
G75*
G02*
X31493750Y-21381000I218750J0D01*
G01*
G37*
G04 #@! TD.AperFunction*
G04 #@! TA.AperFunction,SMDPad,CuDef*
G36*
G01*
X32006250Y-25304000D02*
X31493750Y-25304000D01*
G75*
G02*
X31275000Y-25085250I0J218750D01*
G01*
X31275000Y-24647750D01*
G75*
G02*
X31493750Y-24429000I218750J0D01*
G01*
X32006250Y-24429000D01*
G75*
G02*
X32225000Y-24647750I0J-218750D01*
G01*
X32225000Y-25085250D01*
G75*
G02*
X32006250Y-25304000I-218750J0D01*
G01*
G37*
G04 #@! TD.AperFunction*
G04 #@! TA.AperFunction,SMDPad,CuDef*
G36*
G01*
X32006250Y-26879000D02*
X31493750Y-26879000D01*
G75*
G02*
X31275000Y-26660250I0J218750D01*
G01*
X31275000Y-26222750D01*
G75*
G02*
X31493750Y-26004000I218750J0D01*
G01*
X32006250Y-26004000D01*
G75*
G02*
X32225000Y-26222750I0J-218750D01*
G01*
X32225000Y-26660250D01*
G75*
G02*
X32006250Y-26879000I-218750J0D01*
G01*
G37*
G04 #@! TD.AperFunction*
G04 #@! TA.AperFunction,SMDPad,CuDef*
G36*
G01*
X33017750Y-24429000D02*
X33530250Y-24429000D01*
G75*
G02*
X33749000Y-24647750I0J-218750D01*
G01*
X33749000Y-25085250D01*
G75*
G02*
X33530250Y-25304000I-218750J0D01*
G01*
X33017750Y-25304000D01*
G75*
G02*
X32799000Y-25085250I0J218750D01*
G01*
X32799000Y-24647750D01*
G75*
G02*
X33017750Y-24429000I218750J0D01*
G01*
G37*
G04 #@! TD.AperFunction*
G04 #@! TA.AperFunction,SMDPad,CuDef*
G36*
G01*
X33017750Y-26004000D02*
X33530250Y-26004000D01*
G75*
G02*
X33749000Y-26222750I0J-218750D01*
G01*
X33749000Y-26660250D01*
G75*
G02*
X33530250Y-26879000I-218750J0D01*
G01*
X33017750Y-26879000D01*
G75*
G02*
X32799000Y-26660250I0J218750D01*
G01*
X32799000Y-26222750D01*
G75*
G02*
X33017750Y-26004000I218750J0D01*
G01*
G37*
G04 #@! TD.AperFunction*
G04 #@! TA.AperFunction,SMDPad,CuDef*
G36*
G01*
X30482250Y-26879000D02*
X29969750Y-26879000D01*
G75*
G02*
X29751000Y-26660250I0J218750D01*
G01*
X29751000Y-26222750D01*
G75*
G02*
X29969750Y-26004000I218750J0D01*
G01*
X30482250Y-26004000D01*
G75*
G02*
X30701000Y-26222750I0J-218750D01*
G01*
X30701000Y-26660250D01*
G75*
G02*
X30482250Y-26879000I-218750J0D01*
G01*
G37*
G04 #@! TD.AperFunction*
G04 #@! TA.AperFunction,SMDPad,CuDef*
G36*
G01*
X30482250Y-25304000D02*
X29969750Y-25304000D01*
G75*
G02*
X29751000Y-25085250I0J218750D01*
G01*
X29751000Y-24647750D01*
G75*
G02*
X29969750Y-24429000I218750J0D01*
G01*
X30482250Y-24429000D01*
G75*
G02*
X30701000Y-24647750I0J-218750D01*
G01*
X30701000Y-25085250D01*
G75*
G02*
X30482250Y-25304000I-218750J0D01*
G01*
G37*
G04 #@! TD.AperFunction*
D17*
X9447000Y-28194000D03*
X6047000Y-28194000D03*
X4494000Y-28194000D03*
X1094000Y-28194000D03*
D18*
X11165800Y-8493000D03*
X13065800Y-8493000D03*
X12115800Y-6493000D03*
D19*
X14986000Y-28786000D03*
X15936000Y-28786000D03*
X14036000Y-28786000D03*
X14036000Y-26586000D03*
X14986000Y-26586000D03*
X15936000Y-26586000D03*
X33589000Y-3218000D03*
X32639000Y-3218000D03*
X31689000Y-3218000D03*
X31689000Y-5418000D03*
X33589000Y-5418000D03*
D20*
X29890000Y-5178000D03*
X29240000Y-5178000D03*
X28590000Y-5178000D03*
X27940000Y-5178000D03*
X27290000Y-5178000D03*
X26640000Y-5178000D03*
X25990000Y-5178000D03*
X25990000Y-11078000D03*
X26640000Y-11078000D03*
X27290000Y-11078000D03*
X27940000Y-11078000D03*
X28590000Y-11078000D03*
X29240000Y-11078000D03*
X29890000Y-11078000D03*
D21*
X29729000Y-13560000D03*
X30379000Y-13560000D03*
X31029000Y-13560000D03*
X31679000Y-13560000D03*
X32329000Y-13560000D03*
X32979000Y-13560000D03*
X33629000Y-13560000D03*
X34279000Y-13560000D03*
X34279000Y-19460000D03*
X33629000Y-19460000D03*
X32979000Y-19460000D03*
X32329000Y-19460000D03*
X31679000Y-19460000D03*
X31029000Y-19460000D03*
X30379000Y-19460000D03*
X29729000Y-19460000D03*
X23865000Y-10258000D03*
X23215000Y-10258000D03*
X22565000Y-10258000D03*
X21915000Y-10258000D03*
X21265000Y-10258000D03*
X20615000Y-10258000D03*
X19965000Y-10258000D03*
X19315000Y-10258000D03*
X19315000Y-16158000D03*
X19965000Y-16158000D03*
X20615000Y-16158000D03*
X21265000Y-16158000D03*
X21915000Y-16158000D03*
X22565000Y-16158000D03*
X23215000Y-16158000D03*
X23865000Y-16158000D03*
D22*
X25827000Y-17693000D03*
X26467000Y-17693000D03*
X27127000Y-17693000D03*
X27767000Y-17693000D03*
X27767000Y-15073000D03*
X27127000Y-15073000D03*
X26467000Y-15073000D03*
X25827000Y-15073000D03*
D20*
X24593000Y-21815000D03*
X25243000Y-21815000D03*
X25893000Y-21815000D03*
X26543000Y-21815000D03*
X27193000Y-21815000D03*
X27843000Y-21815000D03*
X28493000Y-21815000D03*
X28493000Y-27715000D03*
X27843000Y-27715000D03*
X27193000Y-27715000D03*
X26543000Y-27715000D03*
X25893000Y-27715000D03*
X25243000Y-27715000D03*
X24593000Y-27715000D03*
G04 #@! TA.AperFunction,SMDPad,CuDef*
G36*
G01*
X27006000Y-19428750D02*
X27006000Y-19941250D01*
G75*
G02*
X26787250Y-20160000I-218750J0D01*
G01*
X26349750Y-20160000D01*
G75*
G02*
X26131000Y-19941250I0J218750D01*
G01*
X26131000Y-19428750D01*
G75*
G02*
X26349750Y-19210000I218750J0D01*
G01*
X26787250Y-19210000D01*
G75*
G02*
X27006000Y-19428750I0J-218750D01*
G01*
G37*
G04 #@! TD.AperFunction*
G04 #@! TA.AperFunction,SMDPad,CuDef*
G36*
G01*
X25431000Y-19428750D02*
X25431000Y-19941250D01*
G75*
G02*
X25212250Y-20160000I-218750J0D01*
G01*
X24774750Y-20160000D01*
G75*
G02*
X24556000Y-19941250I0J218750D01*
G01*
X24556000Y-19428750D01*
G75*
G02*
X24774750Y-19210000I218750J0D01*
G01*
X25212250Y-19210000D01*
G75*
G02*
X25431000Y-19428750I0J-218750D01*
G01*
G37*
G04 #@! TD.AperFunction*
D23*
X40640000Y-34290000D03*
X40640000Y-36830000D03*
X40640000Y-39370000D03*
X40640000Y-41910000D03*
X40640000Y-44450000D03*
D24*
X40640000Y-46990000D03*
X12700000Y-46990000D03*
D23*
X12700000Y-44450000D03*
X12700000Y-41910000D03*
X12700000Y-39370000D03*
X12700000Y-36830000D03*
X12700000Y-34290000D03*
D24*
X5715000Y-8890000D03*
D23*
X3175000Y-8890000D03*
X47625000Y-8890000D03*
D24*
X50165000Y-8890000D03*
G04 #@! TA.AperFunction,SMDPad,CuDef*
G36*
G01*
X1064550Y-10967000D02*
X1577050Y-10967000D01*
G75*
G02*
X1795800Y-11185750I0J-218750D01*
G01*
X1795800Y-11623250D01*
G75*
G02*
X1577050Y-11842000I-218750J0D01*
G01*
X1064550Y-11842000D01*
G75*
G02*
X845800Y-11623250I0J218750D01*
G01*
X845800Y-11185750D01*
G75*
G02*
X1064550Y-10967000I218750J0D01*
G01*
G37*
G04 #@! TD.AperFunction*
G04 #@! TA.AperFunction,SMDPad,CuDef*
G36*
G01*
X1064550Y-12542000D02*
X1577050Y-12542000D01*
G75*
G02*
X1795800Y-12760750I0J-218750D01*
G01*
X1795800Y-13198250D01*
G75*
G02*
X1577050Y-13417000I-218750J0D01*
G01*
X1064550Y-13417000D01*
G75*
G02*
X845800Y-13198250I0J218750D01*
G01*
X845800Y-12760750D01*
G75*
G02*
X1064550Y-12542000I218750J0D01*
G01*
G37*
G04 #@! TD.AperFunction*
G04 #@! TA.AperFunction,SMDPad,CuDef*
G36*
G01*
X8149000Y-5565000D02*
X8149000Y-5865000D01*
G75*
G02*
X7999000Y-6015000I-150000J0D01*
G01*
X6549000Y-6015000D01*
G75*
G02*
X6399000Y-5865000I0J150000D01*
G01*
X6399000Y-5565000D01*
G75*
G02*
X6549000Y-5415000I150000J0D01*
G01*
X7999000Y-5415000D01*
G75*
G02*
X8149000Y-5565000I0J-150000D01*
G01*
G37*
G04 #@! TD.AperFunction*
G04 #@! TA.AperFunction,SMDPad,CuDef*
G36*
G01*
X8149000Y-4295000D02*
X8149000Y-4595000D01*
G75*
G02*
X7999000Y-4745000I-150000J0D01*
G01*
X6549000Y-4745000D01*
G75*
G02*
X6399000Y-4595000I0J150000D01*
G01*
X6399000Y-4295000D01*
G75*
G02*
X6549000Y-4145000I150000J0D01*
G01*
X7999000Y-4145000D01*
G75*
G02*
X8149000Y-4295000I0J-150000D01*
G01*
G37*
G04 #@! TD.AperFunction*
G04 #@! TA.AperFunction,SMDPad,CuDef*
G36*
G01*
X8149000Y-3025000D02*
X8149000Y-3325000D01*
G75*
G02*
X7999000Y-3475000I-150000J0D01*
G01*
X6549000Y-3475000D01*
G75*
G02*
X6399000Y-3325000I0J150000D01*
G01*
X6399000Y-3025000D01*
G75*
G02*
X6549000Y-2875000I150000J0D01*
G01*
X7999000Y-2875000D01*
G75*
G02*
X8149000Y-3025000I0J-150000D01*
G01*
G37*
G04 #@! TD.AperFunction*
G04 #@! TA.AperFunction,SMDPad,CuDef*
G36*
G01*
X8149000Y-1755000D02*
X8149000Y-2055000D01*
G75*
G02*
X7999000Y-2205000I-150000J0D01*
G01*
X6549000Y-2205000D01*
G75*
G02*
X6399000Y-2055000I0J150000D01*
G01*
X6399000Y-1755000D01*
G75*
G02*
X6549000Y-1605000I150000J0D01*
G01*
X7999000Y-1605000D01*
G75*
G02*
X8149000Y-1755000I0J-150000D01*
G01*
G37*
G04 #@! TD.AperFunction*
G04 #@! TA.AperFunction,SMDPad,CuDef*
G36*
G01*
X2999000Y-1755000D02*
X2999000Y-2055000D01*
G75*
G02*
X2849000Y-2205000I-150000J0D01*
G01*
X1399000Y-2205000D01*
G75*
G02*
X1249000Y-2055000I0J150000D01*
G01*
X1249000Y-1755000D01*
G75*
G02*
X1399000Y-1605000I150000J0D01*
G01*
X2849000Y-1605000D01*
G75*
G02*
X2999000Y-1755000I0J-150000D01*
G01*
G37*
G04 #@! TD.AperFunction*
G04 #@! TA.AperFunction,SMDPad,CuDef*
G36*
G01*
X2999000Y-3025000D02*
X2999000Y-3325000D01*
G75*
G02*
X2849000Y-3475000I-150000J0D01*
G01*
X1399000Y-3475000D01*
G75*
G02*
X1249000Y-3325000I0J150000D01*
G01*
X1249000Y-3025000D01*
G75*
G02*
X1399000Y-2875000I150000J0D01*
G01*
X2849000Y-2875000D01*
G75*
G02*
X2999000Y-3025000I0J-150000D01*
G01*
G37*
G04 #@! TD.AperFunction*
G04 #@! TA.AperFunction,SMDPad,CuDef*
G36*
G01*
X2999000Y-4295000D02*
X2999000Y-4595000D01*
G75*
G02*
X2849000Y-4745000I-150000J0D01*
G01*
X1399000Y-4745000D01*
G75*
G02*
X1249000Y-4595000I0J150000D01*
G01*
X1249000Y-4295000D01*
G75*
G02*
X1399000Y-4145000I150000J0D01*
G01*
X2849000Y-4145000D01*
G75*
G02*
X2999000Y-4295000I0J-150000D01*
G01*
G37*
G04 #@! TD.AperFunction*
G04 #@! TA.AperFunction,SMDPad,CuDef*
G36*
G01*
X2999000Y-5565000D02*
X2999000Y-5865000D01*
G75*
G02*
X2849000Y-6015000I-150000J0D01*
G01*
X1399000Y-6015000D01*
G75*
G02*
X1249000Y-5865000I0J150000D01*
G01*
X1249000Y-5565000D01*
G75*
G02*
X1399000Y-5415000I150000J0D01*
G01*
X2849000Y-5415000D01*
G75*
G02*
X2999000Y-5565000I0J-150000D01*
G01*
G37*
G04 #@! TD.AperFunction*
G04 #@! TA.AperFunction,SMDPad,CuDef*
G36*
G01*
X26105400Y-29974250D02*
X26105400Y-29461750D01*
G75*
G02*
X26324150Y-29243000I218750J0D01*
G01*
X26761650Y-29243000D01*
G75*
G02*
X26980400Y-29461750I0J-218750D01*
G01*
X26980400Y-29974250D01*
G75*
G02*
X26761650Y-30193000I-218750J0D01*
G01*
X26324150Y-30193000D01*
G75*
G02*
X26105400Y-29974250I0J218750D01*
G01*
G37*
G04 #@! TD.AperFunction*
G04 #@! TA.AperFunction,SMDPad,CuDef*
G36*
G01*
X27680400Y-29974250D02*
X27680400Y-29461750D01*
G75*
G02*
X27899150Y-29243000I218750J0D01*
G01*
X28336650Y-29243000D01*
G75*
G02*
X28555400Y-29461750I0J-218750D01*
G01*
X28555400Y-29974250D01*
G75*
G02*
X28336650Y-30193000I-218750J0D01*
G01*
X27899150Y-30193000D01*
G75*
G02*
X27680400Y-29974250I0J218750D01*
G01*
G37*
G04 #@! TD.AperFunction*
G04 #@! TA.AperFunction,SMDPad,CuDef*
G36*
G01*
X36980000Y-6120000D02*
X36680000Y-6120000D01*
G75*
G02*
X36530000Y-5970000I0J150000D01*
G01*
X36530000Y-4320000D01*
G75*
G02*
X36680000Y-4170000I150000J0D01*
G01*
X36980000Y-4170000D01*
G75*
G02*
X37130000Y-4320000I0J-150000D01*
G01*
X37130000Y-5970000D01*
G75*
G02*
X36980000Y-6120000I-150000J0D01*
G01*
G37*
G04 #@! TD.AperFunction*
G04 #@! TA.AperFunction,SMDPad,CuDef*
G36*
G01*
X38250000Y-6120000D02*
X37950000Y-6120000D01*
G75*
G02*
X37800000Y-5970000I0J150000D01*
G01*
X37800000Y-4320000D01*
G75*
G02*
X37950000Y-4170000I150000J0D01*
G01*
X38250000Y-4170000D01*
G75*
G02*
X38400000Y-4320000I0J-150000D01*
G01*
X38400000Y-5970000D01*
G75*
G02*
X38250000Y-6120000I-150000J0D01*
G01*
G37*
G04 #@! TD.AperFunction*
G04 #@! TA.AperFunction,SMDPad,CuDef*
G36*
G01*
X39520000Y-6120000D02*
X39220000Y-6120000D01*
G75*
G02*
X39070000Y-5970000I0J150000D01*
G01*
X39070000Y-4320000D01*
G75*
G02*
X39220000Y-4170000I150000J0D01*
G01*
X39520000Y-4170000D01*
G75*
G02*
X39670000Y-4320000I0J-150000D01*
G01*
X39670000Y-5970000D01*
G75*
G02*
X39520000Y-6120000I-150000J0D01*
G01*
G37*
G04 #@! TD.AperFunction*
G04 #@! TA.AperFunction,SMDPad,CuDef*
G36*
G01*
X40790000Y-6120000D02*
X40490000Y-6120000D01*
G75*
G02*
X40340000Y-5970000I0J150000D01*
G01*
X40340000Y-4320000D01*
G75*
G02*
X40490000Y-4170000I150000J0D01*
G01*
X40790000Y-4170000D01*
G75*
G02*
X40940000Y-4320000I0J-150000D01*
G01*
X40940000Y-5970000D01*
G75*
G02*
X40790000Y-6120000I-150000J0D01*
G01*
G37*
G04 #@! TD.AperFunction*
G04 #@! TA.AperFunction,SMDPad,CuDef*
G36*
G01*
X40790000Y-11070000D02*
X40490000Y-11070000D01*
G75*
G02*
X40340000Y-10920000I0J150000D01*
G01*
X40340000Y-9270000D01*
G75*
G02*
X40490000Y-9120000I150000J0D01*
G01*
X40790000Y-9120000D01*
G75*
G02*
X40940000Y-9270000I0J-150000D01*
G01*
X40940000Y-10920000D01*
G75*
G02*
X40790000Y-11070000I-150000J0D01*
G01*
G37*
G04 #@! TD.AperFunction*
G04 #@! TA.AperFunction,SMDPad,CuDef*
G36*
G01*
X39520000Y-11070000D02*
X39220000Y-11070000D01*
G75*
G02*
X39070000Y-10920000I0J150000D01*
G01*
X39070000Y-9270000D01*
G75*
G02*
X39220000Y-9120000I150000J0D01*
G01*
X39520000Y-9120000D01*
G75*
G02*
X39670000Y-9270000I0J-150000D01*
G01*
X39670000Y-10920000D01*
G75*
G02*
X39520000Y-11070000I-150000J0D01*
G01*
G37*
G04 #@! TD.AperFunction*
G04 #@! TA.AperFunction,SMDPad,CuDef*
G36*
G01*
X38250000Y-11070000D02*
X37950000Y-11070000D01*
G75*
G02*
X37800000Y-10920000I0J150000D01*
G01*
X37800000Y-9270000D01*
G75*
G02*
X37950000Y-9120000I150000J0D01*
G01*
X38250000Y-9120000D01*
G75*
G02*
X38400000Y-9270000I0J-150000D01*
G01*
X38400000Y-10920000D01*
G75*
G02*
X38250000Y-11070000I-150000J0D01*
G01*
G37*
G04 #@! TD.AperFunction*
G04 #@! TA.AperFunction,SMDPad,CuDef*
G36*
G01*
X36980000Y-11070000D02*
X36680000Y-11070000D01*
G75*
G02*
X36530000Y-10920000I0J150000D01*
G01*
X36530000Y-9270000D01*
G75*
G02*
X36680000Y-9120000I150000J0D01*
G01*
X36980000Y-9120000D01*
G75*
G02*
X37130000Y-9270000I0J-150000D01*
G01*
X37130000Y-10920000D01*
G75*
G02*
X36980000Y-11070000I-150000J0D01*
G01*
G37*
G04 #@! TD.AperFunction*
G04 #@! TA.AperFunction,SMDPad,CuDef*
G36*
G01*
X36980000Y-24532000D02*
X36680000Y-24532000D01*
G75*
G02*
X36530000Y-24382000I0J150000D01*
G01*
X36530000Y-22732000D01*
G75*
G02*
X36680000Y-22582000I150000J0D01*
G01*
X36980000Y-22582000D01*
G75*
G02*
X37130000Y-22732000I0J-150000D01*
G01*
X37130000Y-24382000D01*
G75*
G02*
X36980000Y-24532000I-150000J0D01*
G01*
G37*
G04 #@! TD.AperFunction*
G04 #@! TA.AperFunction,SMDPad,CuDef*
G36*
G01*
X38250000Y-24532000D02*
X37950000Y-24532000D01*
G75*
G02*
X37800000Y-24382000I0J150000D01*
G01*
X37800000Y-22732000D01*
G75*
G02*
X37950000Y-22582000I150000J0D01*
G01*
X38250000Y-22582000D01*
G75*
G02*
X38400000Y-22732000I0J-150000D01*
G01*
X38400000Y-24382000D01*
G75*
G02*
X38250000Y-24532000I-150000J0D01*
G01*
G37*
G04 #@! TD.AperFunction*
G04 #@! TA.AperFunction,SMDPad,CuDef*
G36*
G01*
X39520000Y-24532000D02*
X39220000Y-24532000D01*
G75*
G02*
X39070000Y-24382000I0J150000D01*
G01*
X39070000Y-22732000D01*
G75*
G02*
X39220000Y-22582000I150000J0D01*
G01*
X39520000Y-22582000D01*
G75*
G02*
X39670000Y-22732000I0J-150000D01*
G01*
X39670000Y-24382000D01*
G75*
G02*
X39520000Y-24532000I-150000J0D01*
G01*
G37*
G04 #@! TD.AperFunction*
G04 #@! TA.AperFunction,SMDPad,CuDef*
G36*
G01*
X40790000Y-24532000D02*
X40490000Y-24532000D01*
G75*
G02*
X40340000Y-24382000I0J150000D01*
G01*
X40340000Y-22732000D01*
G75*
G02*
X40490000Y-22582000I150000J0D01*
G01*
X40790000Y-22582000D01*
G75*
G02*
X40940000Y-22732000I0J-150000D01*
G01*
X40940000Y-24382000D01*
G75*
G02*
X40790000Y-24532000I-150000J0D01*
G01*
G37*
G04 #@! TD.AperFunction*
G04 #@! TA.AperFunction,SMDPad,CuDef*
G36*
G01*
X40790000Y-19582000D02*
X40490000Y-19582000D01*
G75*
G02*
X40340000Y-19432000I0J150000D01*
G01*
X40340000Y-17782000D01*
G75*
G02*
X40490000Y-17632000I150000J0D01*
G01*
X40790000Y-17632000D01*
G75*
G02*
X40940000Y-17782000I0J-150000D01*
G01*
X40940000Y-19432000D01*
G75*
G02*
X40790000Y-19582000I-150000J0D01*
G01*
G37*
G04 #@! TD.AperFunction*
G04 #@! TA.AperFunction,SMDPad,CuDef*
G36*
G01*
X39520000Y-19582000D02*
X39220000Y-19582000D01*
G75*
G02*
X39070000Y-19432000I0J150000D01*
G01*
X39070000Y-17782000D01*
G75*
G02*
X39220000Y-17632000I150000J0D01*
G01*
X39520000Y-17632000D01*
G75*
G02*
X39670000Y-17782000I0J-150000D01*
G01*
X39670000Y-19432000D01*
G75*
G02*
X39520000Y-19582000I-150000J0D01*
G01*
G37*
G04 #@! TD.AperFunction*
G04 #@! TA.AperFunction,SMDPad,CuDef*
G36*
G01*
X38250000Y-19582000D02*
X37950000Y-19582000D01*
G75*
G02*
X37800000Y-19432000I0J150000D01*
G01*
X37800000Y-17782000D01*
G75*
G02*
X37950000Y-17632000I150000J0D01*
G01*
X38250000Y-17632000D01*
G75*
G02*
X38400000Y-17782000I0J-150000D01*
G01*
X38400000Y-19432000D01*
G75*
G02*
X38250000Y-19582000I-150000J0D01*
G01*
G37*
G04 #@! TD.AperFunction*
G04 #@! TA.AperFunction,SMDPad,CuDef*
G36*
G01*
X36980000Y-19582000D02*
X36680000Y-19582000D01*
G75*
G02*
X36530000Y-19432000I0J150000D01*
G01*
X36530000Y-17782000D01*
G75*
G02*
X36680000Y-17632000I150000J0D01*
G01*
X36980000Y-17632000D01*
G75*
G02*
X37130000Y-17782000I0J-150000D01*
G01*
X37130000Y-19432000D01*
G75*
G02*
X36980000Y-19582000I-150000J0D01*
G01*
G37*
G04 #@! TD.AperFunction*
D25*
X47557500Y-5207000D03*
X43882500Y-5207000D03*
X47557500Y-12700000D03*
X43882500Y-12700000D03*
X43882500Y-22606000D03*
X47557500Y-22606000D03*
X43882500Y-26416000D03*
X47557500Y-26416000D03*
D26*
X1778000Y-34290000D03*
D27*
X1778000Y-36830000D03*
X1778000Y-39370000D03*
X1778000Y-41910000D03*
X1778000Y-44450000D03*
X1778000Y-46990000D03*
D12*
X7747000Y-18923000D03*
D28*
X5267000Y-22103000D03*
X5767000Y-22103000D03*
X6267000Y-22103000D03*
X6767000Y-22103000D03*
X7267000Y-22103000D03*
X7767000Y-22103000D03*
X8267000Y-22103000D03*
X8767000Y-22103000D03*
X9267000Y-22103000D03*
X9767000Y-22103000D03*
X10267000Y-22103000D03*
X10767000Y-22103000D03*
X11267000Y-22103000D03*
X11767000Y-22103000D03*
X12267000Y-22103000D03*
X12767000Y-22103000D03*
D29*
X13467000Y-21403000D03*
X13467000Y-20903000D03*
X13467000Y-20403000D03*
X13467000Y-19903000D03*
X13467000Y-19403000D03*
X13467000Y-18903000D03*
X13467000Y-18403000D03*
X13467000Y-17903000D03*
X13467000Y-17403000D03*
X13467000Y-16903000D03*
X13467000Y-16403000D03*
X13467000Y-15903000D03*
X13467000Y-15403000D03*
X13467000Y-14903000D03*
X13467000Y-14403000D03*
X13467000Y-13903000D03*
D28*
X12767000Y-13203000D03*
X12267000Y-13203000D03*
X11767000Y-13203000D03*
X11267000Y-13203000D03*
X10767000Y-13203000D03*
X10267000Y-13203000D03*
X9767000Y-13203000D03*
X9267000Y-13203000D03*
X8767000Y-13203000D03*
X8267000Y-13203000D03*
X7767000Y-13203000D03*
X7267000Y-13203000D03*
X6767000Y-13203000D03*
X6267000Y-13203000D03*
X5767000Y-13203000D03*
X5267000Y-13203000D03*
D29*
X4567000Y-13903000D03*
X4567000Y-14403000D03*
X4567000Y-14903000D03*
X4567000Y-15403000D03*
X4567000Y-15903000D03*
X4567000Y-16403000D03*
X4567000Y-16903000D03*
X4567000Y-17403000D03*
X4567000Y-17903000D03*
X4567000Y-18403000D03*
X4567000Y-18903000D03*
X4567000Y-19403000D03*
X4567000Y-19903000D03*
X4567000Y-20403000D03*
X4567000Y-20903000D03*
X4567000Y-21403000D03*
D30*
X9017000Y-17653000D03*
D12*
X7747000Y-16383000D03*
X10287000Y-16383000D03*
X10287000Y-18923000D03*
D27*
X36449000Y-13843000D03*
D31*
X18237200Y-6629400D03*
X24206200Y-13106400D03*
X20193000Y-1752600D03*
X26289000Y-1752600D03*
X34264600Y-20650200D03*
X18719800Y-27279600D03*
X42265600Y-29844998D03*
X35179000Y-3073400D03*
X14986000Y-27686000D03*
X45847000Y-46990000D03*
X5969000Y-4445000D03*
X27584400Y-12446000D03*
X4394200Y-46177200D03*
X26543000Y-22860000D03*
X28752800Y-30327600D03*
X32638996Y-2362210D03*
X42265600Y-17653000D03*
X39293800Y-3048000D03*
X40640000Y-8712200D03*
X40640000Y-22174200D03*
X39319200Y-16510000D03*
X10820400Y-28067000D03*
X1320800Y-21488400D03*
X17145000Y-22783800D03*
X23901400Y-19761210D03*
X20396200Y-19761210D03*
X47548800Y-24511000D03*
X42291000Y-1930400D03*
X46685200Y-5207000D03*
X46685200Y-12700000D03*
X19558000Y-12141200D03*
X5283194Y-28194000D03*
X10414000Y-8483600D03*
X12547600Y-5130800D03*
X27815818Y-19195014D03*
X1778000Y-39370000D03*
X18084800Y-14401790D03*
X14256244Y-19407126D03*
X1320800Y-14147800D03*
X21132380Y-8863795D03*
X25349200Y-13766800D03*
X24028400Y-26035000D03*
X21742400Y-2540000D03*
X27686000Y-3962400D03*
X34290000Y-5410200D03*
X16637000Y-28778200D03*
X14020800Y-27711400D03*
X45974000Y-45085000D03*
X36830000Y-3835400D03*
X36830000Y-17322800D03*
X10287000Y-24612600D03*
X18008600Y-20421600D03*
X18262600Y-16713210D03*
X42291000Y-24511000D03*
X42291000Y-11379200D03*
X42291000Y-6527800D03*
X13817600Y-8509000D03*
X10718800Y-10033000D03*
X26466800Y-18821400D03*
X23876000Y-18135598D03*
X1778000Y-36830000D03*
X3098806Y-17805400D03*
X25044400Y-26009600D03*
X36449000Y-13843000D03*
X30810200Y-2489200D03*
X11963400Y-29768800D03*
X15925800Y-21894800D03*
X12573000Y-30505400D03*
X14681200Y-22504410D03*
X11033220Y-21176943D03*
X5629965Y-21169986D03*
X12459245Y-21120100D03*
X7456822Y-21171551D03*
X23799800Y-27711400D03*
X33274000Y-27711400D03*
X2311400Y-13487400D03*
X838200Y-22199600D03*
X4445000Y-36931600D03*
X2590804Y-23698200D03*
X5968997Y-36956997D03*
X3225810Y-23012400D03*
X6096000Y-35737800D03*
X4292600Y-25247600D03*
X32385000Y-8661400D03*
X30812545Y-15599425D03*
X15290800Y-24587200D03*
X30886500Y-7086500D03*
X30988000Y-16637000D03*
X34950400Y-16918425D03*
X33909000Y-10922000D03*
X31648401Y-15798800D03*
X35102800Y-15951200D03*
X14706600Y-25222200D03*
X24765000Y-12573000D03*
X24765000Y-14351006D03*
X20320000Y-8890000D03*
X20319316Y-11511072D03*
X26314400Y-9779000D03*
X19126200Y-12954000D03*
X9657400Y-11353053D03*
X28453833Y-15828154D03*
X7760447Y-11480800D03*
X28343976Y-14996359D03*
X28524200Y-17678400D03*
X6756400Y-11480800D03*
X3556000Y-16357600D03*
X18364200Y-18008590D03*
X34290000Y-14757400D03*
X3362577Y-20403003D03*
X33629600Y-15341600D03*
X3221701Y-19602489D03*
X32969200Y-14757400D03*
X3581400Y-18669000D03*
X28600400Y-6273800D03*
X36830000Y-6731022D03*
X31038800Y-17678400D03*
X28194000Y-9448801D03*
X30632400Y-9652000D03*
X30629759Y-14787196D03*
X29133804Y-13335000D03*
X26543000Y-28829000D03*
X17703800Y-7188200D03*
X35489353Y-2314929D03*
X30200600Y-20802600D03*
X27848719Y-20820637D03*
D32*
X19820000Y-5850000D02*
X20320000Y-6350000D01*
X19820000Y-4900000D02*
X19820000Y-5850000D01*
X20820000Y-6850000D02*
X20320000Y-6350000D01*
X20820000Y-7800000D02*
X20820000Y-6850000D01*
X25527000Y-1752500D02*
X24003000Y-1752500D01*
X24968000Y-19710500D02*
X24993500Y-19685000D01*
X34279000Y-19460000D02*
X33629000Y-19460000D01*
X32979000Y-19460000D02*
X33629000Y-19460000D01*
X27051000Y-1752500D02*
X28575000Y-1752500D01*
X20192900Y-1752500D02*
X20193000Y-1752600D01*
X20192900Y-1752500D02*
X19431000Y-1752500D01*
X20955000Y-1752500D02*
X20192900Y-1752500D01*
X26289100Y-1752500D02*
X26289000Y-1752600D01*
X26289100Y-1752500D02*
X25527000Y-1752500D01*
X27051000Y-1752500D02*
X26289100Y-1752500D01*
X23926700Y-19710500D02*
X24968000Y-19710500D01*
X22860000Y-19710500D02*
X23926700Y-19710500D01*
X20396100Y-19710500D02*
X21209000Y-19710500D01*
X19558000Y-19710500D02*
X20396100Y-19710500D01*
X34279000Y-19460000D02*
X34279000Y-20635800D01*
X34279000Y-20635800D02*
X34264600Y-20650200D01*
X19558000Y-27279500D02*
X18719900Y-27279500D01*
X18719900Y-27279500D02*
X18719800Y-27279600D01*
X42265500Y-29844900D02*
X42265500Y-29083000D01*
X42265500Y-30607000D02*
X42265500Y-29844900D01*
X42265598Y-29844998D02*
X42265600Y-29844998D01*
X42265500Y-29844900D02*
X42265598Y-29844998D01*
X35179000Y-3911500D02*
X35179000Y-3073400D01*
X4396500Y-42926000D02*
X4396500Y-43626000D01*
X4396500Y-44015900D02*
X4394200Y-44018200D01*
X4396500Y-43995100D02*
X4396500Y-44015900D01*
X4396500Y-43995100D02*
X4396500Y-45085000D01*
X4396500Y-43626000D02*
X4396500Y-43995100D01*
X14986000Y-28786000D02*
X14986000Y-28052800D01*
X14036000Y-26586000D02*
X14986000Y-26586000D01*
X14986000Y-27686000D02*
X14986000Y-26586000D01*
X14986000Y-28052800D02*
X14986000Y-27686000D01*
X46687500Y-46990000D02*
X45847000Y-46990000D01*
D33*
X7274000Y-4445000D02*
X5969000Y-4445000D01*
D32*
X19315000Y-10258000D02*
X19965000Y-10258000D01*
X19965000Y-10258000D02*
X20615000Y-10258000D01*
X26771500Y-13258900D02*
X27584400Y-12446000D01*
X26771500Y-13335000D02*
X26771500Y-13258900D01*
X27940000Y-12090400D02*
X27940000Y-11078000D01*
X27584400Y-12446000D02*
X27940000Y-12090400D01*
X4396500Y-46174900D02*
X4394200Y-46177200D01*
X4396500Y-46174900D02*
X4396500Y-47244000D01*
X4396500Y-45085000D02*
X4396500Y-46174900D01*
X18719700Y-27279500D02*
X18719800Y-27279600D01*
X17526000Y-27279500D02*
X18719700Y-27279500D01*
X26543000Y-21815000D02*
X26543000Y-22860000D01*
X28117900Y-29718000D02*
X28143200Y-29718000D01*
X28143200Y-29718000D02*
X28752800Y-30327600D01*
X32639000Y-3218000D02*
X32639000Y-2362214D01*
X32639000Y-2362214D02*
X32638996Y-2362210D01*
X42265500Y-15367000D02*
X42265500Y-16891000D01*
X42265500Y-18415000D02*
X42265500Y-19939000D01*
X42265500Y-17652900D02*
X42265500Y-18415000D01*
X42265500Y-17652900D02*
X42265600Y-17653000D01*
X42265500Y-16891000D02*
X42265500Y-17652900D01*
X38379500Y-3048000D02*
X39293800Y-3048000D01*
X40640000Y-10095000D02*
X40640000Y-8712200D01*
X40640000Y-23557000D02*
X40640000Y-22174200D01*
X38379500Y-16510000D02*
X39319200Y-16510000D01*
X11049000Y-26949500D02*
X11049000Y-27838400D01*
X11049000Y-27838400D02*
X10820400Y-28067000D01*
X1320800Y-20546300D02*
X1320800Y-21488400D01*
X6047000Y-28194000D02*
X4494000Y-28194000D01*
X17145000Y-22834600D02*
X17145000Y-22783800D01*
X17145000Y-22834600D02*
X17145000Y-21996500D01*
X17526000Y-23215600D02*
X17145000Y-22834600D01*
X17526000Y-24231500D02*
X17526000Y-23215600D01*
X23901400Y-19735800D02*
X23901400Y-19761210D01*
X20396100Y-19710500D02*
X20396200Y-19710600D01*
X23926700Y-19710500D02*
X23901400Y-19735800D01*
X20396200Y-19710600D02*
X20396200Y-19761210D01*
X47557500Y-26416000D02*
X47557500Y-25512800D01*
X47557500Y-24502300D02*
X47548800Y-24511000D01*
X47557500Y-24502300D02*
X47557500Y-22606000D01*
X47557500Y-25512800D02*
X47557500Y-24502300D01*
X42265500Y-1904900D02*
X42291000Y-1930400D01*
X42265500Y-1904900D02*
X42265500Y-1168400D01*
X42265500Y-2616200D02*
X42265500Y-1904900D01*
X47557500Y-5207000D02*
X46685200Y-5207000D01*
X47557500Y-12700000D02*
X46685200Y-12700000D01*
X19315000Y-10258000D02*
X19315000Y-11898200D01*
X19315000Y-11898200D02*
X19558000Y-12141200D01*
X4494000Y-28194000D02*
X5283194Y-28194000D01*
D33*
X9460500Y-8493000D02*
X9398000Y-8430500D01*
X9247900Y-8430500D02*
X9398000Y-8430500D01*
X8356500Y-10033000D02*
X8356500Y-9321900D01*
X8356500Y-9321900D02*
X9247900Y-8430500D01*
X10423400Y-8493000D02*
X9460500Y-8493000D01*
X10423400Y-8493000D02*
X10414000Y-8483600D01*
X11165800Y-8493000D02*
X10423400Y-8493000D01*
D34*
X12543000Y-4135500D02*
X12543000Y-5126200D01*
X12543000Y-5126200D02*
X12547600Y-5130800D01*
D33*
X13972300Y-6555500D02*
X12547600Y-5130800D01*
X14833600Y-6555500D02*
X13972300Y-6555500D01*
D32*
X27127000Y-17693000D02*
X27127000Y-18506196D01*
X27127000Y-18506196D02*
X27815818Y-19195014D01*
X13467000Y-19403000D02*
X13467000Y-19903000D01*
X9267000Y-19943000D02*
X10287000Y-18923000D01*
X9267000Y-22103000D02*
X9267000Y-19943000D01*
X8767000Y-15363000D02*
X7747000Y-16383000D01*
X8767000Y-13203000D02*
X8767000Y-15363000D01*
D34*
X17145000Y-15341500D02*
X18059300Y-14427200D01*
D32*
X18059300Y-14427200D02*
X18059390Y-14427200D01*
X18059390Y-14427200D02*
X18084800Y-14401790D01*
X13467000Y-19403000D02*
X14252118Y-19403000D01*
X14252118Y-19403000D02*
X14256244Y-19407126D01*
X1320800Y-12979500D02*
X1320800Y-14147800D01*
X1320800Y-15519300D02*
X1320800Y-14147800D01*
X21132380Y-8800170D02*
X21132380Y-8863795D01*
X20820000Y-8487790D02*
X21132380Y-8800170D01*
X20820000Y-7800000D02*
X20820000Y-8487790D01*
X1320800Y-17094300D02*
X1320800Y-18671300D01*
X1320800Y-17094300D02*
X3747662Y-17094300D01*
X3747662Y-17094300D02*
X4056362Y-17403000D01*
X4056362Y-17403000D02*
X4567000Y-17403000D01*
X22479000Y-1752500D02*
X22479000Y-1803500D01*
X26543000Y-19710500D02*
X26568500Y-19685000D01*
X26467000Y-19583500D02*
X26568500Y-19685000D01*
X35237500Y-5418000D02*
X35306000Y-5486500D01*
X20820000Y-3462500D02*
X20820000Y-4900000D01*
X20955000Y-3327500D02*
X20820000Y-3462500D01*
X27940000Y-4216500D02*
X27940000Y-5178000D01*
X35110500Y-5418000D02*
X35179000Y-5486500D01*
X21742450Y-2540050D02*
X21742400Y-2540000D01*
X21742450Y-2540050D02*
X20955000Y-3327500D01*
X22479000Y-1803500D02*
X21742450Y-2540050D01*
X27698650Y-3975150D02*
X27698650Y-3975050D01*
X27698650Y-3975050D02*
X27686000Y-3962400D01*
X27698650Y-3975150D02*
X27940000Y-4216500D01*
X27051000Y-3327500D02*
X27698650Y-3975150D01*
X34282200Y-5418000D02*
X34290000Y-5410200D01*
X34272400Y-5418000D02*
X34282200Y-5418000D01*
X34272400Y-5418000D02*
X35110500Y-5418000D01*
X33589000Y-5418000D02*
X34272400Y-5418000D01*
X17457500Y-28786000D02*
X17526000Y-28854500D01*
X16644800Y-28786000D02*
X16637000Y-28778200D01*
X16644800Y-28786000D02*
X17457500Y-28786000D01*
X15936000Y-28786000D02*
X16644800Y-28786000D01*
X14036000Y-28786000D02*
X14036000Y-27726600D01*
X14036000Y-27726600D02*
X14020800Y-27711400D01*
X46964500Y-45085000D02*
X45974000Y-45085000D01*
X38100000Y-5145000D02*
X36830000Y-5145000D01*
X36830000Y-3073500D02*
X36804500Y-3048000D01*
X36830000Y-3835400D02*
X36830000Y-3073500D01*
X36830000Y-5145000D02*
X36830000Y-3835400D01*
X38100000Y-18607000D02*
X36830000Y-18607000D01*
X36830000Y-16535500D02*
X36804500Y-16510000D01*
X36830000Y-17322800D02*
X36830000Y-16535500D01*
X36830000Y-18607000D02*
X36830000Y-17322800D01*
X11048900Y-25374500D02*
X11049000Y-25374500D01*
X10287000Y-24612600D02*
X11048900Y-25374500D01*
X17145000Y-20421500D02*
X18008500Y-20421500D01*
X18008500Y-20421500D02*
X18008600Y-20421600D01*
X17145000Y-16916500D02*
X18059310Y-16916500D01*
X18059310Y-16916500D02*
X18262600Y-16713210D01*
X42291000Y-26009500D02*
X42291000Y-25572000D01*
X42291000Y-24511000D02*
X42291000Y-23012500D01*
X42291000Y-25572000D02*
X42291000Y-24511000D01*
X42291000Y-12293500D02*
X42291000Y-11379200D01*
X42291000Y-5613500D02*
X42291000Y-6527800D01*
X5969000Y-32283500D02*
X4445000Y-32283500D01*
D33*
X14771100Y-8493000D02*
X14833600Y-8430500D01*
X13808200Y-8499600D02*
X13817600Y-8509000D01*
X13808200Y-8493000D02*
X13808200Y-8499600D01*
X13808200Y-8493000D02*
X14771100Y-8493000D01*
X13065800Y-8493000D02*
X13808200Y-8493000D01*
D32*
X9931500Y-10033000D02*
X10718800Y-10033000D01*
X26467000Y-18821200D02*
X26466800Y-18821400D01*
X26467000Y-17693000D02*
X26467000Y-18821200D01*
X26467000Y-18821200D02*
X26467000Y-19583500D01*
X23865000Y-18124598D02*
X23876000Y-18135598D01*
X23865000Y-16158000D02*
X23865000Y-18124598D01*
X22860000Y-18135500D02*
X23875902Y-18135500D01*
X23875902Y-18135500D02*
X23876000Y-18135598D01*
X17131500Y-16903000D02*
X17145000Y-16916500D01*
X13467000Y-16903000D02*
X17131500Y-16903000D01*
X9931500Y-10718900D02*
X9931500Y-10033000D01*
X10267000Y-11054400D02*
X9931500Y-10718900D01*
X10267000Y-13203000D02*
X10267000Y-11054400D01*
X17126500Y-20403000D02*
X17145000Y-20421500D01*
X13467000Y-20403000D02*
X17126500Y-20403000D01*
X9767000Y-24092600D02*
X10287000Y-24612600D01*
X9767000Y-22103000D02*
X9767000Y-24092600D01*
X4445000Y-32994600D02*
X4445000Y-32283500D01*
X4445000Y-34163000D02*
X4445000Y-32994600D01*
X1778000Y-36830000D02*
X4445000Y-34163000D01*
X10267000Y-13826642D02*
X10267000Y-13203000D01*
X10435758Y-13995400D02*
X10267000Y-13826642D01*
X11602800Y-13995400D02*
X10435758Y-13995400D01*
X11767000Y-13831200D02*
X11602800Y-13995400D01*
X11767000Y-13203000D02*
X11767000Y-13831200D01*
X4567000Y-17903000D02*
X3196406Y-17903000D01*
X3196406Y-17903000D02*
X3098806Y-17805400D01*
X16746500Y-26586000D02*
X17526000Y-25806500D01*
X15936000Y-26586000D02*
X16746500Y-26586000D01*
X19558000Y-25806500D02*
X21209000Y-25806500D01*
X17526000Y-25806500D02*
X19558000Y-25806500D01*
X24739601Y-25704801D02*
X25044400Y-26009600D01*
X24098990Y-25064190D02*
X24739601Y-25704801D01*
X21976610Y-25064190D02*
X24098990Y-25064190D01*
X21209000Y-25806500D02*
X21234300Y-25806500D01*
X21234300Y-25806500D02*
X21976610Y-25064190D01*
X12767000Y-22673000D02*
X12767000Y-22103000D01*
X13639800Y-23545800D02*
X12767000Y-22673000D01*
X15290800Y-23545800D02*
X13639800Y-23545800D01*
X15936000Y-24191000D02*
X15290800Y-23545800D01*
X15936000Y-26586000D02*
X15936000Y-24191000D01*
X30099000Y-1752500D02*
X30810200Y-2463700D01*
X30810200Y-2463700D02*
X30810200Y-2489200D01*
X48361500Y-1168400D02*
X46888500Y-1168400D01*
X49403000Y-2694700D02*
X49202100Y-2694700D01*
X48361500Y-1930300D02*
X48361500Y-1168400D01*
X49403000Y-2694700D02*
X49125900Y-2694700D01*
X49125900Y-2694700D02*
X48361500Y-1930300D01*
X46888500Y-2616200D02*
X46888500Y-1168400D01*
X49608500Y-4569700D02*
X49403000Y-4569700D01*
X50546000Y-3632200D02*
X49608500Y-4569700D01*
X49936500Y-1168400D02*
X49936500Y-1168500D01*
X49936500Y-1168500D02*
X50546000Y-1778000D01*
X50546000Y-3632200D02*
X50546000Y-1778000D01*
X52324000Y-7289800D02*
X49603900Y-4569700D01*
X40640000Y-46990000D02*
X41693200Y-46990000D01*
X49603900Y-4569700D02*
X49403000Y-4569700D01*
X52324000Y-36359200D02*
X52324000Y-7289800D01*
X41693200Y-46990000D02*
X52324000Y-36359200D01*
X49936500Y-16891000D02*
X50015500Y-16891000D01*
X49633900Y-13413500D02*
X49403000Y-13413500D01*
X49936500Y-16891000D02*
X50546000Y-16281500D01*
X50546000Y-14325600D02*
X49633900Y-13413500D01*
X50546000Y-16281500D02*
X50546000Y-14325600D01*
X51714400Y-18669000D02*
X49936500Y-16891100D01*
X51714400Y-34577681D02*
X51714400Y-18669000D01*
X49936500Y-16891100D02*
X49936500Y-16891000D01*
X40640000Y-44450000D02*
X41842081Y-44450000D01*
X41842081Y-44450000D02*
X51714400Y-34577681D01*
X48361500Y-16891000D02*
X46888500Y-16891000D01*
X46888500Y-16891000D02*
X46888500Y-15367000D01*
X49176700Y-15288500D02*
X49403000Y-15288500D01*
X48361500Y-16891000D02*
X48361500Y-16103700D01*
X48361500Y-16103700D02*
X49176700Y-15288500D01*
X46888500Y-18415000D02*
X46888500Y-19939000D01*
X46888500Y-18415000D02*
X48361500Y-18415000D01*
X49176700Y-20017500D02*
X49403000Y-20017500D01*
X48361500Y-18415000D02*
X48361500Y-19202300D01*
X48361500Y-19202300D02*
X49176700Y-20017500D01*
X50546000Y-19024500D02*
X49936500Y-18415000D01*
X50546000Y-20955000D02*
X50546000Y-19024500D01*
X49403000Y-21892500D02*
X49608500Y-21892500D01*
X49608500Y-21892500D02*
X50546000Y-20955000D01*
X49643150Y-21892500D02*
X49403000Y-21892500D01*
X49603900Y-21892500D02*
X49403000Y-21892500D01*
X51104800Y-23393400D02*
X49603900Y-21892500D01*
X51104800Y-32740600D02*
X51104800Y-23393400D01*
X40640000Y-41910000D02*
X41935400Y-41910000D01*
X41935400Y-41910000D02*
X51104800Y-32740600D01*
X48361500Y-30607000D02*
X46888500Y-30607000D01*
X46888500Y-30607000D02*
X46888500Y-29083000D01*
X49202100Y-29004500D02*
X49403000Y-29004500D01*
X48361500Y-30607000D02*
X48361500Y-29845100D01*
X48361500Y-29845100D02*
X49202100Y-29004500D01*
X50546000Y-28067000D02*
X50546000Y-29997500D01*
X50546000Y-29997500D02*
X49936500Y-30607000D01*
X49403000Y-27129500D02*
X49608500Y-27129500D01*
X49608500Y-27129500D02*
X50546000Y-28067000D01*
X49936500Y-31082000D02*
X49936500Y-30607000D01*
X49936500Y-31394300D02*
X49936500Y-31082000D01*
X40640000Y-39370000D02*
X41960800Y-39370000D01*
X41960800Y-39370000D02*
X49936500Y-31394300D01*
X45313500Y-2616200D02*
X43840500Y-2616200D01*
X43840500Y-1168400D02*
X45313500Y-1168400D01*
X42291000Y-4038500D02*
X42316500Y-4038500D01*
X42900500Y-4038500D02*
X42766000Y-4038500D01*
X43882500Y-5207000D02*
X43882500Y-5020500D01*
X43882500Y-5020500D02*
X42900500Y-4038500D01*
X43840500Y-2616200D02*
X43840500Y-1168400D01*
X42766000Y-4038500D02*
X42291000Y-4038500D01*
X42418100Y-4038500D02*
X42291000Y-4038500D01*
X43840500Y-2616200D02*
X43840400Y-2616200D01*
X43840400Y-2616200D02*
X42418100Y-4038500D01*
X42829900Y-7162800D02*
X43882500Y-6110200D01*
X39370000Y-10095000D02*
X39370000Y-8864600D01*
X43882500Y-6110200D02*
X43882500Y-5207000D01*
X41071800Y-7162800D02*
X42829900Y-7162800D01*
X39370000Y-8864600D02*
X41071800Y-7162800D01*
X45313500Y-16891000D02*
X43840500Y-16891000D01*
X45313500Y-15367000D02*
X43840500Y-15367000D01*
X43840500Y-16891000D02*
X43840500Y-15367000D01*
X43840500Y-15367000D02*
X42824500Y-14351000D01*
X42334500Y-13868500D02*
X42291000Y-13868500D01*
X42817000Y-14351000D02*
X42334500Y-13868500D01*
X42824500Y-14351000D02*
X42817000Y-14351000D01*
X43882500Y-12861100D02*
X43882500Y-12700000D01*
X42291000Y-13868500D02*
X42875100Y-13868500D01*
X42875100Y-13868500D02*
X43882500Y-12861100D01*
X38100000Y-11303000D02*
X38100000Y-10095000D01*
X42291000Y-13868500D02*
X40665500Y-13868500D01*
X40665500Y-13868500D02*
X38100000Y-11303000D01*
X45313500Y-19939000D02*
X43840500Y-19939000D01*
X43840500Y-19939000D02*
X43840500Y-18415000D01*
X43840500Y-18415000D02*
X45313500Y-18415000D01*
X42342000Y-21437500D02*
X42291000Y-21437500D01*
X43840500Y-19939000D02*
X42342000Y-21437500D01*
X42766000Y-21437500D02*
X42291000Y-21437500D01*
X43882500Y-22606000D02*
X43882500Y-22444900D01*
X42875100Y-21437500D02*
X42766000Y-21437500D01*
X43882500Y-22444900D02*
X42875100Y-21437500D01*
X41816000Y-21437500D02*
X42291000Y-21437500D01*
X40474490Y-21437500D02*
X41816000Y-21437500D01*
X39370000Y-22541990D02*
X40474490Y-21437500D01*
X39370000Y-23557000D02*
X39370000Y-22541990D01*
X45313500Y-30607000D02*
X43840500Y-30607000D01*
X43840500Y-30607000D02*
X43840500Y-29083000D01*
X43840500Y-29083000D02*
X45313500Y-29083000D01*
X43815000Y-29083000D02*
X43840500Y-29083000D01*
X42291000Y-27584500D02*
X42316500Y-27584500D01*
X42316500Y-27584500D02*
X43815000Y-29083000D01*
X42766000Y-27584500D02*
X42291000Y-27584500D01*
X42900500Y-27584500D02*
X42766000Y-27584500D01*
X43882500Y-26416000D02*
X43882500Y-26602500D01*
X43882500Y-26602500D02*
X42900500Y-27584500D01*
X40919500Y-27584500D02*
X41816000Y-27584500D01*
X41816000Y-27584500D02*
X42291000Y-27584500D01*
X38100000Y-23557000D02*
X38100000Y-24765000D01*
X38100000Y-24765000D02*
X40919500Y-27584500D01*
X20320000Y-4216500D02*
X20320000Y-4900000D01*
X19431000Y-3327500D02*
X20320000Y-4216500D01*
X22479000Y-3327500D02*
X22453500Y-3327500D01*
X21320000Y-4461000D02*
X21320000Y-4900000D01*
X22453500Y-3327500D02*
X21320000Y-4461000D01*
X6271500Y-42720500D02*
X6271500Y-42926000D01*
X4445000Y-40792500D02*
X4445000Y-40894000D01*
X4445000Y-40894000D02*
X6271500Y-42720500D01*
X6271500Y-44909500D02*
X6271500Y-45085000D01*
X7112000Y-41910000D02*
X7112000Y-44069000D01*
X5969000Y-40792500D02*
X5994500Y-40792500D01*
X7112000Y-44069000D02*
X6271500Y-44909500D01*
X5994500Y-40792500D02*
X7112000Y-41910000D01*
X6271500Y-47068500D02*
X6271500Y-47244000D01*
X7620000Y-45720000D02*
X6271500Y-47068500D01*
X7620000Y-40894000D02*
X7620000Y-45720000D01*
X7493000Y-40792500D02*
X7518500Y-40792500D01*
X7518500Y-40792500D02*
X7620000Y-40894000D01*
X48539500Y-46967000D02*
X48562500Y-46990000D01*
X48539500Y-45085000D02*
X48539500Y-46967000D01*
X9447000Y-28602200D02*
X9447000Y-28194000D01*
X5969000Y-30708500D02*
X7340700Y-30708500D01*
X7340700Y-30708500D02*
X9447000Y-28602200D01*
X8267000Y-24690800D02*
X8267000Y-22103000D01*
X9447000Y-25870800D02*
X8267000Y-24690800D01*
X9447000Y-27357600D02*
X9447000Y-25870800D01*
X3956790Y-31450810D02*
X5226690Y-31450810D01*
X3479800Y-31927800D02*
X3956790Y-31450810D01*
X5226690Y-31450810D02*
X5969000Y-30708500D01*
X3479800Y-32588200D02*
X3479800Y-31927800D01*
X1778000Y-34290000D02*
X3479800Y-32588200D01*
X15454134Y-20903000D02*
X13467000Y-20903000D01*
X15925800Y-21374666D02*
X15454134Y-20903000D01*
X15925800Y-21894800D02*
X15925800Y-21374666D01*
X11532348Y-29768800D02*
X11963400Y-29768800D01*
X9804400Y-29768800D02*
X11532348Y-29768800D01*
X3022600Y-36550600D02*
X9804400Y-29768800D01*
X3022600Y-40665400D02*
X3022600Y-36550600D01*
X1778000Y-41910000D02*
X3022600Y-40665400D01*
X14681200Y-21767800D02*
X14681200Y-22504410D01*
X14316400Y-21403000D02*
X14681200Y-21767800D01*
X13467000Y-21403000D02*
X14316400Y-21403000D01*
X11836400Y-30505400D02*
X12573000Y-30505400D01*
X3556000Y-36957000D02*
X10007600Y-30505400D01*
X10007600Y-30505400D02*
X11836400Y-30505400D01*
X3556000Y-42672000D02*
X3556000Y-36957000D01*
X1778000Y-44450000D02*
X3556000Y-42672000D01*
X11267000Y-11161200D02*
X11267000Y-13203000D01*
X12293600Y-10134600D02*
X11267000Y-11161200D01*
X16357611Y-9347189D02*
X15570200Y-10134600D01*
X15875000Y-5334000D02*
X16357611Y-5816611D01*
X14917858Y-5334000D02*
X15875000Y-5334000D01*
X15570200Y-10134600D02*
X12293600Y-10134600D01*
X14493000Y-4909142D02*
X14917858Y-5334000D01*
X16357611Y-5816611D02*
X16357611Y-9347189D01*
X14493000Y-4135500D02*
X14493000Y-4909142D01*
X12141200Y-9677400D02*
X10767000Y-11051600D01*
X15392400Y-9677400D02*
X12141200Y-9677400D01*
X15951200Y-9118600D02*
X15392400Y-9677400D01*
X15951200Y-6019800D02*
X15951200Y-9118600D01*
X15671800Y-5740400D02*
X15951200Y-6019800D01*
X14674258Y-5740400D02*
X15671800Y-5740400D01*
X10767000Y-11051600D02*
X10767000Y-13203000D01*
X13843000Y-4909142D02*
X14674258Y-5740400D01*
X13843000Y-4135500D02*
X13843000Y-4909142D01*
X11464272Y-21176943D02*
X11033220Y-21176943D01*
X13467000Y-13903000D02*
X13421801Y-13948199D01*
X12141200Y-20500015D02*
X11464272Y-21176943D01*
X12718851Y-13948199D02*
X12141200Y-14525850D01*
X12141200Y-14525850D02*
X12141200Y-20500015D01*
X13421801Y-13948199D02*
X12718851Y-13948199D01*
X5325166Y-20865187D02*
X5629965Y-21169986D01*
X5325166Y-14664634D02*
X5325166Y-20865187D01*
X6019800Y-13970000D02*
X5325166Y-14664634D01*
X7123642Y-13970000D02*
X6019800Y-13970000D01*
X7267000Y-13826642D02*
X7123642Y-13970000D01*
X7267000Y-13203000D02*
X7267000Y-13826642D01*
X12737199Y-20842130D02*
X12459229Y-21120100D01*
X12737199Y-14504601D02*
X12737199Y-20842130D01*
X12838800Y-14403000D02*
X12737199Y-14504601D01*
X13467000Y-14403000D02*
X12838800Y-14403000D01*
X6533738Y-21171551D02*
X7456822Y-21171551D01*
X6194160Y-14427200D02*
X5867400Y-14753960D01*
X5867400Y-20505213D02*
X6533738Y-21171551D01*
X7241192Y-14427200D02*
X6194160Y-14427200D01*
X7767000Y-13901392D02*
X7241192Y-14427200D01*
X5867400Y-14753960D02*
X5867400Y-20505213D01*
X7767000Y-13203000D02*
X7767000Y-13901392D01*
X28493000Y-28643200D02*
X28493000Y-27715000D01*
X31218800Y-31369000D02*
X28493000Y-28643200D01*
X39065200Y-31369000D02*
X31218800Y-31369000D01*
X40640000Y-34290000D02*
X40640000Y-32943800D01*
X40640000Y-32943800D02*
X39065200Y-31369000D01*
X31750000Y-26441500D02*
X30226000Y-26441500D01*
X30226000Y-26441500D02*
X29209900Y-26441500D01*
X28838300Y-26441500D02*
X29209900Y-26441500D01*
X28493000Y-26786800D02*
X28838300Y-26441500D01*
X28493000Y-27715000D02*
X28493000Y-26786800D01*
X32329000Y-20413200D02*
X32329000Y-19460000D01*
X31775300Y-26441500D02*
X32562800Y-25654000D01*
X34053810Y-22166610D02*
X32329000Y-20441800D01*
X31750000Y-26441500D02*
X31775300Y-26441500D01*
X32562800Y-25654000D02*
X33782000Y-25654000D01*
X33782000Y-25654000D02*
X34053810Y-25382190D01*
X32329000Y-20441800D02*
X32329000Y-20413200D01*
X34053810Y-25382190D02*
X34053810Y-22166610D01*
X22860000Y-25806500D02*
X22860000Y-27279500D01*
X22860000Y-27279500D02*
X21209000Y-27279500D01*
X24538500Y-27660500D02*
X24593000Y-27715000D01*
X23295500Y-27715000D02*
X22860000Y-27279500D01*
X23796200Y-27715000D02*
X23799800Y-27711400D01*
X23796200Y-27715000D02*
X23295500Y-27715000D01*
X24593000Y-27715000D02*
X23796200Y-27715000D01*
X33274000Y-27711400D02*
X33274000Y-26441500D01*
X36550600Y-27711400D02*
X33274000Y-27711400D01*
X36728400Y-27711400D02*
X36550600Y-27711400D01*
X42164000Y-33147000D02*
X36728400Y-27711400D01*
X40640000Y-36830000D02*
X42164000Y-35306000D01*
X42164000Y-35306000D02*
X42164000Y-33147000D01*
X1094000Y-28602200D02*
X1094000Y-28194000D01*
X4445000Y-30708500D02*
X3200300Y-30708500D01*
X3200300Y-30708500D02*
X1094000Y-28602200D01*
X9267000Y-13203000D02*
X9267000Y-12061000D01*
X9267000Y-12061000D02*
X8051801Y-10845801D01*
X8051801Y-10845801D02*
X4952999Y-10845801D01*
X4952999Y-10845801D02*
X2311400Y-13487400D01*
X1094000Y-28194000D02*
X1094000Y-22455400D01*
X1094000Y-22455400D02*
X838200Y-22199600D01*
X17145000Y-9271000D02*
X17145000Y-8178900D01*
X15849600Y-10566400D02*
X17145000Y-9271000D01*
X12674600Y-10566400D02*
X15849600Y-10566400D01*
X12267000Y-10974000D02*
X12674600Y-10566400D01*
X12267000Y-13203000D02*
X12267000Y-10974000D01*
X4445000Y-38201602D02*
X4444998Y-38201600D01*
X4445000Y-39217500D02*
X4445000Y-38201602D01*
X4445000Y-36931600D02*
X4445000Y-38201602D01*
X3764790Y-20903000D02*
X2590804Y-22076986D01*
X2590804Y-22076986D02*
X2590804Y-23698200D01*
X4567000Y-20903000D02*
X3764790Y-20903000D01*
X5969000Y-39217500D02*
X5969000Y-38227003D01*
X5968997Y-38227000D02*
X5968997Y-36956997D01*
X5969000Y-38227003D02*
X5968997Y-38227000D01*
X3845348Y-21403000D02*
X3225810Y-22022538D01*
X4567000Y-21403000D02*
X3845348Y-21403000D01*
X3225810Y-22022538D02*
X3225810Y-23012400D01*
X7493000Y-37134800D02*
X6096000Y-35737800D01*
X7493000Y-39217500D02*
X7493000Y-37134800D01*
X5267000Y-24273200D02*
X4292600Y-25247600D01*
X5267000Y-22103000D02*
X5267000Y-24273200D01*
X28575000Y-3327500D02*
X30099000Y-3327500D01*
X31579500Y-3327500D02*
X31689000Y-3218000D01*
X30099000Y-3327500D02*
X31579500Y-3327500D01*
X34671000Y-7137500D02*
X33147000Y-8661500D01*
X34671000Y-7086500D02*
X34671000Y-7137500D01*
X32384900Y-8661500D02*
X32385000Y-8661400D01*
X32384900Y-8661500D02*
X31623000Y-8661500D01*
X33147000Y-8661500D02*
X32384900Y-8661500D01*
X29729000Y-16682970D02*
X30812545Y-15599425D01*
X29729000Y-19460000D02*
X29729000Y-16682970D01*
X29890000Y-5178000D02*
X29890000Y-6496600D01*
X30479900Y-7086500D02*
X31623000Y-7086500D01*
X31623000Y-7086500D02*
X33147000Y-7086500D01*
X30479900Y-7086500D02*
X30886500Y-7086500D01*
X29890000Y-6496600D02*
X30479900Y-7086500D01*
X30379000Y-17246000D02*
X30988000Y-16637000D01*
X30379000Y-19460000D02*
X30379000Y-17246000D01*
X34668975Y-16637000D02*
X34950400Y-16918425D01*
X30988000Y-16637000D02*
X34668975Y-16637000D01*
X14859748Y-24587200D02*
X15290800Y-24587200D01*
X12267000Y-24230400D02*
X12623800Y-24587200D01*
X12623800Y-24587200D02*
X14859748Y-24587200D01*
X12267000Y-22103000D02*
X12267000Y-24230400D01*
X34671000Y-8661500D02*
X34671000Y-10134500D01*
X31689000Y-5654000D02*
X32308800Y-6273800D01*
X35073728Y-6273800D02*
X35450810Y-6650882D01*
X35450810Y-6650882D02*
X35450810Y-8356690D01*
X31689000Y-5418000D02*
X31689000Y-5654000D01*
X32308800Y-6273800D02*
X35073728Y-6273800D01*
X35146000Y-8661500D02*
X34671000Y-8661500D01*
X35450810Y-8356690D02*
X35146000Y-8661500D01*
X33589000Y-3977600D02*
X33589000Y-3218000D01*
X33223200Y-4343400D02*
X33589000Y-3977600D01*
X32537400Y-4343400D02*
X33223200Y-4343400D01*
X31689000Y-5418000D02*
X31689000Y-5191800D01*
X31689000Y-5191800D02*
X32537400Y-4343400D01*
X34671000Y-10134600D02*
X34671000Y-10134500D01*
X40640000Y-16103600D02*
X34671000Y-10134600D01*
X40640000Y-18607000D02*
X40640000Y-16103600D01*
X40640000Y-4170000D02*
X40640000Y-5145000D01*
X39332410Y-2184400D02*
X40640000Y-3491990D01*
X33589000Y-3218000D02*
X33589000Y-3012400D01*
X40640000Y-3491990D02*
X40640000Y-4170000D01*
X33589000Y-3977600D02*
X34265210Y-4653810D01*
X35652118Y-4653810D02*
X36017200Y-4288728D01*
X34265210Y-4653810D02*
X35652118Y-4653810D01*
X36452672Y-2184400D02*
X36474400Y-2184400D01*
X36017200Y-2619872D02*
X36452672Y-2184400D01*
X36017200Y-4288728D02*
X36017200Y-2619872D01*
X36474400Y-2184400D02*
X39332410Y-2184400D01*
X31623000Y-10134500D02*
X33147000Y-10134500D01*
X33147000Y-10134500D02*
X33147000Y-10185500D01*
X33908950Y-10947450D02*
X33909000Y-10947400D01*
X33908950Y-10947450D02*
X34671000Y-11709500D01*
X33909000Y-10947400D02*
X33909000Y-10922000D01*
X33147000Y-10185500D02*
X33908950Y-10947450D01*
X31679000Y-15768201D02*
X31648401Y-15798800D01*
X31679000Y-13560000D02*
X31679000Y-15768201D01*
X31623000Y-11709500D02*
X33147000Y-11709500D01*
X32329000Y-12552800D02*
X32329000Y-12606800D01*
X32329000Y-12606800D02*
X32329000Y-13560000D01*
X33147000Y-11709500D02*
X33147000Y-11734800D01*
X33147000Y-11734800D02*
X32329000Y-12552800D01*
X29890000Y-11078000D02*
X30966200Y-11078000D01*
X31597700Y-11709500D02*
X31623000Y-11709500D01*
X30966200Y-11078000D02*
X31597700Y-11709500D01*
X33121600Y-15951200D02*
X34671748Y-15951200D01*
X34671748Y-15951200D02*
X35102800Y-15951200D01*
X32329000Y-13560000D02*
X32329000Y-15158600D01*
X32329000Y-15158600D02*
X33121600Y-15951200D01*
X14275548Y-25222200D02*
X14706600Y-25222200D01*
X12522200Y-25222200D02*
X14275548Y-25222200D01*
X11767000Y-24467000D02*
X12522200Y-25222200D01*
X11767000Y-22103000D02*
X11767000Y-24467000D01*
X21209000Y-24231500D02*
X21209000Y-22758500D01*
X21209000Y-22758500D02*
X19558000Y-22758500D01*
X19558000Y-22758500D02*
X19558000Y-24231500D01*
X21988810Y-17543810D02*
X21971000Y-17526000D01*
X21209000Y-22758500D02*
X21209000Y-22733000D01*
X21988810Y-21953190D02*
X21988810Y-17543810D01*
X21209000Y-22733000D02*
X21988810Y-21953190D01*
X21915000Y-17470000D02*
X21988810Y-17543810D01*
X21915000Y-16158000D02*
X21915000Y-17470000D01*
X19558000Y-21183500D02*
X21209000Y-21183500D01*
X21107500Y-18135500D02*
X21209000Y-18135500D01*
X19532500Y-21183500D02*
X18778190Y-20429190D01*
X19558000Y-21183500D02*
X19532500Y-21183500D01*
X18778190Y-20429190D02*
X18778190Y-19274882D01*
X19175262Y-18877810D02*
X20365190Y-18877810D01*
X18778190Y-19274882D02*
X19175262Y-18877810D01*
X20365190Y-18877810D02*
X21107500Y-18135500D01*
X21265000Y-18079500D02*
X21209000Y-18135500D01*
X21265000Y-16158000D02*
X21265000Y-18079500D01*
X20574000Y-16199000D02*
X20615000Y-16158000D01*
X19590700Y-18135500D02*
X19558000Y-18135500D01*
X20615000Y-17111200D02*
X19590700Y-18135500D01*
X20615000Y-16158000D02*
X20615000Y-17111200D01*
X20615000Y-15204800D02*
X20615000Y-16158000D01*
X20615000Y-14741800D02*
X20615000Y-15204800D01*
X21265000Y-10258000D02*
X21265000Y-14091800D01*
X21265000Y-14091800D02*
X20615000Y-14741800D01*
X24003000Y-3327500D02*
X25527000Y-3327500D01*
X22733000Y-5943500D02*
X24257000Y-5943500D01*
X24003000Y-5689500D02*
X24257000Y-5943500D01*
X24003000Y-3327500D02*
X24003000Y-5689500D01*
X25717700Y-3327500D02*
X26640000Y-4249800D01*
X26640000Y-4249800D02*
X26640000Y-5178000D01*
X25527000Y-3327500D02*
X25717700Y-3327500D01*
X22733000Y-7518500D02*
X24257000Y-7518500D01*
X24993500Y-7518500D02*
X24257000Y-7518500D01*
X25990000Y-5178000D02*
X25990000Y-6522000D01*
X25990000Y-6522000D02*
X24993500Y-7518500D01*
X24765000Y-8464000D02*
X24765000Y-12573000D01*
X24257000Y-7518500D02*
X24257000Y-7956000D01*
X24257000Y-7956000D02*
X24765000Y-8464000D01*
X25827000Y-15073000D02*
X25486994Y-15073000D01*
X25486994Y-15073000D02*
X24765000Y-14351006D01*
X21209000Y-28854500D02*
X22860000Y-28854500D01*
X21209000Y-28854500D02*
X19558000Y-28854500D01*
X23335000Y-28854500D02*
X22860000Y-28854500D01*
X24952142Y-28854500D02*
X23335000Y-28854500D01*
X25243000Y-28563642D02*
X24952142Y-28854500D01*
X25243000Y-27715000D02*
X25243000Y-28563642D01*
X25243000Y-21815000D02*
X24593000Y-21815000D01*
X23466000Y-21815000D02*
X24593000Y-21815000D01*
X22860000Y-21183500D02*
X22860000Y-21209000D01*
X22860000Y-21209000D02*
X23466000Y-21815000D01*
X22860000Y-22758500D02*
X22860000Y-24231500D01*
X27193000Y-26558000D02*
X27193000Y-27715000D01*
X22860000Y-24231500D02*
X24866500Y-24231500D01*
X24866500Y-24231500D02*
X27193000Y-26558000D01*
X31750000Y-23393500D02*
X30226000Y-23393500D01*
X27843000Y-26786800D02*
X27843000Y-27715000D01*
X27843000Y-25776400D02*
X27843000Y-26786800D01*
X30226000Y-23393500D02*
X30225900Y-23393500D01*
X30225900Y-23393500D02*
X27843000Y-25776400D01*
X25990000Y-11078000D02*
X26640000Y-11078000D01*
X25990000Y-12006200D02*
X25990000Y-11078000D01*
X26467000Y-14259800D02*
X25990000Y-13782800D01*
X25990000Y-13782800D02*
X25990000Y-12006200D01*
X26467000Y-15073000D02*
X26467000Y-14259800D01*
X28512012Y-16713200D02*
X29199199Y-17400387D01*
X29210000Y-21277500D02*
X29751000Y-21818500D01*
X29199199Y-20453841D02*
X29210000Y-20464642D01*
X26467000Y-15073000D02*
X26467000Y-16129200D01*
X29199199Y-17400387D02*
X29199199Y-20453841D01*
X27051000Y-16713200D02*
X28512012Y-16713200D01*
X29751000Y-21818500D02*
X30226000Y-21818500D01*
X29210000Y-20464642D02*
X29210000Y-21277500D01*
X26467000Y-16129200D02*
X27051000Y-16713200D01*
X31679000Y-21747500D02*
X31750000Y-21818500D01*
X31679000Y-19460000D02*
X31679000Y-21747500D01*
X30226000Y-24866500D02*
X31750000Y-24866500D01*
X33274000Y-24866500D02*
X31750000Y-24866500D01*
X33274000Y-24429000D02*
X33274000Y-24866500D01*
X33274000Y-23596600D02*
X33274000Y-24429000D01*
X32283400Y-22606000D02*
X33274000Y-23596600D01*
X27193000Y-22743200D02*
X27294601Y-22844801D01*
X27193000Y-21815000D02*
X27193000Y-22743200D01*
X29453799Y-22844801D02*
X29692600Y-22606000D01*
X27294601Y-22844801D02*
X29453799Y-22844801D01*
X29692600Y-22606000D02*
X32283400Y-22606000D01*
X19820000Y-8428200D02*
X19820000Y-7800000D01*
X18770611Y-9093189D02*
X19202400Y-8661400D01*
X13467000Y-15403000D02*
X15051600Y-15403000D01*
X19586800Y-8661400D02*
X19820000Y-8428200D01*
X18770611Y-11683989D02*
X18770611Y-9093189D01*
X15051600Y-15403000D02*
X18770611Y-11683989D01*
X19202400Y-8661400D02*
X19586800Y-8661400D01*
X18364200Y-8427600D02*
X18991800Y-7800000D01*
X18991800Y-7800000D02*
X19320000Y-7800000D01*
X14976850Y-14903000D02*
X18364200Y-11515650D01*
X13467000Y-14903000D02*
X14976850Y-14903000D01*
X18364200Y-11515650D02*
X18364200Y-8427600D01*
X8767000Y-24307928D02*
X8767000Y-22103000D01*
X10575882Y-26116810D02*
X8767000Y-24307928D01*
X11537210Y-26116810D02*
X10575882Y-26116810D01*
X11912600Y-26492200D02*
X11537210Y-26116810D01*
X11912600Y-28219400D02*
X11912600Y-26492200D01*
X24843600Y-29692600D02*
X13385800Y-29692600D01*
X25893000Y-28643200D02*
X24843600Y-29692600D01*
X13385800Y-29692600D02*
X11912600Y-28219400D01*
X25893000Y-27715000D02*
X25893000Y-28643200D01*
X20320000Y-7800000D02*
X20320000Y-8890000D01*
X20320000Y-11511756D02*
X20319316Y-11511072D01*
X17672790Y-16083810D02*
X20320000Y-13436600D01*
X20320000Y-13436600D02*
X20320000Y-11511756D01*
X16605990Y-16083810D02*
X17672790Y-16083810D01*
X16286800Y-16403000D02*
X16605990Y-16083810D01*
X13467000Y-16403000D02*
X16286800Y-16403000D01*
X27290000Y-11078000D02*
X27290000Y-10149800D01*
X27290000Y-10149800D02*
X26919200Y-9779000D01*
X26919200Y-9779000D02*
X26314400Y-9779000D01*
X15147988Y-15903000D02*
X13467000Y-15903000D01*
X18096988Y-12954000D02*
X15147988Y-15903000D01*
X19126200Y-12954000D02*
X18096988Y-12954000D01*
X19077600Y-4900000D02*
X19320000Y-4900000D01*
X18825199Y-5152401D02*
X19077600Y-4900000D01*
X17957800Y-8255000D02*
X18825199Y-7387601D01*
X18825199Y-7387601D02*
X18825199Y-5152401D01*
X17957800Y-9220200D02*
X17957800Y-8255000D01*
X15316200Y-11861800D02*
X17957800Y-9220200D01*
X13411200Y-11861800D02*
X15316200Y-11861800D01*
X12767000Y-12506000D02*
X13411200Y-11861800D01*
X12767000Y-13203000D02*
X12767000Y-12506000D01*
X9767000Y-11462653D02*
X9657400Y-11353053D01*
X9767000Y-13203000D02*
X9767000Y-11462653D01*
X28038688Y-16243299D02*
X28453833Y-15828154D01*
X27484099Y-16243299D02*
X28038688Y-16243299D01*
X27127000Y-15073000D02*
X27127000Y-15886200D01*
X27127000Y-15886200D02*
X27484099Y-16243299D01*
X8267000Y-11987353D02*
X7760447Y-11480800D01*
X8267000Y-13203000D02*
X8267000Y-11987353D01*
X27767000Y-15073000D02*
X28267335Y-15073000D01*
X28267335Y-15073000D02*
X28343976Y-14996359D01*
X28509600Y-17693000D02*
X28524200Y-17678400D01*
X27767000Y-17693000D02*
X28509600Y-17693000D01*
X6767000Y-11491400D02*
X6756400Y-11480800D01*
X6767000Y-13203000D02*
X6767000Y-11491400D01*
X19315000Y-16158000D02*
X19965000Y-16158000D01*
X3601400Y-16403000D02*
X3556000Y-16357600D01*
X4567000Y-16403000D02*
X3601400Y-16403000D01*
X18417610Y-18008590D02*
X18364200Y-18008590D01*
X19315000Y-17111200D02*
X18417610Y-18008590D01*
X19315000Y-16158000D02*
X19315000Y-17111200D01*
X34279000Y-13560000D02*
X34279000Y-14746400D01*
X34279000Y-14746400D02*
X34290000Y-14757400D01*
X4567000Y-20403000D02*
X3362580Y-20403000D01*
X3362580Y-20403000D02*
X3362577Y-20403003D01*
X33629000Y-13560000D02*
X33629000Y-15341000D01*
X33629000Y-15341000D02*
X33629600Y-15341600D01*
X4567000Y-19903000D02*
X3722814Y-19903000D01*
X3722814Y-19903000D02*
X3422303Y-19602489D01*
X3422303Y-19602489D02*
X3221701Y-19602489D01*
X32979000Y-14747600D02*
X32969200Y-14757400D01*
X32979000Y-13560000D02*
X32979000Y-14747600D01*
X3938800Y-19403000D02*
X3581400Y-19045600D01*
X4567000Y-19403000D02*
X3938800Y-19403000D01*
X3581400Y-19045600D02*
X3581400Y-18669000D01*
X28590000Y-5178000D02*
X28590000Y-6263400D01*
X28590000Y-6263400D02*
X28600400Y-6273800D01*
X36830000Y-10095000D02*
X36830000Y-6731002D01*
X36830000Y-6731002D02*
X36830000Y-6731022D01*
X39370000Y-6350000D02*
X38988978Y-6731022D01*
X39370000Y-5145000D02*
X39370000Y-6350000D01*
X38988978Y-6731022D02*
X36830000Y-6731022D01*
X28590000Y-9844801D02*
X28194000Y-9448801D01*
X28590000Y-11078000D02*
X28590000Y-9844801D01*
X39395400Y-18632400D02*
X39370000Y-18607000D01*
X39395400Y-19812000D02*
X39395400Y-18632400D01*
X36830000Y-23557000D02*
X36830000Y-22377400D01*
X36830000Y-22377400D02*
X39395400Y-19812000D01*
X31469852Y-17678400D02*
X31038800Y-17678400D01*
X34772600Y-17678400D02*
X31469852Y-17678400D01*
X35509200Y-18415000D02*
X34772600Y-17678400D01*
X35509200Y-22783800D02*
X35509200Y-18415000D01*
X36830000Y-23557000D02*
X36282400Y-23557000D01*
X36282400Y-23557000D02*
X35509200Y-22783800D01*
X27290000Y-6106200D02*
X27290000Y-5178000D01*
X25400000Y-7996200D02*
X27290000Y-6106200D01*
X25400000Y-12801600D02*
X25400000Y-7996200D01*
X23215000Y-14986600D02*
X25400000Y-12801600D01*
X23215000Y-16158000D02*
X23215000Y-14986600D01*
X30715800Y-12293600D02*
X31029000Y-12606800D01*
X29527400Y-12293600D02*
X30715800Y-12293600D01*
X29240000Y-11078000D02*
X29240000Y-12006200D01*
X31029000Y-12606800D02*
X31029000Y-13560000D01*
X29240000Y-12006200D02*
X29527400Y-12293600D01*
X21915000Y-9304800D02*
X21915000Y-10258000D01*
X21915000Y-8122800D02*
X21915000Y-9304800D01*
X21592200Y-7800000D02*
X21915000Y-8122800D01*
X21320000Y-7800000D02*
X21592200Y-7800000D01*
X22565000Y-9304800D02*
X22565000Y-10258000D01*
X22852800Y-9017000D02*
X22565000Y-9304800D01*
X23577200Y-9017000D02*
X22852800Y-9017000D01*
X23865000Y-10258000D02*
X23865000Y-9304800D01*
X23865000Y-9304800D02*
X23577200Y-9017000D01*
X22565000Y-14925400D02*
X22565000Y-16158000D01*
X23215000Y-14275400D02*
X22565000Y-14925400D01*
X23215000Y-10258000D02*
X23215000Y-14275400D01*
X25893000Y-20886800D02*
X25893000Y-21815000D01*
X25826190Y-20819990D02*
X25893000Y-20886800D01*
X25826190Y-18507010D02*
X25826190Y-20819990D01*
X25827000Y-18506200D02*
X25826190Y-18507010D01*
X25827000Y-17693000D02*
X25827000Y-18506200D01*
X29240000Y-8259600D02*
X30632400Y-9652000D01*
X29240000Y-5178000D02*
X29240000Y-8259600D01*
X30379000Y-14536437D02*
X30629759Y-14787196D01*
X30379000Y-13560000D02*
X30379000Y-14536437D01*
X1320800Y-7289800D02*
X1320800Y-11404500D01*
X2124000Y-5715000D02*
X2124000Y-6486600D01*
X2124000Y-6486600D02*
X1320800Y-7289800D01*
D33*
X7274000Y-7331000D02*
X5715000Y-8890000D01*
X7274000Y-5715000D02*
X7274000Y-7331000D01*
D32*
X29725400Y-13563600D02*
X29729000Y-13560000D01*
X29496800Y-13335000D02*
X29725400Y-13563600D01*
X28981400Y-13335000D02*
X29496800Y-13335000D01*
X28346500Y-13335000D02*
X28981400Y-13335000D01*
X28981400Y-13335000D02*
X29133804Y-13335000D01*
X26543000Y-29717900D02*
X26542900Y-29718000D01*
X26543000Y-28854400D02*
X26543000Y-28829000D01*
X26543000Y-28854400D02*
X26543000Y-29717900D01*
X26543000Y-27715000D02*
X26543000Y-28854400D01*
D33*
X9460500Y-6493000D02*
X9398000Y-6555500D01*
X10880600Y-6493000D02*
X10938000Y-6493000D01*
X10938000Y-6493000D02*
X10947400Y-6502400D01*
X10880600Y-6493000D02*
X9460500Y-6493000D01*
X12115800Y-6493000D02*
X10880600Y-6493000D01*
D35*
X15143000Y-4135500D02*
X15143000Y-3145000D01*
D33*
X15143000Y-3145000D02*
X15046000Y-3048000D01*
X12046838Y-3048000D02*
X11633200Y-3461638D01*
X15046000Y-3048000D02*
X12046838Y-3048000D01*
X11633200Y-3461638D02*
X11633200Y-5257800D01*
X12115800Y-5740400D02*
X12115800Y-6493000D01*
X11633200Y-5257800D02*
X12115800Y-5740400D01*
X6111238Y-3175000D02*
X7274000Y-3175000D01*
X4191000Y-5095238D02*
X6111238Y-3175000D01*
X4191000Y-7874000D02*
X4191000Y-5095238D01*
X3175000Y-8890000D02*
X4191000Y-7874000D01*
X8509000Y-3175000D02*
X7274000Y-3175000D01*
X8890000Y-3556000D02*
X8509000Y-3175000D01*
X8890000Y-4705913D02*
X8890000Y-3556000D01*
X9398000Y-5213913D02*
X8890000Y-4705913D01*
X9398000Y-6555500D02*
X9398000Y-5213913D01*
D35*
X17145000Y-5689600D02*
X17145000Y-6603900D01*
X15590900Y-4135500D02*
X17145000Y-5689600D01*
X15143000Y-4135500D02*
X15590900Y-4135500D01*
X17703800Y-7162700D02*
X17703800Y-7188200D01*
X17145000Y-6603900D02*
X17703800Y-7162700D01*
X33782000Y-711200D02*
X35509200Y-2438400D01*
X19131148Y-711200D02*
X33782000Y-711200D01*
X18440400Y-1401948D02*
X19131148Y-711200D01*
X18440400Y-4755133D02*
X18440400Y-1401948D01*
X17505933Y-5689600D02*
X18440400Y-4755133D01*
X17145000Y-5689600D02*
X17505933Y-5689600D01*
X35509200Y-2334776D02*
X35489353Y-2314929D01*
X35509200Y-2438400D02*
X35509200Y-2334776D01*
D32*
X27843000Y-21815000D02*
X28493000Y-21815000D01*
X31029000Y-19460000D02*
X31029000Y-20413200D01*
X30639600Y-20802600D02*
X30200600Y-20802600D01*
X31029000Y-20413200D02*
X30639600Y-20802600D01*
X27843000Y-20826356D02*
X27848719Y-20820637D01*
X27843000Y-21815000D02*
X27843000Y-20826356D01*
M02*
