G04 #@! TF.GenerationSoftware,KiCad,Pcbnew,5.1.10-88a1d61d58~88~ubuntu20.04.1*
G04 #@! TF.CreationDate,2021-06-15T20:39:54-04:00*
G04 #@! TF.ProjectId,oscope,6f73636f-7065-42e6-9b69-6361645f7063,rev?*
G04 #@! TF.SameCoordinates,PX3c8eee0PY31a8670*
G04 #@! TF.FileFunction,Legend,Bot*
G04 #@! TF.FilePolarity,Positive*
%FSLAX46Y46*%
G04 Gerber Fmt 4.6, Leading zero omitted, Abs format (unit mm)*
G04 Created by KiCad (PCBNEW 5.1.10-88a1d61d58~88~ubuntu20.04.1) date 2021-06-15 20:39:54*
%MOMM*%
%LPD*%
G01*
G04 APERTURE LIST*
%ADD10C,0.150000*%
%ADD11C,0.152400*%
%ADD12C,0.100000*%
%ADD13O,1.160000X2.160000*%
%ADD14O,1.320000X2.520000*%
%ADD15O,1.700000X1.700000*%
%ADD16R,1.700000X1.700000*%
G04 APERTURE END LIST*
D10*
X50165000Y-48260000D02*
X50800000Y-47625000D01*
X50165000Y-48260000D02*
X49530000Y-47625000D01*
X47625000Y-48260000D02*
X48260000Y-47625000D01*
X47625000Y-48260000D02*
X46990000Y-47625000D01*
X3175000Y-48260000D02*
X3810000Y-47625000D01*
X2540000Y-47625000D02*
X3175000Y-48260000D01*
X5715000Y-48260000D02*
X5080000Y-47625000D01*
X6350000Y-47625000D02*
X5715000Y-48260000D01*
X3175000Y-46990000D02*
X3175000Y-48260000D01*
X5715000Y-46990000D02*
X5715000Y-48260000D01*
X47625000Y-46990000D02*
X47625000Y-48260000D01*
X50165000Y-46990000D02*
X50165000Y-48260000D01*
D11*
X49657000Y-44314654D02*
X49608619Y-44217892D01*
X49608619Y-44072749D01*
X49657000Y-43927606D01*
X49753761Y-43830844D01*
X49850523Y-43782463D01*
X50044047Y-43734082D01*
X50189190Y-43734082D01*
X50382714Y-43782463D01*
X50479476Y-43830844D01*
X50576238Y-43927606D01*
X50624619Y-44072749D01*
X50624619Y-44169511D01*
X50576238Y-44314654D01*
X50527857Y-44363035D01*
X50189190Y-44363035D01*
X50189190Y-44169511D01*
X50624619Y-44798463D02*
X49608619Y-44798463D01*
X50624619Y-45379035D01*
X49608619Y-45379035D01*
X50624619Y-45862844D02*
X49608619Y-45862844D01*
X49608619Y-46104749D01*
X49657000Y-46249892D01*
X49753761Y-46346654D01*
X49850523Y-46395035D01*
X50044047Y-46443416D01*
X50189190Y-46443416D01*
X50382714Y-46395035D01*
X50479476Y-46346654D01*
X50576238Y-46249892D01*
X50624619Y-46104749D01*
X50624619Y-45862844D01*
X47068619Y-43975987D02*
X47068619Y-44604940D01*
X47455666Y-44266273D01*
X47455666Y-44411416D01*
X47504047Y-44508178D01*
X47552428Y-44556559D01*
X47649190Y-44604940D01*
X47891095Y-44604940D01*
X47987857Y-44556559D01*
X48036238Y-44508178D01*
X48084619Y-44411416D01*
X48084619Y-44121130D01*
X48036238Y-44024368D01*
X47987857Y-43975987D01*
X47068619Y-44895225D02*
X48084619Y-45233892D01*
X47068619Y-45572559D01*
X47068619Y-45814463D02*
X47068619Y-46443416D01*
X47455666Y-46104749D01*
X47455666Y-46249892D01*
X47504047Y-46346654D01*
X47552428Y-46395035D01*
X47649190Y-46443416D01*
X47891095Y-46443416D01*
X47987857Y-46395035D01*
X48036238Y-46346654D01*
X48084619Y-46249892D01*
X48084619Y-45959606D01*
X48036238Y-45862844D01*
X47987857Y-45814463D01*
X5255380Y-44024368D02*
X5207000Y-44072749D01*
X5158619Y-44169511D01*
X5158619Y-44411416D01*
X5207000Y-44508178D01*
X5255380Y-44556559D01*
X5352142Y-44604940D01*
X5448904Y-44604940D01*
X5594047Y-44556559D01*
X6174619Y-43975987D01*
X6174619Y-44604940D01*
X5158619Y-44895225D02*
X6174619Y-45233892D01*
X5158619Y-45572559D01*
X5158619Y-46395035D02*
X5158619Y-45911225D01*
X5642428Y-45862844D01*
X5594047Y-45911225D01*
X5545666Y-46007987D01*
X5545666Y-46249892D01*
X5594047Y-46346654D01*
X5642428Y-46395035D01*
X5739190Y-46443416D01*
X5981095Y-46443416D01*
X6077857Y-46395035D01*
X6126238Y-46346654D01*
X6174619Y-46249892D01*
X6174619Y-46007987D01*
X6126238Y-45911225D01*
X6077857Y-45862844D01*
X2618619Y-45524178D02*
X2618619Y-45040368D01*
X3102428Y-44991987D01*
X3054047Y-45040368D01*
X3005666Y-45137130D01*
X3005666Y-45379035D01*
X3054047Y-45475797D01*
X3102428Y-45524178D01*
X3199190Y-45572559D01*
X3441095Y-45572559D01*
X3537857Y-45524178D01*
X3586238Y-45475797D01*
X3634619Y-45379035D01*
X3634619Y-45137130D01*
X3586238Y-45040368D01*
X3537857Y-44991987D01*
X2618619Y-45862844D02*
X3634619Y-46201511D01*
X2618619Y-46540178D01*
X10550797Y-33733619D02*
X9921844Y-33733619D01*
X10260511Y-34120666D01*
X10115368Y-34120666D01*
X10018606Y-34169047D01*
X9970225Y-34217428D01*
X9921844Y-34314190D01*
X9921844Y-34556095D01*
X9970225Y-34652857D01*
X10018606Y-34701238D01*
X10115368Y-34749619D01*
X10405654Y-34749619D01*
X10502416Y-34701238D01*
X10550797Y-34652857D01*
X9631559Y-33733619D02*
X9292892Y-34749619D01*
X8954225Y-33733619D01*
X8712320Y-33733619D02*
X8083368Y-33733619D01*
X8422035Y-34120666D01*
X8276892Y-34120666D01*
X8180130Y-34169047D01*
X8131749Y-34217428D01*
X8083368Y-34314190D01*
X8083368Y-34556095D01*
X8131749Y-34652857D01*
X8180130Y-34701238D01*
X8276892Y-34749619D01*
X8567178Y-34749619D01*
X8663940Y-34701238D01*
X8712320Y-34652857D01*
X9921844Y-36322000D02*
X10018606Y-36273619D01*
X10163749Y-36273619D01*
X10308892Y-36322000D01*
X10405654Y-36418761D01*
X10454035Y-36515523D01*
X10502416Y-36709047D01*
X10502416Y-36854190D01*
X10454035Y-37047714D01*
X10405654Y-37144476D01*
X10308892Y-37241238D01*
X10163749Y-37289619D01*
X10066987Y-37289619D01*
X9921844Y-37241238D01*
X9873463Y-37192857D01*
X9873463Y-36854190D01*
X10066987Y-36854190D01*
X9438035Y-37289619D02*
X9438035Y-36273619D01*
X8857463Y-37289619D01*
X8857463Y-36273619D01*
X8373654Y-37289619D02*
X8373654Y-36273619D01*
X8131749Y-36273619D01*
X7986606Y-36322000D01*
X7889844Y-36418761D01*
X7841463Y-36515523D01*
X7793082Y-36709047D01*
X7793082Y-36854190D01*
X7841463Y-37047714D01*
X7889844Y-37144476D01*
X7986606Y-37241238D01*
X8131749Y-37289619D01*
X8373654Y-37289619D01*
X10454035Y-47449619D02*
X10454035Y-46433619D01*
X10212130Y-46433619D01*
X10066987Y-46482000D01*
X9970225Y-46578761D01*
X9921844Y-46675523D01*
X9873463Y-46869047D01*
X9873463Y-47014190D01*
X9921844Y-47207714D01*
X9970225Y-47304476D01*
X10066987Y-47401238D01*
X10212130Y-47449619D01*
X10454035Y-47449619D01*
X9534797Y-46433619D02*
X8905844Y-46433619D01*
X9244511Y-46820666D01*
X9099368Y-46820666D01*
X9002606Y-46869047D01*
X8954225Y-46917428D01*
X8905844Y-47014190D01*
X8905844Y-47256095D01*
X8954225Y-47352857D01*
X9002606Y-47401238D01*
X9099368Y-47449619D01*
X9389654Y-47449619D01*
X9486416Y-47401238D01*
X9534797Y-47352857D01*
X10454035Y-44909619D02*
X10454035Y-43893619D01*
X10212130Y-43893619D01*
X10066987Y-43942000D01*
X9970225Y-44038761D01*
X9921844Y-44135523D01*
X9873463Y-44329047D01*
X9873463Y-44474190D01*
X9921844Y-44667714D01*
X9970225Y-44764476D01*
X10066987Y-44861238D01*
X10212130Y-44909619D01*
X10454035Y-44909619D01*
X9486416Y-43990380D02*
X9438035Y-43942000D01*
X9341273Y-43893619D01*
X9099368Y-43893619D01*
X9002606Y-43942000D01*
X8954225Y-43990380D01*
X8905844Y-44087142D01*
X8905844Y-44183904D01*
X8954225Y-44329047D01*
X9534797Y-44909619D01*
X8905844Y-44909619D01*
X10454035Y-42369619D02*
X10454035Y-41353619D01*
X10212130Y-41353619D01*
X10066987Y-41402000D01*
X9970225Y-41498761D01*
X9921844Y-41595523D01*
X9873463Y-41789047D01*
X9873463Y-41934190D01*
X9921844Y-42127714D01*
X9970225Y-42224476D01*
X10066987Y-42321238D01*
X10212130Y-42369619D01*
X10454035Y-42369619D01*
X8905844Y-42369619D02*
X9486416Y-42369619D01*
X9196130Y-42369619D02*
X9196130Y-41353619D01*
X9292892Y-41498761D01*
X9389654Y-41595523D01*
X9486416Y-41643904D01*
X10454035Y-39829619D02*
X10454035Y-38813619D01*
X10212130Y-38813619D01*
X10066987Y-38862000D01*
X9970225Y-38958761D01*
X9921844Y-39055523D01*
X9873463Y-39249047D01*
X9873463Y-39394190D01*
X9921844Y-39587714D01*
X9970225Y-39684476D01*
X10066987Y-39781238D01*
X10212130Y-39829619D01*
X10454035Y-39829619D01*
X9244511Y-38813619D02*
X9147749Y-38813619D01*
X9050987Y-38862000D01*
X9002606Y-38910380D01*
X8954225Y-39007142D01*
X8905844Y-39200666D01*
X8905844Y-39442571D01*
X8954225Y-39636095D01*
X9002606Y-39732857D01*
X9050987Y-39781238D01*
X9147749Y-39829619D01*
X9244511Y-39829619D01*
X9341273Y-39781238D01*
X9389654Y-39732857D01*
X9438035Y-39636095D01*
X9486416Y-39442571D01*
X9486416Y-39200666D01*
X9438035Y-39007142D01*
X9389654Y-38910380D01*
X9341273Y-38862000D01*
X9244511Y-38813619D01*
X44676060Y-33733619D02*
X44434155Y-34749619D01*
X44240631Y-34023904D01*
X44047107Y-34749619D01*
X43805202Y-33733619D01*
X42885964Y-33782000D02*
X42982726Y-33733619D01*
X43127869Y-33733619D01*
X43273012Y-33782000D01*
X43369774Y-33878761D01*
X43418155Y-33975523D01*
X43466536Y-34169047D01*
X43466536Y-34314190D01*
X43418155Y-34507714D01*
X43369774Y-34604476D01*
X43273012Y-34701238D01*
X43127869Y-34749619D01*
X43031107Y-34749619D01*
X42885964Y-34701238D01*
X42837583Y-34652857D01*
X42837583Y-34314190D01*
X43031107Y-34314190D01*
X44482536Y-36273619D02*
X44143869Y-37289619D01*
X43805202Y-36273619D01*
X43273012Y-36273619D02*
X43079488Y-36273619D01*
X42982726Y-36322000D01*
X42885964Y-36418761D01*
X42837583Y-36612285D01*
X42837583Y-36950952D01*
X42885964Y-37144476D01*
X42982726Y-37241238D01*
X43079488Y-37289619D01*
X43273012Y-37289619D01*
X43369774Y-37241238D01*
X43466536Y-37144476D01*
X43514917Y-36950952D01*
X43514917Y-36612285D01*
X43466536Y-36418761D01*
X43369774Y-36322000D01*
X43273012Y-36273619D01*
X44676060Y-38910380D02*
X44627679Y-38862000D01*
X44530917Y-38813619D01*
X44289012Y-38813619D01*
X44192250Y-38862000D01*
X44143869Y-38910380D01*
X44095488Y-39007142D01*
X44095488Y-39103904D01*
X44143869Y-39249047D01*
X44724440Y-39829619D01*
X44095488Y-39829619D01*
X43660060Y-39442571D02*
X42885964Y-39442571D01*
X44676060Y-41450380D02*
X44627679Y-41402000D01*
X44530917Y-41353619D01*
X44289012Y-41353619D01*
X44192250Y-41402000D01*
X44143869Y-41450380D01*
X44095488Y-41547142D01*
X44095488Y-41643904D01*
X44143869Y-41789047D01*
X44724440Y-42369619D01*
X44095488Y-42369619D01*
X43660060Y-41982571D02*
X42885964Y-41982571D01*
X43273012Y-42369619D02*
X43273012Y-41595523D01*
X44095488Y-44909619D02*
X44676060Y-44909619D01*
X44385774Y-44909619D02*
X44385774Y-43893619D01*
X44482536Y-44038761D01*
X44579298Y-44135523D01*
X44676060Y-44183904D01*
X43660060Y-44522571D02*
X42885964Y-44522571D01*
X44095488Y-47449619D02*
X44676060Y-47449619D01*
X44385774Y-47449619D02*
X44385774Y-46433619D01*
X44482536Y-46578761D01*
X44579298Y-46675523D01*
X44676060Y-46723904D01*
X43660060Y-47062571D02*
X42885964Y-47062571D01*
X43273012Y-47449619D02*
X43273012Y-46675523D01*
D10*
X53240691Y-24370772D02*
X53426679Y-24421870D01*
X53054703Y-24321670D02*
X53240691Y-24370772D01*
X52868715Y-24274606D02*
X53054703Y-24321670D01*
X52682727Y-24229623D02*
X52868715Y-24274606D01*
X52496739Y-24186762D02*
X52682727Y-24229623D01*
X52310751Y-24146061D02*
X52496739Y-24186762D01*
X52124763Y-24107556D02*
X52310751Y-24146061D01*
X51938775Y-24071283D02*
X52124763Y-24107556D01*
X51752786Y-24037274D02*
X51938775Y-24071283D01*
X51566798Y-24005560D02*
X51752786Y-24037274D01*
X51380810Y-23976169D02*
X51566798Y-24005560D01*
X51194822Y-23949127D02*
X51380810Y-23976169D01*
X51008834Y-23924459D02*
X51194822Y-23949127D01*
X50822846Y-23902188D02*
X51008834Y-23924459D01*
X50636858Y-23882333D02*
X50822846Y-23902188D01*
X50450870Y-23864912D02*
X50636858Y-23882333D01*
X50264882Y-23849941D02*
X50450870Y-23864912D01*
X50078894Y-23837433D02*
X50264882Y-23849941D01*
X49892906Y-23827399D02*
X50078894Y-23837433D01*
X49706918Y-23819849D02*
X49892906Y-23827399D01*
X49520930Y-23814789D02*
X49706918Y-23819849D01*
X49334942Y-23812225D02*
X49520930Y-23814789D01*
X49148954Y-23812157D02*
X49334942Y-23812225D01*
X48962966Y-23814587D02*
X49148954Y-23812157D01*
X48776978Y-23819511D02*
X48962966Y-23814587D01*
X48590990Y-23826926D02*
X48776978Y-23819511D01*
X48405002Y-23836826D02*
X48590990Y-23826926D01*
X48219014Y-23849200D02*
X48405002Y-23836826D01*
X48033026Y-23864038D02*
X48219014Y-23849200D01*
X47847038Y-23881327D02*
X48033026Y-23864038D01*
X47661050Y-23901051D02*
X47847038Y-23881327D01*
X47475062Y-23923192D02*
X47661050Y-23901051D01*
X47289074Y-23947730D02*
X47475062Y-23923192D01*
X47103085Y-23974643D02*
X47289074Y-23947730D01*
X46917097Y-24003908D02*
X47103085Y-23974643D01*
X46731109Y-24035497D02*
X46917097Y-24003908D01*
X46545121Y-24069383D02*
X46731109Y-24035497D01*
X46359133Y-24105534D02*
X46545121Y-24069383D01*
X46173145Y-24143918D02*
X46359133Y-24105534D01*
X45987157Y-24184501D02*
X46173145Y-24143918D01*
X45801169Y-24227247D02*
X45987157Y-24184501D01*
X45615181Y-24272116D02*
X45801169Y-24227247D01*
X45429193Y-24319068D02*
X45615181Y-24272116D01*
X45243205Y-24368061D02*
X45429193Y-24319068D01*
X45057217Y-24419051D02*
X45243205Y-24368061D01*
X44871229Y-24471993D02*
X45057217Y-24419051D01*
X44685241Y-24526838D02*
X44871229Y-24471993D01*
X44499253Y-24583537D02*
X44685241Y-24526838D01*
X44313265Y-24642038D02*
X44499253Y-24583537D01*
X44127277Y-24702291D02*
X44313265Y-24642038D01*
X43941289Y-24764239D02*
X44127277Y-24702291D01*
X43755301Y-24827828D02*
X43941289Y-24764239D01*
X43569313Y-24893000D02*
X43755301Y-24827828D01*
X43383325Y-24959697D02*
X43569313Y-24893000D01*
X43197337Y-25027858D02*
X43383325Y-24959697D01*
X43011349Y-25097423D02*
X43197337Y-25027858D01*
X42825361Y-25168328D02*
X43011349Y-25097423D01*
X42639372Y-25240510D02*
X42825361Y-25168328D01*
X42453384Y-25313903D02*
X42639372Y-25240510D01*
X42267396Y-25388443D02*
X42453384Y-25313903D01*
X42081408Y-25464061D02*
X42267396Y-25388443D01*
X41895420Y-25540690D02*
X42081408Y-25464061D01*
X41709432Y-25618260D02*
X41895420Y-25540690D01*
X41523444Y-25696702D02*
X41709432Y-25618260D01*
X41337456Y-25775946D02*
X41523444Y-25696702D01*
X41151468Y-25855919D02*
X41337456Y-25775946D01*
X40965480Y-25936551D02*
X41151468Y-25855919D01*
X40779492Y-26017768D02*
X40965480Y-25936551D01*
X40593504Y-26099497D02*
X40779492Y-26017768D01*
X40407516Y-26181665D02*
X40593504Y-26099497D01*
X40221528Y-26264198D02*
X40407516Y-26181665D01*
X40035540Y-26347022D02*
X40221528Y-26264198D01*
X39849552Y-26430061D02*
X40035540Y-26347022D01*
X39663564Y-26513242D02*
X39849552Y-26430061D01*
X39477576Y-26596489D02*
X39663564Y-26513242D01*
X39291588Y-26679728D02*
X39477576Y-26596489D01*
X39105600Y-26762884D02*
X39291588Y-26679728D01*
X38919612Y-26845881D02*
X39105600Y-26762884D01*
X38733624Y-26928645D02*
X38919612Y-26845881D01*
X38547636Y-27011102D02*
X38733624Y-26928645D01*
X38361648Y-27093178D02*
X38547636Y-27011102D01*
X38175660Y-27174797D02*
X38361648Y-27093178D01*
X37989671Y-27255888D02*
X38175660Y-27174797D01*
X37803683Y-27336378D02*
X37989671Y-27255888D01*
X37617695Y-27416192D02*
X37803683Y-27336378D01*
X37431707Y-27495261D02*
X37617695Y-27416192D01*
X37245719Y-27573512D02*
X37431707Y-27495261D01*
X37059731Y-27650876D02*
X37245719Y-27573512D01*
X36873743Y-27727282D02*
X37059731Y-27650876D01*
X36687755Y-27802662D02*
X36873743Y-27727282D01*
X36501767Y-27876948D02*
X36687755Y-27802662D01*
X36315779Y-27950074D02*
X36501767Y-27876948D01*
X36129791Y-28021973D02*
X36315779Y-27950074D01*
X35943803Y-28092580D02*
X36129791Y-28021973D01*
X35757815Y-28161833D02*
X35943803Y-28092580D01*
X35571827Y-28229668D02*
X35757815Y-28161833D01*
X35385839Y-28296026D02*
X35571827Y-28229668D01*
X35199851Y-28360845D02*
X35385839Y-28296026D01*
X35013863Y-28424068D02*
X35199851Y-28360845D01*
X34827875Y-28485638D02*
X35013863Y-28424068D01*
X34641887Y-28545499D02*
X34827875Y-28485638D01*
X34455899Y-28603598D02*
X34641887Y-28545499D01*
X34269911Y-28659882D02*
X34455899Y-28603598D01*
X34083923Y-28714301D02*
X34269911Y-28659882D01*
X33897935Y-28766805D02*
X34083923Y-28714301D01*
X33711947Y-28817348D02*
X33897935Y-28766805D01*
X33525958Y-28865884D02*
X33711947Y-28817348D01*
X33339970Y-28912369D02*
X33525958Y-28865884D01*
X33153982Y-28956761D02*
X33339970Y-28912369D01*
X32967994Y-28999021D02*
X33153982Y-28956761D01*
X32782006Y-29039110D02*
X32967994Y-28999021D01*
X32596018Y-29076992D02*
X32782006Y-29039110D01*
X32410030Y-29112634D02*
X32596018Y-29076992D01*
X32224042Y-29146003D02*
X32410030Y-29112634D01*
X32038054Y-29177069D02*
X32224042Y-29146003D01*
X31852066Y-29205804D02*
X32038054Y-29177069D01*
X31666078Y-29232183D02*
X31852066Y-29205804D01*
X31480090Y-29256181D02*
X31666078Y-29232183D01*
X31294102Y-29277777D02*
X31480090Y-29256181D01*
X31108114Y-29296952D02*
X31294102Y-29277777D01*
X30922126Y-29313688D02*
X31108114Y-29296952D01*
X30736138Y-29327970D02*
X30922126Y-29313688D01*
X30550150Y-29339786D02*
X30736138Y-29327970D01*
X30364162Y-29349124D02*
X30550150Y-29339786D01*
X30178174Y-29355977D02*
X30364162Y-29349124D01*
X29992186Y-29360338D02*
X30178174Y-29355977D01*
X29806198Y-29362203D02*
X29992186Y-29360338D01*
X29620210Y-29361571D02*
X29806198Y-29362203D01*
X29434222Y-29358442D02*
X29620210Y-29361571D01*
X29248234Y-29352818D02*
X29434222Y-29358442D01*
X29062246Y-29344706D02*
X29248234Y-29352818D01*
X28876257Y-29334112D02*
X29062246Y-29344706D01*
X28690269Y-29321046D02*
X28876257Y-29334112D01*
X28504281Y-29305520D02*
X28690269Y-29321046D01*
X28318293Y-29287547D02*
X28504281Y-29305520D01*
X28132305Y-29267144D02*
X28318293Y-29287547D01*
X27946317Y-29244329D02*
X28132305Y-29267144D01*
X27760329Y-29219123D02*
X27946317Y-29244329D01*
X27574341Y-29191548D02*
X27760329Y-29219123D01*
X27388353Y-29161629D02*
X27574341Y-29191548D01*
X27202365Y-29129394D02*
X27388353Y-29161629D01*
X27016377Y-29094870D02*
X27202365Y-29129394D01*
X26830389Y-29058090D02*
X27016377Y-29094870D01*
X26644401Y-29019085D02*
X26830389Y-29058090D01*
X26458413Y-28977893D02*
X26644401Y-29019085D01*
X26272425Y-28934548D02*
X26458413Y-28977893D01*
X26086437Y-28889091D02*
X26272425Y-28934548D01*
X25900449Y-28841563D02*
X26086437Y-28889091D01*
X25714461Y-28792005D02*
X25900449Y-28841563D01*
X25528473Y-28740463D02*
X25714461Y-28792005D01*
X25342485Y-28686984D02*
X25528473Y-28740463D01*
X25156497Y-28631614D02*
X25342485Y-28686984D01*
X24970509Y-28574405D02*
X25156497Y-28631614D01*
X24784521Y-28515407D02*
X24970509Y-28574405D01*
X24598533Y-28454674D02*
X24784521Y-28515407D01*
X24412544Y-28392260D02*
X24598533Y-28454674D01*
X24226556Y-28328221D02*
X24412544Y-28392260D01*
X24040568Y-28262616D02*
X24226556Y-28328221D01*
X23854580Y-28195503D02*
X24040568Y-28262616D01*
X23668592Y-28126942D02*
X23854580Y-28195503D01*
X23482604Y-28056995D02*
X23668592Y-28126942D01*
X23296616Y-27985726D02*
X23482604Y-28056995D01*
X23110628Y-27913198D02*
X23296616Y-27985726D01*
X22924640Y-27839477D02*
X23110628Y-27913198D01*
X22738652Y-27764628D02*
X22924640Y-27839477D01*
X22552664Y-27688720D02*
X22738652Y-27764628D01*
X22366676Y-27611820D02*
X22552664Y-27688720D01*
X22180688Y-27533998D02*
X22366676Y-27611820D01*
X21994700Y-27455324D02*
X22180688Y-27533998D01*
X21808712Y-27375869D02*
X21994700Y-27455324D01*
X21622724Y-27295704D02*
X21808712Y-27375869D01*
X21436736Y-27214901D02*
X21622724Y-27295704D01*
X21250748Y-27133533D02*
X21436736Y-27214901D01*
X21064760Y-27051673D02*
X21250748Y-27133533D01*
X20878772Y-26969396D02*
X21064760Y-27051673D01*
X20692784Y-26886774D02*
X20878772Y-26969396D01*
X20506796Y-26803882D02*
X20692784Y-26886774D01*
X20320808Y-26720795D02*
X20506796Y-26803882D01*
X20134820Y-26637588D02*
X20320808Y-26720795D01*
X19948832Y-26554336D02*
X20134820Y-26637588D01*
X19762843Y-26471113D02*
X19948832Y-26554336D01*
X19576855Y-26387994D02*
X19762843Y-26471113D01*
X19390867Y-26305055D02*
X19576855Y-26387994D01*
X19204879Y-26222369D02*
X19390867Y-26305055D01*
X19018891Y-26140012D02*
X19204879Y-26222369D01*
X18832903Y-26058056D02*
X19018891Y-26140012D01*
X18646915Y-25976577D02*
X18832903Y-26058056D01*
X18460927Y-25895648D02*
X18646915Y-25976577D01*
X18274939Y-25815340D02*
X18460927Y-25895648D01*
X18088951Y-25735727D02*
X18274939Y-25815340D01*
X17902963Y-25656881D02*
X18088951Y-25735727D01*
X17716975Y-25578871D02*
X17902963Y-25656881D01*
X17530987Y-25501769D02*
X17716975Y-25578871D01*
X17344999Y-25425643D02*
X17530987Y-25501769D01*
X17159011Y-25350563D02*
X17344999Y-25425643D01*
X16973023Y-25276595D02*
X17159011Y-25350563D01*
X16787035Y-25203807D02*
X16973023Y-25276595D01*
X16601047Y-25132264D02*
X16787035Y-25203807D01*
X16415059Y-25062029D02*
X16601047Y-25132264D01*
X16229071Y-24993168D02*
X16415059Y-25062029D01*
X16043083Y-24925740D02*
X16229071Y-24993168D01*
X15857095Y-24859808D02*
X16043083Y-24925740D01*
X15671107Y-24795430D02*
X15857095Y-24859808D01*
X15485119Y-24732665D02*
X15671107Y-24795430D01*
X15299130Y-24671568D02*
X15485119Y-24732665D01*
X15113142Y-24612196D02*
X15299130Y-24671568D01*
X14927154Y-24554600D02*
X15113142Y-24612196D01*
X14741166Y-24498834D02*
X14927154Y-24554600D01*
X14555178Y-24444947D02*
X14741166Y-24498834D01*
X14369190Y-24392987D02*
X14555178Y-24444947D01*
X14183202Y-24343002D02*
X14369190Y-24392987D01*
X13997214Y-24295037D02*
X14183202Y-24343002D01*
X13811226Y-24249134D02*
X13997214Y-24295037D01*
X13625238Y-24205336D02*
X13811226Y-24249134D01*
X13439250Y-24163681D02*
X13625238Y-24205336D01*
X13253262Y-24124206D02*
X13439250Y-24163681D01*
X13067274Y-24086948D02*
X13253262Y-24124206D01*
X12881286Y-24051940D02*
X13067274Y-24086948D01*
X12695298Y-24019214D02*
X12881286Y-24051940D01*
X12509310Y-23988798D02*
X12695298Y-24019214D01*
X12323322Y-23960721D02*
X12509310Y-23988798D01*
X12137334Y-23935007D02*
X12323322Y-23960721D01*
X11951346Y-23911680D02*
X12137334Y-23935007D01*
X11765358Y-23890761D02*
X11951346Y-23911680D01*
X11579370Y-23872268D02*
X11765358Y-23890761D01*
X11393382Y-23856218D02*
X11579370Y-23872268D01*
X11207394Y-23842626D02*
X11393382Y-23856218D01*
X11021406Y-23831504D02*
X11207394Y-23842626D01*
X10835418Y-23822861D02*
X11021406Y-23831504D01*
X10649429Y-23816706D02*
X10835418Y-23822861D01*
X10463441Y-23813044D02*
X10649429Y-23816706D01*
X10277453Y-23811879D02*
X10463441Y-23813044D01*
X10091465Y-23813211D02*
X10277453Y-23811879D01*
X9905477Y-23817040D02*
X10091465Y-23813211D01*
X9719489Y-23823361D02*
X9905477Y-23817040D01*
X9533501Y-23832169D02*
X9719489Y-23823361D01*
X9347513Y-23843457D02*
X9533501Y-23832169D01*
X9161525Y-23857214D02*
X9347513Y-23843457D01*
X8975537Y-23873427D02*
X9161525Y-23857214D01*
X8789549Y-23892083D02*
X8975537Y-23873427D01*
X8603561Y-23913164D02*
X8789549Y-23892083D01*
X8417573Y-23936651D02*
X8603561Y-23913164D01*
X8231585Y-23962523D02*
X8417573Y-23936651D01*
X8045597Y-23990758D02*
X8231585Y-23962523D01*
X7859609Y-24021329D02*
X8045597Y-23990758D01*
X7673621Y-24054209D02*
X7859609Y-24021329D01*
X7487633Y-24089368D02*
X7673621Y-24054209D01*
X7301645Y-24126775D02*
X7487633Y-24089368D01*
X7115657Y-24166396D02*
X7301645Y-24126775D01*
X6929669Y-24208196D02*
X7115657Y-24166396D01*
X6743681Y-24252136D02*
X6929669Y-24208196D01*
X6557693Y-24298178D02*
X6743681Y-24252136D01*
X6371705Y-24346279D02*
X6557693Y-24298178D01*
X6185716Y-24396398D02*
X6371705Y-24346279D01*
X5999728Y-24448487D02*
X6185716Y-24396398D01*
X5813740Y-24502501D02*
X5999728Y-24448487D01*
X5627752Y-24558392D02*
X5813740Y-24502501D01*
X5441764Y-24616108D02*
X5627752Y-24558392D01*
X5255776Y-24675597D02*
X5441764Y-24616108D01*
X5069788Y-24736807D02*
X5255776Y-24675597D01*
X4883800Y-24799682D02*
X5069788Y-24736807D01*
X4697812Y-24864165D02*
X4883800Y-24799682D01*
X4511824Y-24930199D02*
X4697812Y-24864165D01*
X4325836Y-24997724D02*
X4511824Y-24930199D01*
X4139848Y-25066680D02*
X4325836Y-24997724D01*
X3953860Y-25137003D02*
X4139848Y-25066680D01*
X3767872Y-25208632D02*
X3953860Y-25137003D01*
X3581884Y-25281501D02*
X3767872Y-25208632D01*
X3395896Y-25355545D02*
X3581884Y-25281501D01*
X3209908Y-25430697D02*
X3395896Y-25355545D01*
X3023920Y-25506890D02*
X3209908Y-25430697D01*
X2837932Y-25584056D02*
X3023920Y-25506890D01*
X2651944Y-25662123D02*
X2837932Y-25584056D01*
X2465956Y-25741023D02*
X2651944Y-25662123D01*
X2279968Y-25820685D02*
X2465956Y-25741023D01*
X2093980Y-25901036D02*
X2279968Y-25820685D01*
X1907992Y-25982005D02*
X2093980Y-25901036D01*
X1722004Y-26063518D02*
X1907992Y-25982005D01*
X1536015Y-26145502D02*
X1722004Y-26063518D01*
X1350027Y-26227884D02*
X1536015Y-26145502D01*
X1164039Y-26310589D02*
X1350027Y-26227884D01*
X978051Y-26393543D02*
X1164039Y-26310589D01*
X792063Y-26476671D02*
X978051Y-26393543D01*
X606075Y-26559898D02*
X792063Y-26476671D01*
X420087Y-26643150D02*
X606075Y-26559898D01*
X234099Y-26726351D02*
X420087Y-26643150D01*
X48111Y-26809427D02*
X234099Y-26726351D01*
X53240691Y-23756626D02*
X53426679Y-23794063D01*
X53054703Y-23720985D02*
X53240691Y-23756626D01*
X52868715Y-23687172D02*
X53054703Y-23720985D01*
X52682727Y-23655218D02*
X52868715Y-23687172D01*
X52496739Y-23625151D02*
X52682727Y-23655218D01*
X52310751Y-23596999D02*
X52496739Y-23625151D01*
X52124763Y-23570786D02*
X52310751Y-23596999D01*
X51938775Y-23546537D02*
X52124763Y-23570786D01*
X51752786Y-23524273D02*
X51938775Y-23546537D01*
X51566798Y-23504015D02*
X51752786Y-23524273D01*
X51380810Y-23485779D02*
X51566798Y-23504015D01*
X51194822Y-23469584D02*
X51380810Y-23485779D01*
X51008834Y-23455443D02*
X51194822Y-23469584D01*
X50822846Y-23443370D02*
X51008834Y-23455443D01*
X50636858Y-23433374D02*
X50822846Y-23443370D01*
X50450870Y-23425465D02*
X50636858Y-23433374D01*
X50264882Y-23419651D02*
X50450870Y-23425465D01*
X50078894Y-23415936D02*
X50264882Y-23419651D01*
X49892906Y-23414323D02*
X50078894Y-23415936D01*
X49706918Y-23414815D02*
X49892906Y-23414323D01*
X49520930Y-23417411D02*
X49706918Y-23414815D01*
X49334942Y-23422108D02*
X49520930Y-23417411D01*
X49148954Y-23428902D02*
X49334942Y-23422108D01*
X48962966Y-23437787D02*
X49148954Y-23428902D01*
X48776978Y-23448756D02*
X48962966Y-23437787D01*
X48590990Y-23461797D02*
X48776978Y-23448756D01*
X48405002Y-23476900D02*
X48590990Y-23461797D01*
X48219014Y-23494051D02*
X48405002Y-23476900D01*
X48033026Y-23513234D02*
X48219014Y-23494051D01*
X47847038Y-23534433D02*
X48033026Y-23513234D01*
X47661050Y-23557627D02*
X47847038Y-23534433D01*
X47475062Y-23582797D02*
X47661050Y-23557627D01*
X47289074Y-23609919D02*
X47475062Y-23582797D01*
X47103085Y-23638970D02*
X47289074Y-23609919D01*
X46917097Y-23669922D02*
X47103085Y-23638970D01*
X46731109Y-23702749D02*
X46917097Y-23669922D01*
X46545121Y-23737420D02*
X46731109Y-23702749D01*
X46359133Y-23773905D02*
X46545121Y-23737420D01*
X46173145Y-23812170D02*
X46359133Y-23773905D01*
X45987157Y-23852182D02*
X46173145Y-23812170D01*
X45801169Y-23893903D02*
X45987157Y-23852182D01*
X45615181Y-23937298D02*
X45801169Y-23893903D01*
X45429193Y-23982325D02*
X45615181Y-23937298D01*
X45243205Y-24028946D02*
X45429193Y-23982325D01*
X45057217Y-24077118D02*
X45243205Y-24028946D01*
X44871229Y-24126797D02*
X45057217Y-24077118D01*
X44685241Y-24177940D02*
X44871229Y-24126797D01*
X44499253Y-24230499D02*
X44685241Y-24177940D01*
X44313265Y-24284429D02*
X44499253Y-24230499D01*
X44127277Y-24339679D02*
X44313265Y-24284429D01*
X43941289Y-24396201D02*
X44127277Y-24339679D01*
X43755301Y-24453943D02*
X43941289Y-24396201D01*
X43569313Y-24512854D02*
X43755301Y-24453943D01*
X43383325Y-24572880D02*
X43569313Y-24512854D01*
X43197337Y-24633968D02*
X43383325Y-24572880D01*
X43011349Y-24696063D02*
X43197337Y-24633968D01*
X42825361Y-24759108D02*
X43011349Y-24696063D01*
X42639372Y-24823048D02*
X42825361Y-24759108D01*
X42453384Y-24887823D02*
X42639372Y-24823048D01*
X42267396Y-24953377D02*
X42453384Y-24887823D01*
X42081408Y-25019650D02*
X42267396Y-24953377D01*
X41895420Y-25086583D02*
X42081408Y-25019650D01*
X41709432Y-25154115D02*
X41895420Y-25086583D01*
X41523444Y-25222185D02*
X41709432Y-25154115D01*
X41337456Y-25290732D02*
X41523444Y-25222185D01*
X41151468Y-25359695D02*
X41337456Y-25290732D01*
X40965480Y-25429012D02*
X41151468Y-25359695D01*
X40779492Y-25498620D02*
X40965480Y-25429012D01*
X40593504Y-25568456D02*
X40779492Y-25498620D01*
X40407516Y-25638457D02*
X40593504Y-25568456D01*
X40221528Y-25708562D02*
X40407516Y-25638457D01*
X40035540Y-25778705D02*
X40221528Y-25708562D01*
X39849552Y-25848826D02*
X40035540Y-25778705D01*
X39663564Y-25918859D02*
X39849552Y-25848826D01*
X39477576Y-25988743D02*
X39663564Y-25918859D01*
X39291588Y-26058414D02*
X39477576Y-25988743D01*
X39105600Y-26127810D02*
X39291588Y-26058414D01*
X38919612Y-26196868D02*
X39105600Y-26127810D01*
X38733624Y-26265526D02*
X38919612Y-26196868D01*
X38547636Y-26333723D02*
X38733624Y-26265526D01*
X38361648Y-26401396D02*
X38547636Y-26333723D01*
X38175660Y-26468486D02*
X38361648Y-26401396D01*
X37989671Y-26534931D02*
X38175660Y-26468486D01*
X37803683Y-26600671D02*
X37989671Y-26534931D01*
X37617695Y-26665649D02*
X37803683Y-26600671D01*
X37431707Y-26729805D02*
X37617695Y-26665649D01*
X37245719Y-26793081D02*
X37431707Y-26729805D01*
X37059731Y-26855421D02*
X37245719Y-26793081D01*
X36873743Y-26916768D02*
X37059731Y-26855421D01*
X36687755Y-26977068D02*
X36873743Y-26916768D01*
X36501767Y-27036265D02*
X36687755Y-26977068D01*
X36315779Y-27094307D02*
X36501767Y-27036265D01*
X36129791Y-27151142D02*
X36315779Y-27094307D01*
X35943803Y-27206717D02*
X36129791Y-27151142D01*
X35757815Y-27260984D02*
X35943803Y-27206717D01*
X35571827Y-27313894D02*
X35757815Y-27260984D01*
X35385839Y-27365398D02*
X35571827Y-27313894D01*
X35199851Y-27415451D02*
X35385839Y-27365398D01*
X35013863Y-27464008D02*
X35199851Y-27415451D01*
X34827875Y-27511024D02*
X35013863Y-27464008D01*
X34641887Y-27556457D02*
X34827875Y-27511024D01*
X34455899Y-27600267D02*
X34641887Y-27556457D01*
X34269911Y-27642414D02*
X34455899Y-27600267D01*
X34083923Y-27682861D02*
X34269911Y-27642414D01*
X33897935Y-27721570D02*
X34083923Y-27682861D01*
X33711947Y-27758507D02*
X33897935Y-27721570D01*
X33525958Y-27793639D02*
X33711947Y-27758507D01*
X33339970Y-27826933D02*
X33525958Y-27793639D01*
X33153982Y-27858362D02*
X33339970Y-27826933D01*
X32967994Y-27887894D02*
X33153982Y-27858362D01*
X32782006Y-27915506D02*
X32967994Y-27887894D01*
X32596018Y-27941170D02*
X32782006Y-27915506D01*
X32410030Y-27964865D02*
X32596018Y-27941170D01*
X32224042Y-27986569D02*
X32410030Y-27964865D01*
X32038054Y-28006262D02*
X32224042Y-27986569D01*
X31852066Y-28023927D02*
X32038054Y-28006262D01*
X31666078Y-28039548D02*
X31852066Y-28023927D01*
X31480090Y-28053111D02*
X31666078Y-28039548D01*
X31294102Y-28064603D02*
X31480090Y-28053111D01*
X31108114Y-28074015D02*
X31294102Y-28064603D01*
X30922126Y-28081337D02*
X31108114Y-28074015D01*
X30736138Y-28086564D02*
X30922126Y-28081337D01*
X30550150Y-28089690D02*
X30736138Y-28086564D01*
X30364162Y-28090713D02*
X30550150Y-28089690D01*
X30178174Y-28089631D02*
X30364162Y-28090713D01*
X29992186Y-28086446D02*
X30178174Y-28089631D01*
X29806198Y-28081161D02*
X29992186Y-28086446D01*
X29620210Y-28073780D02*
X29806198Y-28081161D01*
X29434222Y-28064310D02*
X29620210Y-28073780D01*
X29248234Y-28052760D02*
X29434222Y-28064310D01*
X29062246Y-28039139D02*
X29248234Y-28052760D01*
X28876257Y-28023461D02*
X29062246Y-28039139D01*
X28690269Y-28005739D02*
X28876257Y-28023461D01*
X28504281Y-27985989D02*
X28690269Y-28005739D01*
X28318293Y-27964229D02*
X28504281Y-27985989D01*
X28132305Y-27940479D02*
X28318293Y-27964229D01*
X27946317Y-27914760D02*
X28132305Y-27940479D01*
X27760329Y-27887094D02*
X27946317Y-27914760D01*
X27574341Y-27857508D02*
X27760329Y-27887094D01*
X27388353Y-27826028D02*
X27574341Y-27857508D01*
X27202365Y-27792681D02*
X27388353Y-27826028D01*
X27016377Y-27757498D02*
X27202365Y-27792681D01*
X26830389Y-27720511D02*
X27016377Y-27757498D01*
X26644401Y-27681753D02*
X26830389Y-27720511D01*
X26458413Y-27641259D02*
X26644401Y-27681753D01*
X26272425Y-27599064D02*
X26458413Y-27641259D01*
X26086437Y-27555208D02*
X26272425Y-27599064D01*
X25900449Y-27509730D02*
X26086437Y-27555208D01*
X25714461Y-27462670D02*
X25900449Y-27509730D01*
X25528473Y-27414072D02*
X25714461Y-27462670D01*
X25342485Y-27363978D02*
X25528473Y-27414072D01*
X25156497Y-27312433D02*
X25342485Y-27363978D01*
X24970509Y-27259485D02*
X25156497Y-27312433D01*
X24784521Y-27205181D02*
X24970509Y-27259485D01*
X24598533Y-27149569D02*
X24784521Y-27205181D01*
X24412544Y-27092700D02*
X24598533Y-27149569D01*
X24226556Y-27034625D02*
X24412544Y-27092700D01*
X24040568Y-26975396D02*
X24226556Y-27034625D01*
X23854580Y-26915066D02*
X24040568Y-26975396D01*
X23668592Y-26853691D02*
X23854580Y-26915066D01*
X23482604Y-26791324D02*
X23668592Y-26853691D01*
X23296616Y-26728022D02*
X23482604Y-26791324D01*
X23110628Y-26663843D02*
X23296616Y-26728022D01*
X22924640Y-26598843D02*
X23110628Y-26663843D01*
X22738652Y-26533082D02*
X22924640Y-26598843D01*
X22552664Y-26466618D02*
X22738652Y-26533082D01*
X22366676Y-26399511D02*
X22552664Y-26466618D01*
X22180688Y-26331822D02*
X22366676Y-26399511D01*
X21994700Y-26263612D02*
X22180688Y-26331822D01*
X21808712Y-26194942D02*
X21994700Y-26263612D01*
X21622724Y-26125874D02*
X21808712Y-26194942D01*
X21436736Y-26056469D02*
X21622724Y-26125874D01*
X21250748Y-25986791D02*
X21436736Y-26056469D01*
X21064760Y-25916902D02*
X21250748Y-25986791D01*
X20878772Y-25846866D02*
X21064760Y-25916902D01*
X20692784Y-25776744D02*
X20878772Y-25846866D01*
X20506796Y-25706600D02*
X20692784Y-25776744D01*
X20320808Y-25636498D02*
X20506796Y-25706600D01*
X20134820Y-25566500D02*
X20320808Y-25636498D01*
X19948832Y-25496669D02*
X20134820Y-25566500D01*
X19762843Y-25427069D02*
X19948832Y-25496669D01*
X19576855Y-25357762D02*
X19762843Y-25427069D01*
X19390867Y-25288809D02*
X19576855Y-25357762D01*
X19204879Y-25220274D02*
X19390867Y-25288809D01*
X19018891Y-25152218D02*
X19204879Y-25220274D01*
X18832903Y-25084703D02*
X19018891Y-25152218D01*
X18646915Y-25017788D02*
X18832903Y-25084703D01*
X18460927Y-24951534D02*
X18646915Y-25017788D01*
X18274939Y-24886001D02*
X18460927Y-24951534D01*
X18088951Y-24821248D02*
X18274939Y-24886001D01*
X17902963Y-24757333D02*
X18088951Y-24821248D01*
X17716975Y-24694313D02*
X17902963Y-24757333D01*
X17530987Y-24632246D02*
X17716975Y-24694313D01*
X17344999Y-24571187D02*
X17530987Y-24632246D01*
X17159011Y-24511191D02*
X17344999Y-24571187D01*
X16973023Y-24452312D02*
X17159011Y-24511191D01*
X16787035Y-24394603D02*
X16973023Y-24452312D01*
X16601047Y-24338116D02*
X16787035Y-24394603D01*
X16415059Y-24282902D02*
X16601047Y-24338116D01*
X16229071Y-24229011D02*
X16415059Y-24282902D01*
X16043083Y-24176490D02*
X16229071Y-24229011D01*
X15857095Y-24125388D02*
X16043083Y-24176490D01*
X15671107Y-24075750D02*
X15857095Y-24125388D01*
X15485119Y-24027621D02*
X15671107Y-24075750D01*
X15299130Y-23981044D02*
X15485119Y-24027621D01*
X15113142Y-23936062D02*
X15299130Y-23981044D01*
X14927154Y-23892714D02*
X15113142Y-23936062D01*
X14741166Y-23851039D02*
X14927154Y-23892714D01*
X14555178Y-23811076D02*
X14741166Y-23851039D01*
X14369190Y-23772860D02*
X14555178Y-23811076D01*
X14183202Y-23736426D02*
X14369190Y-23772860D01*
X13997214Y-23701806D02*
X14183202Y-23736426D01*
X13811226Y-23669031D02*
X13997214Y-23701806D01*
X13625238Y-23638131D02*
X13811226Y-23669031D01*
X13439250Y-23609134D02*
X13625238Y-23638131D01*
X13253262Y-23582066D02*
X13439250Y-23609134D01*
X13067274Y-23556952D02*
X13253262Y-23582066D01*
X12881286Y-23533813D02*
X13067274Y-23556952D01*
X12695298Y-23512670D02*
X12881286Y-23533813D01*
X12509310Y-23493544D02*
X12695298Y-23512670D01*
X12323322Y-23476450D02*
X12509310Y-23493544D01*
X12137334Y-23461404D02*
X12323322Y-23476450D01*
X11951346Y-23448421D02*
X12137334Y-23461404D01*
X11765358Y-23437510D02*
X11951346Y-23448421D01*
X11579370Y-23428684D02*
X11765358Y-23437510D01*
X11393382Y-23421948D02*
X11579370Y-23428684D01*
X11207394Y-23417310D02*
X11393382Y-23421948D01*
X11021406Y-23414773D02*
X11207394Y-23417310D01*
X10835418Y-23414340D02*
X11021406Y-23414773D01*
X10649429Y-23416011D02*
X10835418Y-23414340D01*
X10463441Y-23419785D02*
X10649429Y-23416011D01*
X10277453Y-23425658D02*
X10463441Y-23419785D01*
X10091465Y-23433625D02*
X10277453Y-23425658D01*
X9905477Y-23443679D02*
X10091465Y-23433625D01*
X9719489Y-23455811D02*
X9905477Y-23443679D01*
X9533501Y-23470009D02*
X9719489Y-23455811D01*
X9347513Y-23486262D02*
X9533501Y-23470009D01*
X9161525Y-23504554D02*
X9347513Y-23486262D01*
X8975537Y-23524869D02*
X9161525Y-23504554D01*
X8789549Y-23547188D02*
X8975537Y-23524869D01*
X8603561Y-23571493D02*
X8789549Y-23547188D01*
X8417573Y-23597760D02*
X8603561Y-23571493D01*
X8231585Y-23625966D02*
X8417573Y-23597760D01*
X8045597Y-23656086D02*
X8231585Y-23625966D01*
X7859609Y-23688092D02*
X8045597Y-23656086D01*
X7673621Y-23721957D02*
X7859609Y-23688092D01*
X7487633Y-23757648D02*
X7673621Y-23721957D01*
X7301645Y-23795135D02*
X7487633Y-23757648D01*
X7115657Y-23834383D02*
X7301645Y-23795135D01*
X6929669Y-23875358D02*
X7115657Y-23834383D01*
X6743681Y-23918022D02*
X6929669Y-23875358D01*
X6557693Y-23962336D02*
X6743681Y-23918022D01*
X6371705Y-24008262D02*
X6557693Y-23962336D01*
X6185716Y-24055757D02*
X6371705Y-24008262D01*
X5999728Y-24104780D02*
X6185716Y-24055757D01*
X5813740Y-24155285D02*
X5999728Y-24104780D01*
X5627752Y-24207227D02*
X5813740Y-24155285D01*
X5441764Y-24260560D02*
X5627752Y-24207227D01*
X5255776Y-24315236D02*
X5441764Y-24260560D01*
X5069788Y-24371205D02*
X5255776Y-24315236D01*
X4883800Y-24428418D02*
X5069788Y-24371205D01*
X4697812Y-24486821D02*
X4883800Y-24428418D01*
X4511824Y-24546364D02*
X4697812Y-24486821D01*
X4325836Y-24606992D02*
X4511824Y-24546364D01*
X4139848Y-24668651D02*
X4325836Y-24606992D01*
X3953860Y-24731286D02*
X4139848Y-24668651D01*
X3767872Y-24794839D02*
X3953860Y-24731286D01*
X3581884Y-24859255D02*
X3767872Y-24794839D01*
X3395896Y-24924474D02*
X3581884Y-24859255D01*
X3209908Y-24990438D02*
X3395896Y-24924474D01*
X3023920Y-25057088D02*
X3209908Y-24990438D01*
X2837932Y-25124364D02*
X3023920Y-25057088D01*
X2651944Y-25192205D02*
X2837932Y-25124364D01*
X2465956Y-25260550D02*
X2651944Y-25192205D01*
X2279968Y-25329338D02*
X2465956Y-25260550D01*
X2093980Y-25398507D02*
X2279968Y-25329338D01*
X1907992Y-25467994D02*
X2093980Y-25398507D01*
X1722004Y-25537738D02*
X1907992Y-25467994D01*
X1536015Y-25607675D02*
X1722004Y-25537738D01*
X1350027Y-25677742D02*
X1536015Y-25607675D01*
X1164039Y-25747876D02*
X1350027Y-25677742D01*
X978051Y-25818014D02*
X1164039Y-25747876D01*
X792063Y-25888094D02*
X978051Y-25818014D01*
X606075Y-25958051D02*
X792063Y-25888094D01*
X420087Y-26027823D02*
X606075Y-25958051D01*
X234099Y-26097348D02*
X420087Y-26027823D01*
X48111Y-26166562D02*
X234099Y-26097348D01*
X53240691Y-24946199D02*
X53426679Y-24997813D01*
X53054703Y-24896812D02*
X53240691Y-24946199D01*
X52868715Y-24849699D02*
X53054703Y-24896812D01*
X52682727Y-24804900D02*
X52868715Y-24849699D01*
X52496739Y-24762456D02*
X52682727Y-24804900D01*
X52310751Y-24722406D02*
X52496739Y-24762456D01*
X52124763Y-24684786D02*
X52310751Y-24722406D01*
X51938775Y-24649628D02*
X52124763Y-24684786D01*
X51752786Y-24616966D02*
X51938775Y-24649628D01*
X51566798Y-24586828D02*
X51752786Y-24616966D01*
X51380810Y-24559242D02*
X51566798Y-24586828D01*
X51194822Y-24534231D02*
X51380810Y-24559242D01*
X51008834Y-24511820D02*
X51194822Y-24534231D01*
X50822846Y-24492028D02*
X51008834Y-24511820D01*
X50636858Y-24474872D02*
X50822846Y-24492028D01*
X50450870Y-24460369D02*
X50636858Y-24474872D01*
X50264882Y-24448531D02*
X50450870Y-24460369D01*
X50078894Y-24439369D02*
X50264882Y-24448531D01*
X49892906Y-24432891D02*
X50078894Y-24439369D01*
X49706918Y-24429103D02*
X49892906Y-24432891D01*
X49520930Y-24428008D02*
X49706918Y-24429103D01*
X49334942Y-24429608D02*
X49520930Y-24428008D01*
X49148954Y-24433901D02*
X49334942Y-24429608D01*
X48962966Y-24440883D02*
X49148954Y-24433901D01*
X48776978Y-24450548D02*
X48962966Y-24440883D01*
X48590990Y-24462887D02*
X48776978Y-24450548D01*
X48405002Y-24477889D02*
X48590990Y-24462887D01*
X48219014Y-24495541D02*
X48405002Y-24477889D01*
X48033026Y-24515826D02*
X48219014Y-24495541D01*
X47847038Y-24538726D02*
X48033026Y-24515826D01*
X47661050Y-24564222D02*
X47847038Y-24538726D01*
X47475062Y-24592289D02*
X47661050Y-24564222D01*
X47289074Y-24622902D02*
X47475062Y-24592289D01*
X47103085Y-24656035D02*
X47289074Y-24622902D01*
X46917097Y-24691657D02*
X47103085Y-24656035D01*
X46731109Y-24729736D02*
X46917097Y-24691657D01*
X46545121Y-24770238D02*
X46731109Y-24729736D01*
X46359133Y-24813127D02*
X46545121Y-24770238D01*
X46173145Y-24858363D02*
X46359133Y-24813127D01*
X45987157Y-24905906D02*
X46173145Y-24858363D01*
X45801169Y-24955714D02*
X45987157Y-24905906D01*
X45615181Y-25007741D02*
X45801169Y-24955714D01*
X45429193Y-25061941D02*
X45615181Y-25007741D01*
X45243205Y-25118265D02*
X45429193Y-25061941D01*
X45057217Y-25176662D02*
X45243205Y-25118265D01*
X44871229Y-25237079D02*
X45057217Y-25176662D01*
X44685241Y-25299463D02*
X44871229Y-25237079D01*
X44499253Y-25363758D02*
X44685241Y-25299463D01*
X44313265Y-25429904D02*
X44499253Y-25363758D01*
X44127277Y-25497843D02*
X44313265Y-25429904D01*
X43941289Y-25567514D02*
X44127277Y-25497843D01*
X43755301Y-25638854D02*
X43941289Y-25567514D01*
X43569313Y-25711798D02*
X43755301Y-25638854D01*
X43383325Y-25786282D02*
X43569313Y-25711798D01*
X43197337Y-25862238D02*
X43383325Y-25786282D01*
X43011349Y-25939597D02*
X43197337Y-25862238D01*
X42825361Y-26018291D02*
X43011349Y-25939597D01*
X42639372Y-26098247D02*
X42825361Y-26018291D01*
X42453384Y-26179395D02*
X42639372Y-26098247D01*
X42267396Y-26261662D02*
X42453384Y-26179395D01*
X42081408Y-26344972D02*
X42267396Y-26261662D01*
X41895420Y-26429252D02*
X42081408Y-26344972D01*
X41709432Y-26514425D02*
X41895420Y-26429252D01*
X41523444Y-26600415D02*
X41709432Y-26514425D01*
X41337456Y-26687145D02*
X41523444Y-26600415D01*
X41151468Y-26774536D02*
X41337456Y-26687145D01*
X40965480Y-26862509D02*
X41151468Y-26774536D01*
X40779492Y-26950986D02*
X40965480Y-26862509D01*
X40593504Y-27039887D02*
X40779492Y-26950986D01*
X40407516Y-27129132D02*
X40593504Y-27039887D01*
X40221528Y-27218640D02*
X40407516Y-27129132D01*
X40035540Y-27308332D02*
X40221528Y-27218640D01*
X39849552Y-27398125D02*
X40035540Y-27308332D01*
X39663564Y-27487941D02*
X39849552Y-27398125D01*
X39477576Y-27577696D02*
X39663564Y-27487941D01*
X39291588Y-27667312D02*
X39477576Y-27577696D01*
X39105600Y-27756707D02*
X39291588Y-27667312D01*
X38919612Y-27845801D02*
X39105600Y-27756707D01*
X38733624Y-27934514D02*
X38919612Y-27845801D01*
X38547636Y-28022765D02*
X38733624Y-27934514D01*
X38361648Y-28110476D02*
X38547636Y-28022765D01*
X38175660Y-28197567D02*
X38361648Y-28110476D01*
X37989671Y-28283960D02*
X38175660Y-28197567D01*
X37803683Y-28369577D02*
X37989671Y-28283960D01*
X37617695Y-28454342D02*
X37803683Y-28369577D01*
X37431707Y-28538178D02*
X37617695Y-28454342D01*
X37245719Y-28621009D02*
X37431707Y-28538178D01*
X37059731Y-28702762D02*
X37245719Y-28621009D01*
X36873743Y-28783361D02*
X37059731Y-28702762D01*
X36687755Y-28862736D02*
X36873743Y-28783361D01*
X36501767Y-28940814D02*
X36687755Y-28862736D01*
X36315779Y-29017525D02*
X36501767Y-28940814D01*
X36129791Y-29092801D02*
X36315779Y-29017525D01*
X35943803Y-29166572D02*
X36129791Y-29092801D01*
X35757815Y-29238774D02*
X35943803Y-29166572D01*
X35571827Y-29309341D02*
X35757815Y-29238774D01*
X35385839Y-29378209D02*
X35571827Y-29309341D01*
X35199851Y-29445317D02*
X35385839Y-29378209D01*
X35013863Y-29510605D02*
X35199851Y-29445317D01*
X34827875Y-29574012D02*
X35013863Y-29510605D01*
X34641887Y-29635483D02*
X34827875Y-29574012D01*
X34455899Y-29694962D02*
X34641887Y-29635483D01*
X34269911Y-29752396D02*
X34455899Y-29694962D01*
X34083923Y-29807732D02*
X34269911Y-29752396D01*
X33897935Y-29860921D02*
X34083923Y-29807732D01*
X33711947Y-29911916D02*
X33897935Y-29860921D01*
X33525958Y-29960669D02*
X33711947Y-29911916D01*
X33339970Y-30007138D02*
X33525958Y-29960669D01*
X33153982Y-30051281D02*
X33339970Y-30007138D01*
X32967994Y-30093058D02*
X33153982Y-30051281D01*
X32782006Y-30132431D02*
X32967994Y-30093058D01*
X32596018Y-30169364D02*
X32782006Y-30132431D01*
X32410030Y-30203825D02*
X32596018Y-30169364D01*
X32224042Y-30235783D02*
X32410030Y-30203825D01*
X32038054Y-30265209D02*
X32224042Y-30235783D01*
X31852066Y-30292076D02*
X32038054Y-30265209D01*
X31666078Y-30316360D02*
X31852066Y-30292076D01*
X31480090Y-30338039D02*
X31666078Y-30316360D01*
X31294102Y-30357094D02*
X31480090Y-30338039D01*
X31108114Y-30373508D02*
X31294102Y-30357094D01*
X30922126Y-30387265D02*
X31108114Y-30373508D01*
X30736138Y-30398355D02*
X30922126Y-30387265D01*
X30550150Y-30406765D02*
X30736138Y-30398355D01*
X30364162Y-30412490D02*
X30550150Y-30406765D01*
X30178174Y-30415523D02*
X30364162Y-30412490D01*
X29992186Y-30415862D02*
X30178174Y-30415523D01*
X29806198Y-30413507D02*
X29992186Y-30415862D01*
X29620210Y-30408460D02*
X29806198Y-30413507D01*
X29434222Y-30400726D02*
X29620210Y-30408460D01*
X29248234Y-30390311D02*
X29434222Y-30400726D01*
X29062246Y-30377224D02*
X29248234Y-30390311D01*
X28876257Y-30361478D02*
X29062246Y-30377224D01*
X28690269Y-30343087D02*
X28876257Y-30361478D01*
X28504281Y-30322067D02*
X28690269Y-30343087D01*
X28318293Y-30298437D02*
X28504281Y-30322067D01*
X28132305Y-30272218D02*
X28318293Y-30298437D01*
X27946317Y-30243435D02*
X28132305Y-30272218D01*
X27760329Y-30212112D02*
X27946317Y-30243435D01*
X27574341Y-30178279D02*
X27760329Y-30212112D01*
X27388353Y-30141965D02*
X27574341Y-30178279D01*
X27202365Y-30103203D02*
X27388353Y-30141965D01*
X27016377Y-30062029D02*
X27202365Y-30103203D01*
X26830389Y-30018479D02*
X27016377Y-30062029D01*
X26644401Y-29972592D02*
X26830389Y-30018479D01*
X26458413Y-29924409D02*
X26644401Y-29972592D01*
X26272425Y-29873975D02*
X26458413Y-29924409D01*
X26086437Y-29821334D02*
X26272425Y-29873975D01*
X25900449Y-29766534D02*
X26086437Y-29821334D01*
X25714461Y-29709624D02*
X25900449Y-29766534D01*
X25528473Y-29650655D02*
X25714461Y-29709624D01*
X25342485Y-29589681D02*
X25528473Y-29650655D01*
X25156497Y-29526756D02*
X25342485Y-29589681D01*
X24970509Y-29461937D02*
X25156497Y-29526756D01*
X24784521Y-29395282D02*
X24970509Y-29461937D01*
X24598533Y-29326851D02*
X24784521Y-29395282D01*
X24412544Y-29256706D02*
X24598533Y-29326851D01*
X24226556Y-29184910D02*
X24412544Y-29256706D01*
X24040568Y-29111528D02*
X24226556Y-29184910D01*
X23854580Y-29036625D02*
X24040568Y-29111528D01*
X23668592Y-28960269D02*
X23854580Y-29036625D01*
X23482604Y-28882528D02*
X23668592Y-28960269D01*
X23296616Y-28803474D02*
X23482604Y-28882528D01*
X23110628Y-28723176D02*
X23296616Y-28803474D01*
X22924640Y-28641707D02*
X23110628Y-28723176D01*
X22738652Y-28559140D02*
X22924640Y-28641707D01*
X22552664Y-28475551D02*
X22738652Y-28559140D01*
X22366676Y-28391013D02*
X22552664Y-28475551D01*
X22180688Y-28305603D02*
X22366676Y-28391013D01*
X21994700Y-28219398D02*
X22180688Y-28305603D01*
X21808712Y-28132475D02*
X21994700Y-28219398D01*
X21622724Y-28044913D02*
X21808712Y-28132475D01*
X21436736Y-27956790D02*
X21622724Y-28044913D01*
X21250748Y-27868187D02*
X21436736Y-27956790D01*
X21064760Y-27779181D02*
X21250748Y-27868187D01*
X20878772Y-27689854D02*
X21064760Y-27779181D01*
X20692784Y-27600287D02*
X20878772Y-27689854D01*
X20506796Y-27510558D02*
X20692784Y-27600287D01*
X20320808Y-27420750D02*
X20506796Y-27510558D01*
X20134820Y-27330944D02*
X20320808Y-27420750D01*
X19948832Y-27241219D02*
X20134820Y-27330944D01*
X19762843Y-27151657D02*
X19948832Y-27241219D01*
X19576855Y-27062338D02*
X19762843Y-27151657D01*
X19390867Y-26973343D02*
X19576855Y-27062338D01*
X19204879Y-26884752D02*
X19390867Y-26973343D01*
X19018891Y-26796644D02*
X19204879Y-26884752D01*
X18832903Y-26709099D02*
X19018891Y-26796644D01*
X18646915Y-26622195D02*
X18832903Y-26709099D01*
X18460927Y-26536012D02*
X18646915Y-26622195D01*
X18274939Y-26450626D02*
X18460927Y-26536012D01*
X18088951Y-26366114D02*
X18274939Y-26450626D01*
X17902963Y-26282552D02*
X18088951Y-26366114D01*
X17716975Y-26200015D02*
X17902963Y-26282552D01*
X17530987Y-26118579D02*
X17716975Y-26200015D01*
X17344999Y-26038315D02*
X17530987Y-26118579D01*
X17159011Y-25959297D02*
X17344999Y-26038315D01*
X16973023Y-25881595D02*
X17159011Y-25959297D01*
X16787035Y-25805279D02*
X16973023Y-25881595D01*
X16601047Y-25730418D02*
X16787035Y-25805279D01*
X16415059Y-25657080D02*
X16601047Y-25730418D01*
X16229071Y-25585329D02*
X16415059Y-25657080D01*
X16043083Y-25515232D02*
X16229071Y-25585329D01*
X15857095Y-25446851D02*
X16043083Y-25515232D01*
X15671107Y-25380247D02*
X15857095Y-25446851D01*
X15485119Y-25315481D02*
X15671107Y-25380247D01*
X15299130Y-25252610D02*
X15485119Y-25315481D01*
X15113142Y-25191692D02*
X15299130Y-25252610D01*
X14927154Y-25132781D02*
X15113142Y-25191692D01*
X14741166Y-25075930D02*
X14927154Y-25132781D01*
X14555178Y-25021191D02*
X14741166Y-25075930D01*
X14369190Y-24968612D02*
X14555178Y-25021191D01*
X14183202Y-24918241D02*
X14369190Y-24968612D01*
X13997214Y-24870123D02*
X14183202Y-24918241D01*
X13811226Y-24824302D02*
X13997214Y-24870123D01*
X13625238Y-24780818D02*
X13811226Y-24824302D01*
X13439250Y-24739712D02*
X13625238Y-24780818D01*
X13253262Y-24701019D02*
X13439250Y-24739712D01*
X13067274Y-24664775D02*
X13253262Y-24701019D01*
X12881286Y-24631012D02*
X13067274Y-24664775D01*
X12695298Y-24599761D02*
X12881286Y-24631012D01*
X12509310Y-24571050D02*
X12695298Y-24599761D01*
X12323322Y-24544905D02*
X12509310Y-24571050D01*
X12137334Y-24521349D02*
X12323322Y-24544905D01*
X11951346Y-24500403D02*
X12137334Y-24521349D01*
X11765358Y-24482086D02*
X11951346Y-24500403D01*
X11579370Y-24466416D02*
X11765358Y-24482086D01*
X11393382Y-24453405D02*
X11579370Y-24466416D01*
X11207394Y-24443065D02*
X11393382Y-24453405D01*
X11021406Y-24435407D02*
X11207394Y-24443065D01*
X10835418Y-24430436D02*
X11021406Y-24435407D01*
X10649429Y-24428157D02*
X10835418Y-24430436D01*
X10463441Y-24428573D02*
X10649429Y-24428157D01*
X10277453Y-24431683D02*
X10463441Y-24428573D01*
X10091465Y-24437484D02*
X10277453Y-24431683D01*
X9905477Y-24445970D02*
X10091465Y-24437484D01*
X9719489Y-24457135D02*
X9905477Y-24445970D01*
X9533501Y-24470968D02*
X9719489Y-24457135D01*
X9347513Y-24487457D02*
X9533501Y-24470968D01*
X9161525Y-24506587D02*
X9347513Y-24487457D01*
X8975537Y-24528340D02*
X9161525Y-24506587D01*
X8789549Y-24552698D02*
X8975537Y-24528340D01*
X8603561Y-24579638D02*
X8789549Y-24552698D01*
X8417573Y-24609135D02*
X8603561Y-24579638D01*
X8231585Y-24641165D02*
X8417573Y-24609135D01*
X8045597Y-24675696D02*
X8231585Y-24641165D01*
X7859609Y-24712700D02*
X8045597Y-24675696D01*
X7673621Y-24752141D02*
X7859609Y-24712700D01*
X7487633Y-24793985D02*
X7673621Y-24752141D01*
X7301645Y-24838194D02*
X7487633Y-24793985D01*
X7115657Y-24884729D02*
X7301645Y-24838194D01*
X6929669Y-24933547D02*
X7115657Y-24884729D01*
X6743681Y-24984604D02*
X6929669Y-24933547D01*
X6557693Y-25037855D02*
X6743681Y-24984604D01*
X6371705Y-25093251D02*
X6557693Y-25037855D01*
X6185716Y-25150744D02*
X6371705Y-25093251D01*
X5999728Y-25210280D02*
X6185716Y-25150744D01*
X5813740Y-25271806D02*
X5999728Y-25210280D01*
X5627752Y-25335268D02*
X5813740Y-25271806D01*
X5441764Y-25400608D02*
X5627752Y-25335268D01*
X5255776Y-25467766D02*
X5441764Y-25400608D01*
X5069788Y-25536684D02*
X5255776Y-25467766D01*
X4883800Y-25607298D02*
X5069788Y-25536684D01*
X4697812Y-25679545D02*
X4883800Y-25607298D01*
X4511824Y-25753360D02*
X4697812Y-25679545D01*
X4325836Y-25828677D02*
X4511824Y-25753360D01*
X4139848Y-25905428D02*
X4325836Y-25828677D01*
X3953860Y-25983544D02*
X4139848Y-25905428D01*
X3767872Y-26062954D02*
X3953860Y-25983544D01*
X3581884Y-26143588D02*
X3767872Y-26062954D01*
X3395896Y-26225372D02*
X3581884Y-26143588D01*
X3209908Y-26308233D02*
X3395896Y-26225372D01*
X3023920Y-26392096D02*
X3209908Y-26308233D01*
X2837932Y-26476886D02*
X3023920Y-26392096D01*
X2651944Y-26562526D02*
X2837932Y-26476886D01*
X2465956Y-26648940D02*
X2651944Y-26562526D01*
X2279968Y-26736050D02*
X2465956Y-26648940D01*
X2093980Y-26823777D02*
X2279968Y-26736050D01*
X1907992Y-26912043D02*
X2093980Y-26823777D01*
X1722004Y-27000767D02*
X1907992Y-26912043D01*
X1536015Y-27089871D02*
X1722004Y-27000767D01*
X1350027Y-27179273D02*
X1536015Y-27089871D01*
X1164039Y-27268894D02*
X1350027Y-27179273D01*
X978051Y-27358653D02*
X1164039Y-27268894D01*
X792063Y-27448468D02*
X978051Y-27358653D01*
X606075Y-27538260D02*
X792063Y-27448468D01*
X420087Y-27627948D02*
X606075Y-27538260D01*
X234099Y-27717450D02*
X420087Y-27627948D01*
X48111Y-27806686D02*
X234099Y-27717450D01*
X53240691Y-26208638D02*
X53426679Y-26140006D01*
X53054703Y-26278404D02*
X53240691Y-26208638D01*
X52868715Y-26349243D02*
X53054703Y-26278404D01*
X52682727Y-26421090D02*
X52868715Y-26349243D01*
X52496739Y-26493882D02*
X52682727Y-26421090D01*
X52310751Y-26567552D02*
X52496739Y-26493882D01*
X52124763Y-26642035D02*
X52310751Y-26567552D01*
X51938775Y-26717262D02*
X52124763Y-26642035D01*
X51752786Y-26793167D02*
X51938775Y-26717262D01*
X51566798Y-26869682D02*
X51752786Y-26793167D01*
X51380810Y-26946736D02*
X51566798Y-26869682D01*
X51194822Y-27024262D02*
X51380810Y-26946736D01*
X51008834Y-27102189D02*
X51194822Y-27024262D01*
X50822846Y-27180447D02*
X51008834Y-27102189D01*
X50636858Y-27258966D02*
X50822846Y-27180447D01*
X50450870Y-27337675D02*
X50636858Y-27258966D01*
X50264882Y-27416503D02*
X50450870Y-27337675D01*
X50078894Y-27495379D02*
X50264882Y-27416503D01*
X49892906Y-27574232D02*
X50078894Y-27495379D01*
X49706918Y-27652992D02*
X49892906Y-27574232D01*
X49520930Y-27731587D02*
X49706918Y-27652992D01*
X49334942Y-27809947D02*
X49520930Y-27731587D01*
X49148954Y-27888001D02*
X49334942Y-27809947D01*
X48962966Y-27965679D02*
X49148954Y-27888001D01*
X48776978Y-28042911D02*
X48962966Y-27965679D01*
X48590990Y-28119627D02*
X48776978Y-28042911D01*
X48405002Y-28195759D02*
X48590990Y-28119627D01*
X48219014Y-28271238D02*
X48405002Y-28195759D01*
X48033026Y-28345996D02*
X48219014Y-28271238D01*
X47847038Y-28419966D02*
X48033026Y-28345996D01*
X47661050Y-28493081D02*
X47847038Y-28419966D01*
X47475062Y-28565276D02*
X47661050Y-28493081D01*
X47289074Y-28636484D02*
X47475062Y-28565276D01*
X47103085Y-28706644D02*
X47289074Y-28636484D01*
X46917097Y-28775690D02*
X47103085Y-28706644D01*
X46731109Y-28843561D02*
X46917097Y-28775690D01*
X46545121Y-28910197D02*
X46731109Y-28843561D01*
X46359133Y-28975536D02*
X46545121Y-28910197D01*
X46173145Y-29039521D02*
X46359133Y-28975536D01*
X45987157Y-29102093D02*
X46173145Y-29039521D01*
X45801169Y-29163197D02*
X45987157Y-29102093D01*
X45615181Y-29222777D02*
X45801169Y-29163197D01*
X45429193Y-29280780D02*
X45615181Y-29222777D01*
X45243205Y-29337153D02*
X45429193Y-29280780D01*
X45057217Y-29391846D02*
X45243205Y-29337153D01*
X44871229Y-29444809D02*
X45057217Y-29391846D01*
X44685241Y-29495996D02*
X44871229Y-29444809D01*
X44499253Y-29545359D02*
X44685241Y-29495996D01*
X44313265Y-29592855D02*
X44499253Y-29545359D01*
X44127277Y-29638441D02*
X44313265Y-29592855D01*
X43941289Y-29682075D02*
X44127277Y-29638441D01*
X43755301Y-29723718D02*
X43941289Y-29682075D01*
X43569313Y-29763334D02*
X43755301Y-29723718D01*
X43383325Y-29800885D02*
X43569313Y-29763334D01*
X43197337Y-29836339D02*
X43383325Y-29800885D01*
X43011349Y-29869664D02*
X43197337Y-29836339D01*
X42825361Y-29900829D02*
X43011349Y-29869664D01*
X42639372Y-29929807D02*
X42825361Y-29900829D01*
X42453384Y-29956571D02*
X42639372Y-29929807D01*
X42267396Y-29981098D02*
X42453384Y-29956571D01*
X42081408Y-30003365D02*
X42267396Y-29981098D01*
X41895420Y-30023352D02*
X42081408Y-30003365D01*
X41709432Y-30041041D02*
X41895420Y-30023352D01*
X41523444Y-30056417D02*
X41709432Y-30041041D01*
X41337456Y-30069465D02*
X41523444Y-30056417D01*
X41151468Y-30080174D02*
X41337456Y-30069465D01*
X40965480Y-30088534D02*
X41151468Y-30080174D01*
X40779492Y-30094538D02*
X40965480Y-30088534D01*
X40593504Y-30098180D02*
X40779492Y-30094538D01*
X40407516Y-30099457D02*
X40593504Y-30098180D01*
X40221528Y-30098367D02*
X40407516Y-30099457D01*
X40035540Y-30094912D02*
X40221528Y-30098367D01*
X39849552Y-30089096D02*
X40035540Y-30094912D01*
X39663564Y-30080922D02*
X39849552Y-30089096D01*
X39477576Y-30070399D02*
X39663564Y-30080922D01*
X39291588Y-30057535D02*
X39477576Y-30070399D01*
X39105600Y-30042343D02*
X39291588Y-30057535D01*
X38919612Y-30024837D02*
X39105600Y-30042343D01*
X38733624Y-30005031D02*
X38919612Y-30024837D01*
X38547636Y-29982944D02*
X38733624Y-30005031D01*
X38361648Y-29958596D02*
X38547636Y-29982944D01*
X38175660Y-29932008D02*
X38361648Y-29958596D01*
X37989671Y-29903204D02*
X38175660Y-29932008D01*
X37803683Y-29872211D02*
X37989671Y-29903204D01*
X37617695Y-29839057D02*
X37803683Y-29872211D01*
X37431707Y-29803770D02*
X37617695Y-29839057D01*
X37245719Y-29766383D02*
X37431707Y-29803770D01*
X37059731Y-29726930D02*
X37245719Y-29766383D01*
X36873743Y-29685446D02*
X37059731Y-29726930D01*
X36687755Y-29641968D02*
X36873743Y-29685446D01*
X36501767Y-29596536D02*
X36687755Y-29641968D01*
X36315779Y-29549190D02*
X36501767Y-29596536D01*
X36129791Y-29499972D02*
X36315779Y-29549190D01*
X35943803Y-29448929D02*
X36129791Y-29499972D01*
X35757815Y-29396104D02*
X35943803Y-29448929D01*
X35571827Y-29341546D02*
X35757815Y-29396104D01*
X35385839Y-29285304D02*
X35571827Y-29341546D01*
X35199851Y-29227429D02*
X35385839Y-29285304D01*
X35013863Y-29167972D02*
X35199851Y-29227429D01*
X34827875Y-29106987D02*
X35013863Y-29167972D01*
X34641887Y-29044529D02*
X34827875Y-29106987D01*
X34455899Y-28980654D02*
X34641887Y-29044529D01*
X34269911Y-28915420D02*
X34455899Y-28980654D01*
X34083923Y-28848885D02*
X34269911Y-28915420D01*
X33897935Y-28781109D02*
X34083923Y-28848885D01*
X33711947Y-28712153D02*
X33897935Y-28781109D01*
X33525958Y-28642080D02*
X33711947Y-28712153D01*
X33339970Y-28570952D02*
X33525958Y-28642080D01*
X33153982Y-28498833D02*
X33339970Y-28570952D01*
X32967994Y-28425789D02*
X33153982Y-28498833D01*
X32782006Y-28351884D02*
X32967994Y-28425789D01*
X32596018Y-28277186D02*
X32782006Y-28351884D01*
X32410030Y-28201762D02*
X32596018Y-28277186D01*
X32224042Y-28125679D02*
X32410030Y-28201762D01*
X32038054Y-28049006D02*
X32224042Y-28125679D01*
X31852066Y-27971813D02*
X32038054Y-28049006D01*
X31666078Y-27894167D02*
X31852066Y-27971813D01*
X31480090Y-27816141D02*
X31666078Y-27894167D01*
X31294102Y-27737802D02*
X31480090Y-27816141D01*
X31108114Y-27659223D02*
X31294102Y-27737802D01*
X30922126Y-27580474D02*
X31108114Y-27659223D01*
X30736138Y-27501625D02*
X30922126Y-27580474D01*
X30550150Y-27422748D02*
X30736138Y-27501625D01*
X30364162Y-27343914D02*
X30550150Y-27422748D01*
X30178174Y-27265193D02*
X30364162Y-27343914D01*
X29992186Y-27186657D02*
X30178174Y-27265193D01*
X29806198Y-27108376D02*
X29992186Y-27186657D01*
X29620210Y-27030420D02*
X29806198Y-27108376D01*
X29434222Y-26952860D02*
X29620210Y-27030420D01*
X29248234Y-26875765D02*
X29434222Y-26952860D01*
X29062246Y-26799206D02*
X29248234Y-26875765D01*
X28876257Y-26723250D02*
X29062246Y-26799206D01*
X28690269Y-26647966D02*
X28876257Y-26723250D01*
X28504281Y-26573422D02*
X28690269Y-26647966D01*
X28318293Y-26499685D02*
X28504281Y-26573422D01*
X28132305Y-26426822D02*
X28318293Y-26499685D01*
X27946317Y-26354897D02*
X28132305Y-26426822D01*
X27760329Y-26283976D02*
X27946317Y-26354897D01*
X27574341Y-26214122D02*
X27760329Y-26283976D01*
X27388353Y-26145399D02*
X27574341Y-26214122D01*
X27202365Y-26077868D02*
X27388353Y-26145399D01*
X27016377Y-26011590D02*
X27202365Y-26077868D01*
X26830389Y-25946624D02*
X27016377Y-26011590D01*
X26644401Y-25883029D02*
X26830389Y-25946624D01*
X26458413Y-25820863D02*
X26644401Y-25883029D01*
X26272425Y-25760181D02*
X26458413Y-25820863D01*
X26086437Y-25701038D02*
X26272425Y-25760181D01*
X25900449Y-25643486D02*
X26086437Y-25701038D01*
X25714461Y-25587579D02*
X25900449Y-25643486D01*
X25528473Y-25533366D02*
X25714461Y-25587579D01*
X25342485Y-25480895D02*
X25528473Y-25533366D01*
X25156497Y-25430215D02*
X25342485Y-25480895D01*
X24970509Y-25381371D02*
X25156497Y-25430215D01*
X24784521Y-25334406D02*
X24970509Y-25381371D01*
X24598533Y-25289363D02*
X24784521Y-25334406D01*
X24412544Y-25246283D02*
X24598533Y-25289363D01*
X24226556Y-25205204D02*
X24412544Y-25246283D01*
X24040568Y-25166164D02*
X24226556Y-25205204D01*
X23854580Y-25129197D02*
X24040568Y-25166164D01*
X23668592Y-25094336D02*
X23854580Y-25129197D01*
X23482604Y-25061614D02*
X23668592Y-25094336D01*
X23296616Y-25031059D02*
X23482604Y-25061614D01*
X23110628Y-25002699D02*
X23296616Y-25031059D01*
X22924640Y-24976559D02*
X23110628Y-25002699D01*
X22738652Y-24952664D02*
X22924640Y-24976559D01*
X22552664Y-24931034D02*
X22738652Y-24952664D01*
X22366676Y-24911689D02*
X22552664Y-24931034D01*
X22180688Y-24894647D02*
X22366676Y-24911689D01*
X21994700Y-24879922D02*
X22180688Y-24894647D01*
X21808712Y-24867528D02*
X21994700Y-24879922D01*
X21622724Y-24857477D02*
X21808712Y-24867528D01*
X21436736Y-24849776D02*
X21622724Y-24857477D01*
X21250748Y-24844434D02*
X21436736Y-24849776D01*
X21064760Y-24841455D02*
X21250748Y-24844434D01*
X20878772Y-24840841D02*
X21064760Y-24841455D01*
X20692784Y-24842593D02*
X20878772Y-24840841D01*
X20506796Y-24846710D02*
X20692784Y-24842593D01*
X20320808Y-24853188D02*
X20506796Y-24846710D01*
X20134820Y-24862021D02*
X20320808Y-24853188D01*
X19948832Y-24873201D02*
X20134820Y-24862021D01*
X19762843Y-24886719D02*
X19948832Y-24873201D01*
X19576855Y-24902561D02*
X19762843Y-24886719D01*
X19390867Y-24920713D02*
X19576855Y-24902561D01*
X19204879Y-24941160D02*
X19390867Y-24920713D01*
X19018891Y-24963883D02*
X19204879Y-24941160D01*
X18832903Y-24988861D02*
X19018891Y-24963883D01*
X18646915Y-25016073D02*
X18832903Y-24988861D01*
X18460927Y-25045492D02*
X18646915Y-25016073D01*
X18274939Y-25077094D02*
X18460927Y-25045492D01*
X18088951Y-25110849D02*
X18274939Y-25077094D01*
X17902963Y-25146728D02*
X18088951Y-25110849D01*
X17716975Y-25184697D02*
X17902963Y-25146728D01*
X17530987Y-25224723D02*
X17716975Y-25184697D01*
X17344999Y-25266770D02*
X17530987Y-25224723D01*
X17159011Y-25310800D02*
X17344999Y-25266770D01*
X16973023Y-25356772D02*
X17159011Y-25310800D01*
X16787035Y-25404647D02*
X16973023Y-25356772D01*
X16601047Y-25454381D02*
X16787035Y-25404647D01*
X16415059Y-25505928D02*
X16601047Y-25454381D01*
X16229071Y-25559243D02*
X16415059Y-25505928D01*
X16043083Y-25614278D02*
X16229071Y-25559243D01*
X15857095Y-25670983D02*
X16043083Y-25614278D01*
X15671107Y-25729307D02*
X15857095Y-25670983D01*
X15485119Y-25789198D02*
X15671107Y-25729307D01*
X15299130Y-25850601D02*
X15485119Y-25789198D01*
X15113142Y-25913462D02*
X15299130Y-25850601D01*
X14927154Y-25977724D02*
X15113142Y-25913462D01*
X14741166Y-26043329D02*
X14927154Y-25977724D01*
X14555178Y-26110217D02*
X14741166Y-26043329D01*
X14369190Y-26178330D02*
X14555178Y-26110217D01*
X14183202Y-26247605D02*
X14369190Y-26178330D01*
X13997214Y-26317980D02*
X14183202Y-26247605D01*
X13811226Y-26389393D02*
X13997214Y-26317980D01*
X13625238Y-26461777D02*
X13811226Y-26389393D01*
X13439250Y-26535069D02*
X13625238Y-26461777D01*
X13253262Y-26609203D02*
X13439250Y-26535069D01*
X13067274Y-26684111D02*
X13253262Y-26609203D01*
X12881286Y-26759727D02*
X13067274Y-26684111D01*
X12695298Y-26835982D02*
X12881286Y-26759727D01*
X12509310Y-26912808D02*
X12695298Y-26835982D01*
X12323322Y-26990135D02*
X12509310Y-26912808D01*
X12137334Y-27067894D02*
X12323322Y-26990135D01*
X11951346Y-27146016D02*
X12137334Y-27067894D01*
X11765358Y-27224428D02*
X11951346Y-27146016D01*
X11579370Y-27303062D02*
X11765358Y-27224428D01*
X11393382Y-27381847D02*
X11579370Y-27303062D01*
X11207394Y-27460710D02*
X11393382Y-27381847D01*
X11021406Y-27539583D02*
X11207394Y-27460710D01*
X10835418Y-27618392D02*
X11021406Y-27539583D01*
X10649429Y-27697068D02*
X10835418Y-27618392D01*
X10463441Y-27775540D02*
X10649429Y-27697068D01*
X10277453Y-27853738D02*
X10463441Y-27775540D01*
X10091465Y-27931589D02*
X10277453Y-27853738D01*
X9905477Y-28009026D02*
X10091465Y-27931589D01*
X9719489Y-28085978D02*
X9905477Y-28009026D01*
X9533501Y-28162375D02*
X9719489Y-28085978D01*
X9347513Y-28238149D02*
X9533501Y-28162375D01*
X9161525Y-28313233D02*
X9347513Y-28238149D01*
X8975537Y-28387557D02*
X9161525Y-28313233D01*
X8789549Y-28461056D02*
X8975537Y-28387557D01*
X8603561Y-28533663D02*
X8789549Y-28461056D01*
X8417573Y-28605313D02*
X8603561Y-28533663D01*
X8231585Y-28675941D02*
X8417573Y-28605313D01*
X8045597Y-28745484D02*
X8231585Y-28675941D01*
X7859609Y-28813880D02*
X8045597Y-28745484D01*
X7673621Y-28881066D02*
X7859609Y-28813880D01*
X7487633Y-28946982D02*
X7673621Y-28881066D01*
X7301645Y-29011570D02*
X7487633Y-28946982D01*
X7115657Y-29074770D02*
X7301645Y-29011570D01*
X6929669Y-29136526D02*
X7115657Y-29074770D01*
X6743681Y-29196782D02*
X6929669Y-29136526D01*
X6557693Y-29255484D02*
X6743681Y-29196782D01*
X6371705Y-29312580D02*
X6557693Y-29255484D01*
X6185716Y-29368018D02*
X6371705Y-29312580D01*
X5999728Y-29421748D02*
X6185716Y-29368018D01*
X5813740Y-29473721D02*
X5999728Y-29421748D01*
X5627752Y-29523891D02*
X5813740Y-29473721D01*
X5441764Y-29572213D02*
X5627752Y-29523891D01*
X5255776Y-29618643D02*
X5441764Y-29572213D01*
X5069788Y-29663140D02*
X5255776Y-29618643D01*
X4883800Y-29705663D02*
X5069788Y-29663140D01*
X4697812Y-29746174D02*
X4883800Y-29705663D01*
X4511824Y-29784637D02*
X4697812Y-29746174D01*
X4325836Y-29821017D02*
X4511824Y-29784637D01*
X4139848Y-29855282D02*
X4325836Y-29821017D01*
X3953860Y-29887400D02*
X4139848Y-29855282D01*
X3767872Y-29917342D02*
X3953860Y-29887400D01*
X3581884Y-29945082D02*
X3767872Y-29917342D01*
X3395896Y-29970595D02*
X3581884Y-29945082D01*
X3209908Y-29993858D02*
X3395896Y-29970595D01*
X3023920Y-30014849D02*
X3209908Y-29993858D01*
X2837932Y-30033551D02*
X3023920Y-30014849D01*
X2651944Y-30049945D02*
X2837932Y-30033551D01*
X2465956Y-30064018D02*
X2651944Y-30049945D01*
X2279968Y-30075756D02*
X2465956Y-30064018D01*
X2093980Y-30085150D02*
X2279968Y-30075756D01*
X1907992Y-30092190D02*
X2093980Y-30085150D01*
X1722004Y-30096870D02*
X1907992Y-30092190D01*
X1536015Y-30099187D02*
X1722004Y-30096870D01*
X1350027Y-30099137D02*
X1536015Y-30099187D01*
X1164039Y-30096722D02*
X1350027Y-30099137D01*
X978051Y-30091943D02*
X1164039Y-30096722D01*
X792063Y-30084804D02*
X978051Y-30091943D01*
X606075Y-30075313D02*
X792063Y-30084804D01*
X420087Y-30063476D02*
X606075Y-30075313D01*
X234099Y-30049306D02*
X420087Y-30063476D01*
X48111Y-30032815D02*
X234099Y-30049306D01*
X53240691Y-25384299D02*
X53426679Y-25424475D01*
X53054703Y-25346202D02*
X53240691Y-25384299D01*
X52868715Y-25310219D02*
X53054703Y-25346202D01*
X52682727Y-25276382D02*
X52868715Y-25310219D01*
X52496739Y-25244721D02*
X52682727Y-25276382D01*
X52310751Y-25215265D02*
X52496739Y-25244721D01*
X52124763Y-25188041D02*
X52310751Y-25215265D01*
X51938775Y-25163072D02*
X52124763Y-25188041D01*
X51752786Y-25140381D02*
X51938775Y-25163072D01*
X51566798Y-25119990D02*
X51752786Y-25140381D01*
X51380810Y-25101915D02*
X51566798Y-25119990D01*
X51194822Y-25086174D02*
X51380810Y-25101915D01*
X51008834Y-25072780D02*
X51194822Y-25086174D01*
X50822846Y-25061746D02*
X51008834Y-25072780D01*
X50636858Y-25053081D02*
X50822846Y-25061746D01*
X50450870Y-25046794D02*
X50636858Y-25053081D01*
X50264882Y-25042890D02*
X50450870Y-25046794D01*
X50078894Y-25041372D02*
X50264882Y-25042890D01*
X49892906Y-25042242D02*
X50078894Y-25041372D01*
X49706918Y-25045499D02*
X49892906Y-25042242D01*
X49520930Y-25051140D02*
X49706918Y-25045499D01*
X49334942Y-25059160D02*
X49520930Y-25051140D01*
X49148954Y-25069552D02*
X49334942Y-25059160D01*
X48962966Y-25082307D02*
X49148954Y-25069552D01*
X48776978Y-25097412D02*
X48962966Y-25082307D01*
X48590990Y-25114855D02*
X48776978Y-25097412D01*
X48405002Y-25134620D02*
X48590990Y-25114855D01*
X48219014Y-25156688D02*
X48405002Y-25134620D01*
X48033026Y-25181041D02*
X48219014Y-25156688D01*
X47847038Y-25207656D02*
X48033026Y-25181041D01*
X47661050Y-25236509D02*
X47847038Y-25207656D01*
X47475062Y-25267574D02*
X47661050Y-25236509D01*
X47289074Y-25300823D02*
X47475062Y-25267574D01*
X47103085Y-25336227D02*
X47289074Y-25300823D01*
X46917097Y-25373754D02*
X47103085Y-25336227D01*
X46731109Y-25413369D02*
X46917097Y-25373754D01*
X46545121Y-25455037D02*
X46731109Y-25413369D01*
X46359133Y-25498721D02*
X46545121Y-25455037D01*
X46173145Y-25544381D02*
X46359133Y-25498721D01*
X45987157Y-25591976D02*
X46173145Y-25544381D01*
X45801169Y-25641463D02*
X45987157Y-25591976D01*
X45615181Y-25692798D02*
X45801169Y-25641463D01*
X45429193Y-25745935D02*
X45615181Y-25692798D01*
X45243205Y-25800826D02*
X45429193Y-25745935D01*
X45057217Y-25857421D02*
X45243205Y-25800826D01*
X44871229Y-25915670D02*
X45057217Y-25857421D01*
X44685241Y-25975519D02*
X44871229Y-25915670D01*
X44499253Y-26036916D02*
X44685241Y-25975519D01*
X44313265Y-26099805D02*
X44499253Y-26036916D01*
X44127277Y-26164129D02*
X44313265Y-26099805D01*
X43941289Y-26229830D02*
X44127277Y-26164129D01*
X43755301Y-26296850D02*
X43941289Y-26229830D01*
X43569313Y-26365127D02*
X43755301Y-26296850D01*
X43383325Y-26434602D02*
X43569313Y-26365127D01*
X43197337Y-26505210D02*
X43383325Y-26434602D01*
X43011349Y-26576889D02*
X43197337Y-26505210D01*
X42825361Y-26649574D02*
X43011349Y-26576889D01*
X42639372Y-26723199D02*
X42825361Y-26649574D01*
X42453384Y-26797699D02*
X42639372Y-26723199D01*
X42267396Y-26873006D02*
X42453384Y-26797699D01*
X42081408Y-26949052D02*
X42267396Y-26873006D01*
X41895420Y-27025769D02*
X42081408Y-26949052D01*
X41709432Y-27103089D02*
X41895420Y-27025769D01*
X41523444Y-27180941D02*
X41709432Y-27103089D01*
X41337456Y-27259255D02*
X41523444Y-27180941D01*
X41151468Y-27337961D02*
X41337456Y-27259255D01*
X40965480Y-27416989D02*
X41151468Y-27337961D01*
X40779492Y-27496266D02*
X40965480Y-27416989D01*
X40593504Y-27575722D02*
X40779492Y-27496266D01*
X40407516Y-27655285D02*
X40593504Y-27575722D01*
X40221528Y-27734883D02*
X40407516Y-27655285D01*
X40035540Y-27814446D02*
X40221528Y-27734883D01*
X39849552Y-27893900D02*
X40035540Y-27814446D01*
X39663564Y-27973175D02*
X39849552Y-27893900D01*
X39477576Y-28052200D02*
X39663564Y-27973175D01*
X39291588Y-28130903D02*
X39477576Y-28052200D01*
X39105600Y-28209214D02*
X39291588Y-28130903D01*
X38919612Y-28287061D02*
X39105600Y-28209214D01*
X38733624Y-28364376D02*
X38919612Y-28287061D01*
X38547636Y-28441088D02*
X38733624Y-28364376D01*
X38361648Y-28517128D02*
X38547636Y-28441088D01*
X38175660Y-28592428D02*
X38361648Y-28517128D01*
X37989671Y-28666920D02*
X38175660Y-28592428D01*
X37803683Y-28740537D02*
X37989671Y-28666920D01*
X37617695Y-28813214D02*
X37803683Y-28740537D01*
X37431707Y-28884883D02*
X37617695Y-28813214D01*
X37245719Y-28955482D02*
X37431707Y-28884883D01*
X37059731Y-29024946D02*
X37245719Y-28955482D01*
X36873743Y-29093212D02*
X37059731Y-29024946D01*
X36687755Y-29160221D02*
X36873743Y-29093212D01*
X36501767Y-29225910D02*
X36687755Y-29160221D01*
X36315779Y-29290222D02*
X36501767Y-29225910D01*
X36129791Y-29353097D02*
X36315779Y-29290222D01*
X35943803Y-29414481D02*
X36129791Y-29353097D01*
X35757815Y-29474316D02*
X35943803Y-29414481D01*
X35571827Y-29532550D02*
X35757815Y-29474316D01*
X35385839Y-29589130D02*
X35571827Y-29532550D01*
X35199851Y-29644006D02*
X35385839Y-29589130D01*
X35013863Y-29697127D02*
X35199851Y-29644006D01*
X34827875Y-29748446D02*
X35013863Y-29697127D01*
X34641887Y-29797917D02*
X34827875Y-29748446D01*
X34455899Y-29845495D02*
X34641887Y-29797917D01*
X34269911Y-29891138D02*
X34455899Y-29845495D01*
X34083923Y-29934804D02*
X34269911Y-29891138D01*
X33897935Y-29976454D02*
X34083923Y-29934804D01*
X33711947Y-30016050D02*
X33897935Y-29976454D01*
X33525958Y-30053558D02*
X33711947Y-30016050D01*
X33339970Y-30088943D02*
X33525958Y-30053558D01*
X33153982Y-30122173D02*
X33339970Y-30088943D01*
X32967994Y-30153219D02*
X33153982Y-30122173D01*
X32782006Y-30182052D02*
X32967994Y-30153219D01*
X32596018Y-30208647D02*
X32782006Y-30182052D01*
X32410030Y-30232979D02*
X32596018Y-30208647D01*
X32224042Y-30255028D02*
X32410030Y-30232979D01*
X32038054Y-30274772D02*
X32224042Y-30255028D01*
X31852066Y-30292194D02*
X32038054Y-30274772D01*
X31666078Y-30307279D02*
X31852066Y-30292194D01*
X31480090Y-30320012D02*
X31666078Y-30307279D01*
X31294102Y-30330383D02*
X31480090Y-30320012D01*
X31108114Y-30338382D02*
X31294102Y-30330383D01*
X30922126Y-30344002D02*
X31108114Y-30338382D01*
X30736138Y-30347238D02*
X30922126Y-30344002D01*
X30550150Y-30348087D02*
X30736138Y-30347238D01*
X30364162Y-30346548D02*
X30550150Y-30348087D01*
X30178174Y-30342622D02*
X30364162Y-30346548D01*
X29992186Y-30336314D02*
X30178174Y-30342622D01*
X29806198Y-30327628D02*
X29992186Y-30336314D01*
X29620210Y-30316573D02*
X29806198Y-30327628D01*
X29434222Y-30303158D02*
X29620210Y-30316573D01*
X29248234Y-30287396D02*
X29434222Y-30303158D01*
X29062246Y-30269301D02*
X29248234Y-30287396D01*
X28876257Y-30248889D02*
X29062246Y-30269301D01*
X28690269Y-30226178D02*
X28876257Y-30248889D01*
X28504281Y-30201189D02*
X28690269Y-30226178D01*
X28318293Y-30173945D02*
X28504281Y-30201189D01*
X28132305Y-30144469D02*
X28318293Y-30173945D01*
X27946317Y-30112789D02*
X28132305Y-30144469D01*
X27760329Y-30078932D02*
X27946317Y-30112789D01*
X27574341Y-30042930D02*
X27760329Y-30078932D01*
X27388353Y-30004815D02*
X27574341Y-30042930D01*
X27202365Y-29964621D02*
X27388353Y-30004815D01*
X27016377Y-29922384D02*
X27202365Y-29964621D01*
X26830389Y-29878143D02*
X27016377Y-29922384D01*
X26644401Y-29831936D02*
X26830389Y-29878143D01*
X26458413Y-29783806D02*
X26644401Y-29831936D01*
X26272425Y-29733796D02*
X26458413Y-29783806D01*
X26086437Y-29681951D02*
X26272425Y-29733796D01*
X25900449Y-29628318D02*
X26086437Y-29681951D01*
X25714461Y-29572945D02*
X25900449Y-29628318D01*
X25528473Y-29515881D02*
X25714461Y-29572945D01*
X25342485Y-29457179D02*
X25528473Y-29515881D01*
X25156497Y-29396890D02*
X25342485Y-29457179D01*
X24970509Y-29335070D02*
X25156497Y-29396890D01*
X24784521Y-29271773D02*
X24970509Y-29335070D01*
X24598533Y-29207057D02*
X24784521Y-29271773D01*
X24412544Y-29140980D02*
X24598533Y-29207057D01*
X24226556Y-29073602D02*
X24412544Y-29140980D01*
X24040568Y-29004982D02*
X24226556Y-29073602D01*
X23854580Y-28935184D02*
X24040568Y-29004982D01*
X23668592Y-28864269D02*
X23854580Y-28935184D01*
X23482604Y-28792302D02*
X23668592Y-28864269D01*
X23296616Y-28719347D02*
X23482604Y-28792302D01*
X23110628Y-28645470D02*
X23296616Y-28719347D01*
X22924640Y-28570737D02*
X23110628Y-28645470D01*
X22738652Y-28495216D02*
X22924640Y-28570737D01*
X22552664Y-28418975D02*
X22738652Y-28495216D01*
X22366676Y-28342081D02*
X22552664Y-28418975D01*
X22180688Y-28264606D02*
X22366676Y-28342081D01*
X21994700Y-28186617D02*
X22180688Y-28264606D01*
X21808712Y-28108186D02*
X21994700Y-28186617D01*
X21622724Y-28029382D02*
X21808712Y-28108186D01*
X21436736Y-27950278D02*
X21622724Y-28029382D01*
X21250748Y-27870943D02*
X21436736Y-27950278D01*
X21064760Y-27791450D02*
X21250748Y-27870943D01*
X20878772Y-27711870D02*
X21064760Y-27791450D01*
X20692784Y-27632275D02*
X20878772Y-27711870D01*
X20506796Y-27552735D02*
X20692784Y-27632275D01*
X20320808Y-27473324D02*
X20506796Y-27552735D01*
X20134820Y-27394112D02*
X20320808Y-27473324D01*
X19948832Y-27315170D02*
X20134820Y-27394112D01*
X19762843Y-27236570D02*
X19948832Y-27315170D01*
X19576855Y-27158382D02*
X19762843Y-27236570D01*
X19390867Y-27080677D02*
X19576855Y-27158382D01*
X19204879Y-27003524D02*
X19390867Y-27080677D01*
X19018891Y-26926993D02*
X19204879Y-27003524D01*
X18832903Y-26851154D02*
X19018891Y-26926993D01*
X18646915Y-26776073D02*
X18832903Y-26851154D01*
X18460927Y-26701820D02*
X18646915Y-26776073D01*
X18274939Y-26628459D02*
X18460927Y-26701820D01*
X18088951Y-26556059D02*
X18274939Y-26628459D01*
X17902963Y-26484683D02*
X18088951Y-26556059D01*
X17716975Y-26414396D02*
X17902963Y-26484683D01*
X17530987Y-26345261D02*
X17716975Y-26414396D01*
X17344999Y-26277341D02*
X17530987Y-26345261D01*
X17159011Y-26210696D02*
X17344999Y-26277341D01*
X16973023Y-26145387D02*
X17159011Y-26210696D01*
X16787035Y-26081472D02*
X16973023Y-26145387D01*
X16601047Y-26019009D02*
X16787035Y-26081472D01*
X16415059Y-25958054D02*
X16601047Y-26019009D01*
X16229071Y-25898662D02*
X16415059Y-25958054D01*
X16043083Y-25840886D02*
X16229071Y-25898662D01*
X15857095Y-25784779D02*
X16043083Y-25840886D01*
X15671107Y-25730390D02*
X15857095Y-25784779D01*
X15485119Y-25677769D02*
X15671107Y-25730390D01*
X15299130Y-25626963D02*
X15485119Y-25677769D01*
X15113142Y-25578019D02*
X15299130Y-25626963D01*
X14927154Y-25530979D02*
X15113142Y-25578019D01*
X14741166Y-25485886D02*
X14927154Y-25530979D01*
X14555178Y-25442781D02*
X14741166Y-25485886D01*
X14369190Y-25401703D02*
X14555178Y-25442781D01*
X14183202Y-25362688D02*
X14369190Y-25401703D01*
X13997214Y-25325772D02*
X14183202Y-25362688D01*
X13811226Y-25290988D02*
X13997214Y-25325772D01*
X13625238Y-25258367D02*
X13811226Y-25290988D01*
X13439250Y-25227938D02*
X13625238Y-25258367D01*
X13253262Y-25199730D02*
X13439250Y-25227938D01*
X13067274Y-25173767D02*
X13253262Y-25199730D01*
X12881286Y-25150072D02*
X13067274Y-25173767D01*
X12695298Y-25128668D02*
X12881286Y-25150072D01*
X12509310Y-25109573D02*
X12695298Y-25128668D01*
X12323322Y-25092804D02*
X12509310Y-25109573D01*
X12137334Y-25078377D02*
X12323322Y-25092804D01*
X11951346Y-25066304D02*
X12137334Y-25078377D01*
X11765358Y-25056597D02*
X11951346Y-25066304D01*
X11579370Y-25049264D02*
X11765358Y-25056597D01*
X11393382Y-25044312D02*
X11579370Y-25049264D01*
X11207394Y-25041745D02*
X11393382Y-25044312D01*
X11021406Y-25041565D02*
X11207394Y-25041745D01*
X10835418Y-25043773D02*
X11021406Y-25041565D01*
X10649429Y-25048367D02*
X10835418Y-25043773D01*
X10463441Y-25055342D02*
X10649429Y-25048367D01*
X10277453Y-25064693D02*
X10463441Y-25055342D01*
X10091465Y-25076411D02*
X10277453Y-25064693D01*
X9905477Y-25090484D02*
X10091465Y-25076411D01*
X9719489Y-25106902D02*
X9905477Y-25090484D01*
X9533501Y-25125648D02*
X9719489Y-25106902D01*
X9347513Y-25146706D02*
X9533501Y-25125648D01*
X9161525Y-25170058D02*
X9347513Y-25146706D01*
X8975537Y-25195681D02*
X9161525Y-25170058D01*
X8789549Y-25223553D02*
X8975537Y-25195681D01*
X8603561Y-25253650D02*
X8789549Y-25223553D01*
X8417573Y-25285943D02*
X8603561Y-25253650D01*
X8231585Y-25320404D02*
X8417573Y-25285943D01*
X8045597Y-25357001D02*
X8231585Y-25320404D01*
X7859609Y-25395702D02*
X8045597Y-25357001D01*
X7673621Y-25436473D02*
X7859609Y-25395702D01*
X7487633Y-25479275D02*
X7673621Y-25436473D01*
X7301645Y-25524072D02*
X7487633Y-25479275D01*
X7115657Y-25570822D02*
X7301645Y-25524072D01*
X6929669Y-25619483D02*
X7115657Y-25570822D01*
X6743681Y-25670011D02*
X6929669Y-25619483D01*
X6557693Y-25722362D02*
X6743681Y-25670011D01*
X6371705Y-25776488D02*
X6557693Y-25722362D01*
X6185716Y-25832340D02*
X6371705Y-25776488D01*
X5999728Y-25889869D02*
X6185716Y-25832340D01*
X5813740Y-25949021D02*
X5999728Y-25889869D01*
X5627752Y-26009744D02*
X5813740Y-25949021D01*
X5441764Y-26071984D02*
X5627752Y-26009744D01*
X5255776Y-26135684D02*
X5441764Y-26071984D01*
X5069788Y-26200788D02*
X5255776Y-26135684D01*
X4883800Y-26267235D02*
X5069788Y-26200788D01*
X4697812Y-26334968D02*
X4883800Y-26267235D01*
X4511824Y-26403924D02*
X4697812Y-26334968D01*
X4325836Y-26474041D02*
X4511824Y-26403924D01*
X4139848Y-26545258D02*
X4325836Y-26474041D01*
X3953860Y-26617508D02*
X4139848Y-26545258D01*
X3767872Y-26690728D02*
X3953860Y-26617508D01*
X3581884Y-26764852D02*
X3767872Y-26690728D01*
X3395896Y-26839812D02*
X3581884Y-26764852D01*
X3209908Y-26915542D02*
X3395896Y-26839812D01*
X3023920Y-26991973D02*
X3209908Y-26915542D01*
X2837932Y-27069037D02*
X3023920Y-26991973D01*
X2651944Y-27146663D02*
X2837932Y-27069037D01*
X2465956Y-27224783D02*
X2651944Y-27146663D01*
X2279968Y-27303326D02*
X2465956Y-27224783D01*
X2093980Y-27382220D02*
X2279968Y-27303326D01*
X1907992Y-27461397D02*
X2093980Y-27382220D01*
X1722004Y-27540783D02*
X1907992Y-27461397D01*
X1536015Y-27620307D02*
X1722004Y-27540783D01*
X1350027Y-27699899D02*
X1536015Y-27620307D01*
X1164039Y-27779486D02*
X1350027Y-27699899D01*
X978051Y-27858997D02*
X1164039Y-27779486D01*
X792063Y-27938360D02*
X978051Y-27858997D01*
X606075Y-28017503D02*
X792063Y-27938360D01*
X420087Y-28096357D02*
X606075Y-28017503D01*
X234099Y-28174848D02*
X420087Y-28096357D01*
X48111Y-28252908D02*
X234099Y-28174848D01*
X53240691Y-24021993D02*
X53426679Y-23952607D01*
X53054703Y-24093014D02*
X53240691Y-24021993D01*
X52868715Y-24165604D02*
X53054703Y-24093014D01*
X52682727Y-24239698D02*
X52868715Y-24165604D01*
X52496739Y-24315230D02*
X52682727Y-24239698D01*
X52310751Y-24392132D02*
X52496739Y-24315230D01*
X52124763Y-24470334D02*
X52310751Y-24392132D01*
X51938775Y-24549766D02*
X52124763Y-24470334D01*
X51752786Y-24630357D02*
X51938775Y-24549766D01*
X51566798Y-24712034D02*
X51752786Y-24630357D01*
X51380810Y-24794724D02*
X51566798Y-24712034D01*
X51194822Y-24878351D02*
X51380810Y-24794724D01*
X51008834Y-24962842D02*
X51194822Y-24878351D01*
X50822846Y-25048119D02*
X51008834Y-24962842D01*
X50636858Y-25134107D02*
X50822846Y-25048119D01*
X50450870Y-25220727D02*
X50636858Y-25134107D01*
X50264882Y-25307902D02*
X50450870Y-25220727D01*
X50078894Y-25395553D02*
X50264882Y-25307902D01*
X49892906Y-25483602D02*
X50078894Y-25395553D01*
X49706918Y-25571969D02*
X49892906Y-25483602D01*
X49520930Y-25660575D02*
X49706918Y-25571969D01*
X49334942Y-25749339D02*
X49520930Y-25660575D01*
X49148954Y-25838183D02*
X49334942Y-25749339D01*
X48962966Y-25927026D02*
X49148954Y-25838183D01*
X48776978Y-26015788D02*
X48962966Y-25927026D01*
X48590990Y-26104389D02*
X48776978Y-26015788D01*
X48405002Y-26192750D02*
X48590990Y-26104389D01*
X48219014Y-26280791D02*
X48405002Y-26192750D01*
X48033026Y-26368432D02*
X48219014Y-26280791D01*
X47847038Y-26455596D02*
X48033026Y-26368432D01*
X47661050Y-26542203D02*
X47847038Y-26455596D01*
X47475062Y-26628176D02*
X47661050Y-26542203D01*
X47289074Y-26713436D02*
X47475062Y-26628176D01*
X47103085Y-26797909D02*
X47289074Y-26713436D01*
X46917097Y-26881516D02*
X47103085Y-26797909D01*
X46731109Y-26964184D02*
X46917097Y-26881516D01*
X46545121Y-27045837D02*
X46731109Y-26964184D01*
X46359133Y-27126403D02*
X46545121Y-27045837D01*
X46173145Y-27205809D02*
X46359133Y-27126403D01*
X45987157Y-27283983D02*
X46173145Y-27205809D01*
X45801169Y-27360855D02*
X45987157Y-27283983D01*
X45615181Y-27436356D02*
X45801169Y-27360855D01*
X45429193Y-27510418D02*
X45615181Y-27436356D01*
X45243205Y-27582974D02*
X45429193Y-27510418D01*
X45057217Y-27653958D02*
X45243205Y-27582974D01*
X44871229Y-27723308D02*
X45057217Y-27653958D01*
X44685241Y-27790961D02*
X44871229Y-27723308D01*
X44499253Y-27856855D02*
X44685241Y-27790961D01*
X44313265Y-27920932D02*
X44499253Y-27856855D01*
X44127277Y-27983133D02*
X44313265Y-27920932D01*
X43941289Y-28043403D02*
X44127277Y-27983133D01*
X43755301Y-28101688D02*
X43941289Y-28043403D01*
X43569313Y-28157935D02*
X43755301Y-28101688D01*
X43383325Y-28212094D02*
X43569313Y-28157935D01*
X43197337Y-28264115D02*
X43383325Y-28212094D01*
X43011349Y-28313952D02*
X43197337Y-28264115D01*
X42825361Y-28361560D02*
X43011349Y-28313952D01*
X42639372Y-28406897D02*
X42825361Y-28361560D01*
X42453384Y-28449920D02*
X42639372Y-28406897D01*
X42267396Y-28490593D02*
X42453384Y-28449920D01*
X42081408Y-28528878D02*
X42267396Y-28490593D01*
X41895420Y-28564740D02*
X42081408Y-28528878D01*
X41709432Y-28598148D02*
X41895420Y-28564740D01*
X41523444Y-28629071D02*
X41709432Y-28598148D01*
X41337456Y-28657482D02*
X41523444Y-28629071D01*
X41151468Y-28683354D02*
X41337456Y-28657482D01*
X40965480Y-28706666D02*
X41151468Y-28683354D01*
X40779492Y-28727395D02*
X40965480Y-28706666D01*
X40593504Y-28745522D02*
X40779492Y-28727395D01*
X40407516Y-28761033D02*
X40593504Y-28745522D01*
X40221528Y-28773912D02*
X40407516Y-28761033D01*
X40035540Y-28784149D02*
X40221528Y-28773912D01*
X39849552Y-28791733D02*
X40035540Y-28784149D01*
X39663564Y-28796659D02*
X39849552Y-28791733D01*
X39477576Y-28798921D02*
X39663564Y-28796659D01*
X39291588Y-28798518D02*
X39477576Y-28798921D01*
X39105600Y-28795450D02*
X39291588Y-28798518D01*
X38919612Y-28789720D02*
X39105600Y-28795450D01*
X38733624Y-28781332D02*
X38919612Y-28789720D01*
X38547636Y-28770295D02*
X38733624Y-28781332D01*
X38361648Y-28756619D02*
X38547636Y-28770295D01*
X38175660Y-28740315D02*
X38361648Y-28756619D01*
X37989671Y-28721399D02*
X38175660Y-28740315D01*
X37803683Y-28699887D02*
X37989671Y-28721399D01*
X37617695Y-28675799D02*
X37803683Y-28699887D01*
X37431707Y-28649156D02*
X37617695Y-28675799D01*
X37245719Y-28619982D02*
X37431707Y-28649156D01*
X37059731Y-28588305D02*
X37245719Y-28619982D01*
X36873743Y-28554151D02*
X37059731Y-28588305D01*
X36687755Y-28517553D02*
X36873743Y-28554151D01*
X36501767Y-28478542D02*
X36687755Y-28517553D01*
X36315779Y-28437154D02*
X36501767Y-28478542D01*
X36129791Y-28393427D02*
X36315779Y-28437154D01*
X35943803Y-28347399D02*
X36129791Y-28393427D01*
X35757815Y-28299112D02*
X35943803Y-28347399D01*
X35571827Y-28248610D02*
X35757815Y-28299112D01*
X35385839Y-28195937D02*
X35571827Y-28248610D01*
X35199851Y-28141142D02*
X35385839Y-28195937D01*
X35013863Y-28084273D02*
X35199851Y-28141142D01*
X34827875Y-28025382D02*
X35013863Y-28084273D01*
X34641887Y-27964522D02*
X34827875Y-28025382D01*
X34455899Y-27901747D02*
X34641887Y-27964522D01*
X34269911Y-27837115D02*
X34455899Y-27901747D01*
X34083923Y-27770682D02*
X34269911Y-27837115D01*
X33897935Y-27702510D02*
X34083923Y-27770682D01*
X33711947Y-27632659D02*
X33897935Y-27702510D01*
X33525958Y-27561192D02*
X33711947Y-27632659D01*
X33339970Y-27488174D02*
X33525958Y-27561192D01*
X33153982Y-27413670D02*
X33339970Y-27488174D01*
X32967994Y-27337747D02*
X33153982Y-27413670D01*
X32782006Y-27260474D02*
X32967994Y-27337747D01*
X32596018Y-27181920D02*
X32782006Y-27260474D01*
X32410030Y-27102156D02*
X32596018Y-27181920D01*
X32224042Y-27021253D02*
X32410030Y-27102156D01*
X32038054Y-26939285D02*
X32224042Y-27021253D01*
X31852066Y-26856325D02*
X32038054Y-26939285D01*
X31666078Y-26772448D02*
X31852066Y-26856325D01*
X31480090Y-26687729D02*
X31666078Y-26772448D01*
X31294102Y-26602245D02*
X31480090Y-26687729D01*
X31108114Y-26516072D02*
X31294102Y-26602245D01*
X30922126Y-26429289D02*
X31108114Y-26516072D01*
X30736138Y-26341972D02*
X30922126Y-26429289D01*
X30550150Y-26254202D02*
X30736138Y-26341972D01*
X30364162Y-26166056D02*
X30550150Y-26254202D01*
X30178174Y-26077614D02*
X30364162Y-26166056D01*
X29992186Y-25988956D02*
X30178174Y-26077614D01*
X29806198Y-25900161D02*
X29992186Y-25988956D01*
X29620210Y-25811309D02*
X29806198Y-25900161D01*
X29434222Y-25722481D02*
X29620210Y-25811309D01*
X29248234Y-25633756D02*
X29434222Y-25722481D01*
X29062246Y-25545214D02*
X29248234Y-25633756D01*
X28876257Y-25456935D02*
X29062246Y-25545214D01*
X28690269Y-25368998D02*
X28876257Y-25456935D01*
X28504281Y-25281482D02*
X28690269Y-25368998D01*
X28318293Y-25194467D02*
X28504281Y-25281482D01*
X28132305Y-25108030D02*
X28318293Y-25194467D01*
X27946317Y-25022249D02*
X28132305Y-25108030D01*
X27760329Y-24937202D02*
X27946317Y-25022249D01*
X27574341Y-24852964D02*
X27760329Y-24937202D01*
X27388353Y-24769612D02*
X27574341Y-24852964D01*
X27202365Y-24687221D02*
X27388353Y-24769612D01*
X27016377Y-24605865D02*
X27202365Y-24687221D01*
X26830389Y-24525617D02*
X27016377Y-24605865D01*
X26644401Y-24446549D02*
X26830389Y-24525617D01*
X26458413Y-24368733D02*
X26644401Y-24446549D01*
X26272425Y-24292238D02*
X26458413Y-24368733D01*
X26086437Y-24217134D02*
X26272425Y-24292238D01*
X25900449Y-24143488D02*
X26086437Y-24217134D01*
X25714461Y-24071366D02*
X25900449Y-24143488D01*
X25528473Y-24000833D02*
X25714461Y-24071366D01*
X25342485Y-23931952D02*
X25528473Y-24000833D01*
X25156497Y-23864786D02*
X25342485Y-23931952D01*
X24970509Y-23799396D02*
X25156497Y-23864786D01*
X24784521Y-23735839D02*
X24970509Y-23799396D01*
X24598533Y-23674173D02*
X24784521Y-23735839D01*
X24412544Y-23614454D02*
X24598533Y-23674173D01*
X24226556Y-23556735D02*
X24412544Y-23614454D01*
X24040568Y-23501068D02*
X24226556Y-23556735D01*
X23854580Y-23447504D02*
X24040568Y-23501068D01*
X23668592Y-23396090D02*
X23854580Y-23447504D01*
X23482604Y-23346873D02*
X23668592Y-23396090D01*
X23296616Y-23299897D02*
X23482604Y-23346873D01*
X23110628Y-23255205D02*
X23296616Y-23299897D01*
X22924640Y-23212836D02*
X23110628Y-23255205D01*
X22738652Y-23172829D02*
X22924640Y-23212836D01*
X22552664Y-23135220D02*
X22738652Y-23172829D01*
X22366676Y-23100042D02*
X22552664Y-23135220D01*
X22180688Y-23067328D02*
X22366676Y-23100042D01*
X21994700Y-23037106D02*
X22180688Y-23067328D01*
X21808712Y-23009404D02*
X21994700Y-23037106D01*
X21622724Y-22984247D02*
X21808712Y-23009404D01*
X21436736Y-22961657D02*
X21622724Y-22984247D01*
X21250748Y-22941656D02*
X21436736Y-22961657D01*
X21064760Y-22924260D02*
X21250748Y-22941656D01*
X20878772Y-22909485D02*
X21064760Y-22924260D01*
X20692784Y-22897345D02*
X20878772Y-22909485D01*
X20506796Y-22887851D02*
X20692784Y-22897345D01*
X20320808Y-22881011D02*
X20506796Y-22887851D01*
X20134820Y-22876832D02*
X20320808Y-22881011D01*
X19948832Y-22875316D02*
X20134820Y-22876832D01*
X19762843Y-22876467D02*
X19948832Y-22875316D01*
X19576855Y-22880281D02*
X19762843Y-22876467D01*
X19390867Y-22886757D02*
X19576855Y-22880281D01*
X19204879Y-22895887D02*
X19390867Y-22886757D01*
X19018891Y-22907665D02*
X19204879Y-22895887D01*
X18832903Y-22922079D02*
X19018891Y-22907665D01*
X18646915Y-22939117D02*
X18832903Y-22922079D01*
X18460927Y-22958762D02*
X18646915Y-22939117D01*
X18274939Y-22980998D02*
X18460927Y-22958762D01*
X18088951Y-23005805D02*
X18274939Y-22980998D01*
X17902963Y-23033159D02*
X18088951Y-23005805D01*
X17716975Y-23063037D02*
X17902963Y-23033159D01*
X17530987Y-23095412D02*
X17716975Y-23063037D01*
X17344999Y-23130254D02*
X17530987Y-23095412D01*
X17159011Y-23167531D02*
X17344999Y-23130254D01*
X16973023Y-23207212D02*
X17159011Y-23167531D01*
X16787035Y-23249259D02*
X16973023Y-23207212D01*
X16601047Y-23293635D02*
X16787035Y-23249259D01*
X16415059Y-23340301D02*
X16601047Y-23293635D01*
X16229071Y-23389213D02*
X16415059Y-23340301D01*
X16043083Y-23440328D02*
X16229071Y-23389213D01*
X15857095Y-23493601D02*
X16043083Y-23440328D01*
X15671107Y-23548982D02*
X15857095Y-23493601D01*
X15485119Y-23606423D02*
X15671107Y-23548982D01*
X15299130Y-23665871D02*
X15485119Y-23606423D01*
X15113142Y-23727273D02*
X15299130Y-23665871D01*
X14927154Y-23790574D02*
X15113142Y-23727273D01*
X14741166Y-23855717D02*
X14927154Y-23790574D01*
X14555178Y-23922643D02*
X14741166Y-23855717D01*
X14369190Y-23991292D02*
X14555178Y-23922643D01*
X14183202Y-24061603D02*
X14369190Y-23991292D01*
X13997214Y-24133511D02*
X14183202Y-24061603D01*
X13811226Y-24206952D02*
X13997214Y-24133511D01*
X13625238Y-24281861D02*
X13811226Y-24206952D01*
X13439250Y-24358169D02*
X13625238Y-24281861D01*
X13253262Y-24435808D02*
X13439250Y-24358169D01*
X13067274Y-24514708D02*
X13253262Y-24435808D01*
X12881286Y-24594799D02*
X13067274Y-24514708D01*
X12695298Y-24676007D02*
X12881286Y-24594799D01*
X12509310Y-24758261D02*
X12695298Y-24676007D01*
X12323322Y-24841485D02*
X12509310Y-24758261D01*
X12137334Y-24925606D02*
X12323322Y-24841485D01*
X11951346Y-25010547D02*
X12137334Y-24925606D01*
X11765358Y-25096232D02*
X11951346Y-25010547D01*
X11579370Y-25182583D02*
X11765358Y-25096232D01*
X11393382Y-25269524D02*
X11579370Y-25182583D01*
X11207394Y-25356976D02*
X11393382Y-25269524D01*
X11021406Y-25444860D02*
X11207394Y-25356976D01*
X10835418Y-25533097D02*
X11021406Y-25444860D01*
X10649429Y-25621607D02*
X10835418Y-25533097D01*
X10463441Y-25710312D02*
X10649429Y-25621607D01*
X10277453Y-25799131D02*
X10463441Y-25710312D01*
X10091465Y-25887984D02*
X10277453Y-25799131D01*
X9905477Y-25976791D02*
X10091465Y-25887984D01*
X9719489Y-26065473D02*
X9905477Y-25976791D01*
X9533501Y-26153949D02*
X9719489Y-26065473D01*
X9347513Y-26242140D02*
X9533501Y-26153949D01*
X9161525Y-26329967D02*
X9347513Y-26242140D01*
X8975537Y-26417351D02*
X9161525Y-26329967D01*
X8789549Y-26504212D02*
X8975537Y-26417351D01*
X8603561Y-26590473D02*
X8789549Y-26504212D01*
X8417573Y-26676056D02*
X8603561Y-26590473D01*
X8231585Y-26760884D02*
X8417573Y-26676056D01*
X8045597Y-26844881D02*
X8231585Y-26760884D01*
X7859609Y-26927971D02*
X8045597Y-26844881D01*
X7673621Y-27010080D02*
X7859609Y-26927971D01*
X7487633Y-27091132D02*
X7673621Y-27010080D01*
X7301645Y-27171057D02*
X7487633Y-27091132D01*
X7115657Y-27249781D02*
X7301645Y-27171057D01*
X6929669Y-27327234D02*
X7115657Y-27249781D01*
X6743681Y-27403346D02*
X6929669Y-27327234D01*
X6557693Y-27478048D02*
X6743681Y-27403346D01*
X6371705Y-27551274D02*
X6557693Y-27478048D01*
X6185716Y-27622957D02*
X6371705Y-27551274D01*
X5999728Y-27693034D02*
X6185716Y-27622957D01*
X5813740Y-27761440D02*
X5999728Y-27693034D01*
X5627752Y-27828114D02*
X5813740Y-27761440D01*
X5441764Y-27892997D02*
X5627752Y-27828114D01*
X5255776Y-27956030D02*
X5441764Y-27892997D01*
X5069788Y-28017155D02*
X5255776Y-27956030D01*
X4883800Y-28076319D02*
X5069788Y-28017155D01*
X4697812Y-28133468D02*
X4883800Y-28076319D01*
X4511824Y-28188551D02*
X4697812Y-28133468D01*
X4325836Y-28241517D02*
X4511824Y-28188551D01*
X4139848Y-28292320D02*
X4325836Y-28241517D01*
X3953860Y-28340913D02*
X4139848Y-28292320D01*
X3767872Y-28387253D02*
X3953860Y-28340913D01*
X3581884Y-28431298D02*
X3767872Y-28387253D01*
X3395896Y-28473009D02*
X3581884Y-28431298D01*
X3209908Y-28512348D02*
X3395896Y-28473009D01*
X3023920Y-28549279D02*
X3209908Y-28512348D01*
X2837932Y-28583769D02*
X3023920Y-28549279D01*
X2651944Y-28615788D02*
X2837932Y-28583769D01*
X2465956Y-28645306D02*
X2651944Y-28615788D01*
X2279968Y-28672297D02*
X2465956Y-28645306D01*
X2093980Y-28696737D02*
X2279968Y-28672297D01*
X1907992Y-28718603D02*
X2093980Y-28696737D01*
X1722004Y-28737876D02*
X1907992Y-28718603D01*
X1536015Y-28754539D02*
X1722004Y-28737876D01*
X1350027Y-28768577D02*
X1536015Y-28754539D01*
X1164039Y-28779976D02*
X1350027Y-28768577D01*
X978051Y-28788727D02*
X1164039Y-28779976D01*
X792063Y-28794822D02*
X978051Y-28788727D01*
X606075Y-28798255D02*
X792063Y-28794822D01*
X420087Y-28799024D02*
X606075Y-28798255D01*
X234099Y-28797127D02*
X420087Y-28799024D01*
X48111Y-28792566D02*
X234099Y-28797127D01*
X53240691Y-27972756D02*
X53426679Y-27894795D01*
X53054703Y-28049290D02*
X53240691Y-27972756D01*
X52868715Y-28124328D02*
X53054703Y-28049290D01*
X52682727Y-28197802D02*
X52868715Y-28124328D01*
X52496739Y-28269648D02*
X52682727Y-28197802D01*
X52310751Y-28339799D02*
X52496739Y-28269648D01*
X52124763Y-28408192D02*
X52310751Y-28339799D01*
X51938775Y-28474767D02*
X52124763Y-28408192D01*
X51752786Y-28539463D02*
X51938775Y-28474767D01*
X51566798Y-28602222D02*
X51752786Y-28539463D01*
X51380810Y-28662987D02*
X51566798Y-28602222D01*
X51194822Y-28721704D02*
X51380810Y-28662987D01*
X51008834Y-28778321D02*
X51194822Y-28721704D01*
X50822846Y-28832785D02*
X51008834Y-28778321D01*
X50636858Y-28885048D02*
X50822846Y-28832785D01*
X50450870Y-28935064D02*
X50636858Y-28885048D01*
X50264882Y-28982786D02*
X50450870Y-28935064D01*
X50078894Y-29028172D02*
X50264882Y-28982786D01*
X49892906Y-29071181D02*
X50078894Y-29028172D01*
X49706918Y-29111775D02*
X49892906Y-29071181D01*
X49520930Y-29149917D02*
X49706918Y-29111775D01*
X49334942Y-29185573D02*
X49520930Y-29149917D01*
X49148954Y-29218710D02*
X49334942Y-29185573D01*
X48962966Y-29249298D02*
X49148954Y-29218710D01*
X48776978Y-29277311D02*
X48962966Y-29249298D01*
X48590990Y-29302723D02*
X48776978Y-29277311D01*
X48405002Y-29325511D02*
X48590990Y-29302723D01*
X48219014Y-29345655D02*
X48405002Y-29325511D01*
X48033026Y-29363136D02*
X48219014Y-29345655D01*
X47847038Y-29377939D02*
X48033026Y-29363136D01*
X47661050Y-29390050D02*
X47847038Y-29377939D01*
X47475062Y-29399459D02*
X47661050Y-29390050D01*
X47289074Y-29406156D02*
X47475062Y-29399459D01*
X47103085Y-29410137D02*
X47289074Y-29406156D01*
X46917097Y-29411397D02*
X47103085Y-29410137D01*
X46731109Y-29409936D02*
X46917097Y-29411397D01*
X46545121Y-29405754D02*
X46731109Y-29409936D01*
X46359133Y-29398855D02*
X46545121Y-29405754D01*
X46173145Y-29389247D02*
X46359133Y-29398855D01*
X45987157Y-29376936D02*
X46173145Y-29389247D01*
X45801169Y-29361935D02*
X45987157Y-29376936D01*
X45615181Y-29344256D02*
X45801169Y-29361935D01*
X45429193Y-29323916D02*
X45615181Y-29344256D01*
X45243205Y-29300933D02*
X45429193Y-29323916D01*
X45057217Y-29275328D02*
X45243205Y-29300933D01*
X44871229Y-29247124D02*
X45057217Y-29275328D01*
X44685241Y-29216346D02*
X44871229Y-29247124D01*
X44499253Y-29183022D02*
X44685241Y-29216346D01*
X44313265Y-29147181D02*
X44499253Y-29183022D01*
X44127277Y-29108857D02*
X44313265Y-29147181D01*
X43941289Y-29068083D02*
X44127277Y-29108857D01*
X43755301Y-29024896D02*
X43941289Y-29068083D01*
X43569313Y-28979336D02*
X43755301Y-29024896D01*
X43383325Y-28931443D02*
X43569313Y-28979336D01*
X43197337Y-28881259D02*
X43383325Y-28931443D01*
X43011349Y-28828832D02*
X43197337Y-28881259D01*
X42825361Y-28774207D02*
X43011349Y-28828832D01*
X42639372Y-28717433D02*
X42825361Y-28774207D01*
X42453384Y-28658563D02*
X42639372Y-28717433D01*
X42267396Y-28597648D02*
X42453384Y-28658563D01*
X42081408Y-28534744D02*
X42267396Y-28597648D01*
X41895420Y-28469907D02*
X42081408Y-28534744D01*
X41709432Y-28403196D02*
X41895420Y-28469907D01*
X41523444Y-28334670D02*
X41709432Y-28403196D01*
X41337456Y-28264391D02*
X41523444Y-28334670D01*
X41151468Y-28192424D02*
X41337456Y-28264391D01*
X40965480Y-28118831D02*
X41151468Y-28192424D01*
X40779492Y-28043680D02*
X40965480Y-28118831D01*
X40593504Y-27967038D02*
X40779492Y-28043680D01*
X40407516Y-27888974D02*
X40593504Y-27967038D01*
X40221528Y-27809559D02*
X40407516Y-27888974D01*
X40035540Y-27728863D02*
X40221528Y-27809559D01*
X39849552Y-27646960D02*
X40035540Y-27728863D01*
X39663564Y-27563923D02*
X39849552Y-27646960D01*
X39477576Y-27479827D02*
X39663564Y-27563923D01*
X39291588Y-27394748D02*
X39477576Y-27479827D01*
X39105600Y-27308762D02*
X39291588Y-27394748D01*
X38919612Y-27221946D02*
X39105600Y-27308762D01*
X38733624Y-27134379D02*
X38919612Y-27221946D01*
X38547636Y-27046139D02*
X38733624Y-27134379D01*
X38361648Y-26957306D02*
X38547636Y-27046139D01*
X38175660Y-26867961D02*
X38361648Y-26957306D01*
X37989671Y-26778182D02*
X38175660Y-26867961D01*
X37803683Y-26688051D02*
X37989671Y-26778182D01*
X37617695Y-26597650D02*
X37803683Y-26688051D01*
X37431707Y-26507059D02*
X37617695Y-26597650D01*
X37245719Y-26416360D02*
X37431707Y-26507059D01*
X37059731Y-26325634D02*
X37245719Y-26416360D01*
X36873743Y-26234964D02*
X37059731Y-26325634D01*
X36687755Y-26144431D02*
X36873743Y-26234964D01*
X36501767Y-26054116D02*
X36687755Y-26144431D01*
X36315779Y-25964101D02*
X36501767Y-26054116D01*
X36129791Y-25874466D02*
X36315779Y-25964101D01*
X35943803Y-25785293D02*
X36129791Y-25874466D01*
X35757815Y-25696661D02*
X35943803Y-25785293D01*
X35571827Y-25608651D02*
X35757815Y-25696661D01*
X35385839Y-25521341D02*
X35571827Y-25608651D01*
X35199851Y-25434810D02*
X35385839Y-25521341D01*
X35013863Y-25349136D02*
X35199851Y-25434810D01*
X34827875Y-25264396D02*
X35013863Y-25349136D01*
X34641887Y-25180667D02*
X34827875Y-25264396D01*
X34455899Y-25098023D02*
X34641887Y-25180667D01*
X34269911Y-25016539D02*
X34455899Y-25098023D01*
X34083923Y-24936289D02*
X34269911Y-25016539D01*
X33897935Y-24857344D02*
X34083923Y-24936289D01*
X33711947Y-24779776D02*
X33897935Y-24857344D01*
X33525958Y-24703654D02*
X33711947Y-24779776D01*
X33339970Y-24629048D02*
X33525958Y-24703654D01*
X33153982Y-24556023D02*
X33339970Y-24629048D01*
X32967994Y-24484646D02*
X33153982Y-24556023D01*
X32782006Y-24414981D02*
X32967994Y-24484646D01*
X32596018Y-24347091D02*
X32782006Y-24414981D01*
X32410030Y-24281037D02*
X32596018Y-24347091D01*
X32224042Y-24216878D02*
X32410030Y-24281037D01*
X32038054Y-24154672D02*
X32224042Y-24216878D01*
X31852066Y-24094475D02*
X32038054Y-24154672D01*
X31666078Y-24036342D02*
X31852066Y-24094475D01*
X31480090Y-23980324D02*
X31666078Y-24036342D01*
X31294102Y-23926471D02*
X31480090Y-23980324D01*
X31108114Y-23874833D02*
X31294102Y-23926471D01*
X30922126Y-23825456D02*
X31108114Y-23874833D01*
X30736138Y-23778384D02*
X30922126Y-23825456D01*
X30550150Y-23733660D02*
X30736138Y-23778384D01*
X30364162Y-23691324D02*
X30550150Y-23733660D01*
X30178174Y-23651413D02*
X30364162Y-23691324D01*
X29992186Y-23613965D02*
X30178174Y-23651413D01*
X29806198Y-23579012D02*
X29992186Y-23613965D01*
X29620210Y-23546586D02*
X29806198Y-23579012D01*
X29434222Y-23516717D02*
X29620210Y-23546586D01*
X29248234Y-23489430D02*
X29434222Y-23516717D01*
X29062246Y-23464752D02*
X29248234Y-23489430D01*
X28876257Y-23442703D02*
X29062246Y-23464752D01*
X28690269Y-23423304D02*
X28876257Y-23442703D01*
X28504281Y-23406572D02*
X28690269Y-23423304D01*
X28318293Y-23392522D02*
X28504281Y-23406572D01*
X28132305Y-23381167D02*
X28318293Y-23392522D01*
X27946317Y-23372518D02*
X28132305Y-23381167D01*
X27760329Y-23366581D02*
X27946317Y-23372518D01*
X27574341Y-23363362D02*
X27760329Y-23366581D01*
X27388353Y-23362865D02*
X27574341Y-23363362D01*
X27202365Y-23365089D02*
X27388353Y-23362865D01*
X27016377Y-23370032D02*
X27202365Y-23365089D01*
X26830389Y-23377691D02*
X27016377Y-23370032D01*
X26644401Y-23388058D02*
X26830389Y-23377691D01*
X26458413Y-23401124D02*
X26644401Y-23388058D01*
X26272425Y-23416877D02*
X26458413Y-23401124D01*
X26086437Y-23435303D02*
X26272425Y-23416877D01*
X25900449Y-23456386D02*
X26086437Y-23435303D01*
X25714461Y-23480105D02*
X25900449Y-23456386D01*
X25528473Y-23506441D02*
X25714461Y-23480105D01*
X25342485Y-23535370D02*
X25528473Y-23506441D01*
X25156497Y-23566864D02*
X25342485Y-23535370D01*
X24970509Y-23600897D02*
X25156497Y-23566864D01*
X24784521Y-23637437D02*
X24970509Y-23600897D01*
X24598533Y-23676451D02*
X24784521Y-23637437D01*
X24412544Y-23717905D02*
X24598533Y-23676451D01*
X24226556Y-23761761D02*
X24412544Y-23717905D01*
X24040568Y-23807979D02*
X24226556Y-23761761D01*
X23854580Y-23856519D02*
X24040568Y-23807979D01*
X23668592Y-23907336D02*
X23854580Y-23856519D01*
X23482604Y-23960384D02*
X23668592Y-23907336D01*
X23296616Y-24015616D02*
X23482604Y-23960384D01*
X23110628Y-24072982D02*
X23296616Y-24015616D01*
X22924640Y-24132431D02*
X23110628Y-24072982D01*
X22738652Y-24193909D02*
X22924640Y-24132431D01*
X22552664Y-24257361D02*
X22738652Y-24193909D01*
X22366676Y-24322729D02*
X22552664Y-24257361D01*
X22180688Y-24389955D02*
X22366676Y-24322729D01*
X21994700Y-24458978D02*
X22180688Y-24389955D01*
X21808712Y-24529736D02*
X21994700Y-24458978D01*
X21622724Y-24602166D02*
X21808712Y-24529736D01*
X21436736Y-24676202D02*
X21622724Y-24602166D01*
X21250748Y-24751778D02*
X21436736Y-24676202D01*
X21064760Y-24828825D02*
X21250748Y-24751778D01*
X20878772Y-24907275D02*
X21064760Y-24828825D01*
X20692784Y-24987057D02*
X20878772Y-24907275D01*
X20506796Y-25068098D02*
X20692784Y-24987057D01*
X20320808Y-25150326D02*
X20506796Y-25068098D01*
X20134820Y-25233667D02*
X20320808Y-25150326D01*
X19948832Y-25318047D02*
X20134820Y-25233667D01*
X19762843Y-25403388D02*
X19948832Y-25318047D01*
X19576855Y-25489615D02*
X19762843Y-25403388D01*
X19390867Y-25576649D02*
X19576855Y-25489615D01*
X19204879Y-25664412D02*
X19390867Y-25576649D01*
X19018891Y-25752826D02*
X19204879Y-25664412D01*
X18832903Y-25841811D02*
X19018891Y-25752826D01*
X18646915Y-25931286D02*
X18832903Y-25841811D01*
X18460927Y-26021172D02*
X18646915Y-25931286D01*
X18274939Y-26111386D02*
X18460927Y-26021172D01*
X18088951Y-26201849D02*
X18274939Y-26111386D01*
X17902963Y-26292479D02*
X18088951Y-26201849D01*
X17716975Y-26383193D02*
X17902963Y-26292479D01*
X17530987Y-26473911D02*
X17716975Y-26383193D01*
X17344999Y-26564551D02*
X17530987Y-26473911D01*
X17159011Y-26655032D02*
X17344999Y-26564551D01*
X16973023Y-26745271D02*
X17159011Y-26655032D01*
X16787035Y-26835188D02*
X16973023Y-26745271D01*
X16601047Y-26924701D02*
X16787035Y-26835188D01*
X16415059Y-27013731D02*
X16601047Y-26924701D01*
X16229071Y-27102196D02*
X16415059Y-27013731D01*
X16043083Y-27190018D02*
X16229071Y-27102196D01*
X15857095Y-27277118D02*
X16043083Y-27190018D01*
X15671107Y-27363416D02*
X15857095Y-27277118D01*
X15485119Y-27448836D02*
X15671107Y-27363416D01*
X15299130Y-27533300D02*
X15485119Y-27448836D01*
X15113142Y-27616733D02*
X15299130Y-27533300D01*
X14927154Y-27699059D02*
X15113142Y-27616733D01*
X14741166Y-27780205D02*
X14927154Y-27699059D01*
X14555178Y-27860097D02*
X14741166Y-27780205D01*
X14369190Y-27938663D02*
X14555178Y-27860097D01*
X14183202Y-28015832D02*
X14369190Y-27938663D01*
X13997214Y-28091536D02*
X14183202Y-28015832D01*
X13811226Y-28165706D02*
X13997214Y-28091536D01*
X13625238Y-28238276D02*
X13811226Y-28165706D01*
X13439250Y-28309179D02*
X13625238Y-28238276D01*
X13253262Y-28378353D02*
X13439250Y-28309179D01*
X13067274Y-28445734D02*
X13253262Y-28378353D01*
X12881286Y-28511263D02*
X13067274Y-28445734D01*
X12695298Y-28574881D02*
X12881286Y-28511263D01*
X12509310Y-28636529D02*
X12695298Y-28574881D01*
X12323322Y-28696153D02*
X12509310Y-28636529D01*
X12137334Y-28753699D02*
X12323322Y-28696153D01*
X11951346Y-28809116D02*
X12137334Y-28753699D01*
X11765358Y-28862352D02*
X11951346Y-28809116D01*
X11579370Y-28913361D02*
X11765358Y-28862352D01*
X11393382Y-28962097D02*
X11579370Y-28913361D01*
X11207394Y-29008515D02*
X11393382Y-28962097D01*
X11021406Y-29052574D02*
X11207394Y-29008515D01*
X10835418Y-29094234D02*
X11021406Y-29052574D01*
X10649429Y-29133458D02*
X10835418Y-29094234D01*
X10463441Y-29170210D02*
X10649429Y-29133458D01*
X10277453Y-29204458D02*
X10463441Y-29170210D01*
X10091465Y-29236170D02*
X10277453Y-29204458D01*
X9905477Y-29265318D02*
X10091465Y-29236170D01*
X9719489Y-29291876D02*
X9905477Y-29265318D01*
X9533501Y-29315820D02*
X9719489Y-29291876D01*
X9347513Y-29337128D02*
X9533501Y-29315820D01*
X9161525Y-29355782D02*
X9347513Y-29337128D01*
X8975537Y-29371763D02*
X9161525Y-29355782D01*
X8789549Y-29385059D02*
X8975537Y-29371763D01*
X8603561Y-29395657D02*
X8789549Y-29385059D01*
X8417573Y-29403547D02*
X8603561Y-29395657D01*
X8231585Y-29408722D02*
X8417573Y-29403547D01*
X8045597Y-29411179D02*
X8231585Y-29408722D01*
X7859609Y-29410913D02*
X8045597Y-29411179D01*
X7673621Y-29407927D02*
X7859609Y-29410913D01*
X7487633Y-29402222D02*
X7673621Y-29407927D01*
X7301645Y-29393803D02*
X7487633Y-29402222D01*
X7115657Y-29382679D02*
X7301645Y-29393803D01*
X6929669Y-29368858D02*
X7115657Y-29382679D01*
X6743681Y-29352355D02*
X6929669Y-29368858D01*
X6557693Y-29333182D02*
X6743681Y-29352355D01*
X6371705Y-29311359D02*
X6557693Y-29333182D01*
X6185716Y-29286904D02*
X6371705Y-29311359D01*
X5999728Y-29259839D02*
X6185716Y-29286904D01*
X5813740Y-29230189D02*
X5999728Y-29259839D01*
X5627752Y-29197980D02*
X5813740Y-29230189D01*
X5441764Y-29163241D02*
X5627752Y-29197980D01*
X5255776Y-29126005D02*
X5441764Y-29163241D01*
X5069788Y-29086303D02*
X5255776Y-29126005D01*
X4883800Y-29044172D02*
X5069788Y-29086303D01*
X4697812Y-28999650D02*
X4883800Y-29044172D01*
X4511824Y-28952777D02*
X4697812Y-28999650D01*
X4325836Y-28903595D02*
X4511824Y-28952777D01*
X4139848Y-28852148D02*
X4325836Y-28903595D01*
X3953860Y-28798482D02*
X4139848Y-28852148D01*
X3767872Y-28742647D02*
X3953860Y-28798482D01*
X3581884Y-28684692D02*
X3767872Y-28742647D01*
X3395896Y-28624669D02*
X3581884Y-28684692D01*
X3209908Y-28562632D02*
X3395896Y-28624669D01*
X3023920Y-28498638D02*
X3209908Y-28562632D01*
X2837932Y-28432743D02*
X3023920Y-28498638D01*
X2651944Y-28365007D02*
X2837932Y-28432743D01*
X2465956Y-28295491D02*
X2651944Y-28365007D01*
X2279968Y-28224258D02*
X2465956Y-28295491D01*
X2093980Y-28151372D02*
X2279968Y-28224258D01*
X1907992Y-28076897D02*
X2093980Y-28151372D01*
X1722004Y-28000902D02*
X1907992Y-28076897D01*
X1536015Y-27923455D02*
X1722004Y-28000902D01*
X1350027Y-27844625D02*
X1536015Y-27923455D01*
X1164039Y-27764483D02*
X1350027Y-27844625D01*
X978051Y-27683101D02*
X1164039Y-27764483D01*
X792063Y-27600554D02*
X978051Y-27683101D01*
X606075Y-27516914D02*
X792063Y-27600554D01*
X420087Y-27432257D02*
X606075Y-27516914D01*
X234099Y-27346660D02*
X420087Y-27432257D01*
X48111Y-27260199D02*
X234099Y-27346660D01*
D12*
G36*
X53284789Y-19008946D02*
G01*
X51502626Y-20043459D01*
X49394192Y-20943129D01*
X46977540Y-21689272D01*
X44270720Y-22263206D01*
X45021628Y-21061229D01*
X45191890Y-19361733D01*
X44783499Y-17255281D01*
X43798448Y-14832436D01*
X42238728Y-12183761D01*
X40512128Y-9889921D01*
X38598711Y-7801238D01*
X36574557Y-5972579D01*
X34515748Y-4458813D01*
X32498365Y-3314809D01*
X30598490Y-2595436D01*
X33517046Y-2487974D01*
X36425241Y-2576484D01*
X39285146Y-2851315D01*
X42058833Y-3302817D01*
X44708374Y-3921340D01*
X47195841Y-4697235D01*
X49483306Y-5620852D01*
X51532840Y-6682540D01*
X53306515Y-7872650D01*
X53284789Y-19008946D01*
G37*
G36*
X40575701Y-22700101D02*
G01*
X37511867Y-22807786D01*
X34461530Y-22700012D01*
X31468567Y-22387944D01*
X28576855Y-21882744D01*
X25830270Y-21195579D01*
X23272691Y-20337611D01*
X20947994Y-19320006D01*
X18900057Y-18153928D01*
X17172755Y-16850541D01*
X15809968Y-15421009D01*
X14775768Y-13676739D01*
X14380772Y-11949407D01*
X14593906Y-10271160D01*
X15384094Y-8674142D01*
X16720260Y-7190500D01*
X18571328Y-5852380D01*
X20906224Y-4691927D01*
X23693871Y-3741288D01*
X26903195Y-3032608D01*
X26152500Y-4234449D01*
X25982264Y-5933863D01*
X26390575Y-8040273D01*
X27375520Y-10463103D01*
X28935187Y-13111776D01*
X30661826Y-15405731D01*
X32575337Y-17494484D01*
X34599600Y-19323166D01*
X36658495Y-20836908D01*
X38675902Y-21980843D01*
X40575701Y-22700101D01*
G37*
%LPC*%
D13*
X17458000Y-3860500D03*
X10228000Y-3860500D03*
D14*
X17098000Y-1460500D03*
X10588000Y-1460500D03*
D15*
X40640000Y-34290000D03*
X40640000Y-36830000D03*
X40640000Y-39370000D03*
X40640000Y-41910000D03*
X40640000Y-44450000D03*
D16*
X40640000Y-46990000D03*
X12700000Y-46990000D03*
D15*
X12700000Y-44450000D03*
X12700000Y-41910000D03*
X12700000Y-39370000D03*
X12700000Y-36830000D03*
X12700000Y-34290000D03*
D16*
X5715000Y-8890000D03*
D15*
X3175000Y-8890000D03*
X47625000Y-8890000D03*
D16*
X50165000Y-8890000D03*
M02*
