G04 #@! TF.GenerationSoftware,KiCad,Pcbnew,5.1.10-88a1d61d58~88~ubuntu20.04.1*
G04 #@! TF.CreationDate,2021-06-15T20:39:53-04:00*
G04 #@! TF.ProjectId,oscope,6f73636f-7065-42e6-9b69-6361645f7063,rev?*
G04 #@! TF.SameCoordinates,PX3c8eee0PY31a8670*
G04 #@! TF.FileFunction,Copper,L2,Inr*
G04 #@! TF.FilePolarity,Positive*
%FSLAX46Y46*%
G04 Gerber Fmt 4.6, Leading zero omitted, Abs format (unit mm)*
G04 Created by KiCad (PCBNEW 5.1.10-88a1d61d58~88~ubuntu20.04.1) date 2021-06-15 20:39:53*
%MOMM*%
%LPD*%
G01*
G04 APERTURE LIST*
G04 #@! TA.AperFunction,ComponentPad*
%ADD10C,0.609600*%
G04 #@! TD*
G04 #@! TA.AperFunction,ComponentPad*
%ADD11O,1.160000X2.160000*%
G04 #@! TD*
G04 #@! TA.AperFunction,ComponentPad*
%ADD12O,1.320000X2.520000*%
G04 #@! TD*
G04 #@! TA.AperFunction,ComponentPad*
%ADD13O,1.700000X1.700000*%
G04 #@! TD*
G04 #@! TA.AperFunction,ComponentPad*
%ADD14R,1.700000X1.700000*%
G04 #@! TD*
G04 #@! TA.AperFunction,ViaPad*
%ADD15C,0.609600*%
G04 #@! TD*
G04 #@! TA.AperFunction,Conductor*
%ADD16C,0.254000*%
G04 #@! TD*
G04 #@! TA.AperFunction,Conductor*
%ADD17C,0.100000*%
G04 #@! TD*
G04 APERTURE END LIST*
D10*
X20320000Y-6350000D03*
D11*
X17458000Y-3860500D03*
X10228000Y-3860500D03*
D12*
X17098000Y-1460500D03*
X10588000Y-1460500D03*
D13*
X40640000Y-34290000D03*
X40640000Y-36830000D03*
X40640000Y-39370000D03*
X40640000Y-41910000D03*
X40640000Y-44450000D03*
D14*
X40640000Y-46990000D03*
X12700000Y-46990000D03*
D13*
X12700000Y-44450000D03*
X12700000Y-41910000D03*
X12700000Y-39370000D03*
X12700000Y-36830000D03*
X12700000Y-34290000D03*
D14*
X5715000Y-8890000D03*
D13*
X3175000Y-8890000D03*
X47625000Y-8890000D03*
D14*
X50165000Y-8890000D03*
D10*
X7747000Y-18923000D03*
X7747000Y-16383000D03*
X10287000Y-16383000D03*
X10287000Y-18923000D03*
D15*
X18237200Y-6629400D03*
X24206200Y-13106400D03*
X20193000Y-1752600D03*
X26289000Y-1752600D03*
X34264600Y-20650200D03*
X18719800Y-27279600D03*
X42265600Y-29844998D03*
X35179000Y-3073400D03*
X14986000Y-27686000D03*
X45847000Y-46990000D03*
X5969000Y-4445000D03*
X27584400Y-12446000D03*
X4394200Y-46177200D03*
X26543000Y-22860000D03*
X28752800Y-30327600D03*
X32638996Y-2362210D03*
X42265600Y-17653000D03*
X39293800Y-3048000D03*
X40640000Y-8712200D03*
X40640000Y-22174200D03*
X39319200Y-16510000D03*
X10820400Y-28067000D03*
X1320800Y-21488400D03*
X17145000Y-22783800D03*
X23901400Y-19761210D03*
X20396200Y-19761210D03*
X47548800Y-24511000D03*
X42291000Y-1930400D03*
X46685200Y-5207000D03*
X46685200Y-12700000D03*
X19558000Y-12141200D03*
X5283194Y-28194000D03*
X10414000Y-8483600D03*
X12547600Y-5130800D03*
X27815818Y-19195014D03*
X1778000Y-39370000D03*
X18084800Y-14401790D03*
X14256244Y-19407126D03*
X1320800Y-14147800D03*
X21132380Y-8863795D03*
X25349200Y-13766800D03*
X24028400Y-26035000D03*
X21742400Y-2540000D03*
X27686000Y-3962400D03*
X34290000Y-5410200D03*
X16637000Y-28778200D03*
X14020800Y-27711400D03*
X45974000Y-45085000D03*
X36830000Y-3835400D03*
X36830000Y-17322800D03*
X10287000Y-24612600D03*
X18008600Y-20421600D03*
X18262600Y-16713210D03*
X42291000Y-24511000D03*
X42291000Y-11379200D03*
X42291000Y-6527800D03*
X13817600Y-8509000D03*
X10718800Y-10033000D03*
X26466800Y-18821400D03*
X23876000Y-18135598D03*
X1778000Y-36830000D03*
X3098806Y-17805400D03*
X25044400Y-26009600D03*
X36449000Y-13843000D03*
X30810200Y-2489200D03*
X11963400Y-29768800D03*
X15925800Y-21894800D03*
X12573000Y-30505400D03*
X14681200Y-22504410D03*
X11033220Y-21176943D03*
X5629965Y-21169986D03*
X12459245Y-21120100D03*
X7456822Y-21171551D03*
X23799800Y-27711400D03*
X33274000Y-27711400D03*
X2311400Y-13487400D03*
X838200Y-22199600D03*
X4445000Y-36931600D03*
X2590804Y-23698200D03*
X5968997Y-36956997D03*
X3225810Y-23012400D03*
X6096000Y-35737800D03*
X4292600Y-25247600D03*
X32385000Y-8661400D03*
X30812545Y-15599425D03*
X15290800Y-24587200D03*
X30886500Y-7086500D03*
X30988000Y-16637000D03*
X34950400Y-16918425D03*
X33909000Y-10922000D03*
X31648401Y-15798800D03*
X35102800Y-15951200D03*
X14706600Y-25222200D03*
X24765000Y-12573000D03*
X24765000Y-14351006D03*
X20320000Y-8890000D03*
X20319316Y-11511072D03*
X26314400Y-9779000D03*
X19126200Y-12954000D03*
X9657400Y-11353053D03*
X28453833Y-15828154D03*
X7760447Y-11480800D03*
X28343976Y-14996359D03*
X28524200Y-17678400D03*
X6756400Y-11480800D03*
X3556000Y-16357600D03*
X18364200Y-18008590D03*
X34290000Y-14757400D03*
X3362577Y-20403003D03*
X33629600Y-15341600D03*
X3221701Y-19602489D03*
X32969200Y-14757400D03*
X3581400Y-18669000D03*
X28600400Y-6273800D03*
X36830000Y-6731022D03*
X31038800Y-17678400D03*
X28194000Y-9448801D03*
X30632400Y-9652000D03*
X30629759Y-14787196D03*
X29133804Y-13335000D03*
X26543000Y-28829000D03*
X17703800Y-7188200D03*
X35489353Y-2314929D03*
X30200600Y-20802600D03*
X27848719Y-20820637D03*
D16*
X9436900Y-631532D02*
X9420000Y-803123D01*
X9420000Y-2117876D01*
X9436900Y-2289467D01*
X9503688Y-2509636D01*
X9517735Y-2535917D01*
X9454947Y-2587446D01*
X9318985Y-2753115D01*
X9217957Y-2942126D01*
X9155743Y-3147215D01*
X9140000Y-3307054D01*
X9140000Y-4413945D01*
X9155743Y-4573784D01*
X9217956Y-4778873D01*
X9318984Y-4967885D01*
X9454946Y-5133554D01*
X9620615Y-5269516D01*
X9809626Y-5370544D01*
X10014715Y-5432757D01*
X10228000Y-5453764D01*
X10441284Y-5432757D01*
X10646373Y-5370544D01*
X10835385Y-5269516D01*
X11001054Y-5133554D01*
X11137016Y-4967885D01*
X11238044Y-4778874D01*
X11300257Y-4573785D01*
X11316000Y-4413946D01*
X11316000Y-3307054D01*
X11300257Y-3147215D01*
X11261329Y-3018888D01*
X11417897Y-2890397D01*
X11563855Y-2712546D01*
X11672312Y-2509637D01*
X11739100Y-2289468D01*
X11756000Y-2117877D01*
X11756000Y-803123D01*
X11739100Y-631532D01*
X11724378Y-583000D01*
X15961622Y-583000D01*
X15946900Y-631532D01*
X15930000Y-803123D01*
X15930000Y-2117876D01*
X15946900Y-2289467D01*
X16013688Y-2509636D01*
X16122145Y-2712545D01*
X16268103Y-2890397D01*
X16424671Y-3018889D01*
X16385743Y-3147215D01*
X16370000Y-3307054D01*
X16370000Y-4413945D01*
X16385743Y-4573784D01*
X16447956Y-4778873D01*
X16548984Y-4967885D01*
X16684946Y-5133554D01*
X16850615Y-5269516D01*
X17039626Y-5370544D01*
X17244715Y-5432757D01*
X17458000Y-5453764D01*
X17671284Y-5432757D01*
X17876373Y-5370544D01*
X17951953Y-5330146D01*
X33477200Y-5330146D01*
X33477200Y-5490254D01*
X33508435Y-5647285D01*
X33569706Y-5795205D01*
X33658657Y-5928330D01*
X33771870Y-6041543D01*
X33904995Y-6130494D01*
X34052915Y-6191765D01*
X34209946Y-6223000D01*
X34370054Y-6223000D01*
X34527085Y-6191765D01*
X34675005Y-6130494D01*
X34808130Y-6041543D01*
X34921343Y-5928330D01*
X35010294Y-5795205D01*
X35071565Y-5647285D01*
X35102800Y-5490254D01*
X35102800Y-5330146D01*
X35071565Y-5173115D01*
X35010294Y-5025195D01*
X34921343Y-4892070D01*
X34808130Y-4778857D01*
X34675005Y-4689906D01*
X34527085Y-4628635D01*
X34370054Y-4597400D01*
X34209946Y-4597400D01*
X34052915Y-4628635D01*
X33904995Y-4689906D01*
X33771870Y-4778857D01*
X33658657Y-4892070D01*
X33569706Y-5025195D01*
X33508435Y-5173115D01*
X33477200Y-5330146D01*
X17951953Y-5330146D01*
X18065385Y-5269516D01*
X18231054Y-5133554D01*
X18367016Y-4967885D01*
X18468044Y-4778874D01*
X18530257Y-4573785D01*
X18546000Y-4413946D01*
X18546000Y-3882346D01*
X26873200Y-3882346D01*
X26873200Y-4042454D01*
X26904435Y-4199485D01*
X26965706Y-4347405D01*
X27054657Y-4480530D01*
X27167870Y-4593743D01*
X27300995Y-4682694D01*
X27448915Y-4743965D01*
X27605946Y-4775200D01*
X27766054Y-4775200D01*
X27923085Y-4743965D01*
X28071005Y-4682694D01*
X28204130Y-4593743D01*
X28317343Y-4480530D01*
X28406294Y-4347405D01*
X28467565Y-4199485D01*
X28498800Y-4042454D01*
X28498800Y-3882346D01*
X28473539Y-3755346D01*
X36017200Y-3755346D01*
X36017200Y-3915454D01*
X36048435Y-4072485D01*
X36109706Y-4220405D01*
X36198657Y-4353530D01*
X36311870Y-4466743D01*
X36444995Y-4555694D01*
X36592915Y-4616965D01*
X36749946Y-4648200D01*
X36910054Y-4648200D01*
X37067085Y-4616965D01*
X37215005Y-4555694D01*
X37348130Y-4466743D01*
X37461343Y-4353530D01*
X37550294Y-4220405D01*
X37611565Y-4072485D01*
X37642800Y-3915454D01*
X37642800Y-3755346D01*
X37611565Y-3598315D01*
X37550294Y-3450395D01*
X37461343Y-3317270D01*
X37348130Y-3204057D01*
X37215005Y-3115106D01*
X37067085Y-3053835D01*
X36910054Y-3022600D01*
X36749946Y-3022600D01*
X36592915Y-3053835D01*
X36444995Y-3115106D01*
X36311870Y-3204057D01*
X36198657Y-3317270D01*
X36109706Y-3450395D01*
X36048435Y-3598315D01*
X36017200Y-3755346D01*
X28473539Y-3755346D01*
X28467565Y-3725315D01*
X28406294Y-3577395D01*
X28317343Y-3444270D01*
X28204130Y-3331057D01*
X28071005Y-3242106D01*
X27923085Y-3180835D01*
X27766054Y-3149600D01*
X27605946Y-3149600D01*
X27448915Y-3180835D01*
X27300995Y-3242106D01*
X27167870Y-3331057D01*
X27054657Y-3444270D01*
X26965706Y-3577395D01*
X26904435Y-3725315D01*
X26873200Y-3882346D01*
X18546000Y-3882346D01*
X18546000Y-3307054D01*
X18530257Y-3147215D01*
X18468044Y-2942126D01*
X18367016Y-2753115D01*
X18231054Y-2587446D01*
X18168265Y-2535916D01*
X18182312Y-2509637D01*
X18197385Y-2459946D01*
X20929600Y-2459946D01*
X20929600Y-2620054D01*
X20960835Y-2777085D01*
X21022106Y-2925005D01*
X21111057Y-3058130D01*
X21224270Y-3171343D01*
X21357395Y-3260294D01*
X21505315Y-3321565D01*
X21662346Y-3352800D01*
X21822454Y-3352800D01*
X21979485Y-3321565D01*
X22127405Y-3260294D01*
X22260530Y-3171343D01*
X22373743Y-3058130D01*
X22462694Y-2925005D01*
X22523965Y-2777085D01*
X22555200Y-2620054D01*
X22555200Y-2459946D01*
X22545096Y-2409146D01*
X29997400Y-2409146D01*
X29997400Y-2569254D01*
X30028635Y-2726285D01*
X30089906Y-2874205D01*
X30178857Y-3007330D01*
X30292070Y-3120543D01*
X30425195Y-3209494D01*
X30573115Y-3270765D01*
X30730146Y-3302000D01*
X30890254Y-3302000D01*
X31047285Y-3270765D01*
X31195205Y-3209494D01*
X31328330Y-3120543D01*
X31441543Y-3007330D01*
X31530494Y-2874205D01*
X31591765Y-2726285D01*
X31623000Y-2569254D01*
X31623000Y-2409146D01*
X31591765Y-2252115D01*
X31584624Y-2234875D01*
X34676553Y-2234875D01*
X34676553Y-2394983D01*
X34707788Y-2552014D01*
X34769059Y-2699934D01*
X34858010Y-2833059D01*
X34971223Y-2946272D01*
X35104348Y-3035223D01*
X35252268Y-3096494D01*
X35409299Y-3127729D01*
X35569407Y-3127729D01*
X35726438Y-3096494D01*
X35874358Y-3035223D01*
X36007483Y-2946272D01*
X36120696Y-2833059D01*
X36209647Y-2699934D01*
X36270918Y-2552014D01*
X36302153Y-2394983D01*
X36302153Y-2234875D01*
X36270918Y-2077844D01*
X36209647Y-1929924D01*
X36120696Y-1796799D01*
X36007483Y-1683586D01*
X35874358Y-1594635D01*
X35726438Y-1533364D01*
X35569407Y-1502129D01*
X35409299Y-1502129D01*
X35252268Y-1533364D01*
X35104348Y-1594635D01*
X34971223Y-1683586D01*
X34858010Y-1796799D01*
X34769059Y-1929924D01*
X34707788Y-2077844D01*
X34676553Y-2234875D01*
X31584624Y-2234875D01*
X31530494Y-2104195D01*
X31441543Y-1971070D01*
X31328330Y-1857857D01*
X31195205Y-1768906D01*
X31047285Y-1707635D01*
X30890254Y-1676400D01*
X30730146Y-1676400D01*
X30573115Y-1707635D01*
X30425195Y-1768906D01*
X30292070Y-1857857D01*
X30178857Y-1971070D01*
X30089906Y-2104195D01*
X30028635Y-2252115D01*
X29997400Y-2409146D01*
X22545096Y-2409146D01*
X22523965Y-2302915D01*
X22462694Y-2154995D01*
X22373743Y-2021870D01*
X22260530Y-1908657D01*
X22127405Y-1819706D01*
X21979485Y-1758435D01*
X21822454Y-1727200D01*
X21662346Y-1727200D01*
X21505315Y-1758435D01*
X21357395Y-1819706D01*
X21224270Y-1908657D01*
X21111057Y-2021870D01*
X21022106Y-2154995D01*
X20960835Y-2302915D01*
X20929600Y-2459946D01*
X18197385Y-2459946D01*
X18249100Y-2289468D01*
X18266000Y-2117877D01*
X18266000Y-803123D01*
X18249100Y-631532D01*
X18234378Y-583000D01*
X52757000Y-583000D01*
X52757001Y-48312000D01*
X41684028Y-48312000D01*
X41685343Y-48311601D01*
X41773595Y-48264429D01*
X41850948Y-48200948D01*
X41914429Y-48123595D01*
X41961601Y-48035343D01*
X41990649Y-47939585D01*
X42000457Y-47840000D01*
X42000457Y-46140000D01*
X41990649Y-46040415D01*
X41961601Y-45944657D01*
X41914429Y-45856405D01*
X41850948Y-45779052D01*
X41773595Y-45715571D01*
X41685343Y-45668399D01*
X41589585Y-45639351D01*
X41490000Y-45629543D01*
X41319025Y-45629543D01*
X41505675Y-45504828D01*
X41694828Y-45315675D01*
X41843444Y-45093254D01*
X41880022Y-45004946D01*
X45161200Y-45004946D01*
X45161200Y-45165054D01*
X45192435Y-45322085D01*
X45253706Y-45470005D01*
X45342657Y-45603130D01*
X45455870Y-45716343D01*
X45588995Y-45805294D01*
X45736915Y-45866565D01*
X45893946Y-45897800D01*
X46054054Y-45897800D01*
X46211085Y-45866565D01*
X46359005Y-45805294D01*
X46492130Y-45716343D01*
X46605343Y-45603130D01*
X46694294Y-45470005D01*
X46755565Y-45322085D01*
X46786800Y-45165054D01*
X46786800Y-45004946D01*
X46755565Y-44847915D01*
X46694294Y-44699995D01*
X46605343Y-44566870D01*
X46492130Y-44453657D01*
X46359005Y-44364706D01*
X46211085Y-44303435D01*
X46054054Y-44272200D01*
X45893946Y-44272200D01*
X45736915Y-44303435D01*
X45588995Y-44364706D01*
X45455870Y-44453657D01*
X45342657Y-44566870D01*
X45253706Y-44699995D01*
X45192435Y-44847915D01*
X45161200Y-45004946D01*
X41880022Y-45004946D01*
X41945813Y-44846114D01*
X41998000Y-44583751D01*
X41998000Y-44316249D01*
X41945813Y-44053886D01*
X41843444Y-43806746D01*
X41694828Y-43584325D01*
X41505675Y-43395172D01*
X41283254Y-43246556D01*
X41122574Y-43180000D01*
X41283254Y-43113444D01*
X41505675Y-42964828D01*
X41694828Y-42775675D01*
X41843444Y-42553254D01*
X41945813Y-42306114D01*
X41998000Y-42043751D01*
X41998000Y-41776249D01*
X41945813Y-41513886D01*
X41843444Y-41266746D01*
X41694828Y-41044325D01*
X41505675Y-40855172D01*
X41283254Y-40706556D01*
X41122574Y-40640000D01*
X41283254Y-40573444D01*
X41505675Y-40424828D01*
X41694828Y-40235675D01*
X41843444Y-40013254D01*
X41945813Y-39766114D01*
X41998000Y-39503751D01*
X41998000Y-39236249D01*
X41945813Y-38973886D01*
X41843444Y-38726746D01*
X41694828Y-38504325D01*
X41505675Y-38315172D01*
X41283254Y-38166556D01*
X41122574Y-38100000D01*
X41283254Y-38033444D01*
X41505675Y-37884828D01*
X41694828Y-37695675D01*
X41843444Y-37473254D01*
X41945813Y-37226114D01*
X41998000Y-36963751D01*
X41998000Y-36696249D01*
X41945813Y-36433886D01*
X41843444Y-36186746D01*
X41694828Y-35964325D01*
X41505675Y-35775172D01*
X41283254Y-35626556D01*
X41122574Y-35560000D01*
X41283254Y-35493444D01*
X41505675Y-35344828D01*
X41694828Y-35155675D01*
X41843444Y-34933254D01*
X41945813Y-34686114D01*
X41998000Y-34423751D01*
X41998000Y-34156249D01*
X41945813Y-33893886D01*
X41843444Y-33646746D01*
X41694828Y-33424325D01*
X41505675Y-33235172D01*
X41283254Y-33086556D01*
X41036114Y-32984187D01*
X40773751Y-32932000D01*
X40506249Y-32932000D01*
X40243886Y-32984187D01*
X39996746Y-33086556D01*
X39774325Y-33235172D01*
X39585172Y-33424325D01*
X39436556Y-33646746D01*
X39334187Y-33893886D01*
X39318000Y-33975264D01*
X39318000Y-32413633D01*
X39320820Y-32385000D01*
X39309564Y-32270712D01*
X39276227Y-32160816D01*
X39222092Y-32059536D01*
X39149237Y-31970763D01*
X39060464Y-31897908D01*
X38959184Y-31843773D01*
X38849288Y-31810436D01*
X38763633Y-31802000D01*
X38735000Y-31799180D01*
X38706367Y-31802000D01*
X14633633Y-31802000D01*
X14605000Y-31799180D01*
X14576367Y-31802000D01*
X14490712Y-31810436D01*
X14380816Y-31843773D01*
X14279536Y-31897908D01*
X14190763Y-31970763D01*
X14117908Y-32059536D01*
X14063773Y-32160816D01*
X14030436Y-32270712D01*
X14019180Y-32385000D01*
X14022000Y-32413633D01*
X14022000Y-33975264D01*
X14005813Y-33893886D01*
X13903444Y-33646746D01*
X13754828Y-33424325D01*
X13565675Y-33235172D01*
X13343254Y-33086556D01*
X13096114Y-32984187D01*
X12833751Y-32932000D01*
X12566249Y-32932000D01*
X12303886Y-32984187D01*
X12056746Y-33086556D01*
X11834325Y-33235172D01*
X11645172Y-33424325D01*
X11496556Y-33646746D01*
X11394187Y-33893886D01*
X11342000Y-34156249D01*
X11342000Y-34423751D01*
X11394187Y-34686114D01*
X11496556Y-34933254D01*
X11645172Y-35155675D01*
X11834325Y-35344828D01*
X12056389Y-35493205D01*
X11818645Y-35634822D01*
X11602412Y-35829731D01*
X11428359Y-36063080D01*
X11303175Y-36325901D01*
X11258524Y-36473110D01*
X11379845Y-36703000D01*
X12573000Y-36703000D01*
X12573000Y-36683000D01*
X12827000Y-36683000D01*
X12827000Y-36703000D01*
X12847000Y-36703000D01*
X12847000Y-36957000D01*
X12827000Y-36957000D01*
X12827000Y-36977000D01*
X12573000Y-36977000D01*
X12573000Y-36957000D01*
X11379845Y-36957000D01*
X11258524Y-37186890D01*
X11303175Y-37334099D01*
X11428359Y-37596920D01*
X11602412Y-37830269D01*
X11818645Y-38025178D01*
X12056389Y-38166795D01*
X11834325Y-38315172D01*
X11645172Y-38504325D01*
X11496556Y-38726746D01*
X11394187Y-38973886D01*
X11342000Y-39236249D01*
X11342000Y-39503751D01*
X11394187Y-39766114D01*
X11496556Y-40013254D01*
X11645172Y-40235675D01*
X11834325Y-40424828D01*
X12056746Y-40573444D01*
X12217426Y-40640000D01*
X12056746Y-40706556D01*
X11834325Y-40855172D01*
X11645172Y-41044325D01*
X11496556Y-41266746D01*
X11394187Y-41513886D01*
X11342000Y-41776249D01*
X11342000Y-42043751D01*
X11394187Y-42306114D01*
X11496556Y-42553254D01*
X11645172Y-42775675D01*
X11834325Y-42964828D01*
X12056746Y-43113444D01*
X12217426Y-43180000D01*
X12056746Y-43246556D01*
X11834325Y-43395172D01*
X11645172Y-43584325D01*
X11496556Y-43806746D01*
X11394187Y-44053886D01*
X11342000Y-44316249D01*
X11342000Y-44583751D01*
X11394187Y-44846114D01*
X11496556Y-45093254D01*
X11645172Y-45315675D01*
X11834325Y-45504828D01*
X12020975Y-45629543D01*
X11850000Y-45629543D01*
X11750415Y-45639351D01*
X11654657Y-45668399D01*
X11566405Y-45715571D01*
X11489052Y-45779052D01*
X11425571Y-45856405D01*
X11378399Y-45944657D01*
X11349351Y-46040415D01*
X11339543Y-46140000D01*
X11339543Y-47840000D01*
X11349351Y-47939585D01*
X11378399Y-48035343D01*
X11425571Y-48123595D01*
X11489052Y-48200948D01*
X11566405Y-48264429D01*
X11654657Y-48311601D01*
X11655972Y-48312000D01*
X583000Y-48312000D01*
X583000Y-36749946D01*
X965200Y-36749946D01*
X965200Y-36910054D01*
X996435Y-37067085D01*
X1057706Y-37215005D01*
X1146657Y-37348130D01*
X1259870Y-37461343D01*
X1392995Y-37550294D01*
X1540915Y-37611565D01*
X1697946Y-37642800D01*
X1858054Y-37642800D01*
X2015085Y-37611565D01*
X2163005Y-37550294D01*
X2296130Y-37461343D01*
X2409343Y-37348130D01*
X2498294Y-37215005D01*
X2559565Y-37067085D01*
X2590800Y-36910054D01*
X2590800Y-36851546D01*
X3632200Y-36851546D01*
X3632200Y-37011654D01*
X3663435Y-37168685D01*
X3724706Y-37316605D01*
X3813657Y-37449730D01*
X3926870Y-37562943D01*
X4059995Y-37651894D01*
X4207915Y-37713165D01*
X4364946Y-37744400D01*
X4525054Y-37744400D01*
X4682085Y-37713165D01*
X4830005Y-37651894D01*
X4963130Y-37562943D01*
X5076343Y-37449730D01*
X5165294Y-37316605D01*
X5201739Y-37228621D01*
X5248703Y-37342002D01*
X5337654Y-37475127D01*
X5450867Y-37588340D01*
X5583992Y-37677291D01*
X5731912Y-37738562D01*
X5888943Y-37769797D01*
X6049051Y-37769797D01*
X6206082Y-37738562D01*
X6354002Y-37677291D01*
X6487127Y-37588340D01*
X6600340Y-37475127D01*
X6689291Y-37342002D01*
X6750562Y-37194082D01*
X6781797Y-37037051D01*
X6781797Y-36876943D01*
X6750562Y-36719912D01*
X6689291Y-36571992D01*
X6600340Y-36438867D01*
X6564067Y-36402594D01*
X6614130Y-36369143D01*
X6727343Y-36255930D01*
X6816294Y-36122805D01*
X6877565Y-35974885D01*
X6908800Y-35817854D01*
X6908800Y-35657746D01*
X6877565Y-35500715D01*
X6816294Y-35352795D01*
X6727343Y-35219670D01*
X6614130Y-35106457D01*
X6481005Y-35017506D01*
X6333085Y-34956235D01*
X6176054Y-34925000D01*
X6015946Y-34925000D01*
X5858915Y-34956235D01*
X5710995Y-35017506D01*
X5577870Y-35106457D01*
X5464657Y-35219670D01*
X5375706Y-35352795D01*
X5314435Y-35500715D01*
X5283200Y-35657746D01*
X5283200Y-35817854D01*
X5314435Y-35974885D01*
X5375706Y-36122805D01*
X5464657Y-36255930D01*
X5500930Y-36292203D01*
X5450867Y-36325654D01*
X5337654Y-36438867D01*
X5248703Y-36571992D01*
X5212258Y-36659976D01*
X5165294Y-36546595D01*
X5076343Y-36413470D01*
X4963130Y-36300257D01*
X4830005Y-36211306D01*
X4682085Y-36150035D01*
X4525054Y-36118800D01*
X4364946Y-36118800D01*
X4207915Y-36150035D01*
X4059995Y-36211306D01*
X3926870Y-36300257D01*
X3813657Y-36413470D01*
X3724706Y-36546595D01*
X3663435Y-36694515D01*
X3632200Y-36851546D01*
X2590800Y-36851546D01*
X2590800Y-36749946D01*
X2559565Y-36592915D01*
X2498294Y-36444995D01*
X2409343Y-36311870D01*
X2296130Y-36198657D01*
X2163005Y-36109706D01*
X2015085Y-36048435D01*
X1858054Y-36017200D01*
X1697946Y-36017200D01*
X1540915Y-36048435D01*
X1392995Y-36109706D01*
X1259870Y-36198657D01*
X1146657Y-36311870D01*
X1057706Y-36444995D01*
X996435Y-36592915D01*
X965200Y-36749946D01*
X583000Y-36749946D01*
X583000Y-29688746D01*
X11150600Y-29688746D01*
X11150600Y-29848854D01*
X11181835Y-30005885D01*
X11243106Y-30153805D01*
X11332057Y-30286930D01*
X11445270Y-30400143D01*
X11578395Y-30489094D01*
X11726315Y-30550365D01*
X11760200Y-30557105D01*
X11760200Y-30585454D01*
X11791435Y-30742485D01*
X11852706Y-30890405D01*
X11941657Y-31023530D01*
X12054870Y-31136743D01*
X12187995Y-31225694D01*
X12335915Y-31286965D01*
X12492946Y-31318200D01*
X12653054Y-31318200D01*
X12810085Y-31286965D01*
X12958005Y-31225694D01*
X13091130Y-31136743D01*
X13204343Y-31023530D01*
X13293294Y-30890405D01*
X13354565Y-30742485D01*
X13385800Y-30585454D01*
X13385800Y-30425346D01*
X13354565Y-30268315D01*
X13293294Y-30120395D01*
X13204343Y-29987270D01*
X13091130Y-29874057D01*
X12958005Y-29785106D01*
X12810085Y-29723835D01*
X12776200Y-29717095D01*
X12776200Y-29688746D01*
X12744965Y-29531715D01*
X12683694Y-29383795D01*
X12594743Y-29250670D01*
X12481530Y-29137457D01*
X12348405Y-29048506D01*
X12200485Y-28987235D01*
X12043454Y-28956000D01*
X11883346Y-28956000D01*
X11726315Y-28987235D01*
X11578395Y-29048506D01*
X11445270Y-29137457D01*
X11332057Y-29250670D01*
X11243106Y-29383795D01*
X11181835Y-29531715D01*
X11150600Y-29688746D01*
X583000Y-29688746D01*
X583000Y-28698146D01*
X15824200Y-28698146D01*
X15824200Y-28858254D01*
X15855435Y-29015285D01*
X15916706Y-29163205D01*
X16005657Y-29296330D01*
X16118870Y-29409543D01*
X16251995Y-29498494D01*
X16399915Y-29559765D01*
X16556946Y-29591000D01*
X16717054Y-29591000D01*
X16874085Y-29559765D01*
X17022005Y-29498494D01*
X17155130Y-29409543D01*
X17268343Y-29296330D01*
X17357294Y-29163205D01*
X17418565Y-29015285D01*
X17449800Y-28858254D01*
X17449800Y-28748946D01*
X25730200Y-28748946D01*
X25730200Y-28909054D01*
X25761435Y-29066085D01*
X25822706Y-29214005D01*
X25911657Y-29347130D01*
X26024870Y-29460343D01*
X26157995Y-29549294D01*
X26305915Y-29610565D01*
X26462946Y-29641800D01*
X26623054Y-29641800D01*
X26780085Y-29610565D01*
X26928005Y-29549294D01*
X27061130Y-29460343D01*
X27174343Y-29347130D01*
X27263294Y-29214005D01*
X27324565Y-29066085D01*
X27355800Y-28909054D01*
X27355800Y-28748946D01*
X27324565Y-28591915D01*
X27263294Y-28443995D01*
X27174343Y-28310870D01*
X27061130Y-28197657D01*
X26928005Y-28108706D01*
X26780085Y-28047435D01*
X26623054Y-28016200D01*
X26462946Y-28016200D01*
X26305915Y-28047435D01*
X26157995Y-28108706D01*
X26024870Y-28197657D01*
X25911657Y-28310870D01*
X25822706Y-28443995D01*
X25761435Y-28591915D01*
X25730200Y-28748946D01*
X17449800Y-28748946D01*
X17449800Y-28698146D01*
X17418565Y-28541115D01*
X17357294Y-28393195D01*
X17268343Y-28260070D01*
X17155130Y-28146857D01*
X17022005Y-28057906D01*
X16874085Y-27996635D01*
X16717054Y-27965400D01*
X16556946Y-27965400D01*
X16399915Y-27996635D01*
X16251995Y-28057906D01*
X16118870Y-28146857D01*
X16005657Y-28260070D01*
X15916706Y-28393195D01*
X15855435Y-28541115D01*
X15824200Y-28698146D01*
X583000Y-28698146D01*
X583000Y-27631346D01*
X13208000Y-27631346D01*
X13208000Y-27791454D01*
X13239235Y-27948485D01*
X13300506Y-28096405D01*
X13389457Y-28229530D01*
X13502670Y-28342743D01*
X13635795Y-28431694D01*
X13783715Y-28492965D01*
X13940746Y-28524200D01*
X14100854Y-28524200D01*
X14257885Y-28492965D01*
X14405805Y-28431694D01*
X14538930Y-28342743D01*
X14652143Y-28229530D01*
X14741094Y-28096405D01*
X14802365Y-27948485D01*
X14833600Y-27791454D01*
X14833600Y-27631346D01*
X22987000Y-27631346D01*
X22987000Y-27791454D01*
X23018235Y-27948485D01*
X23079506Y-28096405D01*
X23168457Y-28229530D01*
X23281670Y-28342743D01*
X23414795Y-28431694D01*
X23562715Y-28492965D01*
X23719746Y-28524200D01*
X23879854Y-28524200D01*
X24036885Y-28492965D01*
X24184805Y-28431694D01*
X24317930Y-28342743D01*
X24431143Y-28229530D01*
X24520094Y-28096405D01*
X24581365Y-27948485D01*
X24612600Y-27791454D01*
X24612600Y-27631346D01*
X32461200Y-27631346D01*
X32461200Y-27791454D01*
X32492435Y-27948485D01*
X32553706Y-28096405D01*
X32642657Y-28229530D01*
X32755870Y-28342743D01*
X32888995Y-28431694D01*
X33036915Y-28492965D01*
X33193946Y-28524200D01*
X33354054Y-28524200D01*
X33511085Y-28492965D01*
X33659005Y-28431694D01*
X33792130Y-28342743D01*
X33905343Y-28229530D01*
X33994294Y-28096405D01*
X34055565Y-27948485D01*
X34086800Y-27791454D01*
X34086800Y-27631346D01*
X34055565Y-27474315D01*
X33994294Y-27326395D01*
X33905343Y-27193270D01*
X33792130Y-27080057D01*
X33659005Y-26991106D01*
X33511085Y-26929835D01*
X33354054Y-26898600D01*
X33193946Y-26898600D01*
X33036915Y-26929835D01*
X32888995Y-26991106D01*
X32755870Y-27080057D01*
X32642657Y-27193270D01*
X32553706Y-27326395D01*
X32492435Y-27474315D01*
X32461200Y-27631346D01*
X24612600Y-27631346D01*
X24581365Y-27474315D01*
X24520094Y-27326395D01*
X24431143Y-27193270D01*
X24317930Y-27080057D01*
X24184805Y-26991106D01*
X24036885Y-26929835D01*
X23879854Y-26898600D01*
X23719746Y-26898600D01*
X23562715Y-26929835D01*
X23414795Y-26991106D01*
X23281670Y-27080057D01*
X23168457Y-27193270D01*
X23079506Y-27326395D01*
X23018235Y-27474315D01*
X22987000Y-27631346D01*
X14833600Y-27631346D01*
X14802365Y-27474315D01*
X14741094Y-27326395D01*
X14652143Y-27193270D01*
X14538930Y-27080057D01*
X14405805Y-26991106D01*
X14257885Y-26929835D01*
X14100854Y-26898600D01*
X13940746Y-26898600D01*
X13783715Y-26929835D01*
X13635795Y-26991106D01*
X13502670Y-27080057D01*
X13389457Y-27193270D01*
X13300506Y-27326395D01*
X13239235Y-27474315D01*
X13208000Y-27631346D01*
X583000Y-27631346D01*
X583000Y-25167546D01*
X3479800Y-25167546D01*
X3479800Y-25327654D01*
X3511035Y-25484685D01*
X3572306Y-25632605D01*
X3661257Y-25765730D01*
X3774470Y-25878943D01*
X3907595Y-25967894D01*
X4055515Y-26029165D01*
X4212546Y-26060400D01*
X4372654Y-26060400D01*
X4529685Y-26029165D01*
X4677605Y-25967894D01*
X4810730Y-25878943D01*
X4923943Y-25765730D01*
X5012894Y-25632605D01*
X5074165Y-25484685D01*
X5105400Y-25327654D01*
X5105400Y-25167546D01*
X5074165Y-25010515D01*
X5012894Y-24862595D01*
X4923943Y-24729470D01*
X4810730Y-24616257D01*
X4685448Y-24532546D01*
X9474200Y-24532546D01*
X9474200Y-24692654D01*
X9505435Y-24849685D01*
X9566706Y-24997605D01*
X9655657Y-25130730D01*
X9768870Y-25243943D01*
X9901995Y-25332894D01*
X10049915Y-25394165D01*
X10206946Y-25425400D01*
X10367054Y-25425400D01*
X10524085Y-25394165D01*
X10672005Y-25332894D01*
X10805130Y-25243943D01*
X10906927Y-25142146D01*
X13893800Y-25142146D01*
X13893800Y-25302254D01*
X13925035Y-25459285D01*
X13986306Y-25607205D01*
X14075257Y-25740330D01*
X14188470Y-25853543D01*
X14321595Y-25942494D01*
X14469515Y-26003765D01*
X14626546Y-26035000D01*
X14786654Y-26035000D01*
X14943685Y-26003765D01*
X15091605Y-25942494D01*
X15110983Y-25929546D01*
X24231600Y-25929546D01*
X24231600Y-26089654D01*
X24262835Y-26246685D01*
X24324106Y-26394605D01*
X24413057Y-26527730D01*
X24526270Y-26640943D01*
X24659395Y-26729894D01*
X24807315Y-26791165D01*
X24964346Y-26822400D01*
X25124454Y-26822400D01*
X25281485Y-26791165D01*
X25429405Y-26729894D01*
X25562530Y-26640943D01*
X25675743Y-26527730D01*
X25764694Y-26394605D01*
X25825965Y-26246685D01*
X25857200Y-26089654D01*
X25857200Y-25929546D01*
X25825965Y-25772515D01*
X25764694Y-25624595D01*
X25675743Y-25491470D01*
X25562530Y-25378257D01*
X25429405Y-25289306D01*
X25281485Y-25228035D01*
X25124454Y-25196800D01*
X24964346Y-25196800D01*
X24807315Y-25228035D01*
X24659395Y-25289306D01*
X24526270Y-25378257D01*
X24413057Y-25491470D01*
X24324106Y-25624595D01*
X24262835Y-25772515D01*
X24231600Y-25929546D01*
X15110983Y-25929546D01*
X15224730Y-25853543D01*
X15337943Y-25740330D01*
X15426894Y-25607205D01*
X15488165Y-25459285D01*
X15505276Y-25373262D01*
X15527885Y-25368765D01*
X15675805Y-25307494D01*
X15808930Y-25218543D01*
X15922143Y-25105330D01*
X16011094Y-24972205D01*
X16072365Y-24824285D01*
X16103600Y-24667254D01*
X16103600Y-24507146D01*
X16088444Y-24430946D01*
X41478200Y-24430946D01*
X41478200Y-24591054D01*
X41509435Y-24748085D01*
X41570706Y-24896005D01*
X41659657Y-25029130D01*
X41772870Y-25142343D01*
X41905995Y-25231294D01*
X42053915Y-25292565D01*
X42210946Y-25323800D01*
X42371054Y-25323800D01*
X42528085Y-25292565D01*
X42676005Y-25231294D01*
X42809130Y-25142343D01*
X42922343Y-25029130D01*
X43011294Y-24896005D01*
X43072565Y-24748085D01*
X43103800Y-24591054D01*
X43103800Y-24430946D01*
X43072565Y-24273915D01*
X43011294Y-24125995D01*
X42922343Y-23992870D01*
X42809130Y-23879657D01*
X42676005Y-23790706D01*
X42528085Y-23729435D01*
X42371054Y-23698200D01*
X42210946Y-23698200D01*
X42053915Y-23729435D01*
X41905995Y-23790706D01*
X41772870Y-23879657D01*
X41659657Y-23992870D01*
X41570706Y-24125995D01*
X41509435Y-24273915D01*
X41478200Y-24430946D01*
X16088444Y-24430946D01*
X16072365Y-24350115D01*
X16011094Y-24202195D01*
X15922143Y-24069070D01*
X15808930Y-23955857D01*
X15675805Y-23866906D01*
X15527885Y-23805635D01*
X15370854Y-23774400D01*
X15210746Y-23774400D01*
X15053715Y-23805635D01*
X14905795Y-23866906D01*
X14772670Y-23955857D01*
X14659457Y-24069070D01*
X14570506Y-24202195D01*
X14509235Y-24350115D01*
X14492124Y-24436138D01*
X14469515Y-24440635D01*
X14321595Y-24501906D01*
X14188470Y-24590857D01*
X14075257Y-24704070D01*
X13986306Y-24837195D01*
X13925035Y-24985115D01*
X13893800Y-25142146D01*
X10906927Y-25142146D01*
X10918343Y-25130730D01*
X11007294Y-24997605D01*
X11068565Y-24849685D01*
X11099800Y-24692654D01*
X11099800Y-24532546D01*
X11068565Y-24375515D01*
X11007294Y-24227595D01*
X10918343Y-24094470D01*
X10805130Y-23981257D01*
X10672005Y-23892306D01*
X10524085Y-23831035D01*
X10367054Y-23799800D01*
X10206946Y-23799800D01*
X10049915Y-23831035D01*
X9901995Y-23892306D01*
X9768870Y-23981257D01*
X9655657Y-24094470D01*
X9566706Y-24227595D01*
X9505435Y-24375515D01*
X9474200Y-24532546D01*
X4685448Y-24532546D01*
X4677605Y-24527306D01*
X4529685Y-24466035D01*
X4372654Y-24434800D01*
X4212546Y-24434800D01*
X4055515Y-24466035D01*
X3907595Y-24527306D01*
X3774470Y-24616257D01*
X3661257Y-24729470D01*
X3572306Y-24862595D01*
X3511035Y-25010515D01*
X3479800Y-25167546D01*
X583000Y-25167546D01*
X583000Y-23618146D01*
X1778004Y-23618146D01*
X1778004Y-23778254D01*
X1809239Y-23935285D01*
X1870510Y-24083205D01*
X1959461Y-24216330D01*
X2072674Y-24329543D01*
X2205799Y-24418494D01*
X2353719Y-24479765D01*
X2510750Y-24511000D01*
X2670858Y-24511000D01*
X2827889Y-24479765D01*
X2975809Y-24418494D01*
X3108934Y-24329543D01*
X3222147Y-24216330D01*
X3311098Y-24083205D01*
X3372369Y-23935285D01*
X3397908Y-23806892D01*
X3462895Y-23793965D01*
X3610815Y-23732694D01*
X3743940Y-23643743D01*
X3857153Y-23530530D01*
X3946104Y-23397405D01*
X4007375Y-23249485D01*
X4038610Y-23092454D01*
X4038610Y-22932346D01*
X4007375Y-22775315D01*
X3946104Y-22627395D01*
X3857153Y-22494270D01*
X3787239Y-22424356D01*
X13868400Y-22424356D01*
X13868400Y-22584464D01*
X13899635Y-22741495D01*
X13960906Y-22889415D01*
X14049857Y-23022540D01*
X14163070Y-23135753D01*
X14296195Y-23224704D01*
X14444115Y-23285975D01*
X14601146Y-23317210D01*
X14761254Y-23317210D01*
X14918285Y-23285975D01*
X15066205Y-23224704D01*
X15199330Y-23135753D01*
X15312543Y-23022540D01*
X15401494Y-22889415D01*
X15462765Y-22741495D01*
X15494000Y-22584464D01*
X15494000Y-22583827D01*
X15540795Y-22615094D01*
X15688715Y-22676365D01*
X15845746Y-22707600D01*
X16005854Y-22707600D01*
X16162885Y-22676365D01*
X16310805Y-22615094D01*
X16443930Y-22526143D01*
X16557143Y-22412930D01*
X16646094Y-22279805D01*
X16707365Y-22131885D01*
X16738600Y-21974854D01*
X16738600Y-21814746D01*
X16707365Y-21657715D01*
X16646094Y-21509795D01*
X16557143Y-21376670D01*
X16443930Y-21263457D01*
X16310805Y-21174506D01*
X16162885Y-21113235D01*
X16005854Y-21082000D01*
X15845746Y-21082000D01*
X15688715Y-21113235D01*
X15540795Y-21174506D01*
X15407670Y-21263457D01*
X15294457Y-21376670D01*
X15205506Y-21509795D01*
X15144235Y-21657715D01*
X15113000Y-21814746D01*
X15113000Y-21815383D01*
X15066205Y-21784116D01*
X14918285Y-21722845D01*
X14761254Y-21691610D01*
X14601146Y-21691610D01*
X14444115Y-21722845D01*
X14296195Y-21784116D01*
X14163070Y-21873067D01*
X14049857Y-21986280D01*
X13960906Y-22119405D01*
X13899635Y-22267325D01*
X13868400Y-22424356D01*
X3787239Y-22424356D01*
X3743940Y-22381057D01*
X3610815Y-22292106D01*
X3462895Y-22230835D01*
X3305864Y-22199600D01*
X3145756Y-22199600D01*
X2988725Y-22230835D01*
X2840805Y-22292106D01*
X2707680Y-22381057D01*
X2594467Y-22494270D01*
X2505516Y-22627395D01*
X2444245Y-22775315D01*
X2418706Y-22903708D01*
X2353719Y-22916635D01*
X2205799Y-22977906D01*
X2072674Y-23066857D01*
X1959461Y-23180070D01*
X1870510Y-23313195D01*
X1809239Y-23461115D01*
X1778004Y-23618146D01*
X583000Y-23618146D01*
X583000Y-22973661D01*
X601115Y-22981165D01*
X758146Y-23012400D01*
X918254Y-23012400D01*
X1075285Y-22981165D01*
X1223205Y-22919894D01*
X1356330Y-22830943D01*
X1469543Y-22717730D01*
X1558494Y-22584605D01*
X1619765Y-22436685D01*
X1651000Y-22279654D01*
X1651000Y-22119546D01*
X1619765Y-21962515D01*
X1558494Y-21814595D01*
X1469543Y-21681470D01*
X1356330Y-21568257D01*
X1223205Y-21479306D01*
X1075285Y-21418035D01*
X918254Y-21386800D01*
X758146Y-21386800D01*
X601115Y-21418035D01*
X583000Y-21425539D01*
X583000Y-17725346D01*
X2286006Y-17725346D01*
X2286006Y-17885454D01*
X2317241Y-18042485D01*
X2378512Y-18190405D01*
X2467463Y-18323530D01*
X2580676Y-18436743D01*
X2713801Y-18525694D01*
X2776052Y-18551480D01*
X2768600Y-18588946D01*
X2768600Y-18749054D01*
X2799835Y-18906085D01*
X2800075Y-18906664D01*
X2703571Y-18971146D01*
X2590358Y-19084359D01*
X2501407Y-19217484D01*
X2440136Y-19365404D01*
X2408901Y-19522435D01*
X2408901Y-19682543D01*
X2440136Y-19839574D01*
X2501407Y-19987494D01*
X2590358Y-20120619D01*
X2597017Y-20127278D01*
X2581012Y-20165918D01*
X2549777Y-20322949D01*
X2549777Y-20483057D01*
X2581012Y-20640088D01*
X2642283Y-20788008D01*
X2731234Y-20921133D01*
X2844447Y-21034346D01*
X2977572Y-21123297D01*
X3125492Y-21184568D01*
X3282523Y-21215803D01*
X3442631Y-21215803D01*
X3599662Y-21184568D01*
X3747582Y-21123297D01*
X3797516Y-21089932D01*
X4817165Y-21089932D01*
X4817165Y-21250040D01*
X4848400Y-21407071D01*
X4909671Y-21554991D01*
X4998622Y-21688116D01*
X5111835Y-21801329D01*
X5244960Y-21890280D01*
X5392880Y-21951551D01*
X5549911Y-21982786D01*
X5710019Y-21982786D01*
X5867050Y-21951551D01*
X6014970Y-21890280D01*
X6148095Y-21801329D01*
X6261308Y-21688116D01*
X6350259Y-21554991D01*
X6411530Y-21407071D01*
X6442765Y-21250040D01*
X6442765Y-21091497D01*
X6644022Y-21091497D01*
X6644022Y-21251605D01*
X6675257Y-21408636D01*
X6736528Y-21556556D01*
X6825479Y-21689681D01*
X6938692Y-21802894D01*
X7071817Y-21891845D01*
X7219737Y-21953116D01*
X7376768Y-21984351D01*
X7536876Y-21984351D01*
X7693907Y-21953116D01*
X7841827Y-21891845D01*
X7974952Y-21802894D01*
X8088165Y-21689681D01*
X8177116Y-21556556D01*
X8238387Y-21408636D01*
X8269622Y-21251605D01*
X8269622Y-21096889D01*
X10220420Y-21096889D01*
X10220420Y-21256997D01*
X10251655Y-21414028D01*
X10312926Y-21561948D01*
X10401877Y-21695073D01*
X10515090Y-21808286D01*
X10648215Y-21897237D01*
X10796135Y-21958508D01*
X10953166Y-21989743D01*
X11113274Y-21989743D01*
X11270305Y-21958508D01*
X11418225Y-21897237D01*
X11551350Y-21808286D01*
X11664563Y-21695073D01*
X11753514Y-21561948D01*
X11762476Y-21540312D01*
X11827902Y-21638230D01*
X11941115Y-21751443D01*
X12074240Y-21840394D01*
X12222160Y-21901665D01*
X12379191Y-21932900D01*
X12539299Y-21932900D01*
X12696330Y-21901665D01*
X12844250Y-21840394D01*
X12977375Y-21751443D01*
X13090588Y-21638230D01*
X13179539Y-21505105D01*
X13240810Y-21357185D01*
X13272045Y-21200154D01*
X13272045Y-21040046D01*
X13240810Y-20883015D01*
X13179539Y-20735095D01*
X13090588Y-20601970D01*
X12977375Y-20488757D01*
X12844250Y-20399806D01*
X12703600Y-20341546D01*
X17195800Y-20341546D01*
X17195800Y-20501654D01*
X17227035Y-20658685D01*
X17288306Y-20806605D01*
X17377257Y-20939730D01*
X17490470Y-21052943D01*
X17623595Y-21141894D01*
X17771515Y-21203165D01*
X17928546Y-21234400D01*
X18088654Y-21234400D01*
X18245685Y-21203165D01*
X18393605Y-21141894D01*
X18526730Y-21052943D01*
X18639943Y-20939730D01*
X18728894Y-20806605D01*
X18756241Y-20740583D01*
X27035919Y-20740583D01*
X27035919Y-20900691D01*
X27067154Y-21057722D01*
X27128425Y-21205642D01*
X27217376Y-21338767D01*
X27330589Y-21451980D01*
X27463714Y-21540931D01*
X27611634Y-21602202D01*
X27768665Y-21633437D01*
X27928773Y-21633437D01*
X28085804Y-21602202D01*
X28233724Y-21540931D01*
X28366849Y-21451980D01*
X28480062Y-21338767D01*
X28569013Y-21205642D01*
X28630284Y-21057722D01*
X28661519Y-20900691D01*
X28661519Y-20740583D01*
X28657932Y-20722546D01*
X29387800Y-20722546D01*
X29387800Y-20882654D01*
X29419035Y-21039685D01*
X29480306Y-21187605D01*
X29569257Y-21320730D01*
X29682470Y-21433943D01*
X29815595Y-21522894D01*
X29963515Y-21584165D01*
X30120546Y-21615400D01*
X30280654Y-21615400D01*
X30437685Y-21584165D01*
X30585605Y-21522894D01*
X30718730Y-21433943D01*
X30831943Y-21320730D01*
X30920894Y-21187605D01*
X30982165Y-21039685D01*
X31013400Y-20882654D01*
X31013400Y-20722546D01*
X30982165Y-20565515D01*
X30920894Y-20417595D01*
X30831943Y-20284470D01*
X30718730Y-20171257D01*
X30585605Y-20082306D01*
X30437685Y-20021035D01*
X30280654Y-19989800D01*
X30120546Y-19989800D01*
X29963515Y-20021035D01*
X29815595Y-20082306D01*
X29682470Y-20171257D01*
X29569257Y-20284470D01*
X29480306Y-20417595D01*
X29419035Y-20565515D01*
X29387800Y-20722546D01*
X28657932Y-20722546D01*
X28630284Y-20583552D01*
X28569013Y-20435632D01*
X28480062Y-20302507D01*
X28366849Y-20189294D01*
X28233724Y-20100343D01*
X28085804Y-20039072D01*
X27928773Y-20007837D01*
X27768665Y-20007837D01*
X27611634Y-20039072D01*
X27463714Y-20100343D01*
X27330589Y-20189294D01*
X27217376Y-20302507D01*
X27128425Y-20435632D01*
X27067154Y-20583552D01*
X27035919Y-20740583D01*
X18756241Y-20740583D01*
X18790165Y-20658685D01*
X18821400Y-20501654D01*
X18821400Y-20341546D01*
X18790165Y-20184515D01*
X18728894Y-20036595D01*
X18639943Y-19903470D01*
X18526730Y-19790257D01*
X18393605Y-19701306D01*
X18245685Y-19640035D01*
X18088654Y-19608800D01*
X17928546Y-19608800D01*
X17771515Y-19640035D01*
X17623595Y-19701306D01*
X17490470Y-19790257D01*
X17377257Y-19903470D01*
X17288306Y-20036595D01*
X17227035Y-20184515D01*
X17195800Y-20341546D01*
X12703600Y-20341546D01*
X12696330Y-20338535D01*
X12539299Y-20307300D01*
X12379191Y-20307300D01*
X12222160Y-20338535D01*
X12074240Y-20399806D01*
X11941115Y-20488757D01*
X11827902Y-20601970D01*
X11738951Y-20735095D01*
X11729989Y-20756731D01*
X11664563Y-20658813D01*
X11551350Y-20545600D01*
X11418225Y-20456649D01*
X11270305Y-20395378D01*
X11113274Y-20364143D01*
X10953166Y-20364143D01*
X10796135Y-20395378D01*
X10648215Y-20456649D01*
X10515090Y-20545600D01*
X10401877Y-20658813D01*
X10312926Y-20791938D01*
X10251655Y-20939858D01*
X10220420Y-21096889D01*
X8269622Y-21096889D01*
X8269622Y-21091497D01*
X8238387Y-20934466D01*
X8177116Y-20786546D01*
X8088165Y-20653421D01*
X7974952Y-20540208D01*
X7841827Y-20451257D01*
X7693907Y-20389986D01*
X7536876Y-20358751D01*
X7376768Y-20358751D01*
X7219737Y-20389986D01*
X7071817Y-20451257D01*
X6938692Y-20540208D01*
X6825479Y-20653421D01*
X6736528Y-20786546D01*
X6675257Y-20934466D01*
X6644022Y-21091497D01*
X6442765Y-21091497D01*
X6442765Y-21089932D01*
X6411530Y-20932901D01*
X6350259Y-20784981D01*
X6261308Y-20651856D01*
X6148095Y-20538643D01*
X6014970Y-20449692D01*
X5867050Y-20388421D01*
X5710019Y-20357186D01*
X5549911Y-20357186D01*
X5392880Y-20388421D01*
X5244960Y-20449692D01*
X5111835Y-20538643D01*
X4998622Y-20651856D01*
X4909671Y-20784981D01*
X4848400Y-20932901D01*
X4817165Y-21089932D01*
X3797516Y-21089932D01*
X3880707Y-21034346D01*
X3993920Y-20921133D01*
X4082871Y-20788008D01*
X4144142Y-20640088D01*
X4175377Y-20483057D01*
X4175377Y-20322949D01*
X4144142Y-20165918D01*
X4082871Y-20017998D01*
X3993920Y-19884873D01*
X3987261Y-19878214D01*
X4003266Y-19839574D01*
X4034501Y-19682543D01*
X4034501Y-19560997D01*
X7288608Y-19560997D01*
X7299715Y-19754701D01*
X7470566Y-19825982D01*
X7652041Y-19862560D01*
X7837164Y-19863033D01*
X8018822Y-19827380D01*
X8190035Y-19756973D01*
X8194285Y-19754701D01*
X8205392Y-19560997D01*
X9828608Y-19560997D01*
X9839715Y-19754701D01*
X10010566Y-19825982D01*
X10192041Y-19862560D01*
X10377164Y-19863033D01*
X10558822Y-19827380D01*
X10730035Y-19756973D01*
X10734285Y-19754701D01*
X10745392Y-19560997D01*
X10287000Y-19102605D01*
X9828608Y-19560997D01*
X8205392Y-19560997D01*
X7747000Y-19102605D01*
X7288608Y-19560997D01*
X4034501Y-19560997D01*
X4034501Y-19522435D01*
X4003266Y-19365404D01*
X4003026Y-19364825D01*
X4099530Y-19300343D01*
X4212743Y-19187130D01*
X4301694Y-19054005D01*
X4318611Y-19013164D01*
X6806967Y-19013164D01*
X6842620Y-19194822D01*
X6913027Y-19366035D01*
X6915299Y-19370285D01*
X7109003Y-19381392D01*
X7567395Y-18923000D01*
X7926605Y-18923000D01*
X8384997Y-19381392D01*
X8578701Y-19370285D01*
X8649982Y-19199434D01*
X8686560Y-19017959D01*
X8686572Y-19013164D01*
X9346967Y-19013164D01*
X9382620Y-19194822D01*
X9453027Y-19366035D01*
X9455299Y-19370285D01*
X9649003Y-19381392D01*
X10107395Y-18923000D01*
X10466605Y-18923000D01*
X10924997Y-19381392D01*
X11118701Y-19370285D01*
X11189982Y-19199434D01*
X11226560Y-19017959D01*
X11227033Y-18832836D01*
X11191380Y-18651178D01*
X11120973Y-18479965D01*
X11118701Y-18475715D01*
X10924997Y-18464608D01*
X10466605Y-18923000D01*
X10107395Y-18923000D01*
X9649003Y-18464608D01*
X9455299Y-18475715D01*
X9384018Y-18646566D01*
X9347440Y-18828041D01*
X9346967Y-19013164D01*
X8686572Y-19013164D01*
X8687033Y-18832836D01*
X8651380Y-18651178D01*
X8580973Y-18479965D01*
X8578701Y-18475715D01*
X8384997Y-18464608D01*
X7926605Y-18923000D01*
X7567395Y-18923000D01*
X7109003Y-18464608D01*
X6915299Y-18475715D01*
X6844018Y-18646566D01*
X6807440Y-18828041D01*
X6806967Y-19013164D01*
X4318611Y-19013164D01*
X4362965Y-18906085D01*
X4394200Y-18749054D01*
X4394200Y-18588946D01*
X4362965Y-18431915D01*
X4302112Y-18285003D01*
X7288608Y-18285003D01*
X7747000Y-18743395D01*
X8205392Y-18285003D01*
X9828608Y-18285003D01*
X10287000Y-18743395D01*
X10745392Y-18285003D01*
X10734285Y-18091299D01*
X10563434Y-18020018D01*
X10381959Y-17983440D01*
X10196836Y-17982967D01*
X10015178Y-18018620D01*
X9843965Y-18089027D01*
X9839715Y-18091299D01*
X9828608Y-18285003D01*
X8205392Y-18285003D01*
X8194285Y-18091299D01*
X8023434Y-18020018D01*
X7841959Y-17983440D01*
X7656836Y-17982967D01*
X7475178Y-18018620D01*
X7303965Y-18089027D01*
X7299715Y-18091299D01*
X7288608Y-18285003D01*
X4302112Y-18285003D01*
X4301694Y-18283995D01*
X4212743Y-18150870D01*
X4099530Y-18037657D01*
X3966405Y-17948706D01*
X3904154Y-17922920D01*
X3911606Y-17885454D01*
X3911606Y-17725346D01*
X3880371Y-17568315D01*
X3819100Y-17420395D01*
X3730149Y-17287270D01*
X3616936Y-17174057D01*
X3611463Y-17170400D01*
X3636054Y-17170400D01*
X3793085Y-17139165D01*
X3941005Y-17077894D01*
X4026157Y-17020997D01*
X7288608Y-17020997D01*
X7299715Y-17214701D01*
X7470566Y-17285982D01*
X7652041Y-17322560D01*
X7837164Y-17323033D01*
X8018822Y-17287380D01*
X8190035Y-17216973D01*
X8194285Y-17214701D01*
X8205392Y-17020997D01*
X9828608Y-17020997D01*
X9839715Y-17214701D01*
X10010566Y-17285982D01*
X10192041Y-17322560D01*
X10377164Y-17323033D01*
X10558822Y-17287380D01*
X10730035Y-17216973D01*
X10734285Y-17214701D01*
X10745392Y-17020997D01*
X10287000Y-16562605D01*
X9828608Y-17020997D01*
X8205392Y-17020997D01*
X7747000Y-16562605D01*
X7288608Y-17020997D01*
X4026157Y-17020997D01*
X4074130Y-16988943D01*
X4187343Y-16875730D01*
X4276294Y-16742605D01*
X4337565Y-16594685D01*
X4361736Y-16473164D01*
X6806967Y-16473164D01*
X6842620Y-16654822D01*
X6913027Y-16826035D01*
X6915299Y-16830285D01*
X7109003Y-16841392D01*
X7567395Y-16383000D01*
X7926605Y-16383000D01*
X8384997Y-16841392D01*
X8578701Y-16830285D01*
X8649982Y-16659434D01*
X8686560Y-16477959D01*
X8686572Y-16473164D01*
X9346967Y-16473164D01*
X9382620Y-16654822D01*
X9453027Y-16826035D01*
X9455299Y-16830285D01*
X9649003Y-16841392D01*
X10107395Y-16383000D01*
X10466605Y-16383000D01*
X10924997Y-16841392D01*
X11118701Y-16830285D01*
X11189982Y-16659434D01*
X11195278Y-16633156D01*
X17449800Y-16633156D01*
X17449800Y-16793264D01*
X17481035Y-16950295D01*
X17542306Y-17098215D01*
X17631257Y-17231340D01*
X17744470Y-17344553D01*
X17824973Y-17398344D01*
X17732857Y-17490460D01*
X17643906Y-17623585D01*
X17582635Y-17771505D01*
X17551400Y-17928536D01*
X17551400Y-18088644D01*
X17582635Y-18245675D01*
X17643906Y-18393595D01*
X17732857Y-18526720D01*
X17846070Y-18639933D01*
X17979195Y-18728884D01*
X18127115Y-18790155D01*
X18284146Y-18821390D01*
X18444254Y-18821390D01*
X18601285Y-18790155D01*
X18749205Y-18728884D01*
X18882330Y-18639933D01*
X18995543Y-18526720D01*
X19084494Y-18393595D01*
X19145765Y-18245675D01*
X19177000Y-18088644D01*
X19177000Y-18055544D01*
X23063200Y-18055544D01*
X23063200Y-18215652D01*
X23094435Y-18372683D01*
X23155706Y-18520603D01*
X23244657Y-18653728D01*
X23357870Y-18766941D01*
X23490995Y-18855892D01*
X23638915Y-18917163D01*
X23795946Y-18948398D01*
X23956054Y-18948398D01*
X24113085Y-18917163D01*
X24261005Y-18855892D01*
X24394130Y-18766941D01*
X24419725Y-18741346D01*
X25654000Y-18741346D01*
X25654000Y-18901454D01*
X25685235Y-19058485D01*
X25746506Y-19206405D01*
X25835457Y-19339530D01*
X25948670Y-19452743D01*
X26081795Y-19541694D01*
X26229715Y-19602965D01*
X26386746Y-19634200D01*
X26546854Y-19634200D01*
X26703885Y-19602965D01*
X26851805Y-19541694D01*
X26984930Y-19452743D01*
X27098143Y-19339530D01*
X27187094Y-19206405D01*
X27248365Y-19058485D01*
X27279600Y-18901454D01*
X27279600Y-18741346D01*
X27248365Y-18584315D01*
X27187094Y-18436395D01*
X27098143Y-18303270D01*
X26984930Y-18190057D01*
X26851805Y-18101106D01*
X26703885Y-18039835D01*
X26546854Y-18008600D01*
X26386746Y-18008600D01*
X26229715Y-18039835D01*
X26081795Y-18101106D01*
X25948670Y-18190057D01*
X25835457Y-18303270D01*
X25746506Y-18436395D01*
X25685235Y-18584315D01*
X25654000Y-18741346D01*
X24419725Y-18741346D01*
X24507343Y-18653728D01*
X24596294Y-18520603D01*
X24657565Y-18372683D01*
X24688800Y-18215652D01*
X24688800Y-18055544D01*
X24657565Y-17898513D01*
X24596294Y-17750593D01*
X24507343Y-17617468D01*
X24488221Y-17598346D01*
X27711400Y-17598346D01*
X27711400Y-17758454D01*
X27742635Y-17915485D01*
X27803906Y-18063405D01*
X27892857Y-18196530D01*
X28006070Y-18309743D01*
X28139195Y-18398694D01*
X28287115Y-18459965D01*
X28444146Y-18491200D01*
X28604254Y-18491200D01*
X28761285Y-18459965D01*
X28909205Y-18398694D01*
X29042330Y-18309743D01*
X29155543Y-18196530D01*
X29244494Y-18063405D01*
X29305765Y-17915485D01*
X29337000Y-17758454D01*
X29337000Y-17598346D01*
X29305765Y-17441315D01*
X29244494Y-17293395D01*
X29155543Y-17160270D01*
X29042330Y-17047057D01*
X28909205Y-16958106D01*
X28761285Y-16896835D01*
X28604254Y-16865600D01*
X28444146Y-16865600D01*
X28287115Y-16896835D01*
X28139195Y-16958106D01*
X28006070Y-17047057D01*
X27892857Y-17160270D01*
X27803906Y-17293395D01*
X27742635Y-17441315D01*
X27711400Y-17598346D01*
X24488221Y-17598346D01*
X24394130Y-17504255D01*
X24261005Y-17415304D01*
X24113085Y-17354033D01*
X23956054Y-17322798D01*
X23795946Y-17322798D01*
X23638915Y-17354033D01*
X23490995Y-17415304D01*
X23357870Y-17504255D01*
X23244657Y-17617468D01*
X23155706Y-17750593D01*
X23094435Y-17898513D01*
X23063200Y-18055544D01*
X19177000Y-18055544D01*
X19177000Y-17928536D01*
X19145765Y-17771505D01*
X19084494Y-17623585D01*
X18995543Y-17490460D01*
X18882330Y-17377247D01*
X18801827Y-17323456D01*
X18893943Y-17231340D01*
X18982894Y-17098215D01*
X19044165Y-16950295D01*
X19075400Y-16793264D01*
X19075400Y-16633156D01*
X19044165Y-16476125D01*
X18982894Y-16328205D01*
X18893943Y-16195080D01*
X18780730Y-16081867D01*
X18647605Y-15992916D01*
X18499685Y-15931645D01*
X18342654Y-15900410D01*
X18182546Y-15900410D01*
X18025515Y-15931645D01*
X17877595Y-15992916D01*
X17744470Y-16081867D01*
X17631257Y-16195080D01*
X17542306Y-16328205D01*
X17481035Y-16476125D01*
X17449800Y-16633156D01*
X11195278Y-16633156D01*
X11226560Y-16477959D01*
X11227033Y-16292836D01*
X11191380Y-16111178D01*
X11120973Y-15939965D01*
X11118701Y-15935715D01*
X10924997Y-15924608D01*
X10466605Y-16383000D01*
X10107395Y-16383000D01*
X9649003Y-15924608D01*
X9455299Y-15935715D01*
X9384018Y-16106566D01*
X9347440Y-16288041D01*
X9346967Y-16473164D01*
X8686572Y-16473164D01*
X8687033Y-16292836D01*
X8651380Y-16111178D01*
X8580973Y-15939965D01*
X8578701Y-15935715D01*
X8384997Y-15924608D01*
X7926605Y-16383000D01*
X7567395Y-16383000D01*
X7109003Y-15924608D01*
X6915299Y-15935715D01*
X6844018Y-16106566D01*
X6807440Y-16288041D01*
X6806967Y-16473164D01*
X4361736Y-16473164D01*
X4368800Y-16437654D01*
X4368800Y-16277546D01*
X4337565Y-16120515D01*
X4276294Y-15972595D01*
X4187343Y-15839470D01*
X4092876Y-15745003D01*
X7288608Y-15745003D01*
X7747000Y-16203395D01*
X8205392Y-15745003D01*
X9828608Y-15745003D01*
X10287000Y-16203395D01*
X10745392Y-15745003D01*
X10734285Y-15551299D01*
X10563434Y-15480018D01*
X10381959Y-15443440D01*
X10196836Y-15442967D01*
X10015178Y-15478620D01*
X9843965Y-15549027D01*
X9839715Y-15551299D01*
X9828608Y-15745003D01*
X8205392Y-15745003D01*
X8194285Y-15551299D01*
X8023434Y-15480018D01*
X7841959Y-15443440D01*
X7656836Y-15442967D01*
X7475178Y-15478620D01*
X7303965Y-15549027D01*
X7299715Y-15551299D01*
X7288608Y-15745003D01*
X4092876Y-15745003D01*
X4074130Y-15726257D01*
X3941005Y-15637306D01*
X3793085Y-15576035D01*
X3636054Y-15544800D01*
X3475946Y-15544800D01*
X3318915Y-15576035D01*
X3170995Y-15637306D01*
X3037870Y-15726257D01*
X2924657Y-15839470D01*
X2835706Y-15972595D01*
X2774435Y-16120515D01*
X2743200Y-16277546D01*
X2743200Y-16437654D01*
X2774435Y-16594685D01*
X2835706Y-16742605D01*
X2924657Y-16875730D01*
X3037870Y-16988943D01*
X3043343Y-16992600D01*
X3018752Y-16992600D01*
X2861721Y-17023835D01*
X2713801Y-17085106D01*
X2580676Y-17174057D01*
X2467463Y-17287270D01*
X2378512Y-17420395D01*
X2317241Y-17568315D01*
X2286006Y-17725346D01*
X583000Y-17725346D01*
X583000Y-13407346D01*
X1498600Y-13407346D01*
X1498600Y-13567454D01*
X1529835Y-13724485D01*
X1591106Y-13872405D01*
X1680057Y-14005530D01*
X1793270Y-14118743D01*
X1926395Y-14207694D01*
X2074315Y-14268965D01*
X2231346Y-14300200D01*
X2391454Y-14300200D01*
X2538495Y-14270952D01*
X23952200Y-14270952D01*
X23952200Y-14431060D01*
X23983435Y-14588091D01*
X24044706Y-14736011D01*
X24133657Y-14869136D01*
X24246870Y-14982349D01*
X24379995Y-15071300D01*
X24527915Y-15132571D01*
X24684946Y-15163806D01*
X24845054Y-15163806D01*
X25002085Y-15132571D01*
X25150005Y-15071300D01*
X25283130Y-14982349D01*
X25349174Y-14916305D01*
X27531176Y-14916305D01*
X27531176Y-15076413D01*
X27562411Y-15233444D01*
X27623682Y-15381364D01*
X27707297Y-15506503D01*
X27672268Y-15591069D01*
X27641033Y-15748100D01*
X27641033Y-15908208D01*
X27672268Y-16065239D01*
X27733539Y-16213159D01*
X27822490Y-16346284D01*
X27935703Y-16459497D01*
X28068828Y-16548448D01*
X28216748Y-16609719D01*
X28373779Y-16640954D01*
X28533887Y-16640954D01*
X28690918Y-16609719D01*
X28838838Y-16548448D01*
X28971963Y-16459497D01*
X29085176Y-16346284D01*
X29174127Y-16213159D01*
X29235398Y-16065239D01*
X29266633Y-15908208D01*
X29266633Y-15748100D01*
X29235398Y-15591069D01*
X29174127Y-15443149D01*
X29090512Y-15318010D01*
X29125541Y-15233444D01*
X29156776Y-15076413D01*
X29156776Y-14916305D01*
X29125541Y-14759274D01*
X29103948Y-14707142D01*
X29816959Y-14707142D01*
X29816959Y-14867250D01*
X29848194Y-15024281D01*
X29909465Y-15172201D01*
X29998416Y-15305326D01*
X30038141Y-15345051D01*
X30030980Y-15362340D01*
X29999745Y-15519371D01*
X29999745Y-15679479D01*
X30030980Y-15836510D01*
X30092251Y-15984430D01*
X30181202Y-16117555D01*
X30286906Y-16223259D01*
X30267706Y-16251995D01*
X30206435Y-16399915D01*
X30175200Y-16556946D01*
X30175200Y-16717054D01*
X30206435Y-16874085D01*
X30267706Y-17022005D01*
X30356657Y-17155130D01*
X30389168Y-17187641D01*
X30318506Y-17293395D01*
X30257235Y-17441315D01*
X30226000Y-17598346D01*
X30226000Y-17758454D01*
X30257235Y-17915485D01*
X30318506Y-18063405D01*
X30407457Y-18196530D01*
X30520670Y-18309743D01*
X30653795Y-18398694D01*
X30801715Y-18459965D01*
X30958746Y-18491200D01*
X31118854Y-18491200D01*
X31275885Y-18459965D01*
X31423805Y-18398694D01*
X31556930Y-18309743D01*
X31670143Y-18196530D01*
X31759094Y-18063405D01*
X31820365Y-17915485D01*
X31851600Y-17758454D01*
X31851600Y-17598346D01*
X31820365Y-17441315D01*
X31759094Y-17293395D01*
X31670143Y-17160270D01*
X31637632Y-17127759D01*
X31708294Y-17022005D01*
X31769565Y-16874085D01*
X31800800Y-16717054D01*
X31800800Y-16597210D01*
X31885486Y-16580365D01*
X32033406Y-16519094D01*
X32166531Y-16430143D01*
X32279744Y-16316930D01*
X32368695Y-16183805D01*
X32429966Y-16035885D01*
X32461201Y-15878854D01*
X32461201Y-15718746D01*
X32429966Y-15561715D01*
X32368695Y-15413795D01*
X32279744Y-15280670D01*
X32166531Y-15167457D01*
X32033406Y-15078506D01*
X31885486Y-15017235D01*
X31728455Y-14986000D01*
X31568347Y-14986000D01*
X31412784Y-15016943D01*
X31442559Y-14867250D01*
X31442559Y-14707142D01*
X31436633Y-14677346D01*
X32156400Y-14677346D01*
X32156400Y-14837454D01*
X32187635Y-14994485D01*
X32248906Y-15142405D01*
X32337857Y-15275530D01*
X32451070Y-15388743D01*
X32584195Y-15477694D01*
X32732115Y-15538965D01*
X32844584Y-15561336D01*
X32848035Y-15578685D01*
X32909306Y-15726605D01*
X32998257Y-15859730D01*
X33111470Y-15972943D01*
X33244595Y-16061894D01*
X33392515Y-16123165D01*
X33549546Y-16154400D01*
X33709654Y-16154400D01*
X33866685Y-16123165D01*
X34014605Y-16061894D01*
X34147730Y-15972943D01*
X34260943Y-15859730D01*
X34305550Y-15792971D01*
X34290000Y-15871146D01*
X34290000Y-16031254D01*
X34321235Y-16188285D01*
X34382506Y-16336205D01*
X34382763Y-16336589D01*
X34319057Y-16400295D01*
X34230106Y-16533420D01*
X34168835Y-16681340D01*
X34137600Y-16838371D01*
X34137600Y-16998479D01*
X34168835Y-17155510D01*
X34230106Y-17303430D01*
X34319057Y-17436555D01*
X34432270Y-17549768D01*
X34565395Y-17638719D01*
X34713315Y-17699990D01*
X34870346Y-17731225D01*
X35030454Y-17731225D01*
X35187485Y-17699990D01*
X35335405Y-17638719D01*
X35468530Y-17549768D01*
X35581743Y-17436555D01*
X35670694Y-17303430D01*
X35695830Y-17242746D01*
X36017200Y-17242746D01*
X36017200Y-17402854D01*
X36048435Y-17559885D01*
X36109706Y-17707805D01*
X36198657Y-17840930D01*
X36311870Y-17954143D01*
X36444995Y-18043094D01*
X36592915Y-18104365D01*
X36749946Y-18135600D01*
X36910054Y-18135600D01*
X37067085Y-18104365D01*
X37215005Y-18043094D01*
X37348130Y-17954143D01*
X37461343Y-17840930D01*
X37550294Y-17707805D01*
X37611565Y-17559885D01*
X37642800Y-17402854D01*
X37642800Y-17242746D01*
X37611565Y-17085715D01*
X37550294Y-16937795D01*
X37461343Y-16804670D01*
X37348130Y-16691457D01*
X37215005Y-16602506D01*
X37067085Y-16541235D01*
X36910054Y-16510000D01*
X36749946Y-16510000D01*
X36592915Y-16541235D01*
X36444995Y-16602506D01*
X36311870Y-16691457D01*
X36198657Y-16804670D01*
X36109706Y-16937795D01*
X36048435Y-17085715D01*
X36017200Y-17242746D01*
X35695830Y-17242746D01*
X35731965Y-17155510D01*
X35763200Y-16998479D01*
X35763200Y-16838371D01*
X35731965Y-16681340D01*
X35670694Y-16533420D01*
X35670437Y-16533036D01*
X35734143Y-16469330D01*
X35823094Y-16336205D01*
X35884365Y-16188285D01*
X35915600Y-16031254D01*
X35915600Y-15871146D01*
X35884365Y-15714115D01*
X35823094Y-15566195D01*
X35734143Y-15433070D01*
X35620930Y-15319857D01*
X35487805Y-15230906D01*
X35339885Y-15169635D01*
X35182854Y-15138400D01*
X35022746Y-15138400D01*
X35010984Y-15140740D01*
X35071565Y-14994485D01*
X35102800Y-14837454D01*
X35102800Y-14677346D01*
X35071565Y-14520315D01*
X35010294Y-14372395D01*
X34921343Y-14239270D01*
X34808130Y-14126057D01*
X34675005Y-14037106D01*
X34527085Y-13975835D01*
X34370054Y-13944600D01*
X34209946Y-13944600D01*
X34052915Y-13975835D01*
X33904995Y-14037106D01*
X33771870Y-14126057D01*
X33658657Y-14239270D01*
X33629600Y-14282757D01*
X33600543Y-14239270D01*
X33487330Y-14126057D01*
X33354205Y-14037106D01*
X33206285Y-13975835D01*
X33049254Y-13944600D01*
X32889146Y-13944600D01*
X32732115Y-13975835D01*
X32584195Y-14037106D01*
X32451070Y-14126057D01*
X32337857Y-14239270D01*
X32248906Y-14372395D01*
X32187635Y-14520315D01*
X32156400Y-14677346D01*
X31436633Y-14677346D01*
X31411324Y-14550111D01*
X31350053Y-14402191D01*
X31261102Y-14269066D01*
X31147889Y-14155853D01*
X31014764Y-14066902D01*
X30866844Y-14005631D01*
X30709813Y-13974396D01*
X30549705Y-13974396D01*
X30392674Y-14005631D01*
X30244754Y-14066902D01*
X30111629Y-14155853D01*
X29998416Y-14269066D01*
X29909465Y-14402191D01*
X29848194Y-14550111D01*
X29816959Y-14707142D01*
X29103948Y-14707142D01*
X29064270Y-14611354D01*
X28975319Y-14478229D01*
X28862106Y-14365016D01*
X28728981Y-14276065D01*
X28581061Y-14214794D01*
X28424030Y-14183559D01*
X28263922Y-14183559D01*
X28106891Y-14214794D01*
X27958971Y-14276065D01*
X27825846Y-14365016D01*
X27712633Y-14478229D01*
X27623682Y-14611354D01*
X27562411Y-14759274D01*
X27531176Y-14916305D01*
X25349174Y-14916305D01*
X25396343Y-14869136D01*
X25485294Y-14736011D01*
X25546565Y-14588091D01*
X25577800Y-14431060D01*
X25577800Y-14270952D01*
X25546565Y-14113921D01*
X25485294Y-13966001D01*
X25396343Y-13832876D01*
X25283130Y-13719663D01*
X25150005Y-13630712D01*
X25002085Y-13569441D01*
X24845054Y-13538206D01*
X24684946Y-13538206D01*
X24527915Y-13569441D01*
X24379995Y-13630712D01*
X24246870Y-13719663D01*
X24133657Y-13832876D01*
X24044706Y-13966001D01*
X23983435Y-14113921D01*
X23952200Y-14270952D01*
X2538495Y-14270952D01*
X2548485Y-14268965D01*
X2696405Y-14207694D01*
X2829530Y-14118743D01*
X2942743Y-14005530D01*
X3031694Y-13872405D01*
X3092965Y-13724485D01*
X3124200Y-13567454D01*
X3124200Y-13407346D01*
X3092965Y-13250315D01*
X3031694Y-13102395D01*
X2942743Y-12969270D01*
X2847419Y-12873946D01*
X18313400Y-12873946D01*
X18313400Y-13034054D01*
X18344635Y-13191085D01*
X18405906Y-13339005D01*
X18494857Y-13472130D01*
X18608070Y-13585343D01*
X18741195Y-13674294D01*
X18889115Y-13735565D01*
X19046146Y-13766800D01*
X19206254Y-13766800D01*
X19363285Y-13735565D01*
X19511205Y-13674294D01*
X19644330Y-13585343D01*
X19757543Y-13472130D01*
X19846494Y-13339005D01*
X19907765Y-13191085D01*
X19939000Y-13034054D01*
X19939000Y-12873946D01*
X19907765Y-12716915D01*
X19846494Y-12568995D01*
X19795680Y-12492946D01*
X23952200Y-12492946D01*
X23952200Y-12653054D01*
X23983435Y-12810085D01*
X24044706Y-12958005D01*
X24133657Y-13091130D01*
X24246870Y-13204343D01*
X24379995Y-13293294D01*
X24527915Y-13354565D01*
X24684946Y-13385800D01*
X24845054Y-13385800D01*
X25002085Y-13354565D01*
X25150005Y-13293294D01*
X25207397Y-13254946D01*
X28321004Y-13254946D01*
X28321004Y-13415054D01*
X28352239Y-13572085D01*
X28413510Y-13720005D01*
X28502461Y-13853130D01*
X28615674Y-13966343D01*
X28748799Y-14055294D01*
X28896719Y-14116565D01*
X29053750Y-14147800D01*
X29213858Y-14147800D01*
X29370889Y-14116565D01*
X29518809Y-14055294D01*
X29651934Y-13966343D01*
X29765147Y-13853130D01*
X29825405Y-13762946D01*
X35636200Y-13762946D01*
X35636200Y-13923054D01*
X35667435Y-14080085D01*
X35728706Y-14228005D01*
X35817657Y-14361130D01*
X35930870Y-14474343D01*
X36063995Y-14563294D01*
X36211915Y-14624565D01*
X36368946Y-14655800D01*
X36529054Y-14655800D01*
X36686085Y-14624565D01*
X36834005Y-14563294D01*
X36967130Y-14474343D01*
X37080343Y-14361130D01*
X37169294Y-14228005D01*
X37230565Y-14080085D01*
X37261800Y-13923054D01*
X37261800Y-13762946D01*
X37230565Y-13605915D01*
X37169294Y-13457995D01*
X37080343Y-13324870D01*
X36967130Y-13211657D01*
X36834005Y-13122706D01*
X36686085Y-13061435D01*
X36529054Y-13030200D01*
X36368946Y-13030200D01*
X36211915Y-13061435D01*
X36063995Y-13122706D01*
X35930870Y-13211657D01*
X35817657Y-13324870D01*
X35728706Y-13457995D01*
X35667435Y-13605915D01*
X35636200Y-13762946D01*
X29825405Y-13762946D01*
X29854098Y-13720005D01*
X29915369Y-13572085D01*
X29946604Y-13415054D01*
X29946604Y-13254946D01*
X29915369Y-13097915D01*
X29854098Y-12949995D01*
X29765147Y-12816870D01*
X29651934Y-12703657D01*
X29518809Y-12614706D01*
X29370889Y-12553435D01*
X29213858Y-12522200D01*
X29053750Y-12522200D01*
X28896719Y-12553435D01*
X28748799Y-12614706D01*
X28615674Y-12703657D01*
X28502461Y-12816870D01*
X28413510Y-12949995D01*
X28352239Y-13097915D01*
X28321004Y-13254946D01*
X25207397Y-13254946D01*
X25283130Y-13204343D01*
X25396343Y-13091130D01*
X25485294Y-12958005D01*
X25546565Y-12810085D01*
X25577800Y-12653054D01*
X25577800Y-12492946D01*
X25546565Y-12335915D01*
X25485294Y-12187995D01*
X25396343Y-12054870D01*
X25283130Y-11941657D01*
X25150005Y-11852706D01*
X25002085Y-11791435D01*
X24845054Y-11760200D01*
X24684946Y-11760200D01*
X24527915Y-11791435D01*
X24379995Y-11852706D01*
X24246870Y-11941657D01*
X24133657Y-12054870D01*
X24044706Y-12187995D01*
X23983435Y-12335915D01*
X23952200Y-12492946D01*
X19795680Y-12492946D01*
X19757543Y-12435870D01*
X19644330Y-12322657D01*
X19511205Y-12233706D01*
X19363285Y-12172435D01*
X19206254Y-12141200D01*
X19046146Y-12141200D01*
X18889115Y-12172435D01*
X18741195Y-12233706D01*
X18608070Y-12322657D01*
X18494857Y-12435870D01*
X18405906Y-12568995D01*
X18344635Y-12716915D01*
X18313400Y-12873946D01*
X2847419Y-12873946D01*
X2829530Y-12856057D01*
X2696405Y-12767106D01*
X2548485Y-12705835D01*
X2391454Y-12674600D01*
X2231346Y-12674600D01*
X2074315Y-12705835D01*
X1926395Y-12767106D01*
X1793270Y-12856057D01*
X1680057Y-12969270D01*
X1591106Y-13102395D01*
X1529835Y-13250315D01*
X1498600Y-13407346D01*
X583000Y-13407346D01*
X583000Y-11400746D01*
X5943600Y-11400746D01*
X5943600Y-11560854D01*
X5974835Y-11717885D01*
X6036106Y-11865805D01*
X6125057Y-11998930D01*
X6238270Y-12112143D01*
X6371395Y-12201094D01*
X6519315Y-12262365D01*
X6676346Y-12293600D01*
X6836454Y-12293600D01*
X6993485Y-12262365D01*
X7141405Y-12201094D01*
X7258424Y-12122905D01*
X7375442Y-12201094D01*
X7523362Y-12262365D01*
X7680393Y-12293600D01*
X7840501Y-12293600D01*
X7997532Y-12262365D01*
X8145452Y-12201094D01*
X8278577Y-12112143D01*
X8391790Y-11998930D01*
X8480741Y-11865805D01*
X8542012Y-11717885D01*
X8573247Y-11560854D01*
X8573247Y-11400746D01*
X8547837Y-11272999D01*
X8844600Y-11272999D01*
X8844600Y-11433107D01*
X8875835Y-11590138D01*
X8937106Y-11738058D01*
X9026057Y-11871183D01*
X9139270Y-11984396D01*
X9272395Y-12073347D01*
X9420315Y-12134618D01*
X9577346Y-12165853D01*
X9737454Y-12165853D01*
X9894485Y-12134618D01*
X10042405Y-12073347D01*
X10175530Y-11984396D01*
X10288743Y-11871183D01*
X10377694Y-11738058D01*
X10438965Y-11590138D01*
X10470200Y-11433107D01*
X10470200Y-11431018D01*
X19506516Y-11431018D01*
X19506516Y-11591126D01*
X19537751Y-11748157D01*
X19599022Y-11896077D01*
X19687973Y-12029202D01*
X19801186Y-12142415D01*
X19934311Y-12231366D01*
X20082231Y-12292637D01*
X20239262Y-12323872D01*
X20399370Y-12323872D01*
X20556401Y-12292637D01*
X20704321Y-12231366D01*
X20837446Y-12142415D01*
X20950659Y-12029202D01*
X21039610Y-11896077D01*
X21100881Y-11748157D01*
X21132116Y-11591126D01*
X21132116Y-11431018D01*
X21100881Y-11273987D01*
X21039610Y-11126067D01*
X20950659Y-10992942D01*
X20837446Y-10879729D01*
X20780900Y-10841946D01*
X33096200Y-10841946D01*
X33096200Y-11002054D01*
X33127435Y-11159085D01*
X33188706Y-11307005D01*
X33277657Y-11440130D01*
X33390870Y-11553343D01*
X33523995Y-11642294D01*
X33671915Y-11703565D01*
X33828946Y-11734800D01*
X33989054Y-11734800D01*
X34146085Y-11703565D01*
X34294005Y-11642294D01*
X34427130Y-11553343D01*
X34540343Y-11440130D01*
X34629294Y-11307005D01*
X34632549Y-11299146D01*
X41478200Y-11299146D01*
X41478200Y-11459254D01*
X41509435Y-11616285D01*
X41570706Y-11764205D01*
X41659657Y-11897330D01*
X41772870Y-12010543D01*
X41905995Y-12099494D01*
X42053915Y-12160765D01*
X42210946Y-12192000D01*
X42371054Y-12192000D01*
X42528085Y-12160765D01*
X42676005Y-12099494D01*
X42809130Y-12010543D01*
X42922343Y-11897330D01*
X43011294Y-11764205D01*
X43072565Y-11616285D01*
X43103800Y-11459254D01*
X43103800Y-11299146D01*
X43072565Y-11142115D01*
X43011294Y-10994195D01*
X42922343Y-10861070D01*
X42809130Y-10747857D01*
X42676005Y-10658906D01*
X42528085Y-10597635D01*
X42371054Y-10566400D01*
X42210946Y-10566400D01*
X42053915Y-10597635D01*
X41905995Y-10658906D01*
X41772870Y-10747857D01*
X41659657Y-10861070D01*
X41570706Y-10994195D01*
X41509435Y-11142115D01*
X41478200Y-11299146D01*
X34632549Y-11299146D01*
X34690565Y-11159085D01*
X34721800Y-11002054D01*
X34721800Y-10841946D01*
X34690565Y-10684915D01*
X34629294Y-10536995D01*
X34540343Y-10403870D01*
X34427130Y-10290657D01*
X34294005Y-10201706D01*
X34146085Y-10140435D01*
X33989054Y-10109200D01*
X33828946Y-10109200D01*
X33671915Y-10140435D01*
X33523995Y-10201706D01*
X33390870Y-10290657D01*
X33277657Y-10403870D01*
X33188706Y-10536995D01*
X33127435Y-10684915D01*
X33096200Y-10841946D01*
X20780900Y-10841946D01*
X20704321Y-10790778D01*
X20556401Y-10729507D01*
X20399370Y-10698272D01*
X20239262Y-10698272D01*
X20082231Y-10729507D01*
X19934311Y-10790778D01*
X19801186Y-10879729D01*
X19687973Y-10992942D01*
X19599022Y-11126067D01*
X19537751Y-11273987D01*
X19506516Y-11431018D01*
X10470200Y-11431018D01*
X10470200Y-11272999D01*
X10438965Y-11115968D01*
X10377694Y-10968048D01*
X10288743Y-10834923D01*
X10175530Y-10721710D01*
X10042405Y-10632759D01*
X9894485Y-10571488D01*
X9737454Y-10540253D01*
X9577346Y-10540253D01*
X9420315Y-10571488D01*
X9272395Y-10632759D01*
X9139270Y-10721710D01*
X9026057Y-10834923D01*
X8937106Y-10968048D01*
X8875835Y-11115968D01*
X8844600Y-11272999D01*
X8547837Y-11272999D01*
X8542012Y-11243715D01*
X8480741Y-11095795D01*
X8391790Y-10962670D01*
X8278577Y-10849457D01*
X8145452Y-10760506D01*
X7997532Y-10699235D01*
X7840501Y-10668000D01*
X7680393Y-10668000D01*
X7523362Y-10699235D01*
X7375442Y-10760506D01*
X7258424Y-10838695D01*
X7141405Y-10760506D01*
X6993485Y-10699235D01*
X6836454Y-10668000D01*
X6676346Y-10668000D01*
X6519315Y-10699235D01*
X6371395Y-10760506D01*
X6238270Y-10849457D01*
X6125057Y-10962670D01*
X6036106Y-11095795D01*
X5974835Y-11243715D01*
X5943600Y-11400746D01*
X583000Y-11400746D01*
X583000Y-8756249D01*
X1817000Y-8756249D01*
X1817000Y-9023751D01*
X1869187Y-9286114D01*
X1971556Y-9533254D01*
X2120172Y-9755675D01*
X2309325Y-9944828D01*
X2531746Y-10093444D01*
X2778886Y-10195813D01*
X3041249Y-10248000D01*
X3308751Y-10248000D01*
X3571114Y-10195813D01*
X3818254Y-10093444D01*
X4040675Y-9944828D01*
X4229828Y-9755675D01*
X4354543Y-9569025D01*
X4354543Y-9740000D01*
X4364351Y-9839585D01*
X4393399Y-9935343D01*
X4440571Y-10023595D01*
X4504052Y-10100948D01*
X4581405Y-10164429D01*
X4669657Y-10211601D01*
X4765415Y-10240649D01*
X4865000Y-10250457D01*
X6565000Y-10250457D01*
X6664585Y-10240649D01*
X6760343Y-10211601D01*
X6848595Y-10164429D01*
X6925948Y-10100948D01*
X6989429Y-10023595D01*
X7027191Y-9952946D01*
X9906000Y-9952946D01*
X9906000Y-10113054D01*
X9937235Y-10270085D01*
X9998506Y-10418005D01*
X10087457Y-10551130D01*
X10200670Y-10664343D01*
X10333795Y-10753294D01*
X10481715Y-10814565D01*
X10638746Y-10845800D01*
X10798854Y-10845800D01*
X10955885Y-10814565D01*
X11103805Y-10753294D01*
X11236930Y-10664343D01*
X11350143Y-10551130D01*
X11439094Y-10418005D01*
X11500365Y-10270085D01*
X11531600Y-10113054D01*
X11531600Y-9952946D01*
X11500365Y-9795915D01*
X11439094Y-9647995D01*
X11350143Y-9514870D01*
X11236930Y-9401657D01*
X11103805Y-9312706D01*
X10955885Y-9251435D01*
X10798854Y-9220200D01*
X10638746Y-9220200D01*
X10481715Y-9251435D01*
X10333795Y-9312706D01*
X10200670Y-9401657D01*
X10087457Y-9514870D01*
X9998506Y-9647995D01*
X9937235Y-9795915D01*
X9906000Y-9952946D01*
X7027191Y-9952946D01*
X7036601Y-9935343D01*
X7065649Y-9839585D01*
X7075457Y-9740000D01*
X7075457Y-8428946D01*
X13004800Y-8428946D01*
X13004800Y-8589054D01*
X13036035Y-8746085D01*
X13097306Y-8894005D01*
X13186257Y-9027130D01*
X13299470Y-9140343D01*
X13432595Y-9229294D01*
X13580515Y-9290565D01*
X13737546Y-9321800D01*
X13897654Y-9321800D01*
X14054685Y-9290565D01*
X14202605Y-9229294D01*
X14335730Y-9140343D01*
X14448943Y-9027130D01*
X14537894Y-8894005D01*
X14572712Y-8809946D01*
X19507200Y-8809946D01*
X19507200Y-8970054D01*
X19538435Y-9127085D01*
X19599706Y-9275005D01*
X19688657Y-9408130D01*
X19801870Y-9521343D01*
X19934995Y-9610294D01*
X20082915Y-9671565D01*
X20239946Y-9702800D01*
X20400054Y-9702800D01*
X20419429Y-9698946D01*
X25501600Y-9698946D01*
X25501600Y-9859054D01*
X25532835Y-10016085D01*
X25594106Y-10164005D01*
X25683057Y-10297130D01*
X25796270Y-10410343D01*
X25929395Y-10499294D01*
X26077315Y-10560565D01*
X26234346Y-10591800D01*
X26394454Y-10591800D01*
X26551485Y-10560565D01*
X26699405Y-10499294D01*
X26832530Y-10410343D01*
X26945743Y-10297130D01*
X27034694Y-10164005D01*
X27095965Y-10016085D01*
X27127200Y-9859054D01*
X27127200Y-9698946D01*
X27095965Y-9541915D01*
X27034694Y-9393995D01*
X27017824Y-9368747D01*
X27381200Y-9368747D01*
X27381200Y-9528855D01*
X27412435Y-9685886D01*
X27473706Y-9833806D01*
X27562657Y-9966931D01*
X27675870Y-10080144D01*
X27808995Y-10169095D01*
X27956915Y-10230366D01*
X28113946Y-10261601D01*
X28274054Y-10261601D01*
X28431085Y-10230366D01*
X28579005Y-10169095D01*
X28712130Y-10080144D01*
X28825343Y-9966931D01*
X28914294Y-9833806D01*
X28975565Y-9685886D01*
X28998228Y-9571946D01*
X29819600Y-9571946D01*
X29819600Y-9732054D01*
X29850835Y-9889085D01*
X29912106Y-10037005D01*
X30001057Y-10170130D01*
X30114270Y-10283343D01*
X30247395Y-10372294D01*
X30395315Y-10433565D01*
X30552346Y-10464800D01*
X30712454Y-10464800D01*
X30869485Y-10433565D01*
X31017405Y-10372294D01*
X31150530Y-10283343D01*
X31263743Y-10170130D01*
X31352694Y-10037005D01*
X31413965Y-9889085D01*
X31445200Y-9732054D01*
X31445200Y-9571946D01*
X31413965Y-9414915D01*
X31352694Y-9266995D01*
X31263743Y-9133870D01*
X31150530Y-9020657D01*
X31017405Y-8931706D01*
X30869485Y-8870435D01*
X30712454Y-8839200D01*
X30552346Y-8839200D01*
X30395315Y-8870435D01*
X30247395Y-8931706D01*
X30114270Y-9020657D01*
X30001057Y-9133870D01*
X29912106Y-9266995D01*
X29850835Y-9414915D01*
X29819600Y-9571946D01*
X28998228Y-9571946D01*
X29006800Y-9528855D01*
X29006800Y-9368747D01*
X28975565Y-9211716D01*
X28914294Y-9063796D01*
X28825343Y-8930671D01*
X28712130Y-8817458D01*
X28579005Y-8728507D01*
X28431085Y-8667236D01*
X28274054Y-8636001D01*
X28113946Y-8636001D01*
X27956915Y-8667236D01*
X27808995Y-8728507D01*
X27675870Y-8817458D01*
X27562657Y-8930671D01*
X27473706Y-9063796D01*
X27412435Y-9211716D01*
X27381200Y-9368747D01*
X27017824Y-9368747D01*
X26945743Y-9260870D01*
X26832530Y-9147657D01*
X26699405Y-9058706D01*
X26551485Y-8997435D01*
X26394454Y-8966200D01*
X26234346Y-8966200D01*
X26077315Y-8997435D01*
X25929395Y-9058706D01*
X25796270Y-9147657D01*
X25683057Y-9260870D01*
X25594106Y-9393995D01*
X25532835Y-9541915D01*
X25501600Y-9698946D01*
X20419429Y-9698946D01*
X20557085Y-9671565D01*
X20705005Y-9610294D01*
X20838130Y-9521343D01*
X20951343Y-9408130D01*
X21040294Y-9275005D01*
X21101565Y-9127085D01*
X21132800Y-8970054D01*
X21132800Y-8809946D01*
X21101565Y-8652915D01*
X21071920Y-8581346D01*
X31572200Y-8581346D01*
X31572200Y-8741454D01*
X31603435Y-8898485D01*
X31664706Y-9046405D01*
X31753657Y-9179530D01*
X31866870Y-9292743D01*
X31999995Y-9381694D01*
X32147915Y-9442965D01*
X32304946Y-9474200D01*
X32465054Y-9474200D01*
X32622085Y-9442965D01*
X32770005Y-9381694D01*
X32903130Y-9292743D01*
X33016343Y-9179530D01*
X33105294Y-9046405D01*
X33166565Y-8898485D01*
X33194857Y-8756249D01*
X46267000Y-8756249D01*
X46267000Y-9023751D01*
X46319187Y-9286114D01*
X46421556Y-9533254D01*
X46570172Y-9755675D01*
X46759325Y-9944828D01*
X46981746Y-10093444D01*
X47228886Y-10195813D01*
X47491249Y-10248000D01*
X47758751Y-10248000D01*
X48021114Y-10195813D01*
X48268254Y-10093444D01*
X48490675Y-9944828D01*
X48678593Y-9756910D01*
X48689188Y-9864482D01*
X48725498Y-9984180D01*
X48784463Y-10094494D01*
X48863815Y-10191185D01*
X48960506Y-10270537D01*
X49070820Y-10329502D01*
X49190518Y-10365812D01*
X49315000Y-10378072D01*
X49879250Y-10375000D01*
X50038000Y-10216250D01*
X50038000Y-9017000D01*
X50292000Y-9017000D01*
X50292000Y-10216250D01*
X50450750Y-10375000D01*
X51015000Y-10378072D01*
X51139482Y-10365812D01*
X51259180Y-10329502D01*
X51369494Y-10270537D01*
X51466185Y-10191185D01*
X51545537Y-10094494D01*
X51604502Y-9984180D01*
X51640812Y-9864482D01*
X51653072Y-9740000D01*
X51650000Y-9175750D01*
X51491250Y-9017000D01*
X50292000Y-9017000D01*
X50038000Y-9017000D01*
X50018000Y-9017000D01*
X50018000Y-8763000D01*
X50038000Y-8763000D01*
X50038000Y-7563750D01*
X50292000Y-7563750D01*
X50292000Y-8763000D01*
X51491250Y-8763000D01*
X51650000Y-8604250D01*
X51653072Y-8040000D01*
X51640812Y-7915518D01*
X51604502Y-7795820D01*
X51545537Y-7685506D01*
X51466185Y-7588815D01*
X51369494Y-7509463D01*
X51259180Y-7450498D01*
X51139482Y-7414188D01*
X51015000Y-7401928D01*
X50450750Y-7405000D01*
X50292000Y-7563750D01*
X50038000Y-7563750D01*
X49879250Y-7405000D01*
X49315000Y-7401928D01*
X49190518Y-7414188D01*
X49070820Y-7450498D01*
X48960506Y-7509463D01*
X48863815Y-7588815D01*
X48784463Y-7685506D01*
X48725498Y-7795820D01*
X48689188Y-7915518D01*
X48678593Y-8023090D01*
X48490675Y-7835172D01*
X48268254Y-7686556D01*
X48021114Y-7584187D01*
X47758751Y-7532000D01*
X47491249Y-7532000D01*
X47228886Y-7584187D01*
X46981746Y-7686556D01*
X46759325Y-7835172D01*
X46570172Y-8024325D01*
X46421556Y-8246746D01*
X46319187Y-8493886D01*
X46267000Y-8756249D01*
X33194857Y-8756249D01*
X33197800Y-8741454D01*
X33197800Y-8581346D01*
X33166565Y-8424315D01*
X33105294Y-8276395D01*
X33016343Y-8143270D01*
X32903130Y-8030057D01*
X32770005Y-7941106D01*
X32622085Y-7879835D01*
X32465054Y-7848600D01*
X32304946Y-7848600D01*
X32147915Y-7879835D01*
X31999995Y-7941106D01*
X31866870Y-8030057D01*
X31753657Y-8143270D01*
X31664706Y-8276395D01*
X31603435Y-8424315D01*
X31572200Y-8581346D01*
X21071920Y-8581346D01*
X21040294Y-8504995D01*
X20951343Y-8371870D01*
X20838130Y-8258657D01*
X20705005Y-8169706D01*
X20557085Y-8108435D01*
X20400054Y-8077200D01*
X20239946Y-8077200D01*
X20082915Y-8108435D01*
X19934995Y-8169706D01*
X19801870Y-8258657D01*
X19688657Y-8371870D01*
X19599706Y-8504995D01*
X19538435Y-8652915D01*
X19507200Y-8809946D01*
X14572712Y-8809946D01*
X14599165Y-8746085D01*
X14630400Y-8589054D01*
X14630400Y-8428946D01*
X14599165Y-8271915D01*
X14537894Y-8123995D01*
X14448943Y-7990870D01*
X14335730Y-7877657D01*
X14202605Y-7788706D01*
X14054685Y-7727435D01*
X13897654Y-7696200D01*
X13737546Y-7696200D01*
X13580515Y-7727435D01*
X13432595Y-7788706D01*
X13299470Y-7877657D01*
X13186257Y-7990870D01*
X13097306Y-8123995D01*
X13036035Y-8271915D01*
X13004800Y-8428946D01*
X7075457Y-8428946D01*
X7075457Y-8040000D01*
X7065649Y-7940415D01*
X7036601Y-7844657D01*
X6989429Y-7756405D01*
X6925948Y-7679052D01*
X6848595Y-7615571D01*
X6760343Y-7568399D01*
X6664585Y-7539351D01*
X6565000Y-7529543D01*
X4865000Y-7529543D01*
X4765415Y-7539351D01*
X4669657Y-7568399D01*
X4581405Y-7615571D01*
X4504052Y-7679052D01*
X4440571Y-7756405D01*
X4393399Y-7844657D01*
X4364351Y-7940415D01*
X4354543Y-8040000D01*
X4354543Y-8210975D01*
X4229828Y-8024325D01*
X4040675Y-7835172D01*
X3818254Y-7686556D01*
X3571114Y-7584187D01*
X3308751Y-7532000D01*
X3041249Y-7532000D01*
X2778886Y-7584187D01*
X2531746Y-7686556D01*
X2309325Y-7835172D01*
X2120172Y-8024325D01*
X1971556Y-8246746D01*
X1869187Y-8493886D01*
X1817000Y-8756249D01*
X583000Y-8756249D01*
X583000Y-7108146D01*
X16891000Y-7108146D01*
X16891000Y-7268254D01*
X16922235Y-7425285D01*
X16983506Y-7573205D01*
X17072457Y-7706330D01*
X17185670Y-7819543D01*
X17318795Y-7908494D01*
X17466715Y-7969765D01*
X17623746Y-8001000D01*
X17783854Y-8001000D01*
X17940885Y-7969765D01*
X18088805Y-7908494D01*
X18221930Y-7819543D01*
X18335143Y-7706330D01*
X18424094Y-7573205D01*
X18485365Y-7425285D01*
X18516600Y-7268254D01*
X18516600Y-7108146D01*
X18492702Y-6987997D01*
X19861608Y-6987997D01*
X19872715Y-7181701D01*
X20043566Y-7252982D01*
X20225041Y-7289560D01*
X20410164Y-7290033D01*
X20591822Y-7254380D01*
X20763035Y-7183973D01*
X20767285Y-7181701D01*
X20778392Y-6987997D01*
X20320000Y-6529605D01*
X19861608Y-6987997D01*
X18492702Y-6987997D01*
X18485365Y-6951115D01*
X18424094Y-6803195D01*
X18335143Y-6670070D01*
X18221930Y-6556857D01*
X18088805Y-6467906D01*
X18021831Y-6440164D01*
X19379967Y-6440164D01*
X19415620Y-6621822D01*
X19486027Y-6793035D01*
X19488299Y-6797285D01*
X19682003Y-6808392D01*
X20140395Y-6350000D01*
X20499605Y-6350000D01*
X20957997Y-6808392D01*
X21151701Y-6797285D01*
X21222982Y-6626434D01*
X21259560Y-6444959D01*
X21260033Y-6259836D01*
X21247062Y-6193746D01*
X27787600Y-6193746D01*
X27787600Y-6353854D01*
X27818835Y-6510885D01*
X27880106Y-6658805D01*
X27969057Y-6791930D01*
X28082270Y-6905143D01*
X28215395Y-6994094D01*
X28363315Y-7055365D01*
X28520346Y-7086600D01*
X28680454Y-7086600D01*
X28837485Y-7055365D01*
X28955584Y-7006446D01*
X30073700Y-7006446D01*
X30073700Y-7166554D01*
X30104935Y-7323585D01*
X30166206Y-7471505D01*
X30255157Y-7604630D01*
X30368370Y-7717843D01*
X30501495Y-7806794D01*
X30649415Y-7868065D01*
X30806446Y-7899300D01*
X30966554Y-7899300D01*
X31123585Y-7868065D01*
X31271505Y-7806794D01*
X31404630Y-7717843D01*
X31517843Y-7604630D01*
X31606794Y-7471505D01*
X31668065Y-7323585D01*
X31699300Y-7166554D01*
X31699300Y-7006446D01*
X31668065Y-6849415D01*
X31606794Y-6701495D01*
X31573034Y-6650968D01*
X36017200Y-6650968D01*
X36017200Y-6811076D01*
X36048435Y-6968107D01*
X36109706Y-7116027D01*
X36198657Y-7249152D01*
X36311870Y-7362365D01*
X36444995Y-7451316D01*
X36592915Y-7512587D01*
X36749946Y-7543822D01*
X36910054Y-7543822D01*
X37067085Y-7512587D01*
X37215005Y-7451316D01*
X37348130Y-7362365D01*
X37461343Y-7249152D01*
X37550294Y-7116027D01*
X37611565Y-6968107D01*
X37642800Y-6811076D01*
X37642800Y-6650968D01*
X37611565Y-6493937D01*
X37592432Y-6447746D01*
X41478200Y-6447746D01*
X41478200Y-6607854D01*
X41509435Y-6764885D01*
X41570706Y-6912805D01*
X41659657Y-7045930D01*
X41772870Y-7159143D01*
X41905995Y-7248094D01*
X42053915Y-7309365D01*
X42210946Y-7340600D01*
X42371054Y-7340600D01*
X42528085Y-7309365D01*
X42676005Y-7248094D01*
X42809130Y-7159143D01*
X42922343Y-7045930D01*
X43011294Y-6912805D01*
X43072565Y-6764885D01*
X43103800Y-6607854D01*
X43103800Y-6447746D01*
X43072565Y-6290715D01*
X43011294Y-6142795D01*
X42922343Y-6009670D01*
X42809130Y-5896457D01*
X42676005Y-5807506D01*
X42528085Y-5746235D01*
X42371054Y-5715000D01*
X42210946Y-5715000D01*
X42053915Y-5746235D01*
X41905995Y-5807506D01*
X41772870Y-5896457D01*
X41659657Y-6009670D01*
X41570706Y-6142795D01*
X41509435Y-6290715D01*
X41478200Y-6447746D01*
X37592432Y-6447746D01*
X37550294Y-6346017D01*
X37461343Y-6212892D01*
X37348130Y-6099679D01*
X37215005Y-6010728D01*
X37067085Y-5949457D01*
X36910054Y-5918222D01*
X36749946Y-5918222D01*
X36592915Y-5949457D01*
X36444995Y-6010728D01*
X36311870Y-6099679D01*
X36198657Y-6212892D01*
X36109706Y-6346017D01*
X36048435Y-6493937D01*
X36017200Y-6650968D01*
X31573034Y-6650968D01*
X31517843Y-6568370D01*
X31404630Y-6455157D01*
X31271505Y-6366206D01*
X31123585Y-6304935D01*
X30966554Y-6273700D01*
X30806446Y-6273700D01*
X30649415Y-6304935D01*
X30501495Y-6366206D01*
X30368370Y-6455157D01*
X30255157Y-6568370D01*
X30166206Y-6701495D01*
X30104935Y-6849415D01*
X30073700Y-7006446D01*
X28955584Y-7006446D01*
X28985405Y-6994094D01*
X29118530Y-6905143D01*
X29231743Y-6791930D01*
X29320694Y-6658805D01*
X29381965Y-6510885D01*
X29413200Y-6353854D01*
X29413200Y-6193746D01*
X29381965Y-6036715D01*
X29320694Y-5888795D01*
X29231743Y-5755670D01*
X29118530Y-5642457D01*
X28985405Y-5553506D01*
X28837485Y-5492235D01*
X28680454Y-5461000D01*
X28520346Y-5461000D01*
X28363315Y-5492235D01*
X28215395Y-5553506D01*
X28082270Y-5642457D01*
X27969057Y-5755670D01*
X27880106Y-5888795D01*
X27818835Y-6036715D01*
X27787600Y-6193746D01*
X21247062Y-6193746D01*
X21224380Y-6078178D01*
X21153973Y-5906965D01*
X21151701Y-5902715D01*
X20957997Y-5891608D01*
X20499605Y-6350000D01*
X20140395Y-6350000D01*
X19682003Y-5891608D01*
X19488299Y-5902715D01*
X19417018Y-6073566D01*
X19380440Y-6255041D01*
X19379967Y-6440164D01*
X18021831Y-6440164D01*
X17940885Y-6406635D01*
X17783854Y-6375400D01*
X17623746Y-6375400D01*
X17466715Y-6406635D01*
X17318795Y-6467906D01*
X17185670Y-6556857D01*
X17072457Y-6670070D01*
X16983506Y-6803195D01*
X16922235Y-6951115D01*
X16891000Y-7108146D01*
X583000Y-7108146D01*
X583000Y-5712003D01*
X19861608Y-5712003D01*
X20320000Y-6170395D01*
X20778392Y-5712003D01*
X20767285Y-5518299D01*
X20596434Y-5447018D01*
X20414959Y-5410440D01*
X20229836Y-5409967D01*
X20048178Y-5445620D01*
X19876965Y-5516027D01*
X19872715Y-5518299D01*
X19861608Y-5712003D01*
X583000Y-5712003D01*
X583000Y-583000D01*
X9451622Y-583000D01*
X9436900Y-631532D01*
G04 #@! TA.AperFunction,Conductor*
D17*
G36*
X9436900Y-631532D02*
G01*
X9420000Y-803123D01*
X9420000Y-2117876D01*
X9436900Y-2289467D01*
X9503688Y-2509636D01*
X9517735Y-2535917D01*
X9454947Y-2587446D01*
X9318985Y-2753115D01*
X9217957Y-2942126D01*
X9155743Y-3147215D01*
X9140000Y-3307054D01*
X9140000Y-4413945D01*
X9155743Y-4573784D01*
X9217956Y-4778873D01*
X9318984Y-4967885D01*
X9454946Y-5133554D01*
X9620615Y-5269516D01*
X9809626Y-5370544D01*
X10014715Y-5432757D01*
X10228000Y-5453764D01*
X10441284Y-5432757D01*
X10646373Y-5370544D01*
X10835385Y-5269516D01*
X11001054Y-5133554D01*
X11137016Y-4967885D01*
X11238044Y-4778874D01*
X11300257Y-4573785D01*
X11316000Y-4413946D01*
X11316000Y-3307054D01*
X11300257Y-3147215D01*
X11261329Y-3018888D01*
X11417897Y-2890397D01*
X11563855Y-2712546D01*
X11672312Y-2509637D01*
X11739100Y-2289468D01*
X11756000Y-2117877D01*
X11756000Y-803123D01*
X11739100Y-631532D01*
X11724378Y-583000D01*
X15961622Y-583000D01*
X15946900Y-631532D01*
X15930000Y-803123D01*
X15930000Y-2117876D01*
X15946900Y-2289467D01*
X16013688Y-2509636D01*
X16122145Y-2712545D01*
X16268103Y-2890397D01*
X16424671Y-3018889D01*
X16385743Y-3147215D01*
X16370000Y-3307054D01*
X16370000Y-4413945D01*
X16385743Y-4573784D01*
X16447956Y-4778873D01*
X16548984Y-4967885D01*
X16684946Y-5133554D01*
X16850615Y-5269516D01*
X17039626Y-5370544D01*
X17244715Y-5432757D01*
X17458000Y-5453764D01*
X17671284Y-5432757D01*
X17876373Y-5370544D01*
X17951953Y-5330146D01*
X33477200Y-5330146D01*
X33477200Y-5490254D01*
X33508435Y-5647285D01*
X33569706Y-5795205D01*
X33658657Y-5928330D01*
X33771870Y-6041543D01*
X33904995Y-6130494D01*
X34052915Y-6191765D01*
X34209946Y-6223000D01*
X34370054Y-6223000D01*
X34527085Y-6191765D01*
X34675005Y-6130494D01*
X34808130Y-6041543D01*
X34921343Y-5928330D01*
X35010294Y-5795205D01*
X35071565Y-5647285D01*
X35102800Y-5490254D01*
X35102800Y-5330146D01*
X35071565Y-5173115D01*
X35010294Y-5025195D01*
X34921343Y-4892070D01*
X34808130Y-4778857D01*
X34675005Y-4689906D01*
X34527085Y-4628635D01*
X34370054Y-4597400D01*
X34209946Y-4597400D01*
X34052915Y-4628635D01*
X33904995Y-4689906D01*
X33771870Y-4778857D01*
X33658657Y-4892070D01*
X33569706Y-5025195D01*
X33508435Y-5173115D01*
X33477200Y-5330146D01*
X17951953Y-5330146D01*
X18065385Y-5269516D01*
X18231054Y-5133554D01*
X18367016Y-4967885D01*
X18468044Y-4778874D01*
X18530257Y-4573785D01*
X18546000Y-4413946D01*
X18546000Y-3882346D01*
X26873200Y-3882346D01*
X26873200Y-4042454D01*
X26904435Y-4199485D01*
X26965706Y-4347405D01*
X27054657Y-4480530D01*
X27167870Y-4593743D01*
X27300995Y-4682694D01*
X27448915Y-4743965D01*
X27605946Y-4775200D01*
X27766054Y-4775200D01*
X27923085Y-4743965D01*
X28071005Y-4682694D01*
X28204130Y-4593743D01*
X28317343Y-4480530D01*
X28406294Y-4347405D01*
X28467565Y-4199485D01*
X28498800Y-4042454D01*
X28498800Y-3882346D01*
X28473539Y-3755346D01*
X36017200Y-3755346D01*
X36017200Y-3915454D01*
X36048435Y-4072485D01*
X36109706Y-4220405D01*
X36198657Y-4353530D01*
X36311870Y-4466743D01*
X36444995Y-4555694D01*
X36592915Y-4616965D01*
X36749946Y-4648200D01*
X36910054Y-4648200D01*
X37067085Y-4616965D01*
X37215005Y-4555694D01*
X37348130Y-4466743D01*
X37461343Y-4353530D01*
X37550294Y-4220405D01*
X37611565Y-4072485D01*
X37642800Y-3915454D01*
X37642800Y-3755346D01*
X37611565Y-3598315D01*
X37550294Y-3450395D01*
X37461343Y-3317270D01*
X37348130Y-3204057D01*
X37215005Y-3115106D01*
X37067085Y-3053835D01*
X36910054Y-3022600D01*
X36749946Y-3022600D01*
X36592915Y-3053835D01*
X36444995Y-3115106D01*
X36311870Y-3204057D01*
X36198657Y-3317270D01*
X36109706Y-3450395D01*
X36048435Y-3598315D01*
X36017200Y-3755346D01*
X28473539Y-3755346D01*
X28467565Y-3725315D01*
X28406294Y-3577395D01*
X28317343Y-3444270D01*
X28204130Y-3331057D01*
X28071005Y-3242106D01*
X27923085Y-3180835D01*
X27766054Y-3149600D01*
X27605946Y-3149600D01*
X27448915Y-3180835D01*
X27300995Y-3242106D01*
X27167870Y-3331057D01*
X27054657Y-3444270D01*
X26965706Y-3577395D01*
X26904435Y-3725315D01*
X26873200Y-3882346D01*
X18546000Y-3882346D01*
X18546000Y-3307054D01*
X18530257Y-3147215D01*
X18468044Y-2942126D01*
X18367016Y-2753115D01*
X18231054Y-2587446D01*
X18168265Y-2535916D01*
X18182312Y-2509637D01*
X18197385Y-2459946D01*
X20929600Y-2459946D01*
X20929600Y-2620054D01*
X20960835Y-2777085D01*
X21022106Y-2925005D01*
X21111057Y-3058130D01*
X21224270Y-3171343D01*
X21357395Y-3260294D01*
X21505315Y-3321565D01*
X21662346Y-3352800D01*
X21822454Y-3352800D01*
X21979485Y-3321565D01*
X22127405Y-3260294D01*
X22260530Y-3171343D01*
X22373743Y-3058130D01*
X22462694Y-2925005D01*
X22523965Y-2777085D01*
X22555200Y-2620054D01*
X22555200Y-2459946D01*
X22545096Y-2409146D01*
X29997400Y-2409146D01*
X29997400Y-2569254D01*
X30028635Y-2726285D01*
X30089906Y-2874205D01*
X30178857Y-3007330D01*
X30292070Y-3120543D01*
X30425195Y-3209494D01*
X30573115Y-3270765D01*
X30730146Y-3302000D01*
X30890254Y-3302000D01*
X31047285Y-3270765D01*
X31195205Y-3209494D01*
X31328330Y-3120543D01*
X31441543Y-3007330D01*
X31530494Y-2874205D01*
X31591765Y-2726285D01*
X31623000Y-2569254D01*
X31623000Y-2409146D01*
X31591765Y-2252115D01*
X31584624Y-2234875D01*
X34676553Y-2234875D01*
X34676553Y-2394983D01*
X34707788Y-2552014D01*
X34769059Y-2699934D01*
X34858010Y-2833059D01*
X34971223Y-2946272D01*
X35104348Y-3035223D01*
X35252268Y-3096494D01*
X35409299Y-3127729D01*
X35569407Y-3127729D01*
X35726438Y-3096494D01*
X35874358Y-3035223D01*
X36007483Y-2946272D01*
X36120696Y-2833059D01*
X36209647Y-2699934D01*
X36270918Y-2552014D01*
X36302153Y-2394983D01*
X36302153Y-2234875D01*
X36270918Y-2077844D01*
X36209647Y-1929924D01*
X36120696Y-1796799D01*
X36007483Y-1683586D01*
X35874358Y-1594635D01*
X35726438Y-1533364D01*
X35569407Y-1502129D01*
X35409299Y-1502129D01*
X35252268Y-1533364D01*
X35104348Y-1594635D01*
X34971223Y-1683586D01*
X34858010Y-1796799D01*
X34769059Y-1929924D01*
X34707788Y-2077844D01*
X34676553Y-2234875D01*
X31584624Y-2234875D01*
X31530494Y-2104195D01*
X31441543Y-1971070D01*
X31328330Y-1857857D01*
X31195205Y-1768906D01*
X31047285Y-1707635D01*
X30890254Y-1676400D01*
X30730146Y-1676400D01*
X30573115Y-1707635D01*
X30425195Y-1768906D01*
X30292070Y-1857857D01*
X30178857Y-1971070D01*
X30089906Y-2104195D01*
X30028635Y-2252115D01*
X29997400Y-2409146D01*
X22545096Y-2409146D01*
X22523965Y-2302915D01*
X22462694Y-2154995D01*
X22373743Y-2021870D01*
X22260530Y-1908657D01*
X22127405Y-1819706D01*
X21979485Y-1758435D01*
X21822454Y-1727200D01*
X21662346Y-1727200D01*
X21505315Y-1758435D01*
X21357395Y-1819706D01*
X21224270Y-1908657D01*
X21111057Y-2021870D01*
X21022106Y-2154995D01*
X20960835Y-2302915D01*
X20929600Y-2459946D01*
X18197385Y-2459946D01*
X18249100Y-2289468D01*
X18266000Y-2117877D01*
X18266000Y-803123D01*
X18249100Y-631532D01*
X18234378Y-583000D01*
X52757000Y-583000D01*
X52757001Y-48312000D01*
X41684028Y-48312000D01*
X41685343Y-48311601D01*
X41773595Y-48264429D01*
X41850948Y-48200948D01*
X41914429Y-48123595D01*
X41961601Y-48035343D01*
X41990649Y-47939585D01*
X42000457Y-47840000D01*
X42000457Y-46140000D01*
X41990649Y-46040415D01*
X41961601Y-45944657D01*
X41914429Y-45856405D01*
X41850948Y-45779052D01*
X41773595Y-45715571D01*
X41685343Y-45668399D01*
X41589585Y-45639351D01*
X41490000Y-45629543D01*
X41319025Y-45629543D01*
X41505675Y-45504828D01*
X41694828Y-45315675D01*
X41843444Y-45093254D01*
X41880022Y-45004946D01*
X45161200Y-45004946D01*
X45161200Y-45165054D01*
X45192435Y-45322085D01*
X45253706Y-45470005D01*
X45342657Y-45603130D01*
X45455870Y-45716343D01*
X45588995Y-45805294D01*
X45736915Y-45866565D01*
X45893946Y-45897800D01*
X46054054Y-45897800D01*
X46211085Y-45866565D01*
X46359005Y-45805294D01*
X46492130Y-45716343D01*
X46605343Y-45603130D01*
X46694294Y-45470005D01*
X46755565Y-45322085D01*
X46786800Y-45165054D01*
X46786800Y-45004946D01*
X46755565Y-44847915D01*
X46694294Y-44699995D01*
X46605343Y-44566870D01*
X46492130Y-44453657D01*
X46359005Y-44364706D01*
X46211085Y-44303435D01*
X46054054Y-44272200D01*
X45893946Y-44272200D01*
X45736915Y-44303435D01*
X45588995Y-44364706D01*
X45455870Y-44453657D01*
X45342657Y-44566870D01*
X45253706Y-44699995D01*
X45192435Y-44847915D01*
X45161200Y-45004946D01*
X41880022Y-45004946D01*
X41945813Y-44846114D01*
X41998000Y-44583751D01*
X41998000Y-44316249D01*
X41945813Y-44053886D01*
X41843444Y-43806746D01*
X41694828Y-43584325D01*
X41505675Y-43395172D01*
X41283254Y-43246556D01*
X41122574Y-43180000D01*
X41283254Y-43113444D01*
X41505675Y-42964828D01*
X41694828Y-42775675D01*
X41843444Y-42553254D01*
X41945813Y-42306114D01*
X41998000Y-42043751D01*
X41998000Y-41776249D01*
X41945813Y-41513886D01*
X41843444Y-41266746D01*
X41694828Y-41044325D01*
X41505675Y-40855172D01*
X41283254Y-40706556D01*
X41122574Y-40640000D01*
X41283254Y-40573444D01*
X41505675Y-40424828D01*
X41694828Y-40235675D01*
X41843444Y-40013254D01*
X41945813Y-39766114D01*
X41998000Y-39503751D01*
X41998000Y-39236249D01*
X41945813Y-38973886D01*
X41843444Y-38726746D01*
X41694828Y-38504325D01*
X41505675Y-38315172D01*
X41283254Y-38166556D01*
X41122574Y-38100000D01*
X41283254Y-38033444D01*
X41505675Y-37884828D01*
X41694828Y-37695675D01*
X41843444Y-37473254D01*
X41945813Y-37226114D01*
X41998000Y-36963751D01*
X41998000Y-36696249D01*
X41945813Y-36433886D01*
X41843444Y-36186746D01*
X41694828Y-35964325D01*
X41505675Y-35775172D01*
X41283254Y-35626556D01*
X41122574Y-35560000D01*
X41283254Y-35493444D01*
X41505675Y-35344828D01*
X41694828Y-35155675D01*
X41843444Y-34933254D01*
X41945813Y-34686114D01*
X41998000Y-34423751D01*
X41998000Y-34156249D01*
X41945813Y-33893886D01*
X41843444Y-33646746D01*
X41694828Y-33424325D01*
X41505675Y-33235172D01*
X41283254Y-33086556D01*
X41036114Y-32984187D01*
X40773751Y-32932000D01*
X40506249Y-32932000D01*
X40243886Y-32984187D01*
X39996746Y-33086556D01*
X39774325Y-33235172D01*
X39585172Y-33424325D01*
X39436556Y-33646746D01*
X39334187Y-33893886D01*
X39318000Y-33975264D01*
X39318000Y-32413633D01*
X39320820Y-32385000D01*
X39309564Y-32270712D01*
X39276227Y-32160816D01*
X39222092Y-32059536D01*
X39149237Y-31970763D01*
X39060464Y-31897908D01*
X38959184Y-31843773D01*
X38849288Y-31810436D01*
X38763633Y-31802000D01*
X38735000Y-31799180D01*
X38706367Y-31802000D01*
X14633633Y-31802000D01*
X14605000Y-31799180D01*
X14576367Y-31802000D01*
X14490712Y-31810436D01*
X14380816Y-31843773D01*
X14279536Y-31897908D01*
X14190763Y-31970763D01*
X14117908Y-32059536D01*
X14063773Y-32160816D01*
X14030436Y-32270712D01*
X14019180Y-32385000D01*
X14022000Y-32413633D01*
X14022000Y-33975264D01*
X14005813Y-33893886D01*
X13903444Y-33646746D01*
X13754828Y-33424325D01*
X13565675Y-33235172D01*
X13343254Y-33086556D01*
X13096114Y-32984187D01*
X12833751Y-32932000D01*
X12566249Y-32932000D01*
X12303886Y-32984187D01*
X12056746Y-33086556D01*
X11834325Y-33235172D01*
X11645172Y-33424325D01*
X11496556Y-33646746D01*
X11394187Y-33893886D01*
X11342000Y-34156249D01*
X11342000Y-34423751D01*
X11394187Y-34686114D01*
X11496556Y-34933254D01*
X11645172Y-35155675D01*
X11834325Y-35344828D01*
X12056389Y-35493205D01*
X11818645Y-35634822D01*
X11602412Y-35829731D01*
X11428359Y-36063080D01*
X11303175Y-36325901D01*
X11258524Y-36473110D01*
X11379845Y-36703000D01*
X12573000Y-36703000D01*
X12573000Y-36683000D01*
X12827000Y-36683000D01*
X12827000Y-36703000D01*
X12847000Y-36703000D01*
X12847000Y-36957000D01*
X12827000Y-36957000D01*
X12827000Y-36977000D01*
X12573000Y-36977000D01*
X12573000Y-36957000D01*
X11379845Y-36957000D01*
X11258524Y-37186890D01*
X11303175Y-37334099D01*
X11428359Y-37596920D01*
X11602412Y-37830269D01*
X11818645Y-38025178D01*
X12056389Y-38166795D01*
X11834325Y-38315172D01*
X11645172Y-38504325D01*
X11496556Y-38726746D01*
X11394187Y-38973886D01*
X11342000Y-39236249D01*
X11342000Y-39503751D01*
X11394187Y-39766114D01*
X11496556Y-40013254D01*
X11645172Y-40235675D01*
X11834325Y-40424828D01*
X12056746Y-40573444D01*
X12217426Y-40640000D01*
X12056746Y-40706556D01*
X11834325Y-40855172D01*
X11645172Y-41044325D01*
X11496556Y-41266746D01*
X11394187Y-41513886D01*
X11342000Y-41776249D01*
X11342000Y-42043751D01*
X11394187Y-42306114D01*
X11496556Y-42553254D01*
X11645172Y-42775675D01*
X11834325Y-42964828D01*
X12056746Y-43113444D01*
X12217426Y-43180000D01*
X12056746Y-43246556D01*
X11834325Y-43395172D01*
X11645172Y-43584325D01*
X11496556Y-43806746D01*
X11394187Y-44053886D01*
X11342000Y-44316249D01*
X11342000Y-44583751D01*
X11394187Y-44846114D01*
X11496556Y-45093254D01*
X11645172Y-45315675D01*
X11834325Y-45504828D01*
X12020975Y-45629543D01*
X11850000Y-45629543D01*
X11750415Y-45639351D01*
X11654657Y-45668399D01*
X11566405Y-45715571D01*
X11489052Y-45779052D01*
X11425571Y-45856405D01*
X11378399Y-45944657D01*
X11349351Y-46040415D01*
X11339543Y-46140000D01*
X11339543Y-47840000D01*
X11349351Y-47939585D01*
X11378399Y-48035343D01*
X11425571Y-48123595D01*
X11489052Y-48200948D01*
X11566405Y-48264429D01*
X11654657Y-48311601D01*
X11655972Y-48312000D01*
X583000Y-48312000D01*
X583000Y-36749946D01*
X965200Y-36749946D01*
X965200Y-36910054D01*
X996435Y-37067085D01*
X1057706Y-37215005D01*
X1146657Y-37348130D01*
X1259870Y-37461343D01*
X1392995Y-37550294D01*
X1540915Y-37611565D01*
X1697946Y-37642800D01*
X1858054Y-37642800D01*
X2015085Y-37611565D01*
X2163005Y-37550294D01*
X2296130Y-37461343D01*
X2409343Y-37348130D01*
X2498294Y-37215005D01*
X2559565Y-37067085D01*
X2590800Y-36910054D01*
X2590800Y-36851546D01*
X3632200Y-36851546D01*
X3632200Y-37011654D01*
X3663435Y-37168685D01*
X3724706Y-37316605D01*
X3813657Y-37449730D01*
X3926870Y-37562943D01*
X4059995Y-37651894D01*
X4207915Y-37713165D01*
X4364946Y-37744400D01*
X4525054Y-37744400D01*
X4682085Y-37713165D01*
X4830005Y-37651894D01*
X4963130Y-37562943D01*
X5076343Y-37449730D01*
X5165294Y-37316605D01*
X5201739Y-37228621D01*
X5248703Y-37342002D01*
X5337654Y-37475127D01*
X5450867Y-37588340D01*
X5583992Y-37677291D01*
X5731912Y-37738562D01*
X5888943Y-37769797D01*
X6049051Y-37769797D01*
X6206082Y-37738562D01*
X6354002Y-37677291D01*
X6487127Y-37588340D01*
X6600340Y-37475127D01*
X6689291Y-37342002D01*
X6750562Y-37194082D01*
X6781797Y-37037051D01*
X6781797Y-36876943D01*
X6750562Y-36719912D01*
X6689291Y-36571992D01*
X6600340Y-36438867D01*
X6564067Y-36402594D01*
X6614130Y-36369143D01*
X6727343Y-36255930D01*
X6816294Y-36122805D01*
X6877565Y-35974885D01*
X6908800Y-35817854D01*
X6908800Y-35657746D01*
X6877565Y-35500715D01*
X6816294Y-35352795D01*
X6727343Y-35219670D01*
X6614130Y-35106457D01*
X6481005Y-35017506D01*
X6333085Y-34956235D01*
X6176054Y-34925000D01*
X6015946Y-34925000D01*
X5858915Y-34956235D01*
X5710995Y-35017506D01*
X5577870Y-35106457D01*
X5464657Y-35219670D01*
X5375706Y-35352795D01*
X5314435Y-35500715D01*
X5283200Y-35657746D01*
X5283200Y-35817854D01*
X5314435Y-35974885D01*
X5375706Y-36122805D01*
X5464657Y-36255930D01*
X5500930Y-36292203D01*
X5450867Y-36325654D01*
X5337654Y-36438867D01*
X5248703Y-36571992D01*
X5212258Y-36659976D01*
X5165294Y-36546595D01*
X5076343Y-36413470D01*
X4963130Y-36300257D01*
X4830005Y-36211306D01*
X4682085Y-36150035D01*
X4525054Y-36118800D01*
X4364946Y-36118800D01*
X4207915Y-36150035D01*
X4059995Y-36211306D01*
X3926870Y-36300257D01*
X3813657Y-36413470D01*
X3724706Y-36546595D01*
X3663435Y-36694515D01*
X3632200Y-36851546D01*
X2590800Y-36851546D01*
X2590800Y-36749946D01*
X2559565Y-36592915D01*
X2498294Y-36444995D01*
X2409343Y-36311870D01*
X2296130Y-36198657D01*
X2163005Y-36109706D01*
X2015085Y-36048435D01*
X1858054Y-36017200D01*
X1697946Y-36017200D01*
X1540915Y-36048435D01*
X1392995Y-36109706D01*
X1259870Y-36198657D01*
X1146657Y-36311870D01*
X1057706Y-36444995D01*
X996435Y-36592915D01*
X965200Y-36749946D01*
X583000Y-36749946D01*
X583000Y-29688746D01*
X11150600Y-29688746D01*
X11150600Y-29848854D01*
X11181835Y-30005885D01*
X11243106Y-30153805D01*
X11332057Y-30286930D01*
X11445270Y-30400143D01*
X11578395Y-30489094D01*
X11726315Y-30550365D01*
X11760200Y-30557105D01*
X11760200Y-30585454D01*
X11791435Y-30742485D01*
X11852706Y-30890405D01*
X11941657Y-31023530D01*
X12054870Y-31136743D01*
X12187995Y-31225694D01*
X12335915Y-31286965D01*
X12492946Y-31318200D01*
X12653054Y-31318200D01*
X12810085Y-31286965D01*
X12958005Y-31225694D01*
X13091130Y-31136743D01*
X13204343Y-31023530D01*
X13293294Y-30890405D01*
X13354565Y-30742485D01*
X13385800Y-30585454D01*
X13385800Y-30425346D01*
X13354565Y-30268315D01*
X13293294Y-30120395D01*
X13204343Y-29987270D01*
X13091130Y-29874057D01*
X12958005Y-29785106D01*
X12810085Y-29723835D01*
X12776200Y-29717095D01*
X12776200Y-29688746D01*
X12744965Y-29531715D01*
X12683694Y-29383795D01*
X12594743Y-29250670D01*
X12481530Y-29137457D01*
X12348405Y-29048506D01*
X12200485Y-28987235D01*
X12043454Y-28956000D01*
X11883346Y-28956000D01*
X11726315Y-28987235D01*
X11578395Y-29048506D01*
X11445270Y-29137457D01*
X11332057Y-29250670D01*
X11243106Y-29383795D01*
X11181835Y-29531715D01*
X11150600Y-29688746D01*
X583000Y-29688746D01*
X583000Y-28698146D01*
X15824200Y-28698146D01*
X15824200Y-28858254D01*
X15855435Y-29015285D01*
X15916706Y-29163205D01*
X16005657Y-29296330D01*
X16118870Y-29409543D01*
X16251995Y-29498494D01*
X16399915Y-29559765D01*
X16556946Y-29591000D01*
X16717054Y-29591000D01*
X16874085Y-29559765D01*
X17022005Y-29498494D01*
X17155130Y-29409543D01*
X17268343Y-29296330D01*
X17357294Y-29163205D01*
X17418565Y-29015285D01*
X17449800Y-28858254D01*
X17449800Y-28748946D01*
X25730200Y-28748946D01*
X25730200Y-28909054D01*
X25761435Y-29066085D01*
X25822706Y-29214005D01*
X25911657Y-29347130D01*
X26024870Y-29460343D01*
X26157995Y-29549294D01*
X26305915Y-29610565D01*
X26462946Y-29641800D01*
X26623054Y-29641800D01*
X26780085Y-29610565D01*
X26928005Y-29549294D01*
X27061130Y-29460343D01*
X27174343Y-29347130D01*
X27263294Y-29214005D01*
X27324565Y-29066085D01*
X27355800Y-28909054D01*
X27355800Y-28748946D01*
X27324565Y-28591915D01*
X27263294Y-28443995D01*
X27174343Y-28310870D01*
X27061130Y-28197657D01*
X26928005Y-28108706D01*
X26780085Y-28047435D01*
X26623054Y-28016200D01*
X26462946Y-28016200D01*
X26305915Y-28047435D01*
X26157995Y-28108706D01*
X26024870Y-28197657D01*
X25911657Y-28310870D01*
X25822706Y-28443995D01*
X25761435Y-28591915D01*
X25730200Y-28748946D01*
X17449800Y-28748946D01*
X17449800Y-28698146D01*
X17418565Y-28541115D01*
X17357294Y-28393195D01*
X17268343Y-28260070D01*
X17155130Y-28146857D01*
X17022005Y-28057906D01*
X16874085Y-27996635D01*
X16717054Y-27965400D01*
X16556946Y-27965400D01*
X16399915Y-27996635D01*
X16251995Y-28057906D01*
X16118870Y-28146857D01*
X16005657Y-28260070D01*
X15916706Y-28393195D01*
X15855435Y-28541115D01*
X15824200Y-28698146D01*
X583000Y-28698146D01*
X583000Y-27631346D01*
X13208000Y-27631346D01*
X13208000Y-27791454D01*
X13239235Y-27948485D01*
X13300506Y-28096405D01*
X13389457Y-28229530D01*
X13502670Y-28342743D01*
X13635795Y-28431694D01*
X13783715Y-28492965D01*
X13940746Y-28524200D01*
X14100854Y-28524200D01*
X14257885Y-28492965D01*
X14405805Y-28431694D01*
X14538930Y-28342743D01*
X14652143Y-28229530D01*
X14741094Y-28096405D01*
X14802365Y-27948485D01*
X14833600Y-27791454D01*
X14833600Y-27631346D01*
X22987000Y-27631346D01*
X22987000Y-27791454D01*
X23018235Y-27948485D01*
X23079506Y-28096405D01*
X23168457Y-28229530D01*
X23281670Y-28342743D01*
X23414795Y-28431694D01*
X23562715Y-28492965D01*
X23719746Y-28524200D01*
X23879854Y-28524200D01*
X24036885Y-28492965D01*
X24184805Y-28431694D01*
X24317930Y-28342743D01*
X24431143Y-28229530D01*
X24520094Y-28096405D01*
X24581365Y-27948485D01*
X24612600Y-27791454D01*
X24612600Y-27631346D01*
X32461200Y-27631346D01*
X32461200Y-27791454D01*
X32492435Y-27948485D01*
X32553706Y-28096405D01*
X32642657Y-28229530D01*
X32755870Y-28342743D01*
X32888995Y-28431694D01*
X33036915Y-28492965D01*
X33193946Y-28524200D01*
X33354054Y-28524200D01*
X33511085Y-28492965D01*
X33659005Y-28431694D01*
X33792130Y-28342743D01*
X33905343Y-28229530D01*
X33994294Y-28096405D01*
X34055565Y-27948485D01*
X34086800Y-27791454D01*
X34086800Y-27631346D01*
X34055565Y-27474315D01*
X33994294Y-27326395D01*
X33905343Y-27193270D01*
X33792130Y-27080057D01*
X33659005Y-26991106D01*
X33511085Y-26929835D01*
X33354054Y-26898600D01*
X33193946Y-26898600D01*
X33036915Y-26929835D01*
X32888995Y-26991106D01*
X32755870Y-27080057D01*
X32642657Y-27193270D01*
X32553706Y-27326395D01*
X32492435Y-27474315D01*
X32461200Y-27631346D01*
X24612600Y-27631346D01*
X24581365Y-27474315D01*
X24520094Y-27326395D01*
X24431143Y-27193270D01*
X24317930Y-27080057D01*
X24184805Y-26991106D01*
X24036885Y-26929835D01*
X23879854Y-26898600D01*
X23719746Y-26898600D01*
X23562715Y-26929835D01*
X23414795Y-26991106D01*
X23281670Y-27080057D01*
X23168457Y-27193270D01*
X23079506Y-27326395D01*
X23018235Y-27474315D01*
X22987000Y-27631346D01*
X14833600Y-27631346D01*
X14802365Y-27474315D01*
X14741094Y-27326395D01*
X14652143Y-27193270D01*
X14538930Y-27080057D01*
X14405805Y-26991106D01*
X14257885Y-26929835D01*
X14100854Y-26898600D01*
X13940746Y-26898600D01*
X13783715Y-26929835D01*
X13635795Y-26991106D01*
X13502670Y-27080057D01*
X13389457Y-27193270D01*
X13300506Y-27326395D01*
X13239235Y-27474315D01*
X13208000Y-27631346D01*
X583000Y-27631346D01*
X583000Y-25167546D01*
X3479800Y-25167546D01*
X3479800Y-25327654D01*
X3511035Y-25484685D01*
X3572306Y-25632605D01*
X3661257Y-25765730D01*
X3774470Y-25878943D01*
X3907595Y-25967894D01*
X4055515Y-26029165D01*
X4212546Y-26060400D01*
X4372654Y-26060400D01*
X4529685Y-26029165D01*
X4677605Y-25967894D01*
X4810730Y-25878943D01*
X4923943Y-25765730D01*
X5012894Y-25632605D01*
X5074165Y-25484685D01*
X5105400Y-25327654D01*
X5105400Y-25167546D01*
X5074165Y-25010515D01*
X5012894Y-24862595D01*
X4923943Y-24729470D01*
X4810730Y-24616257D01*
X4685448Y-24532546D01*
X9474200Y-24532546D01*
X9474200Y-24692654D01*
X9505435Y-24849685D01*
X9566706Y-24997605D01*
X9655657Y-25130730D01*
X9768870Y-25243943D01*
X9901995Y-25332894D01*
X10049915Y-25394165D01*
X10206946Y-25425400D01*
X10367054Y-25425400D01*
X10524085Y-25394165D01*
X10672005Y-25332894D01*
X10805130Y-25243943D01*
X10906927Y-25142146D01*
X13893800Y-25142146D01*
X13893800Y-25302254D01*
X13925035Y-25459285D01*
X13986306Y-25607205D01*
X14075257Y-25740330D01*
X14188470Y-25853543D01*
X14321595Y-25942494D01*
X14469515Y-26003765D01*
X14626546Y-26035000D01*
X14786654Y-26035000D01*
X14943685Y-26003765D01*
X15091605Y-25942494D01*
X15110983Y-25929546D01*
X24231600Y-25929546D01*
X24231600Y-26089654D01*
X24262835Y-26246685D01*
X24324106Y-26394605D01*
X24413057Y-26527730D01*
X24526270Y-26640943D01*
X24659395Y-26729894D01*
X24807315Y-26791165D01*
X24964346Y-26822400D01*
X25124454Y-26822400D01*
X25281485Y-26791165D01*
X25429405Y-26729894D01*
X25562530Y-26640943D01*
X25675743Y-26527730D01*
X25764694Y-26394605D01*
X25825965Y-26246685D01*
X25857200Y-26089654D01*
X25857200Y-25929546D01*
X25825965Y-25772515D01*
X25764694Y-25624595D01*
X25675743Y-25491470D01*
X25562530Y-25378257D01*
X25429405Y-25289306D01*
X25281485Y-25228035D01*
X25124454Y-25196800D01*
X24964346Y-25196800D01*
X24807315Y-25228035D01*
X24659395Y-25289306D01*
X24526270Y-25378257D01*
X24413057Y-25491470D01*
X24324106Y-25624595D01*
X24262835Y-25772515D01*
X24231600Y-25929546D01*
X15110983Y-25929546D01*
X15224730Y-25853543D01*
X15337943Y-25740330D01*
X15426894Y-25607205D01*
X15488165Y-25459285D01*
X15505276Y-25373262D01*
X15527885Y-25368765D01*
X15675805Y-25307494D01*
X15808930Y-25218543D01*
X15922143Y-25105330D01*
X16011094Y-24972205D01*
X16072365Y-24824285D01*
X16103600Y-24667254D01*
X16103600Y-24507146D01*
X16088444Y-24430946D01*
X41478200Y-24430946D01*
X41478200Y-24591054D01*
X41509435Y-24748085D01*
X41570706Y-24896005D01*
X41659657Y-25029130D01*
X41772870Y-25142343D01*
X41905995Y-25231294D01*
X42053915Y-25292565D01*
X42210946Y-25323800D01*
X42371054Y-25323800D01*
X42528085Y-25292565D01*
X42676005Y-25231294D01*
X42809130Y-25142343D01*
X42922343Y-25029130D01*
X43011294Y-24896005D01*
X43072565Y-24748085D01*
X43103800Y-24591054D01*
X43103800Y-24430946D01*
X43072565Y-24273915D01*
X43011294Y-24125995D01*
X42922343Y-23992870D01*
X42809130Y-23879657D01*
X42676005Y-23790706D01*
X42528085Y-23729435D01*
X42371054Y-23698200D01*
X42210946Y-23698200D01*
X42053915Y-23729435D01*
X41905995Y-23790706D01*
X41772870Y-23879657D01*
X41659657Y-23992870D01*
X41570706Y-24125995D01*
X41509435Y-24273915D01*
X41478200Y-24430946D01*
X16088444Y-24430946D01*
X16072365Y-24350115D01*
X16011094Y-24202195D01*
X15922143Y-24069070D01*
X15808930Y-23955857D01*
X15675805Y-23866906D01*
X15527885Y-23805635D01*
X15370854Y-23774400D01*
X15210746Y-23774400D01*
X15053715Y-23805635D01*
X14905795Y-23866906D01*
X14772670Y-23955857D01*
X14659457Y-24069070D01*
X14570506Y-24202195D01*
X14509235Y-24350115D01*
X14492124Y-24436138D01*
X14469515Y-24440635D01*
X14321595Y-24501906D01*
X14188470Y-24590857D01*
X14075257Y-24704070D01*
X13986306Y-24837195D01*
X13925035Y-24985115D01*
X13893800Y-25142146D01*
X10906927Y-25142146D01*
X10918343Y-25130730D01*
X11007294Y-24997605D01*
X11068565Y-24849685D01*
X11099800Y-24692654D01*
X11099800Y-24532546D01*
X11068565Y-24375515D01*
X11007294Y-24227595D01*
X10918343Y-24094470D01*
X10805130Y-23981257D01*
X10672005Y-23892306D01*
X10524085Y-23831035D01*
X10367054Y-23799800D01*
X10206946Y-23799800D01*
X10049915Y-23831035D01*
X9901995Y-23892306D01*
X9768870Y-23981257D01*
X9655657Y-24094470D01*
X9566706Y-24227595D01*
X9505435Y-24375515D01*
X9474200Y-24532546D01*
X4685448Y-24532546D01*
X4677605Y-24527306D01*
X4529685Y-24466035D01*
X4372654Y-24434800D01*
X4212546Y-24434800D01*
X4055515Y-24466035D01*
X3907595Y-24527306D01*
X3774470Y-24616257D01*
X3661257Y-24729470D01*
X3572306Y-24862595D01*
X3511035Y-25010515D01*
X3479800Y-25167546D01*
X583000Y-25167546D01*
X583000Y-23618146D01*
X1778004Y-23618146D01*
X1778004Y-23778254D01*
X1809239Y-23935285D01*
X1870510Y-24083205D01*
X1959461Y-24216330D01*
X2072674Y-24329543D01*
X2205799Y-24418494D01*
X2353719Y-24479765D01*
X2510750Y-24511000D01*
X2670858Y-24511000D01*
X2827889Y-24479765D01*
X2975809Y-24418494D01*
X3108934Y-24329543D01*
X3222147Y-24216330D01*
X3311098Y-24083205D01*
X3372369Y-23935285D01*
X3397908Y-23806892D01*
X3462895Y-23793965D01*
X3610815Y-23732694D01*
X3743940Y-23643743D01*
X3857153Y-23530530D01*
X3946104Y-23397405D01*
X4007375Y-23249485D01*
X4038610Y-23092454D01*
X4038610Y-22932346D01*
X4007375Y-22775315D01*
X3946104Y-22627395D01*
X3857153Y-22494270D01*
X3787239Y-22424356D01*
X13868400Y-22424356D01*
X13868400Y-22584464D01*
X13899635Y-22741495D01*
X13960906Y-22889415D01*
X14049857Y-23022540D01*
X14163070Y-23135753D01*
X14296195Y-23224704D01*
X14444115Y-23285975D01*
X14601146Y-23317210D01*
X14761254Y-23317210D01*
X14918285Y-23285975D01*
X15066205Y-23224704D01*
X15199330Y-23135753D01*
X15312543Y-23022540D01*
X15401494Y-22889415D01*
X15462765Y-22741495D01*
X15494000Y-22584464D01*
X15494000Y-22583827D01*
X15540795Y-22615094D01*
X15688715Y-22676365D01*
X15845746Y-22707600D01*
X16005854Y-22707600D01*
X16162885Y-22676365D01*
X16310805Y-22615094D01*
X16443930Y-22526143D01*
X16557143Y-22412930D01*
X16646094Y-22279805D01*
X16707365Y-22131885D01*
X16738600Y-21974854D01*
X16738600Y-21814746D01*
X16707365Y-21657715D01*
X16646094Y-21509795D01*
X16557143Y-21376670D01*
X16443930Y-21263457D01*
X16310805Y-21174506D01*
X16162885Y-21113235D01*
X16005854Y-21082000D01*
X15845746Y-21082000D01*
X15688715Y-21113235D01*
X15540795Y-21174506D01*
X15407670Y-21263457D01*
X15294457Y-21376670D01*
X15205506Y-21509795D01*
X15144235Y-21657715D01*
X15113000Y-21814746D01*
X15113000Y-21815383D01*
X15066205Y-21784116D01*
X14918285Y-21722845D01*
X14761254Y-21691610D01*
X14601146Y-21691610D01*
X14444115Y-21722845D01*
X14296195Y-21784116D01*
X14163070Y-21873067D01*
X14049857Y-21986280D01*
X13960906Y-22119405D01*
X13899635Y-22267325D01*
X13868400Y-22424356D01*
X3787239Y-22424356D01*
X3743940Y-22381057D01*
X3610815Y-22292106D01*
X3462895Y-22230835D01*
X3305864Y-22199600D01*
X3145756Y-22199600D01*
X2988725Y-22230835D01*
X2840805Y-22292106D01*
X2707680Y-22381057D01*
X2594467Y-22494270D01*
X2505516Y-22627395D01*
X2444245Y-22775315D01*
X2418706Y-22903708D01*
X2353719Y-22916635D01*
X2205799Y-22977906D01*
X2072674Y-23066857D01*
X1959461Y-23180070D01*
X1870510Y-23313195D01*
X1809239Y-23461115D01*
X1778004Y-23618146D01*
X583000Y-23618146D01*
X583000Y-22973661D01*
X601115Y-22981165D01*
X758146Y-23012400D01*
X918254Y-23012400D01*
X1075285Y-22981165D01*
X1223205Y-22919894D01*
X1356330Y-22830943D01*
X1469543Y-22717730D01*
X1558494Y-22584605D01*
X1619765Y-22436685D01*
X1651000Y-22279654D01*
X1651000Y-22119546D01*
X1619765Y-21962515D01*
X1558494Y-21814595D01*
X1469543Y-21681470D01*
X1356330Y-21568257D01*
X1223205Y-21479306D01*
X1075285Y-21418035D01*
X918254Y-21386800D01*
X758146Y-21386800D01*
X601115Y-21418035D01*
X583000Y-21425539D01*
X583000Y-17725346D01*
X2286006Y-17725346D01*
X2286006Y-17885454D01*
X2317241Y-18042485D01*
X2378512Y-18190405D01*
X2467463Y-18323530D01*
X2580676Y-18436743D01*
X2713801Y-18525694D01*
X2776052Y-18551480D01*
X2768600Y-18588946D01*
X2768600Y-18749054D01*
X2799835Y-18906085D01*
X2800075Y-18906664D01*
X2703571Y-18971146D01*
X2590358Y-19084359D01*
X2501407Y-19217484D01*
X2440136Y-19365404D01*
X2408901Y-19522435D01*
X2408901Y-19682543D01*
X2440136Y-19839574D01*
X2501407Y-19987494D01*
X2590358Y-20120619D01*
X2597017Y-20127278D01*
X2581012Y-20165918D01*
X2549777Y-20322949D01*
X2549777Y-20483057D01*
X2581012Y-20640088D01*
X2642283Y-20788008D01*
X2731234Y-20921133D01*
X2844447Y-21034346D01*
X2977572Y-21123297D01*
X3125492Y-21184568D01*
X3282523Y-21215803D01*
X3442631Y-21215803D01*
X3599662Y-21184568D01*
X3747582Y-21123297D01*
X3797516Y-21089932D01*
X4817165Y-21089932D01*
X4817165Y-21250040D01*
X4848400Y-21407071D01*
X4909671Y-21554991D01*
X4998622Y-21688116D01*
X5111835Y-21801329D01*
X5244960Y-21890280D01*
X5392880Y-21951551D01*
X5549911Y-21982786D01*
X5710019Y-21982786D01*
X5867050Y-21951551D01*
X6014970Y-21890280D01*
X6148095Y-21801329D01*
X6261308Y-21688116D01*
X6350259Y-21554991D01*
X6411530Y-21407071D01*
X6442765Y-21250040D01*
X6442765Y-21091497D01*
X6644022Y-21091497D01*
X6644022Y-21251605D01*
X6675257Y-21408636D01*
X6736528Y-21556556D01*
X6825479Y-21689681D01*
X6938692Y-21802894D01*
X7071817Y-21891845D01*
X7219737Y-21953116D01*
X7376768Y-21984351D01*
X7536876Y-21984351D01*
X7693907Y-21953116D01*
X7841827Y-21891845D01*
X7974952Y-21802894D01*
X8088165Y-21689681D01*
X8177116Y-21556556D01*
X8238387Y-21408636D01*
X8269622Y-21251605D01*
X8269622Y-21096889D01*
X10220420Y-21096889D01*
X10220420Y-21256997D01*
X10251655Y-21414028D01*
X10312926Y-21561948D01*
X10401877Y-21695073D01*
X10515090Y-21808286D01*
X10648215Y-21897237D01*
X10796135Y-21958508D01*
X10953166Y-21989743D01*
X11113274Y-21989743D01*
X11270305Y-21958508D01*
X11418225Y-21897237D01*
X11551350Y-21808286D01*
X11664563Y-21695073D01*
X11753514Y-21561948D01*
X11762476Y-21540312D01*
X11827902Y-21638230D01*
X11941115Y-21751443D01*
X12074240Y-21840394D01*
X12222160Y-21901665D01*
X12379191Y-21932900D01*
X12539299Y-21932900D01*
X12696330Y-21901665D01*
X12844250Y-21840394D01*
X12977375Y-21751443D01*
X13090588Y-21638230D01*
X13179539Y-21505105D01*
X13240810Y-21357185D01*
X13272045Y-21200154D01*
X13272045Y-21040046D01*
X13240810Y-20883015D01*
X13179539Y-20735095D01*
X13090588Y-20601970D01*
X12977375Y-20488757D01*
X12844250Y-20399806D01*
X12703600Y-20341546D01*
X17195800Y-20341546D01*
X17195800Y-20501654D01*
X17227035Y-20658685D01*
X17288306Y-20806605D01*
X17377257Y-20939730D01*
X17490470Y-21052943D01*
X17623595Y-21141894D01*
X17771515Y-21203165D01*
X17928546Y-21234400D01*
X18088654Y-21234400D01*
X18245685Y-21203165D01*
X18393605Y-21141894D01*
X18526730Y-21052943D01*
X18639943Y-20939730D01*
X18728894Y-20806605D01*
X18756241Y-20740583D01*
X27035919Y-20740583D01*
X27035919Y-20900691D01*
X27067154Y-21057722D01*
X27128425Y-21205642D01*
X27217376Y-21338767D01*
X27330589Y-21451980D01*
X27463714Y-21540931D01*
X27611634Y-21602202D01*
X27768665Y-21633437D01*
X27928773Y-21633437D01*
X28085804Y-21602202D01*
X28233724Y-21540931D01*
X28366849Y-21451980D01*
X28480062Y-21338767D01*
X28569013Y-21205642D01*
X28630284Y-21057722D01*
X28661519Y-20900691D01*
X28661519Y-20740583D01*
X28657932Y-20722546D01*
X29387800Y-20722546D01*
X29387800Y-20882654D01*
X29419035Y-21039685D01*
X29480306Y-21187605D01*
X29569257Y-21320730D01*
X29682470Y-21433943D01*
X29815595Y-21522894D01*
X29963515Y-21584165D01*
X30120546Y-21615400D01*
X30280654Y-21615400D01*
X30437685Y-21584165D01*
X30585605Y-21522894D01*
X30718730Y-21433943D01*
X30831943Y-21320730D01*
X30920894Y-21187605D01*
X30982165Y-21039685D01*
X31013400Y-20882654D01*
X31013400Y-20722546D01*
X30982165Y-20565515D01*
X30920894Y-20417595D01*
X30831943Y-20284470D01*
X30718730Y-20171257D01*
X30585605Y-20082306D01*
X30437685Y-20021035D01*
X30280654Y-19989800D01*
X30120546Y-19989800D01*
X29963515Y-20021035D01*
X29815595Y-20082306D01*
X29682470Y-20171257D01*
X29569257Y-20284470D01*
X29480306Y-20417595D01*
X29419035Y-20565515D01*
X29387800Y-20722546D01*
X28657932Y-20722546D01*
X28630284Y-20583552D01*
X28569013Y-20435632D01*
X28480062Y-20302507D01*
X28366849Y-20189294D01*
X28233724Y-20100343D01*
X28085804Y-20039072D01*
X27928773Y-20007837D01*
X27768665Y-20007837D01*
X27611634Y-20039072D01*
X27463714Y-20100343D01*
X27330589Y-20189294D01*
X27217376Y-20302507D01*
X27128425Y-20435632D01*
X27067154Y-20583552D01*
X27035919Y-20740583D01*
X18756241Y-20740583D01*
X18790165Y-20658685D01*
X18821400Y-20501654D01*
X18821400Y-20341546D01*
X18790165Y-20184515D01*
X18728894Y-20036595D01*
X18639943Y-19903470D01*
X18526730Y-19790257D01*
X18393605Y-19701306D01*
X18245685Y-19640035D01*
X18088654Y-19608800D01*
X17928546Y-19608800D01*
X17771515Y-19640035D01*
X17623595Y-19701306D01*
X17490470Y-19790257D01*
X17377257Y-19903470D01*
X17288306Y-20036595D01*
X17227035Y-20184515D01*
X17195800Y-20341546D01*
X12703600Y-20341546D01*
X12696330Y-20338535D01*
X12539299Y-20307300D01*
X12379191Y-20307300D01*
X12222160Y-20338535D01*
X12074240Y-20399806D01*
X11941115Y-20488757D01*
X11827902Y-20601970D01*
X11738951Y-20735095D01*
X11729989Y-20756731D01*
X11664563Y-20658813D01*
X11551350Y-20545600D01*
X11418225Y-20456649D01*
X11270305Y-20395378D01*
X11113274Y-20364143D01*
X10953166Y-20364143D01*
X10796135Y-20395378D01*
X10648215Y-20456649D01*
X10515090Y-20545600D01*
X10401877Y-20658813D01*
X10312926Y-20791938D01*
X10251655Y-20939858D01*
X10220420Y-21096889D01*
X8269622Y-21096889D01*
X8269622Y-21091497D01*
X8238387Y-20934466D01*
X8177116Y-20786546D01*
X8088165Y-20653421D01*
X7974952Y-20540208D01*
X7841827Y-20451257D01*
X7693907Y-20389986D01*
X7536876Y-20358751D01*
X7376768Y-20358751D01*
X7219737Y-20389986D01*
X7071817Y-20451257D01*
X6938692Y-20540208D01*
X6825479Y-20653421D01*
X6736528Y-20786546D01*
X6675257Y-20934466D01*
X6644022Y-21091497D01*
X6442765Y-21091497D01*
X6442765Y-21089932D01*
X6411530Y-20932901D01*
X6350259Y-20784981D01*
X6261308Y-20651856D01*
X6148095Y-20538643D01*
X6014970Y-20449692D01*
X5867050Y-20388421D01*
X5710019Y-20357186D01*
X5549911Y-20357186D01*
X5392880Y-20388421D01*
X5244960Y-20449692D01*
X5111835Y-20538643D01*
X4998622Y-20651856D01*
X4909671Y-20784981D01*
X4848400Y-20932901D01*
X4817165Y-21089932D01*
X3797516Y-21089932D01*
X3880707Y-21034346D01*
X3993920Y-20921133D01*
X4082871Y-20788008D01*
X4144142Y-20640088D01*
X4175377Y-20483057D01*
X4175377Y-20322949D01*
X4144142Y-20165918D01*
X4082871Y-20017998D01*
X3993920Y-19884873D01*
X3987261Y-19878214D01*
X4003266Y-19839574D01*
X4034501Y-19682543D01*
X4034501Y-19560997D01*
X7288608Y-19560997D01*
X7299715Y-19754701D01*
X7470566Y-19825982D01*
X7652041Y-19862560D01*
X7837164Y-19863033D01*
X8018822Y-19827380D01*
X8190035Y-19756973D01*
X8194285Y-19754701D01*
X8205392Y-19560997D01*
X9828608Y-19560997D01*
X9839715Y-19754701D01*
X10010566Y-19825982D01*
X10192041Y-19862560D01*
X10377164Y-19863033D01*
X10558822Y-19827380D01*
X10730035Y-19756973D01*
X10734285Y-19754701D01*
X10745392Y-19560997D01*
X10287000Y-19102605D01*
X9828608Y-19560997D01*
X8205392Y-19560997D01*
X7747000Y-19102605D01*
X7288608Y-19560997D01*
X4034501Y-19560997D01*
X4034501Y-19522435D01*
X4003266Y-19365404D01*
X4003026Y-19364825D01*
X4099530Y-19300343D01*
X4212743Y-19187130D01*
X4301694Y-19054005D01*
X4318611Y-19013164D01*
X6806967Y-19013164D01*
X6842620Y-19194822D01*
X6913027Y-19366035D01*
X6915299Y-19370285D01*
X7109003Y-19381392D01*
X7567395Y-18923000D01*
X7926605Y-18923000D01*
X8384997Y-19381392D01*
X8578701Y-19370285D01*
X8649982Y-19199434D01*
X8686560Y-19017959D01*
X8686572Y-19013164D01*
X9346967Y-19013164D01*
X9382620Y-19194822D01*
X9453027Y-19366035D01*
X9455299Y-19370285D01*
X9649003Y-19381392D01*
X10107395Y-18923000D01*
X10466605Y-18923000D01*
X10924997Y-19381392D01*
X11118701Y-19370285D01*
X11189982Y-19199434D01*
X11226560Y-19017959D01*
X11227033Y-18832836D01*
X11191380Y-18651178D01*
X11120973Y-18479965D01*
X11118701Y-18475715D01*
X10924997Y-18464608D01*
X10466605Y-18923000D01*
X10107395Y-18923000D01*
X9649003Y-18464608D01*
X9455299Y-18475715D01*
X9384018Y-18646566D01*
X9347440Y-18828041D01*
X9346967Y-19013164D01*
X8686572Y-19013164D01*
X8687033Y-18832836D01*
X8651380Y-18651178D01*
X8580973Y-18479965D01*
X8578701Y-18475715D01*
X8384997Y-18464608D01*
X7926605Y-18923000D01*
X7567395Y-18923000D01*
X7109003Y-18464608D01*
X6915299Y-18475715D01*
X6844018Y-18646566D01*
X6807440Y-18828041D01*
X6806967Y-19013164D01*
X4318611Y-19013164D01*
X4362965Y-18906085D01*
X4394200Y-18749054D01*
X4394200Y-18588946D01*
X4362965Y-18431915D01*
X4302112Y-18285003D01*
X7288608Y-18285003D01*
X7747000Y-18743395D01*
X8205392Y-18285003D01*
X9828608Y-18285003D01*
X10287000Y-18743395D01*
X10745392Y-18285003D01*
X10734285Y-18091299D01*
X10563434Y-18020018D01*
X10381959Y-17983440D01*
X10196836Y-17982967D01*
X10015178Y-18018620D01*
X9843965Y-18089027D01*
X9839715Y-18091299D01*
X9828608Y-18285003D01*
X8205392Y-18285003D01*
X8194285Y-18091299D01*
X8023434Y-18020018D01*
X7841959Y-17983440D01*
X7656836Y-17982967D01*
X7475178Y-18018620D01*
X7303965Y-18089027D01*
X7299715Y-18091299D01*
X7288608Y-18285003D01*
X4302112Y-18285003D01*
X4301694Y-18283995D01*
X4212743Y-18150870D01*
X4099530Y-18037657D01*
X3966405Y-17948706D01*
X3904154Y-17922920D01*
X3911606Y-17885454D01*
X3911606Y-17725346D01*
X3880371Y-17568315D01*
X3819100Y-17420395D01*
X3730149Y-17287270D01*
X3616936Y-17174057D01*
X3611463Y-17170400D01*
X3636054Y-17170400D01*
X3793085Y-17139165D01*
X3941005Y-17077894D01*
X4026157Y-17020997D01*
X7288608Y-17020997D01*
X7299715Y-17214701D01*
X7470566Y-17285982D01*
X7652041Y-17322560D01*
X7837164Y-17323033D01*
X8018822Y-17287380D01*
X8190035Y-17216973D01*
X8194285Y-17214701D01*
X8205392Y-17020997D01*
X9828608Y-17020997D01*
X9839715Y-17214701D01*
X10010566Y-17285982D01*
X10192041Y-17322560D01*
X10377164Y-17323033D01*
X10558822Y-17287380D01*
X10730035Y-17216973D01*
X10734285Y-17214701D01*
X10745392Y-17020997D01*
X10287000Y-16562605D01*
X9828608Y-17020997D01*
X8205392Y-17020997D01*
X7747000Y-16562605D01*
X7288608Y-17020997D01*
X4026157Y-17020997D01*
X4074130Y-16988943D01*
X4187343Y-16875730D01*
X4276294Y-16742605D01*
X4337565Y-16594685D01*
X4361736Y-16473164D01*
X6806967Y-16473164D01*
X6842620Y-16654822D01*
X6913027Y-16826035D01*
X6915299Y-16830285D01*
X7109003Y-16841392D01*
X7567395Y-16383000D01*
X7926605Y-16383000D01*
X8384997Y-16841392D01*
X8578701Y-16830285D01*
X8649982Y-16659434D01*
X8686560Y-16477959D01*
X8686572Y-16473164D01*
X9346967Y-16473164D01*
X9382620Y-16654822D01*
X9453027Y-16826035D01*
X9455299Y-16830285D01*
X9649003Y-16841392D01*
X10107395Y-16383000D01*
X10466605Y-16383000D01*
X10924997Y-16841392D01*
X11118701Y-16830285D01*
X11189982Y-16659434D01*
X11195278Y-16633156D01*
X17449800Y-16633156D01*
X17449800Y-16793264D01*
X17481035Y-16950295D01*
X17542306Y-17098215D01*
X17631257Y-17231340D01*
X17744470Y-17344553D01*
X17824973Y-17398344D01*
X17732857Y-17490460D01*
X17643906Y-17623585D01*
X17582635Y-17771505D01*
X17551400Y-17928536D01*
X17551400Y-18088644D01*
X17582635Y-18245675D01*
X17643906Y-18393595D01*
X17732857Y-18526720D01*
X17846070Y-18639933D01*
X17979195Y-18728884D01*
X18127115Y-18790155D01*
X18284146Y-18821390D01*
X18444254Y-18821390D01*
X18601285Y-18790155D01*
X18749205Y-18728884D01*
X18882330Y-18639933D01*
X18995543Y-18526720D01*
X19084494Y-18393595D01*
X19145765Y-18245675D01*
X19177000Y-18088644D01*
X19177000Y-18055544D01*
X23063200Y-18055544D01*
X23063200Y-18215652D01*
X23094435Y-18372683D01*
X23155706Y-18520603D01*
X23244657Y-18653728D01*
X23357870Y-18766941D01*
X23490995Y-18855892D01*
X23638915Y-18917163D01*
X23795946Y-18948398D01*
X23956054Y-18948398D01*
X24113085Y-18917163D01*
X24261005Y-18855892D01*
X24394130Y-18766941D01*
X24419725Y-18741346D01*
X25654000Y-18741346D01*
X25654000Y-18901454D01*
X25685235Y-19058485D01*
X25746506Y-19206405D01*
X25835457Y-19339530D01*
X25948670Y-19452743D01*
X26081795Y-19541694D01*
X26229715Y-19602965D01*
X26386746Y-19634200D01*
X26546854Y-19634200D01*
X26703885Y-19602965D01*
X26851805Y-19541694D01*
X26984930Y-19452743D01*
X27098143Y-19339530D01*
X27187094Y-19206405D01*
X27248365Y-19058485D01*
X27279600Y-18901454D01*
X27279600Y-18741346D01*
X27248365Y-18584315D01*
X27187094Y-18436395D01*
X27098143Y-18303270D01*
X26984930Y-18190057D01*
X26851805Y-18101106D01*
X26703885Y-18039835D01*
X26546854Y-18008600D01*
X26386746Y-18008600D01*
X26229715Y-18039835D01*
X26081795Y-18101106D01*
X25948670Y-18190057D01*
X25835457Y-18303270D01*
X25746506Y-18436395D01*
X25685235Y-18584315D01*
X25654000Y-18741346D01*
X24419725Y-18741346D01*
X24507343Y-18653728D01*
X24596294Y-18520603D01*
X24657565Y-18372683D01*
X24688800Y-18215652D01*
X24688800Y-18055544D01*
X24657565Y-17898513D01*
X24596294Y-17750593D01*
X24507343Y-17617468D01*
X24488221Y-17598346D01*
X27711400Y-17598346D01*
X27711400Y-17758454D01*
X27742635Y-17915485D01*
X27803906Y-18063405D01*
X27892857Y-18196530D01*
X28006070Y-18309743D01*
X28139195Y-18398694D01*
X28287115Y-18459965D01*
X28444146Y-18491200D01*
X28604254Y-18491200D01*
X28761285Y-18459965D01*
X28909205Y-18398694D01*
X29042330Y-18309743D01*
X29155543Y-18196530D01*
X29244494Y-18063405D01*
X29305765Y-17915485D01*
X29337000Y-17758454D01*
X29337000Y-17598346D01*
X29305765Y-17441315D01*
X29244494Y-17293395D01*
X29155543Y-17160270D01*
X29042330Y-17047057D01*
X28909205Y-16958106D01*
X28761285Y-16896835D01*
X28604254Y-16865600D01*
X28444146Y-16865600D01*
X28287115Y-16896835D01*
X28139195Y-16958106D01*
X28006070Y-17047057D01*
X27892857Y-17160270D01*
X27803906Y-17293395D01*
X27742635Y-17441315D01*
X27711400Y-17598346D01*
X24488221Y-17598346D01*
X24394130Y-17504255D01*
X24261005Y-17415304D01*
X24113085Y-17354033D01*
X23956054Y-17322798D01*
X23795946Y-17322798D01*
X23638915Y-17354033D01*
X23490995Y-17415304D01*
X23357870Y-17504255D01*
X23244657Y-17617468D01*
X23155706Y-17750593D01*
X23094435Y-17898513D01*
X23063200Y-18055544D01*
X19177000Y-18055544D01*
X19177000Y-17928536D01*
X19145765Y-17771505D01*
X19084494Y-17623585D01*
X18995543Y-17490460D01*
X18882330Y-17377247D01*
X18801827Y-17323456D01*
X18893943Y-17231340D01*
X18982894Y-17098215D01*
X19044165Y-16950295D01*
X19075400Y-16793264D01*
X19075400Y-16633156D01*
X19044165Y-16476125D01*
X18982894Y-16328205D01*
X18893943Y-16195080D01*
X18780730Y-16081867D01*
X18647605Y-15992916D01*
X18499685Y-15931645D01*
X18342654Y-15900410D01*
X18182546Y-15900410D01*
X18025515Y-15931645D01*
X17877595Y-15992916D01*
X17744470Y-16081867D01*
X17631257Y-16195080D01*
X17542306Y-16328205D01*
X17481035Y-16476125D01*
X17449800Y-16633156D01*
X11195278Y-16633156D01*
X11226560Y-16477959D01*
X11227033Y-16292836D01*
X11191380Y-16111178D01*
X11120973Y-15939965D01*
X11118701Y-15935715D01*
X10924997Y-15924608D01*
X10466605Y-16383000D01*
X10107395Y-16383000D01*
X9649003Y-15924608D01*
X9455299Y-15935715D01*
X9384018Y-16106566D01*
X9347440Y-16288041D01*
X9346967Y-16473164D01*
X8686572Y-16473164D01*
X8687033Y-16292836D01*
X8651380Y-16111178D01*
X8580973Y-15939965D01*
X8578701Y-15935715D01*
X8384997Y-15924608D01*
X7926605Y-16383000D01*
X7567395Y-16383000D01*
X7109003Y-15924608D01*
X6915299Y-15935715D01*
X6844018Y-16106566D01*
X6807440Y-16288041D01*
X6806967Y-16473164D01*
X4361736Y-16473164D01*
X4368800Y-16437654D01*
X4368800Y-16277546D01*
X4337565Y-16120515D01*
X4276294Y-15972595D01*
X4187343Y-15839470D01*
X4092876Y-15745003D01*
X7288608Y-15745003D01*
X7747000Y-16203395D01*
X8205392Y-15745003D01*
X9828608Y-15745003D01*
X10287000Y-16203395D01*
X10745392Y-15745003D01*
X10734285Y-15551299D01*
X10563434Y-15480018D01*
X10381959Y-15443440D01*
X10196836Y-15442967D01*
X10015178Y-15478620D01*
X9843965Y-15549027D01*
X9839715Y-15551299D01*
X9828608Y-15745003D01*
X8205392Y-15745003D01*
X8194285Y-15551299D01*
X8023434Y-15480018D01*
X7841959Y-15443440D01*
X7656836Y-15442967D01*
X7475178Y-15478620D01*
X7303965Y-15549027D01*
X7299715Y-15551299D01*
X7288608Y-15745003D01*
X4092876Y-15745003D01*
X4074130Y-15726257D01*
X3941005Y-15637306D01*
X3793085Y-15576035D01*
X3636054Y-15544800D01*
X3475946Y-15544800D01*
X3318915Y-15576035D01*
X3170995Y-15637306D01*
X3037870Y-15726257D01*
X2924657Y-15839470D01*
X2835706Y-15972595D01*
X2774435Y-16120515D01*
X2743200Y-16277546D01*
X2743200Y-16437654D01*
X2774435Y-16594685D01*
X2835706Y-16742605D01*
X2924657Y-16875730D01*
X3037870Y-16988943D01*
X3043343Y-16992600D01*
X3018752Y-16992600D01*
X2861721Y-17023835D01*
X2713801Y-17085106D01*
X2580676Y-17174057D01*
X2467463Y-17287270D01*
X2378512Y-17420395D01*
X2317241Y-17568315D01*
X2286006Y-17725346D01*
X583000Y-17725346D01*
X583000Y-13407346D01*
X1498600Y-13407346D01*
X1498600Y-13567454D01*
X1529835Y-13724485D01*
X1591106Y-13872405D01*
X1680057Y-14005530D01*
X1793270Y-14118743D01*
X1926395Y-14207694D01*
X2074315Y-14268965D01*
X2231346Y-14300200D01*
X2391454Y-14300200D01*
X2538495Y-14270952D01*
X23952200Y-14270952D01*
X23952200Y-14431060D01*
X23983435Y-14588091D01*
X24044706Y-14736011D01*
X24133657Y-14869136D01*
X24246870Y-14982349D01*
X24379995Y-15071300D01*
X24527915Y-15132571D01*
X24684946Y-15163806D01*
X24845054Y-15163806D01*
X25002085Y-15132571D01*
X25150005Y-15071300D01*
X25283130Y-14982349D01*
X25349174Y-14916305D01*
X27531176Y-14916305D01*
X27531176Y-15076413D01*
X27562411Y-15233444D01*
X27623682Y-15381364D01*
X27707297Y-15506503D01*
X27672268Y-15591069D01*
X27641033Y-15748100D01*
X27641033Y-15908208D01*
X27672268Y-16065239D01*
X27733539Y-16213159D01*
X27822490Y-16346284D01*
X27935703Y-16459497D01*
X28068828Y-16548448D01*
X28216748Y-16609719D01*
X28373779Y-16640954D01*
X28533887Y-16640954D01*
X28690918Y-16609719D01*
X28838838Y-16548448D01*
X28971963Y-16459497D01*
X29085176Y-16346284D01*
X29174127Y-16213159D01*
X29235398Y-16065239D01*
X29266633Y-15908208D01*
X29266633Y-15748100D01*
X29235398Y-15591069D01*
X29174127Y-15443149D01*
X29090512Y-15318010D01*
X29125541Y-15233444D01*
X29156776Y-15076413D01*
X29156776Y-14916305D01*
X29125541Y-14759274D01*
X29103948Y-14707142D01*
X29816959Y-14707142D01*
X29816959Y-14867250D01*
X29848194Y-15024281D01*
X29909465Y-15172201D01*
X29998416Y-15305326D01*
X30038141Y-15345051D01*
X30030980Y-15362340D01*
X29999745Y-15519371D01*
X29999745Y-15679479D01*
X30030980Y-15836510D01*
X30092251Y-15984430D01*
X30181202Y-16117555D01*
X30286906Y-16223259D01*
X30267706Y-16251995D01*
X30206435Y-16399915D01*
X30175200Y-16556946D01*
X30175200Y-16717054D01*
X30206435Y-16874085D01*
X30267706Y-17022005D01*
X30356657Y-17155130D01*
X30389168Y-17187641D01*
X30318506Y-17293395D01*
X30257235Y-17441315D01*
X30226000Y-17598346D01*
X30226000Y-17758454D01*
X30257235Y-17915485D01*
X30318506Y-18063405D01*
X30407457Y-18196530D01*
X30520670Y-18309743D01*
X30653795Y-18398694D01*
X30801715Y-18459965D01*
X30958746Y-18491200D01*
X31118854Y-18491200D01*
X31275885Y-18459965D01*
X31423805Y-18398694D01*
X31556930Y-18309743D01*
X31670143Y-18196530D01*
X31759094Y-18063405D01*
X31820365Y-17915485D01*
X31851600Y-17758454D01*
X31851600Y-17598346D01*
X31820365Y-17441315D01*
X31759094Y-17293395D01*
X31670143Y-17160270D01*
X31637632Y-17127759D01*
X31708294Y-17022005D01*
X31769565Y-16874085D01*
X31800800Y-16717054D01*
X31800800Y-16597210D01*
X31885486Y-16580365D01*
X32033406Y-16519094D01*
X32166531Y-16430143D01*
X32279744Y-16316930D01*
X32368695Y-16183805D01*
X32429966Y-16035885D01*
X32461201Y-15878854D01*
X32461201Y-15718746D01*
X32429966Y-15561715D01*
X32368695Y-15413795D01*
X32279744Y-15280670D01*
X32166531Y-15167457D01*
X32033406Y-15078506D01*
X31885486Y-15017235D01*
X31728455Y-14986000D01*
X31568347Y-14986000D01*
X31412784Y-15016943D01*
X31442559Y-14867250D01*
X31442559Y-14707142D01*
X31436633Y-14677346D01*
X32156400Y-14677346D01*
X32156400Y-14837454D01*
X32187635Y-14994485D01*
X32248906Y-15142405D01*
X32337857Y-15275530D01*
X32451070Y-15388743D01*
X32584195Y-15477694D01*
X32732115Y-15538965D01*
X32844584Y-15561336D01*
X32848035Y-15578685D01*
X32909306Y-15726605D01*
X32998257Y-15859730D01*
X33111470Y-15972943D01*
X33244595Y-16061894D01*
X33392515Y-16123165D01*
X33549546Y-16154400D01*
X33709654Y-16154400D01*
X33866685Y-16123165D01*
X34014605Y-16061894D01*
X34147730Y-15972943D01*
X34260943Y-15859730D01*
X34305550Y-15792971D01*
X34290000Y-15871146D01*
X34290000Y-16031254D01*
X34321235Y-16188285D01*
X34382506Y-16336205D01*
X34382763Y-16336589D01*
X34319057Y-16400295D01*
X34230106Y-16533420D01*
X34168835Y-16681340D01*
X34137600Y-16838371D01*
X34137600Y-16998479D01*
X34168835Y-17155510D01*
X34230106Y-17303430D01*
X34319057Y-17436555D01*
X34432270Y-17549768D01*
X34565395Y-17638719D01*
X34713315Y-17699990D01*
X34870346Y-17731225D01*
X35030454Y-17731225D01*
X35187485Y-17699990D01*
X35335405Y-17638719D01*
X35468530Y-17549768D01*
X35581743Y-17436555D01*
X35670694Y-17303430D01*
X35695830Y-17242746D01*
X36017200Y-17242746D01*
X36017200Y-17402854D01*
X36048435Y-17559885D01*
X36109706Y-17707805D01*
X36198657Y-17840930D01*
X36311870Y-17954143D01*
X36444995Y-18043094D01*
X36592915Y-18104365D01*
X36749946Y-18135600D01*
X36910054Y-18135600D01*
X37067085Y-18104365D01*
X37215005Y-18043094D01*
X37348130Y-17954143D01*
X37461343Y-17840930D01*
X37550294Y-17707805D01*
X37611565Y-17559885D01*
X37642800Y-17402854D01*
X37642800Y-17242746D01*
X37611565Y-17085715D01*
X37550294Y-16937795D01*
X37461343Y-16804670D01*
X37348130Y-16691457D01*
X37215005Y-16602506D01*
X37067085Y-16541235D01*
X36910054Y-16510000D01*
X36749946Y-16510000D01*
X36592915Y-16541235D01*
X36444995Y-16602506D01*
X36311870Y-16691457D01*
X36198657Y-16804670D01*
X36109706Y-16937795D01*
X36048435Y-17085715D01*
X36017200Y-17242746D01*
X35695830Y-17242746D01*
X35731965Y-17155510D01*
X35763200Y-16998479D01*
X35763200Y-16838371D01*
X35731965Y-16681340D01*
X35670694Y-16533420D01*
X35670437Y-16533036D01*
X35734143Y-16469330D01*
X35823094Y-16336205D01*
X35884365Y-16188285D01*
X35915600Y-16031254D01*
X35915600Y-15871146D01*
X35884365Y-15714115D01*
X35823094Y-15566195D01*
X35734143Y-15433070D01*
X35620930Y-15319857D01*
X35487805Y-15230906D01*
X35339885Y-15169635D01*
X35182854Y-15138400D01*
X35022746Y-15138400D01*
X35010984Y-15140740D01*
X35071565Y-14994485D01*
X35102800Y-14837454D01*
X35102800Y-14677346D01*
X35071565Y-14520315D01*
X35010294Y-14372395D01*
X34921343Y-14239270D01*
X34808130Y-14126057D01*
X34675005Y-14037106D01*
X34527085Y-13975835D01*
X34370054Y-13944600D01*
X34209946Y-13944600D01*
X34052915Y-13975835D01*
X33904995Y-14037106D01*
X33771870Y-14126057D01*
X33658657Y-14239270D01*
X33629600Y-14282757D01*
X33600543Y-14239270D01*
X33487330Y-14126057D01*
X33354205Y-14037106D01*
X33206285Y-13975835D01*
X33049254Y-13944600D01*
X32889146Y-13944600D01*
X32732115Y-13975835D01*
X32584195Y-14037106D01*
X32451070Y-14126057D01*
X32337857Y-14239270D01*
X32248906Y-14372395D01*
X32187635Y-14520315D01*
X32156400Y-14677346D01*
X31436633Y-14677346D01*
X31411324Y-14550111D01*
X31350053Y-14402191D01*
X31261102Y-14269066D01*
X31147889Y-14155853D01*
X31014764Y-14066902D01*
X30866844Y-14005631D01*
X30709813Y-13974396D01*
X30549705Y-13974396D01*
X30392674Y-14005631D01*
X30244754Y-14066902D01*
X30111629Y-14155853D01*
X29998416Y-14269066D01*
X29909465Y-14402191D01*
X29848194Y-14550111D01*
X29816959Y-14707142D01*
X29103948Y-14707142D01*
X29064270Y-14611354D01*
X28975319Y-14478229D01*
X28862106Y-14365016D01*
X28728981Y-14276065D01*
X28581061Y-14214794D01*
X28424030Y-14183559D01*
X28263922Y-14183559D01*
X28106891Y-14214794D01*
X27958971Y-14276065D01*
X27825846Y-14365016D01*
X27712633Y-14478229D01*
X27623682Y-14611354D01*
X27562411Y-14759274D01*
X27531176Y-14916305D01*
X25349174Y-14916305D01*
X25396343Y-14869136D01*
X25485294Y-14736011D01*
X25546565Y-14588091D01*
X25577800Y-14431060D01*
X25577800Y-14270952D01*
X25546565Y-14113921D01*
X25485294Y-13966001D01*
X25396343Y-13832876D01*
X25283130Y-13719663D01*
X25150005Y-13630712D01*
X25002085Y-13569441D01*
X24845054Y-13538206D01*
X24684946Y-13538206D01*
X24527915Y-13569441D01*
X24379995Y-13630712D01*
X24246870Y-13719663D01*
X24133657Y-13832876D01*
X24044706Y-13966001D01*
X23983435Y-14113921D01*
X23952200Y-14270952D01*
X2538495Y-14270952D01*
X2548485Y-14268965D01*
X2696405Y-14207694D01*
X2829530Y-14118743D01*
X2942743Y-14005530D01*
X3031694Y-13872405D01*
X3092965Y-13724485D01*
X3124200Y-13567454D01*
X3124200Y-13407346D01*
X3092965Y-13250315D01*
X3031694Y-13102395D01*
X2942743Y-12969270D01*
X2847419Y-12873946D01*
X18313400Y-12873946D01*
X18313400Y-13034054D01*
X18344635Y-13191085D01*
X18405906Y-13339005D01*
X18494857Y-13472130D01*
X18608070Y-13585343D01*
X18741195Y-13674294D01*
X18889115Y-13735565D01*
X19046146Y-13766800D01*
X19206254Y-13766800D01*
X19363285Y-13735565D01*
X19511205Y-13674294D01*
X19644330Y-13585343D01*
X19757543Y-13472130D01*
X19846494Y-13339005D01*
X19907765Y-13191085D01*
X19939000Y-13034054D01*
X19939000Y-12873946D01*
X19907765Y-12716915D01*
X19846494Y-12568995D01*
X19795680Y-12492946D01*
X23952200Y-12492946D01*
X23952200Y-12653054D01*
X23983435Y-12810085D01*
X24044706Y-12958005D01*
X24133657Y-13091130D01*
X24246870Y-13204343D01*
X24379995Y-13293294D01*
X24527915Y-13354565D01*
X24684946Y-13385800D01*
X24845054Y-13385800D01*
X25002085Y-13354565D01*
X25150005Y-13293294D01*
X25207397Y-13254946D01*
X28321004Y-13254946D01*
X28321004Y-13415054D01*
X28352239Y-13572085D01*
X28413510Y-13720005D01*
X28502461Y-13853130D01*
X28615674Y-13966343D01*
X28748799Y-14055294D01*
X28896719Y-14116565D01*
X29053750Y-14147800D01*
X29213858Y-14147800D01*
X29370889Y-14116565D01*
X29518809Y-14055294D01*
X29651934Y-13966343D01*
X29765147Y-13853130D01*
X29825405Y-13762946D01*
X35636200Y-13762946D01*
X35636200Y-13923054D01*
X35667435Y-14080085D01*
X35728706Y-14228005D01*
X35817657Y-14361130D01*
X35930870Y-14474343D01*
X36063995Y-14563294D01*
X36211915Y-14624565D01*
X36368946Y-14655800D01*
X36529054Y-14655800D01*
X36686085Y-14624565D01*
X36834005Y-14563294D01*
X36967130Y-14474343D01*
X37080343Y-14361130D01*
X37169294Y-14228005D01*
X37230565Y-14080085D01*
X37261800Y-13923054D01*
X37261800Y-13762946D01*
X37230565Y-13605915D01*
X37169294Y-13457995D01*
X37080343Y-13324870D01*
X36967130Y-13211657D01*
X36834005Y-13122706D01*
X36686085Y-13061435D01*
X36529054Y-13030200D01*
X36368946Y-13030200D01*
X36211915Y-13061435D01*
X36063995Y-13122706D01*
X35930870Y-13211657D01*
X35817657Y-13324870D01*
X35728706Y-13457995D01*
X35667435Y-13605915D01*
X35636200Y-13762946D01*
X29825405Y-13762946D01*
X29854098Y-13720005D01*
X29915369Y-13572085D01*
X29946604Y-13415054D01*
X29946604Y-13254946D01*
X29915369Y-13097915D01*
X29854098Y-12949995D01*
X29765147Y-12816870D01*
X29651934Y-12703657D01*
X29518809Y-12614706D01*
X29370889Y-12553435D01*
X29213858Y-12522200D01*
X29053750Y-12522200D01*
X28896719Y-12553435D01*
X28748799Y-12614706D01*
X28615674Y-12703657D01*
X28502461Y-12816870D01*
X28413510Y-12949995D01*
X28352239Y-13097915D01*
X28321004Y-13254946D01*
X25207397Y-13254946D01*
X25283130Y-13204343D01*
X25396343Y-13091130D01*
X25485294Y-12958005D01*
X25546565Y-12810085D01*
X25577800Y-12653054D01*
X25577800Y-12492946D01*
X25546565Y-12335915D01*
X25485294Y-12187995D01*
X25396343Y-12054870D01*
X25283130Y-11941657D01*
X25150005Y-11852706D01*
X25002085Y-11791435D01*
X24845054Y-11760200D01*
X24684946Y-11760200D01*
X24527915Y-11791435D01*
X24379995Y-11852706D01*
X24246870Y-11941657D01*
X24133657Y-12054870D01*
X24044706Y-12187995D01*
X23983435Y-12335915D01*
X23952200Y-12492946D01*
X19795680Y-12492946D01*
X19757543Y-12435870D01*
X19644330Y-12322657D01*
X19511205Y-12233706D01*
X19363285Y-12172435D01*
X19206254Y-12141200D01*
X19046146Y-12141200D01*
X18889115Y-12172435D01*
X18741195Y-12233706D01*
X18608070Y-12322657D01*
X18494857Y-12435870D01*
X18405906Y-12568995D01*
X18344635Y-12716915D01*
X18313400Y-12873946D01*
X2847419Y-12873946D01*
X2829530Y-12856057D01*
X2696405Y-12767106D01*
X2548485Y-12705835D01*
X2391454Y-12674600D01*
X2231346Y-12674600D01*
X2074315Y-12705835D01*
X1926395Y-12767106D01*
X1793270Y-12856057D01*
X1680057Y-12969270D01*
X1591106Y-13102395D01*
X1529835Y-13250315D01*
X1498600Y-13407346D01*
X583000Y-13407346D01*
X583000Y-11400746D01*
X5943600Y-11400746D01*
X5943600Y-11560854D01*
X5974835Y-11717885D01*
X6036106Y-11865805D01*
X6125057Y-11998930D01*
X6238270Y-12112143D01*
X6371395Y-12201094D01*
X6519315Y-12262365D01*
X6676346Y-12293600D01*
X6836454Y-12293600D01*
X6993485Y-12262365D01*
X7141405Y-12201094D01*
X7258424Y-12122905D01*
X7375442Y-12201094D01*
X7523362Y-12262365D01*
X7680393Y-12293600D01*
X7840501Y-12293600D01*
X7997532Y-12262365D01*
X8145452Y-12201094D01*
X8278577Y-12112143D01*
X8391790Y-11998930D01*
X8480741Y-11865805D01*
X8542012Y-11717885D01*
X8573247Y-11560854D01*
X8573247Y-11400746D01*
X8547837Y-11272999D01*
X8844600Y-11272999D01*
X8844600Y-11433107D01*
X8875835Y-11590138D01*
X8937106Y-11738058D01*
X9026057Y-11871183D01*
X9139270Y-11984396D01*
X9272395Y-12073347D01*
X9420315Y-12134618D01*
X9577346Y-12165853D01*
X9737454Y-12165853D01*
X9894485Y-12134618D01*
X10042405Y-12073347D01*
X10175530Y-11984396D01*
X10288743Y-11871183D01*
X10377694Y-11738058D01*
X10438965Y-11590138D01*
X10470200Y-11433107D01*
X10470200Y-11431018D01*
X19506516Y-11431018D01*
X19506516Y-11591126D01*
X19537751Y-11748157D01*
X19599022Y-11896077D01*
X19687973Y-12029202D01*
X19801186Y-12142415D01*
X19934311Y-12231366D01*
X20082231Y-12292637D01*
X20239262Y-12323872D01*
X20399370Y-12323872D01*
X20556401Y-12292637D01*
X20704321Y-12231366D01*
X20837446Y-12142415D01*
X20950659Y-12029202D01*
X21039610Y-11896077D01*
X21100881Y-11748157D01*
X21132116Y-11591126D01*
X21132116Y-11431018D01*
X21100881Y-11273987D01*
X21039610Y-11126067D01*
X20950659Y-10992942D01*
X20837446Y-10879729D01*
X20780900Y-10841946D01*
X33096200Y-10841946D01*
X33096200Y-11002054D01*
X33127435Y-11159085D01*
X33188706Y-11307005D01*
X33277657Y-11440130D01*
X33390870Y-11553343D01*
X33523995Y-11642294D01*
X33671915Y-11703565D01*
X33828946Y-11734800D01*
X33989054Y-11734800D01*
X34146085Y-11703565D01*
X34294005Y-11642294D01*
X34427130Y-11553343D01*
X34540343Y-11440130D01*
X34629294Y-11307005D01*
X34632549Y-11299146D01*
X41478200Y-11299146D01*
X41478200Y-11459254D01*
X41509435Y-11616285D01*
X41570706Y-11764205D01*
X41659657Y-11897330D01*
X41772870Y-12010543D01*
X41905995Y-12099494D01*
X42053915Y-12160765D01*
X42210946Y-12192000D01*
X42371054Y-12192000D01*
X42528085Y-12160765D01*
X42676005Y-12099494D01*
X42809130Y-12010543D01*
X42922343Y-11897330D01*
X43011294Y-11764205D01*
X43072565Y-11616285D01*
X43103800Y-11459254D01*
X43103800Y-11299146D01*
X43072565Y-11142115D01*
X43011294Y-10994195D01*
X42922343Y-10861070D01*
X42809130Y-10747857D01*
X42676005Y-10658906D01*
X42528085Y-10597635D01*
X42371054Y-10566400D01*
X42210946Y-10566400D01*
X42053915Y-10597635D01*
X41905995Y-10658906D01*
X41772870Y-10747857D01*
X41659657Y-10861070D01*
X41570706Y-10994195D01*
X41509435Y-11142115D01*
X41478200Y-11299146D01*
X34632549Y-11299146D01*
X34690565Y-11159085D01*
X34721800Y-11002054D01*
X34721800Y-10841946D01*
X34690565Y-10684915D01*
X34629294Y-10536995D01*
X34540343Y-10403870D01*
X34427130Y-10290657D01*
X34294005Y-10201706D01*
X34146085Y-10140435D01*
X33989054Y-10109200D01*
X33828946Y-10109200D01*
X33671915Y-10140435D01*
X33523995Y-10201706D01*
X33390870Y-10290657D01*
X33277657Y-10403870D01*
X33188706Y-10536995D01*
X33127435Y-10684915D01*
X33096200Y-10841946D01*
X20780900Y-10841946D01*
X20704321Y-10790778D01*
X20556401Y-10729507D01*
X20399370Y-10698272D01*
X20239262Y-10698272D01*
X20082231Y-10729507D01*
X19934311Y-10790778D01*
X19801186Y-10879729D01*
X19687973Y-10992942D01*
X19599022Y-11126067D01*
X19537751Y-11273987D01*
X19506516Y-11431018D01*
X10470200Y-11431018D01*
X10470200Y-11272999D01*
X10438965Y-11115968D01*
X10377694Y-10968048D01*
X10288743Y-10834923D01*
X10175530Y-10721710D01*
X10042405Y-10632759D01*
X9894485Y-10571488D01*
X9737454Y-10540253D01*
X9577346Y-10540253D01*
X9420315Y-10571488D01*
X9272395Y-10632759D01*
X9139270Y-10721710D01*
X9026057Y-10834923D01*
X8937106Y-10968048D01*
X8875835Y-11115968D01*
X8844600Y-11272999D01*
X8547837Y-11272999D01*
X8542012Y-11243715D01*
X8480741Y-11095795D01*
X8391790Y-10962670D01*
X8278577Y-10849457D01*
X8145452Y-10760506D01*
X7997532Y-10699235D01*
X7840501Y-10668000D01*
X7680393Y-10668000D01*
X7523362Y-10699235D01*
X7375442Y-10760506D01*
X7258424Y-10838695D01*
X7141405Y-10760506D01*
X6993485Y-10699235D01*
X6836454Y-10668000D01*
X6676346Y-10668000D01*
X6519315Y-10699235D01*
X6371395Y-10760506D01*
X6238270Y-10849457D01*
X6125057Y-10962670D01*
X6036106Y-11095795D01*
X5974835Y-11243715D01*
X5943600Y-11400746D01*
X583000Y-11400746D01*
X583000Y-8756249D01*
X1817000Y-8756249D01*
X1817000Y-9023751D01*
X1869187Y-9286114D01*
X1971556Y-9533254D01*
X2120172Y-9755675D01*
X2309325Y-9944828D01*
X2531746Y-10093444D01*
X2778886Y-10195813D01*
X3041249Y-10248000D01*
X3308751Y-10248000D01*
X3571114Y-10195813D01*
X3818254Y-10093444D01*
X4040675Y-9944828D01*
X4229828Y-9755675D01*
X4354543Y-9569025D01*
X4354543Y-9740000D01*
X4364351Y-9839585D01*
X4393399Y-9935343D01*
X4440571Y-10023595D01*
X4504052Y-10100948D01*
X4581405Y-10164429D01*
X4669657Y-10211601D01*
X4765415Y-10240649D01*
X4865000Y-10250457D01*
X6565000Y-10250457D01*
X6664585Y-10240649D01*
X6760343Y-10211601D01*
X6848595Y-10164429D01*
X6925948Y-10100948D01*
X6989429Y-10023595D01*
X7027191Y-9952946D01*
X9906000Y-9952946D01*
X9906000Y-10113054D01*
X9937235Y-10270085D01*
X9998506Y-10418005D01*
X10087457Y-10551130D01*
X10200670Y-10664343D01*
X10333795Y-10753294D01*
X10481715Y-10814565D01*
X10638746Y-10845800D01*
X10798854Y-10845800D01*
X10955885Y-10814565D01*
X11103805Y-10753294D01*
X11236930Y-10664343D01*
X11350143Y-10551130D01*
X11439094Y-10418005D01*
X11500365Y-10270085D01*
X11531600Y-10113054D01*
X11531600Y-9952946D01*
X11500365Y-9795915D01*
X11439094Y-9647995D01*
X11350143Y-9514870D01*
X11236930Y-9401657D01*
X11103805Y-9312706D01*
X10955885Y-9251435D01*
X10798854Y-9220200D01*
X10638746Y-9220200D01*
X10481715Y-9251435D01*
X10333795Y-9312706D01*
X10200670Y-9401657D01*
X10087457Y-9514870D01*
X9998506Y-9647995D01*
X9937235Y-9795915D01*
X9906000Y-9952946D01*
X7027191Y-9952946D01*
X7036601Y-9935343D01*
X7065649Y-9839585D01*
X7075457Y-9740000D01*
X7075457Y-8428946D01*
X13004800Y-8428946D01*
X13004800Y-8589054D01*
X13036035Y-8746085D01*
X13097306Y-8894005D01*
X13186257Y-9027130D01*
X13299470Y-9140343D01*
X13432595Y-9229294D01*
X13580515Y-9290565D01*
X13737546Y-9321800D01*
X13897654Y-9321800D01*
X14054685Y-9290565D01*
X14202605Y-9229294D01*
X14335730Y-9140343D01*
X14448943Y-9027130D01*
X14537894Y-8894005D01*
X14572712Y-8809946D01*
X19507200Y-8809946D01*
X19507200Y-8970054D01*
X19538435Y-9127085D01*
X19599706Y-9275005D01*
X19688657Y-9408130D01*
X19801870Y-9521343D01*
X19934995Y-9610294D01*
X20082915Y-9671565D01*
X20239946Y-9702800D01*
X20400054Y-9702800D01*
X20419429Y-9698946D01*
X25501600Y-9698946D01*
X25501600Y-9859054D01*
X25532835Y-10016085D01*
X25594106Y-10164005D01*
X25683057Y-10297130D01*
X25796270Y-10410343D01*
X25929395Y-10499294D01*
X26077315Y-10560565D01*
X26234346Y-10591800D01*
X26394454Y-10591800D01*
X26551485Y-10560565D01*
X26699405Y-10499294D01*
X26832530Y-10410343D01*
X26945743Y-10297130D01*
X27034694Y-10164005D01*
X27095965Y-10016085D01*
X27127200Y-9859054D01*
X27127200Y-9698946D01*
X27095965Y-9541915D01*
X27034694Y-9393995D01*
X27017824Y-9368747D01*
X27381200Y-9368747D01*
X27381200Y-9528855D01*
X27412435Y-9685886D01*
X27473706Y-9833806D01*
X27562657Y-9966931D01*
X27675870Y-10080144D01*
X27808995Y-10169095D01*
X27956915Y-10230366D01*
X28113946Y-10261601D01*
X28274054Y-10261601D01*
X28431085Y-10230366D01*
X28579005Y-10169095D01*
X28712130Y-10080144D01*
X28825343Y-9966931D01*
X28914294Y-9833806D01*
X28975565Y-9685886D01*
X28998228Y-9571946D01*
X29819600Y-9571946D01*
X29819600Y-9732054D01*
X29850835Y-9889085D01*
X29912106Y-10037005D01*
X30001057Y-10170130D01*
X30114270Y-10283343D01*
X30247395Y-10372294D01*
X30395315Y-10433565D01*
X30552346Y-10464800D01*
X30712454Y-10464800D01*
X30869485Y-10433565D01*
X31017405Y-10372294D01*
X31150530Y-10283343D01*
X31263743Y-10170130D01*
X31352694Y-10037005D01*
X31413965Y-9889085D01*
X31445200Y-9732054D01*
X31445200Y-9571946D01*
X31413965Y-9414915D01*
X31352694Y-9266995D01*
X31263743Y-9133870D01*
X31150530Y-9020657D01*
X31017405Y-8931706D01*
X30869485Y-8870435D01*
X30712454Y-8839200D01*
X30552346Y-8839200D01*
X30395315Y-8870435D01*
X30247395Y-8931706D01*
X30114270Y-9020657D01*
X30001057Y-9133870D01*
X29912106Y-9266995D01*
X29850835Y-9414915D01*
X29819600Y-9571946D01*
X28998228Y-9571946D01*
X29006800Y-9528855D01*
X29006800Y-9368747D01*
X28975565Y-9211716D01*
X28914294Y-9063796D01*
X28825343Y-8930671D01*
X28712130Y-8817458D01*
X28579005Y-8728507D01*
X28431085Y-8667236D01*
X28274054Y-8636001D01*
X28113946Y-8636001D01*
X27956915Y-8667236D01*
X27808995Y-8728507D01*
X27675870Y-8817458D01*
X27562657Y-8930671D01*
X27473706Y-9063796D01*
X27412435Y-9211716D01*
X27381200Y-9368747D01*
X27017824Y-9368747D01*
X26945743Y-9260870D01*
X26832530Y-9147657D01*
X26699405Y-9058706D01*
X26551485Y-8997435D01*
X26394454Y-8966200D01*
X26234346Y-8966200D01*
X26077315Y-8997435D01*
X25929395Y-9058706D01*
X25796270Y-9147657D01*
X25683057Y-9260870D01*
X25594106Y-9393995D01*
X25532835Y-9541915D01*
X25501600Y-9698946D01*
X20419429Y-9698946D01*
X20557085Y-9671565D01*
X20705005Y-9610294D01*
X20838130Y-9521343D01*
X20951343Y-9408130D01*
X21040294Y-9275005D01*
X21101565Y-9127085D01*
X21132800Y-8970054D01*
X21132800Y-8809946D01*
X21101565Y-8652915D01*
X21071920Y-8581346D01*
X31572200Y-8581346D01*
X31572200Y-8741454D01*
X31603435Y-8898485D01*
X31664706Y-9046405D01*
X31753657Y-9179530D01*
X31866870Y-9292743D01*
X31999995Y-9381694D01*
X32147915Y-9442965D01*
X32304946Y-9474200D01*
X32465054Y-9474200D01*
X32622085Y-9442965D01*
X32770005Y-9381694D01*
X32903130Y-9292743D01*
X33016343Y-9179530D01*
X33105294Y-9046405D01*
X33166565Y-8898485D01*
X33194857Y-8756249D01*
X46267000Y-8756249D01*
X46267000Y-9023751D01*
X46319187Y-9286114D01*
X46421556Y-9533254D01*
X46570172Y-9755675D01*
X46759325Y-9944828D01*
X46981746Y-10093444D01*
X47228886Y-10195813D01*
X47491249Y-10248000D01*
X47758751Y-10248000D01*
X48021114Y-10195813D01*
X48268254Y-10093444D01*
X48490675Y-9944828D01*
X48678593Y-9756910D01*
X48689188Y-9864482D01*
X48725498Y-9984180D01*
X48784463Y-10094494D01*
X48863815Y-10191185D01*
X48960506Y-10270537D01*
X49070820Y-10329502D01*
X49190518Y-10365812D01*
X49315000Y-10378072D01*
X49879250Y-10375000D01*
X50038000Y-10216250D01*
X50038000Y-9017000D01*
X50292000Y-9017000D01*
X50292000Y-10216250D01*
X50450750Y-10375000D01*
X51015000Y-10378072D01*
X51139482Y-10365812D01*
X51259180Y-10329502D01*
X51369494Y-10270537D01*
X51466185Y-10191185D01*
X51545537Y-10094494D01*
X51604502Y-9984180D01*
X51640812Y-9864482D01*
X51653072Y-9740000D01*
X51650000Y-9175750D01*
X51491250Y-9017000D01*
X50292000Y-9017000D01*
X50038000Y-9017000D01*
X50018000Y-9017000D01*
X50018000Y-8763000D01*
X50038000Y-8763000D01*
X50038000Y-7563750D01*
X50292000Y-7563750D01*
X50292000Y-8763000D01*
X51491250Y-8763000D01*
X51650000Y-8604250D01*
X51653072Y-8040000D01*
X51640812Y-7915518D01*
X51604502Y-7795820D01*
X51545537Y-7685506D01*
X51466185Y-7588815D01*
X51369494Y-7509463D01*
X51259180Y-7450498D01*
X51139482Y-7414188D01*
X51015000Y-7401928D01*
X50450750Y-7405000D01*
X50292000Y-7563750D01*
X50038000Y-7563750D01*
X49879250Y-7405000D01*
X49315000Y-7401928D01*
X49190518Y-7414188D01*
X49070820Y-7450498D01*
X48960506Y-7509463D01*
X48863815Y-7588815D01*
X48784463Y-7685506D01*
X48725498Y-7795820D01*
X48689188Y-7915518D01*
X48678593Y-8023090D01*
X48490675Y-7835172D01*
X48268254Y-7686556D01*
X48021114Y-7584187D01*
X47758751Y-7532000D01*
X47491249Y-7532000D01*
X47228886Y-7584187D01*
X46981746Y-7686556D01*
X46759325Y-7835172D01*
X46570172Y-8024325D01*
X46421556Y-8246746D01*
X46319187Y-8493886D01*
X46267000Y-8756249D01*
X33194857Y-8756249D01*
X33197800Y-8741454D01*
X33197800Y-8581346D01*
X33166565Y-8424315D01*
X33105294Y-8276395D01*
X33016343Y-8143270D01*
X32903130Y-8030057D01*
X32770005Y-7941106D01*
X32622085Y-7879835D01*
X32465054Y-7848600D01*
X32304946Y-7848600D01*
X32147915Y-7879835D01*
X31999995Y-7941106D01*
X31866870Y-8030057D01*
X31753657Y-8143270D01*
X31664706Y-8276395D01*
X31603435Y-8424315D01*
X31572200Y-8581346D01*
X21071920Y-8581346D01*
X21040294Y-8504995D01*
X20951343Y-8371870D01*
X20838130Y-8258657D01*
X20705005Y-8169706D01*
X20557085Y-8108435D01*
X20400054Y-8077200D01*
X20239946Y-8077200D01*
X20082915Y-8108435D01*
X19934995Y-8169706D01*
X19801870Y-8258657D01*
X19688657Y-8371870D01*
X19599706Y-8504995D01*
X19538435Y-8652915D01*
X19507200Y-8809946D01*
X14572712Y-8809946D01*
X14599165Y-8746085D01*
X14630400Y-8589054D01*
X14630400Y-8428946D01*
X14599165Y-8271915D01*
X14537894Y-8123995D01*
X14448943Y-7990870D01*
X14335730Y-7877657D01*
X14202605Y-7788706D01*
X14054685Y-7727435D01*
X13897654Y-7696200D01*
X13737546Y-7696200D01*
X13580515Y-7727435D01*
X13432595Y-7788706D01*
X13299470Y-7877657D01*
X13186257Y-7990870D01*
X13097306Y-8123995D01*
X13036035Y-8271915D01*
X13004800Y-8428946D01*
X7075457Y-8428946D01*
X7075457Y-8040000D01*
X7065649Y-7940415D01*
X7036601Y-7844657D01*
X6989429Y-7756405D01*
X6925948Y-7679052D01*
X6848595Y-7615571D01*
X6760343Y-7568399D01*
X6664585Y-7539351D01*
X6565000Y-7529543D01*
X4865000Y-7529543D01*
X4765415Y-7539351D01*
X4669657Y-7568399D01*
X4581405Y-7615571D01*
X4504052Y-7679052D01*
X4440571Y-7756405D01*
X4393399Y-7844657D01*
X4364351Y-7940415D01*
X4354543Y-8040000D01*
X4354543Y-8210975D01*
X4229828Y-8024325D01*
X4040675Y-7835172D01*
X3818254Y-7686556D01*
X3571114Y-7584187D01*
X3308751Y-7532000D01*
X3041249Y-7532000D01*
X2778886Y-7584187D01*
X2531746Y-7686556D01*
X2309325Y-7835172D01*
X2120172Y-8024325D01*
X1971556Y-8246746D01*
X1869187Y-8493886D01*
X1817000Y-8756249D01*
X583000Y-8756249D01*
X583000Y-7108146D01*
X16891000Y-7108146D01*
X16891000Y-7268254D01*
X16922235Y-7425285D01*
X16983506Y-7573205D01*
X17072457Y-7706330D01*
X17185670Y-7819543D01*
X17318795Y-7908494D01*
X17466715Y-7969765D01*
X17623746Y-8001000D01*
X17783854Y-8001000D01*
X17940885Y-7969765D01*
X18088805Y-7908494D01*
X18221930Y-7819543D01*
X18335143Y-7706330D01*
X18424094Y-7573205D01*
X18485365Y-7425285D01*
X18516600Y-7268254D01*
X18516600Y-7108146D01*
X18492702Y-6987997D01*
X19861608Y-6987997D01*
X19872715Y-7181701D01*
X20043566Y-7252982D01*
X20225041Y-7289560D01*
X20410164Y-7290033D01*
X20591822Y-7254380D01*
X20763035Y-7183973D01*
X20767285Y-7181701D01*
X20778392Y-6987997D01*
X20320000Y-6529605D01*
X19861608Y-6987997D01*
X18492702Y-6987997D01*
X18485365Y-6951115D01*
X18424094Y-6803195D01*
X18335143Y-6670070D01*
X18221930Y-6556857D01*
X18088805Y-6467906D01*
X18021831Y-6440164D01*
X19379967Y-6440164D01*
X19415620Y-6621822D01*
X19486027Y-6793035D01*
X19488299Y-6797285D01*
X19682003Y-6808392D01*
X20140395Y-6350000D01*
X20499605Y-6350000D01*
X20957997Y-6808392D01*
X21151701Y-6797285D01*
X21222982Y-6626434D01*
X21259560Y-6444959D01*
X21260033Y-6259836D01*
X21247062Y-6193746D01*
X27787600Y-6193746D01*
X27787600Y-6353854D01*
X27818835Y-6510885D01*
X27880106Y-6658805D01*
X27969057Y-6791930D01*
X28082270Y-6905143D01*
X28215395Y-6994094D01*
X28363315Y-7055365D01*
X28520346Y-7086600D01*
X28680454Y-7086600D01*
X28837485Y-7055365D01*
X28955584Y-7006446D01*
X30073700Y-7006446D01*
X30073700Y-7166554D01*
X30104935Y-7323585D01*
X30166206Y-7471505D01*
X30255157Y-7604630D01*
X30368370Y-7717843D01*
X30501495Y-7806794D01*
X30649415Y-7868065D01*
X30806446Y-7899300D01*
X30966554Y-7899300D01*
X31123585Y-7868065D01*
X31271505Y-7806794D01*
X31404630Y-7717843D01*
X31517843Y-7604630D01*
X31606794Y-7471505D01*
X31668065Y-7323585D01*
X31699300Y-7166554D01*
X31699300Y-7006446D01*
X31668065Y-6849415D01*
X31606794Y-6701495D01*
X31573034Y-6650968D01*
X36017200Y-6650968D01*
X36017200Y-6811076D01*
X36048435Y-6968107D01*
X36109706Y-7116027D01*
X36198657Y-7249152D01*
X36311870Y-7362365D01*
X36444995Y-7451316D01*
X36592915Y-7512587D01*
X36749946Y-7543822D01*
X36910054Y-7543822D01*
X37067085Y-7512587D01*
X37215005Y-7451316D01*
X37348130Y-7362365D01*
X37461343Y-7249152D01*
X37550294Y-7116027D01*
X37611565Y-6968107D01*
X37642800Y-6811076D01*
X37642800Y-6650968D01*
X37611565Y-6493937D01*
X37592432Y-6447746D01*
X41478200Y-6447746D01*
X41478200Y-6607854D01*
X41509435Y-6764885D01*
X41570706Y-6912805D01*
X41659657Y-7045930D01*
X41772870Y-7159143D01*
X41905995Y-7248094D01*
X42053915Y-7309365D01*
X42210946Y-7340600D01*
X42371054Y-7340600D01*
X42528085Y-7309365D01*
X42676005Y-7248094D01*
X42809130Y-7159143D01*
X42922343Y-7045930D01*
X43011294Y-6912805D01*
X43072565Y-6764885D01*
X43103800Y-6607854D01*
X43103800Y-6447746D01*
X43072565Y-6290715D01*
X43011294Y-6142795D01*
X42922343Y-6009670D01*
X42809130Y-5896457D01*
X42676005Y-5807506D01*
X42528085Y-5746235D01*
X42371054Y-5715000D01*
X42210946Y-5715000D01*
X42053915Y-5746235D01*
X41905995Y-5807506D01*
X41772870Y-5896457D01*
X41659657Y-6009670D01*
X41570706Y-6142795D01*
X41509435Y-6290715D01*
X41478200Y-6447746D01*
X37592432Y-6447746D01*
X37550294Y-6346017D01*
X37461343Y-6212892D01*
X37348130Y-6099679D01*
X37215005Y-6010728D01*
X37067085Y-5949457D01*
X36910054Y-5918222D01*
X36749946Y-5918222D01*
X36592915Y-5949457D01*
X36444995Y-6010728D01*
X36311870Y-6099679D01*
X36198657Y-6212892D01*
X36109706Y-6346017D01*
X36048435Y-6493937D01*
X36017200Y-6650968D01*
X31573034Y-6650968D01*
X31517843Y-6568370D01*
X31404630Y-6455157D01*
X31271505Y-6366206D01*
X31123585Y-6304935D01*
X30966554Y-6273700D01*
X30806446Y-6273700D01*
X30649415Y-6304935D01*
X30501495Y-6366206D01*
X30368370Y-6455157D01*
X30255157Y-6568370D01*
X30166206Y-6701495D01*
X30104935Y-6849415D01*
X30073700Y-7006446D01*
X28955584Y-7006446D01*
X28985405Y-6994094D01*
X29118530Y-6905143D01*
X29231743Y-6791930D01*
X29320694Y-6658805D01*
X29381965Y-6510885D01*
X29413200Y-6353854D01*
X29413200Y-6193746D01*
X29381965Y-6036715D01*
X29320694Y-5888795D01*
X29231743Y-5755670D01*
X29118530Y-5642457D01*
X28985405Y-5553506D01*
X28837485Y-5492235D01*
X28680454Y-5461000D01*
X28520346Y-5461000D01*
X28363315Y-5492235D01*
X28215395Y-5553506D01*
X28082270Y-5642457D01*
X27969057Y-5755670D01*
X27880106Y-5888795D01*
X27818835Y-6036715D01*
X27787600Y-6193746D01*
X21247062Y-6193746D01*
X21224380Y-6078178D01*
X21153973Y-5906965D01*
X21151701Y-5902715D01*
X20957997Y-5891608D01*
X20499605Y-6350000D01*
X20140395Y-6350000D01*
X19682003Y-5891608D01*
X19488299Y-5902715D01*
X19417018Y-6073566D01*
X19380440Y-6255041D01*
X19379967Y-6440164D01*
X18021831Y-6440164D01*
X17940885Y-6406635D01*
X17783854Y-6375400D01*
X17623746Y-6375400D01*
X17466715Y-6406635D01*
X17318795Y-6467906D01*
X17185670Y-6556857D01*
X17072457Y-6670070D01*
X16983506Y-6803195D01*
X16922235Y-6951115D01*
X16891000Y-7108146D01*
X583000Y-7108146D01*
X583000Y-5712003D01*
X19861608Y-5712003D01*
X20320000Y-6170395D01*
X20778392Y-5712003D01*
X20767285Y-5518299D01*
X20596434Y-5447018D01*
X20414959Y-5410440D01*
X20229836Y-5409967D01*
X20048178Y-5445620D01*
X19876965Y-5516027D01*
X19872715Y-5518299D01*
X19861608Y-5712003D01*
X583000Y-5712003D01*
X583000Y-583000D01*
X9451622Y-583000D01*
X9436900Y-631532D01*
G37*
G04 #@! TD.AperFunction*
M02*
