G04 #@! TF.GenerationSoftware,KiCad,Pcbnew,5.1.10-88a1d61d58~88~ubuntu20.04.1*
G04 #@! TF.CreationDate,2021-06-15T20:39:53-04:00*
G04 #@! TF.ProjectId,oscope,6f73636f-7065-42e6-9b69-6361645f7063,rev?*
G04 #@! TF.SameCoordinates,PX3c8eee0PY31a8670*
G04 #@! TF.FileFunction,Copper,L3,Inr*
G04 #@! TF.FilePolarity,Positive*
%FSLAX46Y46*%
G04 Gerber Fmt 4.6, Leading zero omitted, Abs format (unit mm)*
G04 Created by KiCad (PCBNEW 5.1.10-88a1d61d58~88~ubuntu20.04.1) date 2021-06-15 20:39:53*
%MOMM*%
%LPD*%
G01*
G04 APERTURE LIST*
G04 #@! TA.AperFunction,ComponentPad*
%ADD10C,0.609600*%
G04 #@! TD*
G04 #@! TA.AperFunction,ComponentPad*
%ADD11O,1.160000X2.160000*%
G04 #@! TD*
G04 #@! TA.AperFunction,ComponentPad*
%ADD12O,1.320000X2.520000*%
G04 #@! TD*
G04 #@! TA.AperFunction,ComponentPad*
%ADD13O,1.700000X1.700000*%
G04 #@! TD*
G04 #@! TA.AperFunction,ComponentPad*
%ADD14R,1.700000X1.700000*%
G04 #@! TD*
G04 #@! TA.AperFunction,ViaPad*
%ADD15C,0.609600*%
G04 #@! TD*
G04 #@! TA.AperFunction,Conductor*
%ADD16C,0.203200*%
G04 #@! TD*
G04 #@! TA.AperFunction,Conductor*
%ADD17C,0.381000*%
G04 #@! TD*
G04 #@! TA.AperFunction,Conductor*
%ADD18C,0.254000*%
G04 #@! TD*
G04 #@! TA.AperFunction,Conductor*
%ADD19C,0.100000*%
G04 #@! TD*
G04 APERTURE END LIST*
D10*
X20320000Y-6350000D03*
D11*
X17458000Y-3860500D03*
X10228000Y-3860500D03*
D12*
X17098000Y-1460500D03*
X10588000Y-1460500D03*
D13*
X40640000Y-34290000D03*
X40640000Y-36830000D03*
X40640000Y-39370000D03*
X40640000Y-41910000D03*
X40640000Y-44450000D03*
D14*
X40640000Y-46990000D03*
X12700000Y-46990000D03*
D13*
X12700000Y-44450000D03*
X12700000Y-41910000D03*
X12700000Y-39370000D03*
X12700000Y-36830000D03*
X12700000Y-34290000D03*
D14*
X5715000Y-8890000D03*
D13*
X3175000Y-8890000D03*
X47625000Y-8890000D03*
D14*
X50165000Y-8890000D03*
D10*
X7747000Y-18923000D03*
X7747000Y-16383000D03*
X10287000Y-16383000D03*
X10287000Y-18923000D03*
D15*
X18237200Y-6629400D03*
X24206200Y-13106400D03*
X20193000Y-1752600D03*
X26289000Y-1752600D03*
X34264600Y-20650200D03*
X18719800Y-27279600D03*
X42265600Y-29844998D03*
X35179000Y-3073400D03*
X14986000Y-27686000D03*
X45847000Y-46990000D03*
X5969000Y-4445000D03*
X27584400Y-12446000D03*
X4394200Y-46177200D03*
X26543000Y-22860000D03*
X28752800Y-30327600D03*
X32638996Y-2362210D03*
X42265600Y-17653000D03*
X39293800Y-3048000D03*
X40640000Y-8712200D03*
X40640000Y-22174200D03*
X39319200Y-16510000D03*
X10820400Y-28067000D03*
X1320800Y-21488400D03*
X17145000Y-22783800D03*
X23901400Y-19761210D03*
X20396200Y-19761210D03*
X47548800Y-24511000D03*
X42291000Y-1930400D03*
X46685200Y-5207000D03*
X46685200Y-12700000D03*
X19558000Y-12141200D03*
X5283194Y-28194000D03*
X10414000Y-8483600D03*
X12547600Y-5130800D03*
X27815818Y-19195014D03*
X1778000Y-39370000D03*
X18084800Y-14401790D03*
X14256244Y-19407126D03*
X1320800Y-14147800D03*
X21132380Y-8863795D03*
X25349200Y-13766800D03*
X24028400Y-26035000D03*
X21742400Y-2540000D03*
X27686000Y-3962400D03*
X34290000Y-5410200D03*
X16637000Y-28778200D03*
X14020800Y-27711400D03*
X45974000Y-45085000D03*
X36830000Y-3835400D03*
X36830000Y-17322800D03*
X10287000Y-24612600D03*
X18008600Y-20421600D03*
X18262600Y-16713210D03*
X42291000Y-24511000D03*
X42291000Y-11379200D03*
X42291000Y-6527800D03*
X13817600Y-8509000D03*
X10718800Y-10033000D03*
X26466800Y-18821400D03*
X23876000Y-18135598D03*
X1778000Y-36830000D03*
X3098806Y-17805400D03*
X25044400Y-26009600D03*
X36449000Y-13843000D03*
X30810200Y-2489200D03*
X11963400Y-29768800D03*
X15925800Y-21894800D03*
X12573000Y-30505400D03*
X14681200Y-22504410D03*
X11033220Y-21176943D03*
X5629965Y-21169986D03*
X12459245Y-21120100D03*
X7456822Y-21171551D03*
X23799800Y-27711400D03*
X33274000Y-27711400D03*
X2311400Y-13487400D03*
X838200Y-22199600D03*
X4445000Y-36931600D03*
X2590804Y-23698200D03*
X5968997Y-36956997D03*
X3225810Y-23012400D03*
X6096000Y-35737800D03*
X4292600Y-25247600D03*
X32385000Y-8661400D03*
X30812545Y-15599425D03*
X15290800Y-24587200D03*
X30886500Y-7086500D03*
X30988000Y-16637000D03*
X34950400Y-16918425D03*
X33909000Y-10922000D03*
X31648401Y-15798800D03*
X35102800Y-15951200D03*
X14706600Y-25222200D03*
X24765000Y-12573000D03*
X24765000Y-14351006D03*
X20320000Y-8890000D03*
X20319316Y-11511072D03*
X26314400Y-9779000D03*
X19126200Y-12954000D03*
X9657400Y-11353053D03*
X28453833Y-15828154D03*
X7760447Y-11480800D03*
X28343976Y-14996359D03*
X28524200Y-17678400D03*
X6756400Y-11480800D03*
X3556000Y-16357600D03*
X18364200Y-18008590D03*
X34290000Y-14757400D03*
X3362577Y-20403003D03*
X33629600Y-15341600D03*
X3221701Y-19602489D03*
X32969200Y-14757400D03*
X3581400Y-18669000D03*
X28600400Y-6273800D03*
X36830000Y-6731022D03*
X31038800Y-17678400D03*
X28194000Y-9448801D03*
X30632400Y-9652000D03*
X30629759Y-14787196D03*
X29133804Y-13335000D03*
X26543000Y-28829000D03*
X17703800Y-7188200D03*
X35489353Y-2314929D03*
X30200600Y-20802600D03*
X27848719Y-20820637D03*
D16*
X37566600Y-18250410D02*
X37566600Y-14960600D01*
X37566600Y-14960600D02*
X36449000Y-13843000D01*
X25044400Y-26009600D02*
X29807410Y-26009600D01*
X29807410Y-26009600D02*
X37566600Y-18250410D01*
X36449000Y-13843000D02*
X37566600Y-12725400D01*
X37566600Y-6350000D02*
X34798000Y-3581400D01*
X37566600Y-12725400D02*
X37566600Y-6350000D01*
X31902400Y-3581400D02*
X30810200Y-2489200D01*
X34798000Y-3581400D02*
X31902400Y-3581400D01*
X11963400Y-29337748D02*
X11963400Y-29768800D01*
X14046200Y-21894800D02*
X11963400Y-23977600D01*
X11963400Y-23977600D02*
X11963400Y-29337748D01*
X15925800Y-21894800D02*
X14046200Y-21894800D01*
X12573000Y-24612610D02*
X14376401Y-22809209D01*
X14376401Y-22809209D02*
X14681200Y-22504410D01*
X12573000Y-30505400D02*
X12573000Y-24612610D01*
X12700000Y-41910000D02*
X9779000Y-38989000D01*
X11033220Y-21607995D02*
X11033220Y-21176943D01*
X9779000Y-38989000D02*
X9779000Y-27076400D01*
X9779000Y-27076400D02*
X11033219Y-25822181D01*
X11033219Y-25822181D02*
X11033220Y-21607995D01*
X5643579Y-21183600D02*
X5629965Y-21169986D01*
X8915400Y-23774400D02*
X6324600Y-21183600D01*
X8915400Y-44258600D02*
X8915400Y-23774400D01*
X6324600Y-21183600D02*
X5643579Y-21183600D01*
X11646800Y-46990000D02*
X8915400Y-44258600D01*
X12700000Y-46990000D02*
X11646800Y-46990000D01*
X12700000Y-39370000D02*
X10464800Y-37134800D01*
X10464800Y-37134800D02*
X10464800Y-29641800D01*
X10464800Y-29641800D02*
X11480801Y-28625799D01*
X11480801Y-28625799D02*
X11480801Y-22098544D01*
X11480801Y-22098544D02*
X12459245Y-21120100D01*
X9347200Y-41097200D02*
X12700000Y-44450000D01*
X9347200Y-23061929D02*
X9347200Y-41097200D01*
X7456822Y-21171551D02*
X9347200Y-23061929D01*
X23799800Y-27711400D02*
X33274000Y-27711400D01*
X584200Y-21945600D02*
X838200Y-22199600D01*
X584200Y-13919200D02*
X584200Y-21945600D01*
X1016000Y-13487400D02*
X584200Y-13919200D01*
X2311400Y-13487400D02*
X1016000Y-13487400D01*
X4445000Y-36931600D02*
X2590804Y-35077404D01*
X2590804Y-35077404D02*
X2590804Y-23698200D01*
X5968997Y-36956997D02*
X5968997Y-36957000D01*
X3225810Y-23990802D02*
X3225810Y-23012400D01*
X3225810Y-34213810D02*
X3225810Y-23990802D01*
X5968997Y-36956997D02*
X3225810Y-34213810D01*
X6070600Y-35737800D02*
X6096000Y-35737800D01*
X4292600Y-33959800D02*
X6070600Y-35737800D01*
X4292600Y-25247600D02*
X4292600Y-33959800D01*
X32385000Y-8661400D02*
X31343600Y-9702800D01*
X31343600Y-15068370D02*
X30812545Y-15599425D01*
X31343600Y-9702800D02*
X31343600Y-15068370D01*
X34950400Y-17983200D02*
X34950400Y-16918425D01*
X28346400Y-24587200D02*
X34950400Y-17983200D01*
X15290800Y-24587200D02*
X28346400Y-24587200D01*
X30886500Y-7086500D02*
X29972012Y-8000988D01*
X29972012Y-8000988D02*
X29972012Y-15621012D01*
X29972012Y-15621012D02*
X30988000Y-16637000D01*
X31927800Y-15519401D02*
X31648401Y-15798800D01*
X31927800Y-12877800D02*
X31927800Y-15519401D01*
X33909000Y-10922000D02*
X33883600Y-10922000D01*
X33883600Y-10922000D02*
X31927800Y-12877800D01*
X28727400Y-25222200D02*
X15137652Y-25222200D01*
X35610800Y-18338800D02*
X28727400Y-25222200D01*
X35610800Y-16459200D02*
X35610800Y-18338800D01*
X15137652Y-25222200D02*
X14706600Y-25222200D01*
X35102800Y-15951200D02*
X35610800Y-16459200D01*
X24765000Y-12573000D02*
X24765000Y-14351006D01*
X20320000Y-8890000D02*
X20320000Y-11510388D01*
X20320000Y-11510388D02*
X20319316Y-11511072D01*
X21742400Y-12954000D02*
X24917400Y-9779000D01*
X24917400Y-9779000D02*
X26314400Y-9779000D01*
X19278600Y-12954000D02*
X19126200Y-12954000D01*
X19278600Y-12954000D02*
X21742400Y-12954000D01*
X28022781Y-15828154D02*
X28453833Y-15828154D01*
X27612427Y-15417800D02*
X28022781Y-15828154D01*
X17246600Y-15417800D02*
X27612427Y-15417800D01*
X13181853Y-11353053D02*
X17246600Y-15417800D01*
X9657400Y-11353053D02*
X13181853Y-11353053D01*
X28328935Y-15011400D02*
X28343976Y-14996359D01*
X17500600Y-15011400D02*
X28328935Y-15011400D01*
X13232652Y-10743452D02*
X17500600Y-15011400D01*
X8497795Y-10743452D02*
X13232652Y-10743452D01*
X7760447Y-11480800D02*
X8497795Y-10743452D01*
X7416800Y-12141200D02*
X6756400Y-11480800D01*
X13258800Y-12141200D02*
X7416800Y-12141200D01*
X16941800Y-15824200D02*
X13258800Y-12141200D01*
X26670000Y-15824200D02*
X16941800Y-15824200D01*
X28524200Y-17678400D02*
X26670000Y-15824200D01*
X17933148Y-18008590D02*
X18364200Y-18008590D01*
X15697190Y-18008590D02*
X17933148Y-18008590D01*
X4191000Y-15722600D02*
X13411200Y-15722600D01*
X13411200Y-15722600D02*
X15697190Y-18008590D01*
X3556000Y-16357600D02*
X4191000Y-15722600D01*
X5973792Y-17856200D02*
X3426989Y-20403003D01*
X13792200Y-17856200D02*
X5973792Y-17856200D01*
X15367000Y-19431000D02*
X13792200Y-17856200D01*
X17734911Y-19431013D02*
X17734898Y-19431000D01*
X3426989Y-20403003D02*
X3362577Y-20403003D01*
X18993489Y-19431013D02*
X17734911Y-19431013D01*
X18993502Y-19431000D02*
X18993489Y-19431013D01*
X19202400Y-19431000D02*
X18993502Y-19431000D01*
X21310600Y-21539200D02*
X19202400Y-19431000D01*
X30505400Y-21539200D02*
X21310600Y-21539200D01*
X17734898Y-19431000D02*
X15367000Y-19431000D01*
X34290000Y-17754600D02*
X30505400Y-21539200D01*
X34290000Y-14757400D02*
X34290000Y-17754600D01*
X5856232Y-17399010D02*
X3652753Y-19602489D01*
X21031200Y-19024600D02*
X15560750Y-19024600D01*
X26604470Y-20878800D02*
X22885400Y-20878800D01*
X33629600Y-15341600D02*
X33629600Y-16611600D01*
X15560750Y-19024600D02*
X13935160Y-17399010D01*
X3652753Y-19602489D02*
X3221701Y-19602489D01*
X13935160Y-17399010D02*
X5856232Y-17399010D01*
X33629600Y-16611600D02*
X30030165Y-20211035D01*
X27272235Y-20211035D02*
X26604470Y-20878800D01*
X22885400Y-20878800D02*
X21031200Y-19024600D01*
X30030165Y-20211035D02*
X27272235Y-20211035D01*
X21310600Y-18618200D02*
X15729101Y-18618200D01*
X5257799Y-16992601D02*
X3581400Y-18669000D01*
X14103502Y-16992601D02*
X5257799Y-16992601D01*
X23139400Y-20447000D02*
X21310600Y-18618200D01*
X26339800Y-20447000D02*
X23139400Y-20447000D01*
X26982185Y-19804615D02*
X26339800Y-20447000D01*
X32969200Y-14757400D02*
X32969200Y-16650210D01*
X15729101Y-18618200D02*
X14103502Y-16992601D01*
X29814795Y-19804615D02*
X26982185Y-19804615D01*
X32969200Y-16650210D02*
X29814795Y-19804615D01*
X36830000Y-6731000D02*
X36830000Y-6731022D01*
X34569400Y-4470400D02*
X36830000Y-6731000D01*
X30403800Y-4470400D02*
X34569400Y-4470400D01*
X28600400Y-6273800D02*
X30403800Y-4470400D01*
X28194000Y-9879853D02*
X28194000Y-9448801D01*
X28194000Y-13893800D02*
X28194000Y-9879853D01*
X31038800Y-17678400D02*
X29565601Y-16205201D01*
X29565601Y-16205201D02*
X29565601Y-15265401D01*
X29565601Y-15265401D02*
X28194000Y-13893800D01*
X30629759Y-14787196D02*
X30629759Y-9654641D01*
X30629759Y-9654641D02*
X30632400Y-9652000D01*
D17*
X18669000Y-8153400D02*
X17703800Y-7188200D01*
X27932381Y-8153400D02*
X18669000Y-8153400D01*
X29133804Y-9354823D02*
X27932381Y-8153400D01*
X29133804Y-13335000D02*
X29133804Y-9354823D01*
X33190182Y-28829000D02*
X26543000Y-28829000D01*
X34112200Y-27906982D02*
X33190182Y-28829000D01*
X34112200Y-22453600D02*
X34112200Y-27906982D01*
X38061910Y-18503890D02*
X34112200Y-22453600D01*
X38061910Y-6057910D02*
X38061910Y-18503890D01*
X35877501Y-3873501D02*
X38061910Y-6057910D01*
X35877501Y-2703077D02*
X35877501Y-3873501D01*
X35489353Y-2314929D02*
X35877501Y-2703077D01*
D16*
X27866756Y-20802600D02*
X27848719Y-20820637D01*
X30200600Y-20802600D02*
X27866756Y-20802600D01*
D18*
X9436900Y-631532D02*
X9420000Y-803123D01*
X9420000Y-2117876D01*
X9436900Y-2289467D01*
X9503688Y-2509636D01*
X9517735Y-2535917D01*
X9454947Y-2587446D01*
X9318985Y-2753115D01*
X9217957Y-2942126D01*
X9155743Y-3147215D01*
X9140000Y-3307054D01*
X9140000Y-4413945D01*
X9155743Y-4573784D01*
X9217956Y-4778873D01*
X9318984Y-4967885D01*
X9454946Y-5133554D01*
X9620615Y-5269516D01*
X9809626Y-5370544D01*
X10014715Y-5432757D01*
X10228000Y-5453764D01*
X10441284Y-5432757D01*
X10646373Y-5370544D01*
X10835385Y-5269516D01*
X11001054Y-5133554D01*
X11069013Y-5050746D01*
X11734800Y-5050746D01*
X11734800Y-5210854D01*
X11766035Y-5367885D01*
X11827306Y-5515805D01*
X11916257Y-5648930D01*
X12029470Y-5762143D01*
X12162595Y-5851094D01*
X12310515Y-5912365D01*
X12467546Y-5943600D01*
X12627654Y-5943600D01*
X12784685Y-5912365D01*
X12932605Y-5851094D01*
X13065730Y-5762143D01*
X13178943Y-5648930D01*
X13267894Y-5515805D01*
X13329165Y-5367885D01*
X13360400Y-5210854D01*
X13360400Y-5050746D01*
X13329165Y-4893715D01*
X13267894Y-4745795D01*
X13178943Y-4612670D01*
X13065730Y-4499457D01*
X12932605Y-4410506D01*
X12784685Y-4349235D01*
X12627654Y-4318000D01*
X12467546Y-4318000D01*
X12310515Y-4349235D01*
X12162595Y-4410506D01*
X12029470Y-4499457D01*
X11916257Y-4612670D01*
X11827306Y-4745795D01*
X11766035Y-4893715D01*
X11734800Y-5050746D01*
X11069013Y-5050746D01*
X11137016Y-4967885D01*
X11238044Y-4778874D01*
X11300257Y-4573785D01*
X11316000Y-4413946D01*
X11316000Y-3307054D01*
X11300257Y-3147215D01*
X11261329Y-3018888D01*
X11417897Y-2890397D01*
X11563855Y-2712546D01*
X11672312Y-2509637D01*
X11739100Y-2289468D01*
X11756000Y-2117877D01*
X11756000Y-803123D01*
X11739100Y-631532D01*
X11724378Y-583000D01*
X15961622Y-583000D01*
X15946900Y-631532D01*
X15930000Y-803123D01*
X15930000Y-2117876D01*
X15946900Y-2289467D01*
X16013688Y-2509636D01*
X16122145Y-2712545D01*
X16268103Y-2890397D01*
X16424671Y-3018889D01*
X16385743Y-3147215D01*
X16370000Y-3307054D01*
X16370000Y-4413945D01*
X16385743Y-4573784D01*
X16447956Y-4778873D01*
X16548984Y-4967885D01*
X16684946Y-5133554D01*
X16850615Y-5269516D01*
X17039626Y-5370544D01*
X17244715Y-5432757D01*
X17458000Y-5453764D01*
X17671284Y-5432757D01*
X17876373Y-5370544D01*
X18065385Y-5269516D01*
X18231054Y-5133554D01*
X18367016Y-4967885D01*
X18468044Y-4778874D01*
X18530257Y-4573785D01*
X18546000Y-4413946D01*
X18546000Y-3307054D01*
X18530257Y-3147215D01*
X18468044Y-2942126D01*
X18367016Y-2753115D01*
X18231054Y-2587446D01*
X18168265Y-2535916D01*
X18182312Y-2509637D01*
X18249100Y-2289468D01*
X18266000Y-2117877D01*
X18266000Y-1672546D01*
X19380200Y-1672546D01*
X19380200Y-1832654D01*
X19411435Y-1989685D01*
X19472706Y-2137605D01*
X19561657Y-2270730D01*
X19674870Y-2383943D01*
X19807995Y-2472894D01*
X19955915Y-2534165D01*
X20112946Y-2565400D01*
X20273054Y-2565400D01*
X20430085Y-2534165D01*
X20578005Y-2472894D01*
X20711130Y-2383943D01*
X20824343Y-2270730D01*
X20913294Y-2137605D01*
X20974565Y-1989685D01*
X21005800Y-1832654D01*
X21005800Y-1672546D01*
X25476200Y-1672546D01*
X25476200Y-1832654D01*
X25507435Y-1989685D01*
X25568706Y-2137605D01*
X25657657Y-2270730D01*
X25770870Y-2383943D01*
X25903995Y-2472894D01*
X26051915Y-2534165D01*
X26208946Y-2565400D01*
X26369054Y-2565400D01*
X26526085Y-2534165D01*
X26674005Y-2472894D01*
X26807130Y-2383943D01*
X26920343Y-2270730D01*
X27009294Y-2137605D01*
X27070565Y-1989685D01*
X27101800Y-1832654D01*
X27101800Y-1672546D01*
X27070565Y-1515515D01*
X27009294Y-1367595D01*
X26920343Y-1234470D01*
X26807130Y-1121257D01*
X26674005Y-1032306D01*
X26526085Y-971035D01*
X26369054Y-939800D01*
X26208946Y-939800D01*
X26051915Y-971035D01*
X25903995Y-1032306D01*
X25770870Y-1121257D01*
X25657657Y-1234470D01*
X25568706Y-1367595D01*
X25507435Y-1515515D01*
X25476200Y-1672546D01*
X21005800Y-1672546D01*
X20974565Y-1515515D01*
X20913294Y-1367595D01*
X20824343Y-1234470D01*
X20711130Y-1121257D01*
X20578005Y-1032306D01*
X20430085Y-971035D01*
X20273054Y-939800D01*
X20112946Y-939800D01*
X19955915Y-971035D01*
X19807995Y-1032306D01*
X19674870Y-1121257D01*
X19561657Y-1234470D01*
X19472706Y-1367595D01*
X19411435Y-1515515D01*
X19380200Y-1672546D01*
X18266000Y-1672546D01*
X18266000Y-803123D01*
X18249100Y-631532D01*
X18234378Y-583000D01*
X52757000Y-583000D01*
X52757001Y-48312000D01*
X41684028Y-48312000D01*
X41685343Y-48311601D01*
X41773595Y-48264429D01*
X41850948Y-48200948D01*
X41914429Y-48123595D01*
X41961601Y-48035343D01*
X41990649Y-47939585D01*
X42000457Y-47840000D01*
X42000457Y-46909946D01*
X45034200Y-46909946D01*
X45034200Y-47070054D01*
X45065435Y-47227085D01*
X45126706Y-47375005D01*
X45215657Y-47508130D01*
X45328870Y-47621343D01*
X45461995Y-47710294D01*
X45609915Y-47771565D01*
X45766946Y-47802800D01*
X45927054Y-47802800D01*
X46084085Y-47771565D01*
X46232005Y-47710294D01*
X46365130Y-47621343D01*
X46478343Y-47508130D01*
X46567294Y-47375005D01*
X46628565Y-47227085D01*
X46659800Y-47070054D01*
X46659800Y-46909946D01*
X46628565Y-46752915D01*
X46567294Y-46604995D01*
X46478343Y-46471870D01*
X46365130Y-46358657D01*
X46232005Y-46269706D01*
X46084085Y-46208435D01*
X45927054Y-46177200D01*
X45766946Y-46177200D01*
X45609915Y-46208435D01*
X45461995Y-46269706D01*
X45328870Y-46358657D01*
X45215657Y-46471870D01*
X45126706Y-46604995D01*
X45065435Y-46752915D01*
X45034200Y-46909946D01*
X42000457Y-46909946D01*
X42000457Y-46140000D01*
X41990649Y-46040415D01*
X41961601Y-45944657D01*
X41914429Y-45856405D01*
X41850948Y-45779052D01*
X41773595Y-45715571D01*
X41685343Y-45668399D01*
X41589585Y-45639351D01*
X41490000Y-45629543D01*
X41319025Y-45629543D01*
X41505675Y-45504828D01*
X41694828Y-45315675D01*
X41843444Y-45093254D01*
X41945813Y-44846114D01*
X41998000Y-44583751D01*
X41998000Y-44316249D01*
X41945813Y-44053886D01*
X41843444Y-43806746D01*
X41694828Y-43584325D01*
X41505675Y-43395172D01*
X41283254Y-43246556D01*
X41122574Y-43180000D01*
X41283254Y-43113444D01*
X41505675Y-42964828D01*
X41694828Y-42775675D01*
X41843444Y-42553254D01*
X41945813Y-42306114D01*
X41998000Y-42043751D01*
X41998000Y-41776249D01*
X41945813Y-41513886D01*
X41843444Y-41266746D01*
X41694828Y-41044325D01*
X41505675Y-40855172D01*
X41283254Y-40706556D01*
X41122574Y-40640000D01*
X41283254Y-40573444D01*
X41505675Y-40424828D01*
X41694828Y-40235675D01*
X41843444Y-40013254D01*
X41945813Y-39766114D01*
X41998000Y-39503751D01*
X41998000Y-39236249D01*
X41945813Y-38973886D01*
X41843444Y-38726746D01*
X41694828Y-38504325D01*
X41505675Y-38315172D01*
X41283254Y-38166556D01*
X41122574Y-38100000D01*
X41283254Y-38033444D01*
X41505675Y-37884828D01*
X41694828Y-37695675D01*
X41843444Y-37473254D01*
X41945813Y-37226114D01*
X41998000Y-36963751D01*
X41998000Y-36696249D01*
X41945813Y-36433886D01*
X41843444Y-36186746D01*
X41694828Y-35964325D01*
X41505675Y-35775172D01*
X41283254Y-35626556D01*
X41122574Y-35560000D01*
X41283254Y-35493444D01*
X41505675Y-35344828D01*
X41694828Y-35155675D01*
X41843444Y-34933254D01*
X41945813Y-34686114D01*
X41998000Y-34423751D01*
X41998000Y-34156249D01*
X41945813Y-33893886D01*
X41843444Y-33646746D01*
X41694828Y-33424325D01*
X41505675Y-33235172D01*
X41283254Y-33086556D01*
X41036114Y-32984187D01*
X40773751Y-32932000D01*
X40506249Y-32932000D01*
X40243886Y-32984187D01*
X39996746Y-33086556D01*
X39774325Y-33235172D01*
X39585172Y-33424325D01*
X39436556Y-33646746D01*
X39334187Y-33893886D01*
X39318000Y-33975264D01*
X39318000Y-32413633D01*
X39320820Y-32385000D01*
X39309564Y-32270712D01*
X39276227Y-32160816D01*
X39222092Y-32059536D01*
X39149237Y-31970763D01*
X39060464Y-31897908D01*
X38959184Y-31843773D01*
X38849288Y-31810436D01*
X38763633Y-31802000D01*
X38735000Y-31799180D01*
X38706367Y-31802000D01*
X14633633Y-31802000D01*
X14605000Y-31799180D01*
X14576367Y-31802000D01*
X14490712Y-31810436D01*
X14380816Y-31843773D01*
X14279536Y-31897908D01*
X14190763Y-31970763D01*
X14117908Y-32059536D01*
X14063773Y-32160816D01*
X14030436Y-32270712D01*
X14019180Y-32385000D01*
X14022000Y-32413633D01*
X14022000Y-33628808D01*
X13971641Y-33523080D01*
X13797588Y-33289731D01*
X13581355Y-33094822D01*
X13331252Y-32945843D01*
X13056891Y-32848519D01*
X12827000Y-32969186D01*
X12827000Y-34163000D01*
X12847000Y-34163000D01*
X12847000Y-34417000D01*
X12827000Y-34417000D01*
X12827000Y-34437000D01*
X12573000Y-34437000D01*
X12573000Y-34417000D01*
X11379845Y-34417000D01*
X11258524Y-34646890D01*
X11303175Y-34794099D01*
X11428359Y-35056920D01*
X11602412Y-35290269D01*
X11818645Y-35485178D01*
X12056389Y-35626795D01*
X11834325Y-35775172D01*
X11645172Y-35964325D01*
X11496556Y-36186746D01*
X11394187Y-36433886D01*
X11342000Y-36696249D01*
X11342000Y-36963751D01*
X11388220Y-37196117D01*
X11074400Y-36882297D01*
X11074400Y-33933110D01*
X11258524Y-33933110D01*
X11379845Y-34163000D01*
X12573000Y-34163000D01*
X12573000Y-32969186D01*
X12343109Y-32848519D01*
X12068748Y-32945843D01*
X11818645Y-33094822D01*
X11602412Y-33289731D01*
X11428359Y-33523080D01*
X11303175Y-33785901D01*
X11258524Y-33933110D01*
X11074400Y-33933110D01*
X11074400Y-29894303D01*
X11150600Y-29818104D01*
X11150600Y-29848854D01*
X11181835Y-30005885D01*
X11243106Y-30153805D01*
X11332057Y-30286930D01*
X11445270Y-30400143D01*
X11578395Y-30489094D01*
X11726315Y-30550365D01*
X11760200Y-30557105D01*
X11760200Y-30585454D01*
X11791435Y-30742485D01*
X11852706Y-30890405D01*
X11941657Y-31023530D01*
X12054870Y-31136743D01*
X12187995Y-31225694D01*
X12335915Y-31286965D01*
X12492946Y-31318200D01*
X12653054Y-31318200D01*
X12810085Y-31286965D01*
X12958005Y-31225694D01*
X13091130Y-31136743D01*
X13204343Y-31023530D01*
X13293294Y-30890405D01*
X13354565Y-30742485D01*
X13385800Y-30585454D01*
X13385800Y-30425346D01*
X13354565Y-30268315D01*
X13293294Y-30120395D01*
X13204343Y-29987270D01*
X13182600Y-29965527D01*
X13182600Y-27605946D01*
X14173200Y-27605946D01*
X14173200Y-27766054D01*
X14204435Y-27923085D01*
X14265706Y-28071005D01*
X14354657Y-28204130D01*
X14467870Y-28317343D01*
X14600995Y-28406294D01*
X14748915Y-28467565D01*
X14905946Y-28498800D01*
X15066054Y-28498800D01*
X15223085Y-28467565D01*
X15371005Y-28406294D01*
X15504130Y-28317343D01*
X15617343Y-28204130D01*
X15706294Y-28071005D01*
X15767565Y-27923085D01*
X15798800Y-27766054D01*
X15798800Y-27605946D01*
X15767565Y-27448915D01*
X15706294Y-27300995D01*
X15638509Y-27199546D01*
X17907000Y-27199546D01*
X17907000Y-27359654D01*
X17938235Y-27516685D01*
X17999506Y-27664605D01*
X18088457Y-27797730D01*
X18201670Y-27910943D01*
X18334795Y-27999894D01*
X18482715Y-28061165D01*
X18639746Y-28092400D01*
X18799854Y-28092400D01*
X18956885Y-28061165D01*
X19104805Y-27999894D01*
X19237930Y-27910943D01*
X19351143Y-27797730D01*
X19440094Y-27664605D01*
X19501365Y-27516685D01*
X19532600Y-27359654D01*
X19532600Y-27199546D01*
X19501365Y-27042515D01*
X19440094Y-26894595D01*
X19351143Y-26761470D01*
X19237930Y-26648257D01*
X19104805Y-26559306D01*
X18956885Y-26498035D01*
X18799854Y-26466800D01*
X18639746Y-26466800D01*
X18482715Y-26498035D01*
X18334795Y-26559306D01*
X18201670Y-26648257D01*
X18088457Y-26761470D01*
X17999506Y-26894595D01*
X17938235Y-27042515D01*
X17907000Y-27199546D01*
X15638509Y-27199546D01*
X15617343Y-27167870D01*
X15504130Y-27054657D01*
X15371005Y-26965706D01*
X15223085Y-26904435D01*
X15066054Y-26873200D01*
X14905946Y-26873200D01*
X14748915Y-26904435D01*
X14600995Y-26965706D01*
X14467870Y-27054657D01*
X14354657Y-27167870D01*
X14265706Y-27300995D01*
X14204435Y-27448915D01*
X14173200Y-27605946D01*
X13182600Y-27605946D01*
X13182600Y-24865113D01*
X14730504Y-23317210D01*
X14761254Y-23317210D01*
X14918285Y-23285975D01*
X15066205Y-23224704D01*
X15199330Y-23135753D01*
X15312543Y-23022540D01*
X15401494Y-22889415D01*
X15462765Y-22741495D01*
X15494000Y-22584464D01*
X15494000Y-22583827D01*
X15540795Y-22615094D01*
X15688715Y-22676365D01*
X15845746Y-22707600D01*
X16005854Y-22707600D01*
X16162885Y-22676365D01*
X16310805Y-22615094D01*
X16355816Y-22585019D01*
X16332200Y-22703746D01*
X16332200Y-22863854D01*
X16363435Y-23020885D01*
X16424706Y-23168805D01*
X16513657Y-23301930D01*
X16626870Y-23415143D01*
X16759995Y-23504094D01*
X16907915Y-23565365D01*
X17064946Y-23596600D01*
X17225054Y-23596600D01*
X17382085Y-23565365D01*
X17530005Y-23504094D01*
X17663130Y-23415143D01*
X17776343Y-23301930D01*
X17865294Y-23168805D01*
X17926565Y-23020885D01*
X17957800Y-22863854D01*
X17957800Y-22703746D01*
X17926565Y-22546715D01*
X17865294Y-22398795D01*
X17776343Y-22265670D01*
X17663130Y-22152457D01*
X17530005Y-22063506D01*
X17382085Y-22002235D01*
X17225054Y-21971000D01*
X17064946Y-21971000D01*
X16907915Y-22002235D01*
X16759995Y-22063506D01*
X16714984Y-22093581D01*
X16738600Y-21974854D01*
X16738600Y-21814746D01*
X16707365Y-21657715D01*
X16646094Y-21509795D01*
X16557143Y-21376670D01*
X16443930Y-21263457D01*
X16310805Y-21174506D01*
X16162885Y-21113235D01*
X16005854Y-21082000D01*
X15845746Y-21082000D01*
X15688715Y-21113235D01*
X15540795Y-21174506D01*
X15407670Y-21263457D01*
X15385927Y-21285200D01*
X14076141Y-21285200D01*
X14046199Y-21282251D01*
X13926697Y-21294021D01*
X13896762Y-21303102D01*
X13811788Y-21328879D01*
X13705886Y-21385484D01*
X13613062Y-21461662D01*
X13593969Y-21484927D01*
X12090401Y-22988496D01*
X12090401Y-22351047D01*
X12508549Y-21932900D01*
X12539299Y-21932900D01*
X12696330Y-21901665D01*
X12844250Y-21840394D01*
X12977375Y-21751443D01*
X13090588Y-21638230D01*
X13179539Y-21505105D01*
X13240810Y-21357185D01*
X13272045Y-21200154D01*
X13272045Y-21040046D01*
X13240810Y-20883015D01*
X13179539Y-20735095D01*
X13090588Y-20601970D01*
X12977375Y-20488757D01*
X12844250Y-20399806D01*
X12696330Y-20338535D01*
X12539299Y-20307300D01*
X12379191Y-20307300D01*
X12222160Y-20338535D01*
X12074240Y-20399806D01*
X11941115Y-20488757D01*
X11827902Y-20601970D01*
X11738951Y-20735095D01*
X11729989Y-20756731D01*
X11664563Y-20658813D01*
X11551350Y-20545600D01*
X11418225Y-20456649D01*
X11270305Y-20395378D01*
X11113274Y-20364143D01*
X10953166Y-20364143D01*
X10796135Y-20395378D01*
X10648215Y-20456649D01*
X10515090Y-20545600D01*
X10401877Y-20658813D01*
X10312926Y-20791938D01*
X10251655Y-20939858D01*
X10220420Y-21096889D01*
X10220420Y-21256997D01*
X10251655Y-21414028D01*
X10312926Y-21561948D01*
X10401877Y-21695073D01*
X10423621Y-21716817D01*
X10423619Y-25569676D01*
X9956800Y-26036496D01*
X9956800Y-23091867D01*
X9959749Y-23061928D01*
X9955706Y-23020885D01*
X9947979Y-22942427D01*
X9913121Y-22827517D01*
X9856516Y-22721615D01*
X9780338Y-22628791D01*
X9757074Y-22609699D01*
X8269622Y-21122248D01*
X8269622Y-21091497D01*
X8238387Y-20934466D01*
X8177116Y-20786546D01*
X8088165Y-20653421D01*
X7974952Y-20540208D01*
X7841827Y-20451257D01*
X7693907Y-20389986D01*
X7536876Y-20358751D01*
X7376768Y-20358751D01*
X7219737Y-20389986D01*
X7071817Y-20451257D01*
X6938692Y-20540208D01*
X6825479Y-20653421D01*
X6759337Y-20752410D01*
X6757738Y-20750462D01*
X6664914Y-20674284D01*
X6559012Y-20617679D01*
X6444102Y-20582821D01*
X6324600Y-20571051D01*
X6294659Y-20574000D01*
X6183452Y-20574000D01*
X6148095Y-20538643D01*
X6014970Y-20449692D01*
X5867050Y-20388421D01*
X5710019Y-20357186D01*
X5549911Y-20357186D01*
X5392880Y-20388421D01*
X5244960Y-20449692D01*
X5111835Y-20538643D01*
X4998622Y-20651856D01*
X4909671Y-20784981D01*
X4848400Y-20932901D01*
X4817165Y-21089932D01*
X4817165Y-21250040D01*
X4848400Y-21407071D01*
X4909671Y-21554991D01*
X4998622Y-21688116D01*
X5111835Y-21801329D01*
X5244960Y-21890280D01*
X5392880Y-21951551D01*
X5549911Y-21982786D01*
X5710019Y-21982786D01*
X5867050Y-21951551D01*
X6014970Y-21890280D01*
X6107410Y-21828514D01*
X8305801Y-24026906D01*
X8305800Y-44228658D01*
X8302851Y-44258600D01*
X8305800Y-44288540D01*
X8314621Y-44378101D01*
X8349479Y-44493011D01*
X8406084Y-44598913D01*
X8482262Y-44691738D01*
X8505532Y-44710835D01*
X11194569Y-47399873D01*
X11213662Y-47423138D01*
X11306486Y-47499316D01*
X11339543Y-47516985D01*
X11339543Y-47840000D01*
X11349351Y-47939585D01*
X11378399Y-48035343D01*
X11425571Y-48123595D01*
X11489052Y-48200948D01*
X11566405Y-48264429D01*
X11654657Y-48311601D01*
X11655972Y-48312000D01*
X583000Y-48312000D01*
X583000Y-46097146D01*
X3581400Y-46097146D01*
X3581400Y-46257254D01*
X3612635Y-46414285D01*
X3673906Y-46562205D01*
X3762857Y-46695330D01*
X3876070Y-46808543D01*
X4009195Y-46897494D01*
X4157115Y-46958765D01*
X4314146Y-46990000D01*
X4474254Y-46990000D01*
X4631285Y-46958765D01*
X4779205Y-46897494D01*
X4912330Y-46808543D01*
X5025543Y-46695330D01*
X5114494Y-46562205D01*
X5175765Y-46414285D01*
X5207000Y-46257254D01*
X5207000Y-46097146D01*
X5175765Y-45940115D01*
X5114494Y-45792195D01*
X5025543Y-45659070D01*
X4912330Y-45545857D01*
X4779205Y-45456906D01*
X4631285Y-45395635D01*
X4474254Y-45364400D01*
X4314146Y-45364400D01*
X4157115Y-45395635D01*
X4009195Y-45456906D01*
X3876070Y-45545857D01*
X3762857Y-45659070D01*
X3673906Y-45792195D01*
X3612635Y-45940115D01*
X3581400Y-46097146D01*
X583000Y-46097146D01*
X583000Y-39289946D01*
X965200Y-39289946D01*
X965200Y-39450054D01*
X996435Y-39607085D01*
X1057706Y-39755005D01*
X1146657Y-39888130D01*
X1259870Y-40001343D01*
X1392995Y-40090294D01*
X1540915Y-40151565D01*
X1697946Y-40182800D01*
X1858054Y-40182800D01*
X2015085Y-40151565D01*
X2163005Y-40090294D01*
X2296130Y-40001343D01*
X2409343Y-39888130D01*
X2498294Y-39755005D01*
X2559565Y-39607085D01*
X2590800Y-39450054D01*
X2590800Y-39289946D01*
X2559565Y-39132915D01*
X2498294Y-38984995D01*
X2409343Y-38851870D01*
X2296130Y-38738657D01*
X2163005Y-38649706D01*
X2015085Y-38588435D01*
X1858054Y-38557200D01*
X1697946Y-38557200D01*
X1540915Y-38588435D01*
X1392995Y-38649706D01*
X1259870Y-38738657D01*
X1146657Y-38851870D01*
X1057706Y-38984995D01*
X996435Y-39132915D01*
X965200Y-39289946D01*
X583000Y-39289946D01*
X583000Y-23618146D01*
X1778004Y-23618146D01*
X1778004Y-23778254D01*
X1809239Y-23935285D01*
X1870510Y-24083205D01*
X1959461Y-24216330D01*
X1981205Y-24238074D01*
X1981204Y-35047462D01*
X1978255Y-35077404D01*
X1990025Y-35196906D01*
X2000599Y-35231764D01*
X2024883Y-35311815D01*
X2081488Y-35417717D01*
X2157666Y-35510542D01*
X2180936Y-35529639D01*
X3632200Y-36980904D01*
X3632200Y-37011654D01*
X3663435Y-37168685D01*
X3724706Y-37316605D01*
X3813657Y-37449730D01*
X3926870Y-37562943D01*
X4059995Y-37651894D01*
X4207915Y-37713165D01*
X4364946Y-37744400D01*
X4525054Y-37744400D01*
X4682085Y-37713165D01*
X4830005Y-37651894D01*
X4963130Y-37562943D01*
X5076343Y-37449730D01*
X5165294Y-37316605D01*
X5201739Y-37228621D01*
X5248703Y-37342002D01*
X5337654Y-37475127D01*
X5450867Y-37588340D01*
X5583992Y-37677291D01*
X5731912Y-37738562D01*
X5888943Y-37769797D01*
X6049051Y-37769797D01*
X6206082Y-37738562D01*
X6354002Y-37677291D01*
X6487127Y-37588340D01*
X6600340Y-37475127D01*
X6689291Y-37342002D01*
X6750562Y-37194082D01*
X6781797Y-37037051D01*
X6781797Y-36876943D01*
X6750562Y-36719912D01*
X6689291Y-36571992D01*
X6600340Y-36438867D01*
X6564067Y-36402594D01*
X6614130Y-36369143D01*
X6727343Y-36255930D01*
X6816294Y-36122805D01*
X6877565Y-35974885D01*
X6908800Y-35817854D01*
X6908800Y-35657746D01*
X6877565Y-35500715D01*
X6816294Y-35352795D01*
X6727343Y-35219670D01*
X6614130Y-35106457D01*
X6481005Y-35017506D01*
X6333085Y-34956235D01*
X6176054Y-34925000D01*
X6119904Y-34925000D01*
X4902200Y-33707297D01*
X4902200Y-28915955D01*
X5046109Y-28975565D01*
X5203140Y-29006800D01*
X5363248Y-29006800D01*
X5520279Y-28975565D01*
X5668199Y-28914294D01*
X5801324Y-28825343D01*
X5914537Y-28712130D01*
X6003488Y-28579005D01*
X6064759Y-28431085D01*
X6095994Y-28274054D01*
X6095994Y-28113946D01*
X6064759Y-27956915D01*
X6003488Y-27808995D01*
X5914537Y-27675870D01*
X5801324Y-27562657D01*
X5668199Y-27473706D01*
X5520279Y-27412435D01*
X5363248Y-27381200D01*
X5203140Y-27381200D01*
X5046109Y-27412435D01*
X4902200Y-27472045D01*
X4902200Y-25787473D01*
X4923943Y-25765730D01*
X5012894Y-25632605D01*
X5074165Y-25484685D01*
X5105400Y-25327654D01*
X5105400Y-25167546D01*
X5074165Y-25010515D01*
X5012894Y-24862595D01*
X4923943Y-24729470D01*
X4810730Y-24616257D01*
X4677605Y-24527306D01*
X4529685Y-24466035D01*
X4372654Y-24434800D01*
X4212546Y-24434800D01*
X4055515Y-24466035D01*
X3907595Y-24527306D01*
X3835410Y-24575538D01*
X3835410Y-23552273D01*
X3857153Y-23530530D01*
X3946104Y-23397405D01*
X4007375Y-23249485D01*
X4038610Y-23092454D01*
X4038610Y-22932346D01*
X4007375Y-22775315D01*
X3946104Y-22627395D01*
X3857153Y-22494270D01*
X3743940Y-22381057D01*
X3610815Y-22292106D01*
X3462895Y-22230835D01*
X3305864Y-22199600D01*
X3145756Y-22199600D01*
X2988725Y-22230835D01*
X2840805Y-22292106D01*
X2707680Y-22381057D01*
X2594467Y-22494270D01*
X2505516Y-22627395D01*
X2444245Y-22775315D01*
X2418706Y-22903708D01*
X2353719Y-22916635D01*
X2205799Y-22977906D01*
X2072674Y-23066857D01*
X1959461Y-23180070D01*
X1870510Y-23313195D01*
X1809239Y-23461115D01*
X1778004Y-23618146D01*
X583000Y-23618146D01*
X583000Y-22973661D01*
X601115Y-22981165D01*
X758146Y-23012400D01*
X918254Y-23012400D01*
X1075285Y-22981165D01*
X1223205Y-22919894D01*
X1356330Y-22830943D01*
X1469543Y-22717730D01*
X1558494Y-22584605D01*
X1619765Y-22436685D01*
X1651000Y-22279654D01*
X1651000Y-22231395D01*
X1705805Y-22208694D01*
X1838930Y-22119743D01*
X1952143Y-22006530D01*
X2041094Y-21873405D01*
X2102365Y-21725485D01*
X2133600Y-21568454D01*
X2133600Y-21408346D01*
X2102365Y-21251315D01*
X2041094Y-21103395D01*
X1952143Y-20970270D01*
X1838930Y-20857057D01*
X1705805Y-20768106D01*
X1557885Y-20706835D01*
X1400854Y-20675600D01*
X1240746Y-20675600D01*
X1193800Y-20684938D01*
X1193800Y-19522435D01*
X2408901Y-19522435D01*
X2408901Y-19682543D01*
X2440136Y-19839574D01*
X2501407Y-19987494D01*
X2590358Y-20120619D01*
X2597017Y-20127278D01*
X2581012Y-20165918D01*
X2549777Y-20322949D01*
X2549777Y-20483057D01*
X2581012Y-20640088D01*
X2642283Y-20788008D01*
X2731234Y-20921133D01*
X2844447Y-21034346D01*
X2977572Y-21123297D01*
X3125492Y-21184568D01*
X3282523Y-21215803D01*
X3442631Y-21215803D01*
X3599662Y-21184568D01*
X3747582Y-21123297D01*
X3880707Y-21034346D01*
X3993920Y-20921133D01*
X4082871Y-20788008D01*
X4144142Y-20640088D01*
X4167019Y-20525076D01*
X6226297Y-18465800D01*
X7074945Y-18465800D01*
X7026706Y-18537995D01*
X6965435Y-18685915D01*
X6934200Y-18842946D01*
X6934200Y-19003054D01*
X6965435Y-19160085D01*
X7026706Y-19308005D01*
X7115657Y-19441130D01*
X7228870Y-19554343D01*
X7361995Y-19643294D01*
X7509915Y-19704565D01*
X7666946Y-19735800D01*
X7827054Y-19735800D01*
X7984085Y-19704565D01*
X8132005Y-19643294D01*
X8265130Y-19554343D01*
X8378343Y-19441130D01*
X8467294Y-19308005D01*
X8528565Y-19160085D01*
X8559800Y-19003054D01*
X8559800Y-18842946D01*
X8528565Y-18685915D01*
X8467294Y-18537995D01*
X8419055Y-18465800D01*
X9614945Y-18465800D01*
X9566706Y-18537995D01*
X9505435Y-18685915D01*
X9474200Y-18842946D01*
X9474200Y-19003054D01*
X9505435Y-19160085D01*
X9566706Y-19308005D01*
X9655657Y-19441130D01*
X9768870Y-19554343D01*
X9901995Y-19643294D01*
X10049915Y-19704565D01*
X10206946Y-19735800D01*
X10367054Y-19735800D01*
X10524085Y-19704565D01*
X10672005Y-19643294D01*
X10805130Y-19554343D01*
X10918343Y-19441130D01*
X11007294Y-19308005D01*
X11068565Y-19160085D01*
X11099800Y-19003054D01*
X11099800Y-18842946D01*
X11068565Y-18685915D01*
X11007294Y-18537995D01*
X10959055Y-18465800D01*
X13539697Y-18465800D01*
X13804993Y-18731096D01*
X13738114Y-18775783D01*
X13624901Y-18888996D01*
X13535950Y-19022121D01*
X13474679Y-19170041D01*
X13443444Y-19327072D01*
X13443444Y-19487180D01*
X13474679Y-19644211D01*
X13535950Y-19792131D01*
X13624901Y-19925256D01*
X13738114Y-20038469D01*
X13871239Y-20127420D01*
X14019159Y-20188691D01*
X14176190Y-20219926D01*
X14336298Y-20219926D01*
X14493329Y-20188691D01*
X14641249Y-20127420D01*
X14774374Y-20038469D01*
X14887587Y-19925256D01*
X14930865Y-19860486D01*
X14933862Y-19864138D01*
X15026686Y-19940316D01*
X15125482Y-19993123D01*
X15132588Y-19996921D01*
X15247497Y-20031779D01*
X15367000Y-20043549D01*
X15396941Y-20040600D01*
X17704838Y-20040600D01*
X17704970Y-20040613D01*
X17704971Y-20040613D01*
X17734910Y-20043562D01*
X17764849Y-20040613D01*
X18949910Y-20040613D01*
X20858369Y-21949073D01*
X20877462Y-21972338D01*
X20970286Y-22048516D01*
X21076188Y-22105121D01*
X21155604Y-22129212D01*
X21191097Y-22139979D01*
X21310599Y-22151749D01*
X21340541Y-22148800D01*
X26144385Y-22148800D01*
X26024870Y-22228657D01*
X25911657Y-22341870D01*
X25822706Y-22474995D01*
X25761435Y-22622915D01*
X25730200Y-22779946D01*
X25730200Y-22940054D01*
X25761435Y-23097085D01*
X25822706Y-23245005D01*
X25911657Y-23378130D01*
X26024870Y-23491343D01*
X26157995Y-23580294D01*
X26305915Y-23641565D01*
X26462946Y-23672800D01*
X26623054Y-23672800D01*
X26780085Y-23641565D01*
X26928005Y-23580294D01*
X27061130Y-23491343D01*
X27174343Y-23378130D01*
X27263294Y-23245005D01*
X27324565Y-23097085D01*
X27355800Y-22940054D01*
X27355800Y-22779946D01*
X27324565Y-22622915D01*
X27263294Y-22474995D01*
X27174343Y-22341870D01*
X27061130Y-22228657D01*
X26941615Y-22148800D01*
X29922696Y-22148800D01*
X28093897Y-23977600D01*
X15830673Y-23977600D01*
X15808930Y-23955857D01*
X15675805Y-23866906D01*
X15527885Y-23805635D01*
X15370854Y-23774400D01*
X15210746Y-23774400D01*
X15053715Y-23805635D01*
X14905795Y-23866906D01*
X14772670Y-23955857D01*
X14659457Y-24069070D01*
X14570506Y-24202195D01*
X14509235Y-24350115D01*
X14492124Y-24436138D01*
X14469515Y-24440635D01*
X14321595Y-24501906D01*
X14188470Y-24590857D01*
X14075257Y-24704070D01*
X13986306Y-24837195D01*
X13925035Y-24985115D01*
X13893800Y-25142146D01*
X13893800Y-25302254D01*
X13925035Y-25459285D01*
X13986306Y-25607205D01*
X14075257Y-25740330D01*
X14188470Y-25853543D01*
X14321595Y-25942494D01*
X14469515Y-26003765D01*
X14626546Y-26035000D01*
X14786654Y-26035000D01*
X14943685Y-26003765D01*
X15091605Y-25942494D01*
X15224730Y-25853543D01*
X15246473Y-25831800D01*
X23240095Y-25831800D01*
X23215600Y-25954946D01*
X23215600Y-26115054D01*
X23246835Y-26272085D01*
X23308106Y-26420005D01*
X23397057Y-26553130D01*
X23510270Y-26666343D01*
X23643395Y-26755294D01*
X23791315Y-26816565D01*
X23948346Y-26847800D01*
X24108454Y-26847800D01*
X24265485Y-26816565D01*
X24413405Y-26755294D01*
X24546530Y-26666343D01*
X24553641Y-26659232D01*
X24659395Y-26729894D01*
X24807315Y-26791165D01*
X24964346Y-26822400D01*
X25124454Y-26822400D01*
X25281485Y-26791165D01*
X25429405Y-26729894D01*
X25562530Y-26640943D01*
X25584273Y-26619200D01*
X29777469Y-26619200D01*
X29807410Y-26622149D01*
X29837351Y-26619200D01*
X29926912Y-26610379D01*
X30041822Y-26575521D01*
X30147724Y-26518916D01*
X30240548Y-26442738D01*
X30259645Y-26419468D01*
X33413700Y-23265413D01*
X33413701Y-26910464D01*
X33354054Y-26898600D01*
X33193946Y-26898600D01*
X33036915Y-26929835D01*
X32888995Y-26991106D01*
X32755870Y-27080057D01*
X32734127Y-27101800D01*
X24339673Y-27101800D01*
X24317930Y-27080057D01*
X24184805Y-26991106D01*
X24036885Y-26929835D01*
X23879854Y-26898600D01*
X23719746Y-26898600D01*
X23562715Y-26929835D01*
X23414795Y-26991106D01*
X23281670Y-27080057D01*
X23168457Y-27193270D01*
X23079506Y-27326395D01*
X23018235Y-27474315D01*
X22987000Y-27631346D01*
X22987000Y-27791454D01*
X23018235Y-27948485D01*
X23079506Y-28096405D01*
X23168457Y-28229530D01*
X23281670Y-28342743D01*
X23414795Y-28431694D01*
X23562715Y-28492965D01*
X23719746Y-28524200D01*
X23879854Y-28524200D01*
X24036885Y-28492965D01*
X24184805Y-28431694D01*
X24317930Y-28342743D01*
X24339673Y-28321000D01*
X25904888Y-28321000D01*
X25822706Y-28443995D01*
X25761435Y-28591915D01*
X25730200Y-28748946D01*
X25730200Y-28909054D01*
X25761435Y-29066085D01*
X25822706Y-29214005D01*
X25911657Y-29347130D01*
X26024870Y-29460343D01*
X26157995Y-29549294D01*
X26305915Y-29610565D01*
X26462946Y-29641800D01*
X26623054Y-29641800D01*
X26780085Y-29610565D01*
X26928005Y-29549294D01*
X26960622Y-29527500D01*
X28608898Y-29527500D01*
X28515715Y-29546035D01*
X28367795Y-29607306D01*
X28234670Y-29696257D01*
X28121457Y-29809470D01*
X28032506Y-29942595D01*
X27971235Y-30090515D01*
X27940000Y-30247546D01*
X27940000Y-30407654D01*
X27971235Y-30564685D01*
X28032506Y-30712605D01*
X28121457Y-30845730D01*
X28234670Y-30958943D01*
X28367795Y-31047894D01*
X28515715Y-31109165D01*
X28672746Y-31140400D01*
X28832854Y-31140400D01*
X28989885Y-31109165D01*
X29137805Y-31047894D01*
X29270930Y-30958943D01*
X29384143Y-30845730D01*
X29473094Y-30712605D01*
X29534365Y-30564685D01*
X29565600Y-30407654D01*
X29565600Y-30247546D01*
X29534365Y-30090515D01*
X29473094Y-29942595D01*
X29384143Y-29809470D01*
X29339617Y-29764944D01*
X41452800Y-29764944D01*
X41452800Y-29925052D01*
X41484035Y-30082083D01*
X41545306Y-30230003D01*
X41634257Y-30363128D01*
X41747470Y-30476341D01*
X41880595Y-30565292D01*
X42028515Y-30626563D01*
X42185546Y-30657798D01*
X42345654Y-30657798D01*
X42502685Y-30626563D01*
X42650605Y-30565292D01*
X42783730Y-30476341D01*
X42896943Y-30363128D01*
X42985894Y-30230003D01*
X43047165Y-30082083D01*
X43078400Y-29925052D01*
X43078400Y-29764944D01*
X43047165Y-29607913D01*
X42985894Y-29459993D01*
X42896943Y-29326868D01*
X42783730Y-29213655D01*
X42650605Y-29124704D01*
X42502685Y-29063433D01*
X42345654Y-29032198D01*
X42185546Y-29032198D01*
X42028515Y-29063433D01*
X41880595Y-29124704D01*
X41747470Y-29213655D01*
X41634257Y-29326868D01*
X41545306Y-29459993D01*
X41484035Y-29607913D01*
X41452800Y-29764944D01*
X29339617Y-29764944D01*
X29270930Y-29696257D01*
X29137805Y-29607306D01*
X28989885Y-29546035D01*
X28896702Y-29527500D01*
X33155884Y-29527500D01*
X33190182Y-29530878D01*
X33224480Y-29527500D01*
X33224491Y-29527500D01*
X33327112Y-29517393D01*
X33458779Y-29477452D01*
X33580125Y-29412591D01*
X33686485Y-29325303D01*
X33708357Y-29298652D01*
X34581857Y-28425153D01*
X34608503Y-28403285D01*
X34630373Y-28376637D01*
X34695791Y-28296926D01*
X34760651Y-28175581D01*
X34760652Y-28175579D01*
X34800593Y-28043912D01*
X34810700Y-27941291D01*
X34810700Y-27941281D01*
X34814078Y-27906983D01*
X34810700Y-27872685D01*
X34810700Y-24430946D01*
X46736000Y-24430946D01*
X46736000Y-24591054D01*
X46767235Y-24748085D01*
X46828506Y-24896005D01*
X46917457Y-25029130D01*
X47030670Y-25142343D01*
X47163795Y-25231294D01*
X47311715Y-25292565D01*
X47468746Y-25323800D01*
X47628854Y-25323800D01*
X47785885Y-25292565D01*
X47933805Y-25231294D01*
X48066930Y-25142343D01*
X48180143Y-25029130D01*
X48269094Y-24896005D01*
X48330365Y-24748085D01*
X48361600Y-24591054D01*
X48361600Y-24430946D01*
X48330365Y-24273915D01*
X48269094Y-24125995D01*
X48180143Y-23992870D01*
X48066930Y-23879657D01*
X47933805Y-23790706D01*
X47785885Y-23729435D01*
X47628854Y-23698200D01*
X47468746Y-23698200D01*
X47311715Y-23729435D01*
X47163795Y-23790706D01*
X47030670Y-23879657D01*
X46917457Y-23992870D01*
X46828506Y-24125995D01*
X46767235Y-24273915D01*
X46736000Y-24430946D01*
X34810700Y-24430946D01*
X34810700Y-22742927D01*
X35459481Y-22094146D01*
X39827200Y-22094146D01*
X39827200Y-22254254D01*
X39858435Y-22411285D01*
X39919706Y-22559205D01*
X40008657Y-22692330D01*
X40121870Y-22805543D01*
X40254995Y-22894494D01*
X40402915Y-22955765D01*
X40559946Y-22987000D01*
X40720054Y-22987000D01*
X40877085Y-22955765D01*
X41025005Y-22894494D01*
X41158130Y-22805543D01*
X41271343Y-22692330D01*
X41360294Y-22559205D01*
X41421565Y-22411285D01*
X41452800Y-22254254D01*
X41452800Y-22094146D01*
X41421565Y-21937115D01*
X41360294Y-21789195D01*
X41271343Y-21656070D01*
X41158130Y-21542857D01*
X41025005Y-21453906D01*
X40877085Y-21392635D01*
X40720054Y-21361400D01*
X40559946Y-21361400D01*
X40402915Y-21392635D01*
X40254995Y-21453906D01*
X40121870Y-21542857D01*
X40008657Y-21656070D01*
X39919706Y-21789195D01*
X39858435Y-21937115D01*
X39827200Y-22094146D01*
X35459481Y-22094146D01*
X38531567Y-19022061D01*
X38558213Y-19000193D01*
X38580083Y-18973545D01*
X38645501Y-18893834D01*
X38710361Y-18772489D01*
X38710362Y-18772487D01*
X38750303Y-18640820D01*
X38760410Y-18538199D01*
X38760410Y-18538189D01*
X38763788Y-18503891D01*
X38760410Y-18469593D01*
X38760410Y-17572946D01*
X41452800Y-17572946D01*
X41452800Y-17733054D01*
X41484035Y-17890085D01*
X41545306Y-18038005D01*
X41634257Y-18171130D01*
X41747470Y-18284343D01*
X41880595Y-18373294D01*
X42028515Y-18434565D01*
X42185546Y-18465800D01*
X42345654Y-18465800D01*
X42502685Y-18434565D01*
X42650605Y-18373294D01*
X42783730Y-18284343D01*
X42896943Y-18171130D01*
X42985894Y-18038005D01*
X43047165Y-17890085D01*
X43078400Y-17733054D01*
X43078400Y-17572946D01*
X43047165Y-17415915D01*
X42985894Y-17267995D01*
X42896943Y-17134870D01*
X42783730Y-17021657D01*
X42650605Y-16932706D01*
X42502685Y-16871435D01*
X42345654Y-16840200D01*
X42185546Y-16840200D01*
X42028515Y-16871435D01*
X41880595Y-16932706D01*
X41747470Y-17021657D01*
X41634257Y-17134870D01*
X41545306Y-17267995D01*
X41484035Y-17415915D01*
X41452800Y-17572946D01*
X38760410Y-17572946D01*
X38760410Y-17100683D01*
X38801070Y-17141343D01*
X38934195Y-17230294D01*
X39082115Y-17291565D01*
X39239146Y-17322800D01*
X39399254Y-17322800D01*
X39556285Y-17291565D01*
X39704205Y-17230294D01*
X39837330Y-17141343D01*
X39950543Y-17028130D01*
X40039494Y-16895005D01*
X40100765Y-16747085D01*
X40132000Y-16590054D01*
X40132000Y-16429946D01*
X40100765Y-16272915D01*
X40039494Y-16124995D01*
X39950543Y-15991870D01*
X39837330Y-15878657D01*
X39704205Y-15789706D01*
X39556285Y-15728435D01*
X39399254Y-15697200D01*
X39239146Y-15697200D01*
X39082115Y-15728435D01*
X38934195Y-15789706D01*
X38801070Y-15878657D01*
X38760410Y-15919317D01*
X38760410Y-12619946D01*
X45872400Y-12619946D01*
X45872400Y-12780054D01*
X45903635Y-12937085D01*
X45964906Y-13085005D01*
X46053857Y-13218130D01*
X46167070Y-13331343D01*
X46300195Y-13420294D01*
X46448115Y-13481565D01*
X46605146Y-13512800D01*
X46765254Y-13512800D01*
X46922285Y-13481565D01*
X47070205Y-13420294D01*
X47203330Y-13331343D01*
X47316543Y-13218130D01*
X47405494Y-13085005D01*
X47466765Y-12937085D01*
X47498000Y-12780054D01*
X47498000Y-12619946D01*
X47466765Y-12462915D01*
X47405494Y-12314995D01*
X47316543Y-12181870D01*
X47203330Y-12068657D01*
X47070205Y-11979706D01*
X46922285Y-11918435D01*
X46765254Y-11887200D01*
X46605146Y-11887200D01*
X46448115Y-11918435D01*
X46300195Y-11979706D01*
X46167070Y-12068657D01*
X46053857Y-12181870D01*
X45964906Y-12314995D01*
X45903635Y-12462915D01*
X45872400Y-12619946D01*
X38760410Y-12619946D01*
X38760410Y-8632146D01*
X39827200Y-8632146D01*
X39827200Y-8792254D01*
X39858435Y-8949285D01*
X39919706Y-9097205D01*
X40008657Y-9230330D01*
X40121870Y-9343543D01*
X40254995Y-9432494D01*
X40402915Y-9493765D01*
X40559946Y-9525000D01*
X40720054Y-9525000D01*
X40877085Y-9493765D01*
X41025005Y-9432494D01*
X41158130Y-9343543D01*
X41254782Y-9246891D01*
X46183519Y-9246891D01*
X46280843Y-9521252D01*
X46429822Y-9771355D01*
X46624731Y-9987588D01*
X46858080Y-10161641D01*
X47120901Y-10286825D01*
X47268110Y-10331476D01*
X47498000Y-10210155D01*
X47498000Y-9017000D01*
X46304186Y-9017000D01*
X46183519Y-9246891D01*
X41254782Y-9246891D01*
X41271343Y-9230330D01*
X41360294Y-9097205D01*
X41421565Y-8949285D01*
X41452800Y-8792254D01*
X41452800Y-8632146D01*
X41433101Y-8533109D01*
X46183519Y-8533109D01*
X46304186Y-8763000D01*
X47498000Y-8763000D01*
X47498000Y-7569845D01*
X47752000Y-7569845D01*
X47752000Y-8763000D01*
X47772000Y-8763000D01*
X47772000Y-9017000D01*
X47752000Y-9017000D01*
X47752000Y-10210155D01*
X47981890Y-10331476D01*
X48129099Y-10286825D01*
X48391920Y-10161641D01*
X48625269Y-9987588D01*
X48808867Y-9783903D01*
X48814351Y-9839585D01*
X48843399Y-9935343D01*
X48890571Y-10023595D01*
X48954052Y-10100948D01*
X49031405Y-10164429D01*
X49119657Y-10211601D01*
X49215415Y-10240649D01*
X49315000Y-10250457D01*
X51015000Y-10250457D01*
X51114585Y-10240649D01*
X51210343Y-10211601D01*
X51298595Y-10164429D01*
X51375948Y-10100948D01*
X51439429Y-10023595D01*
X51486601Y-9935343D01*
X51515649Y-9839585D01*
X51525457Y-9740000D01*
X51525457Y-8040000D01*
X51515649Y-7940415D01*
X51486601Y-7844657D01*
X51439429Y-7756405D01*
X51375948Y-7679052D01*
X51298595Y-7615571D01*
X51210343Y-7568399D01*
X51114585Y-7539351D01*
X51015000Y-7529543D01*
X49315000Y-7529543D01*
X49215415Y-7539351D01*
X49119657Y-7568399D01*
X49031405Y-7615571D01*
X48954052Y-7679052D01*
X48890571Y-7756405D01*
X48843399Y-7844657D01*
X48814351Y-7940415D01*
X48808867Y-7996097D01*
X48625269Y-7792412D01*
X48391920Y-7618359D01*
X48129099Y-7493175D01*
X47981890Y-7448524D01*
X47752000Y-7569845D01*
X47498000Y-7569845D01*
X47268110Y-7448524D01*
X47120901Y-7493175D01*
X46858080Y-7618359D01*
X46624731Y-7792412D01*
X46429822Y-8008645D01*
X46280843Y-8258748D01*
X46183519Y-8533109D01*
X41433101Y-8533109D01*
X41421565Y-8475115D01*
X41360294Y-8327195D01*
X41271343Y-8194070D01*
X41158130Y-8080857D01*
X41025005Y-7991906D01*
X40877085Y-7930635D01*
X40720054Y-7899400D01*
X40559946Y-7899400D01*
X40402915Y-7930635D01*
X40254995Y-7991906D01*
X40121870Y-8080857D01*
X40008657Y-8194070D01*
X39919706Y-8327195D01*
X39858435Y-8475115D01*
X39827200Y-8632146D01*
X38760410Y-8632146D01*
X38760410Y-6092208D01*
X38763788Y-6057910D01*
X38760410Y-6023612D01*
X38760410Y-6023601D01*
X38750303Y-5920980D01*
X38710362Y-5789313D01*
X38676055Y-5725130D01*
X38645501Y-5667966D01*
X38580084Y-5588256D01*
X38580077Y-5588249D01*
X38558212Y-5561607D01*
X38531572Y-5539744D01*
X38118774Y-5126946D01*
X45872400Y-5126946D01*
X45872400Y-5287054D01*
X45903635Y-5444085D01*
X45964906Y-5592005D01*
X46053857Y-5725130D01*
X46167070Y-5838343D01*
X46300195Y-5927294D01*
X46448115Y-5988565D01*
X46605146Y-6019800D01*
X46765254Y-6019800D01*
X46922285Y-5988565D01*
X47070205Y-5927294D01*
X47203330Y-5838343D01*
X47316543Y-5725130D01*
X47405494Y-5592005D01*
X47466765Y-5444085D01*
X47498000Y-5287054D01*
X47498000Y-5126946D01*
X47466765Y-4969915D01*
X47405494Y-4821995D01*
X47316543Y-4688870D01*
X47203330Y-4575657D01*
X47070205Y-4486706D01*
X46922285Y-4425435D01*
X46765254Y-4394200D01*
X46605146Y-4394200D01*
X46448115Y-4425435D01*
X46300195Y-4486706D01*
X46167070Y-4575657D01*
X46053857Y-4688870D01*
X45964906Y-4821995D01*
X45903635Y-4969915D01*
X45872400Y-5126946D01*
X38118774Y-5126946D01*
X36576001Y-3584174D01*
X36576001Y-2967946D01*
X38481000Y-2967946D01*
X38481000Y-3128054D01*
X38512235Y-3285085D01*
X38573506Y-3433005D01*
X38662457Y-3566130D01*
X38775670Y-3679343D01*
X38908795Y-3768294D01*
X39056715Y-3829565D01*
X39213746Y-3860800D01*
X39373854Y-3860800D01*
X39530885Y-3829565D01*
X39678805Y-3768294D01*
X39811930Y-3679343D01*
X39925143Y-3566130D01*
X40014094Y-3433005D01*
X40075365Y-3285085D01*
X40106600Y-3128054D01*
X40106600Y-2967946D01*
X40075365Y-2810915D01*
X40014094Y-2662995D01*
X39925143Y-2529870D01*
X39811930Y-2416657D01*
X39678805Y-2327706D01*
X39530885Y-2266435D01*
X39373854Y-2235200D01*
X39213746Y-2235200D01*
X39056715Y-2266435D01*
X38908795Y-2327706D01*
X38775670Y-2416657D01*
X38662457Y-2529870D01*
X38573506Y-2662995D01*
X38512235Y-2810915D01*
X38481000Y-2967946D01*
X36576001Y-2967946D01*
X36576001Y-2737374D01*
X36579379Y-2703076D01*
X36576001Y-2668778D01*
X36576001Y-2668768D01*
X36565894Y-2566147D01*
X36525953Y-2434480D01*
X36461092Y-2313134D01*
X36443612Y-2291835D01*
X36395675Y-2233423D01*
X36395668Y-2233416D01*
X36373803Y-2206774D01*
X36347162Y-2184910D01*
X36278571Y-2116319D01*
X36270918Y-2077844D01*
X36209647Y-1929924D01*
X36156475Y-1850346D01*
X41478200Y-1850346D01*
X41478200Y-2010454D01*
X41509435Y-2167485D01*
X41570706Y-2315405D01*
X41659657Y-2448530D01*
X41772870Y-2561743D01*
X41905995Y-2650694D01*
X42053915Y-2711965D01*
X42210946Y-2743200D01*
X42371054Y-2743200D01*
X42528085Y-2711965D01*
X42676005Y-2650694D01*
X42809130Y-2561743D01*
X42922343Y-2448530D01*
X43011294Y-2315405D01*
X43072565Y-2167485D01*
X43103800Y-2010454D01*
X43103800Y-1850346D01*
X43072565Y-1693315D01*
X43011294Y-1545395D01*
X42922343Y-1412270D01*
X42809130Y-1299057D01*
X42676005Y-1210106D01*
X42528085Y-1148835D01*
X42371054Y-1117600D01*
X42210946Y-1117600D01*
X42053915Y-1148835D01*
X41905995Y-1210106D01*
X41772870Y-1299057D01*
X41659657Y-1412270D01*
X41570706Y-1545395D01*
X41509435Y-1693315D01*
X41478200Y-1850346D01*
X36156475Y-1850346D01*
X36120696Y-1796799D01*
X36007483Y-1683586D01*
X35874358Y-1594635D01*
X35726438Y-1533364D01*
X35569407Y-1502129D01*
X35409299Y-1502129D01*
X35252268Y-1533364D01*
X35104348Y-1594635D01*
X34971223Y-1683586D01*
X34858010Y-1796799D01*
X34769059Y-1929924D01*
X34707788Y-2077844D01*
X34676553Y-2234875D01*
X34676553Y-2394983D01*
X34682978Y-2427285D01*
X34660870Y-2442057D01*
X34547657Y-2555270D01*
X34458706Y-2688395D01*
X34397435Y-2836315D01*
X34370486Y-2971800D01*
X33178879Y-2971800D01*
X33270339Y-2880340D01*
X33359290Y-2747215D01*
X33420561Y-2599295D01*
X33451796Y-2442264D01*
X33451796Y-2282156D01*
X33420561Y-2125125D01*
X33359290Y-1977205D01*
X33270339Y-1844080D01*
X33157126Y-1730867D01*
X33024001Y-1641916D01*
X32876081Y-1580645D01*
X32719050Y-1549410D01*
X32558942Y-1549410D01*
X32401911Y-1580645D01*
X32253991Y-1641916D01*
X32120866Y-1730867D01*
X32007653Y-1844080D01*
X31918702Y-1977205D01*
X31857431Y-2125125D01*
X31826196Y-2282156D01*
X31826196Y-2442264D01*
X31857431Y-2599295D01*
X31910488Y-2727384D01*
X31623000Y-2439897D01*
X31623000Y-2409146D01*
X31591765Y-2252115D01*
X31530494Y-2104195D01*
X31441543Y-1971070D01*
X31328330Y-1857857D01*
X31195205Y-1768906D01*
X31047285Y-1707635D01*
X30890254Y-1676400D01*
X30730146Y-1676400D01*
X30573115Y-1707635D01*
X30425195Y-1768906D01*
X30292070Y-1857857D01*
X30178857Y-1971070D01*
X30089906Y-2104195D01*
X30028635Y-2252115D01*
X29997400Y-2409146D01*
X29997400Y-2569254D01*
X30028635Y-2726285D01*
X30089906Y-2874205D01*
X30178857Y-3007330D01*
X30292070Y-3120543D01*
X30425195Y-3209494D01*
X30573115Y-3270765D01*
X30730146Y-3302000D01*
X30760897Y-3302000D01*
X31319696Y-3860800D01*
X30433741Y-3860800D01*
X30403800Y-3857851D01*
X30284297Y-3869621D01*
X30169387Y-3904479D01*
X30137143Y-3921714D01*
X30063486Y-3961084D01*
X29970662Y-4037262D01*
X29951569Y-4060527D01*
X28551097Y-5461000D01*
X28520346Y-5461000D01*
X28363315Y-5492235D01*
X28215395Y-5553506D01*
X28082270Y-5642457D01*
X27969057Y-5755670D01*
X27880106Y-5888795D01*
X27818835Y-6036715D01*
X27787600Y-6193746D01*
X27787600Y-6353854D01*
X27818835Y-6510885D01*
X27880106Y-6658805D01*
X27969057Y-6791930D01*
X28082270Y-6905143D01*
X28215395Y-6994094D01*
X28363315Y-7055365D01*
X28520346Y-7086600D01*
X28680454Y-7086600D01*
X28837485Y-7055365D01*
X28985405Y-6994094D01*
X29118530Y-6905143D01*
X29231743Y-6791930D01*
X29320694Y-6658805D01*
X29381965Y-6510885D01*
X29413200Y-6353854D01*
X29413200Y-6323103D01*
X30656304Y-5080000D01*
X34316897Y-5080000D01*
X36017200Y-6780304D01*
X36017200Y-6811076D01*
X36048435Y-6968107D01*
X36109706Y-7116027D01*
X36198657Y-7249152D01*
X36311870Y-7362365D01*
X36444995Y-7451316D01*
X36592915Y-7512587D01*
X36749946Y-7543822D01*
X36910054Y-7543822D01*
X36957001Y-7534484D01*
X36957000Y-12472896D01*
X36399697Y-13030200D01*
X36368946Y-13030200D01*
X36211915Y-13061435D01*
X36063995Y-13122706D01*
X35930870Y-13211657D01*
X35817657Y-13324870D01*
X35728706Y-13457995D01*
X35667435Y-13605915D01*
X35636200Y-13762946D01*
X35636200Y-13923054D01*
X35667435Y-14080085D01*
X35728706Y-14228005D01*
X35817657Y-14361130D01*
X35930870Y-14474343D01*
X36063995Y-14563294D01*
X36211915Y-14624565D01*
X36368946Y-14655800D01*
X36399697Y-14655800D01*
X36957001Y-15213105D01*
X36957000Y-17997906D01*
X34859390Y-20095517D01*
X34787789Y-20023916D01*
X36020679Y-18791026D01*
X36043938Y-18771938D01*
X36120116Y-18679114D01*
X36164675Y-18595749D01*
X36176721Y-18573213D01*
X36211579Y-18458303D01*
X36223349Y-18338800D01*
X36220400Y-18308859D01*
X36220400Y-16489138D01*
X36223349Y-16459199D01*
X36217547Y-16400295D01*
X36211579Y-16339698D01*
X36176721Y-16224788D01*
X36120116Y-16118886D01*
X36043938Y-16026062D01*
X36020679Y-16006974D01*
X35915600Y-15901896D01*
X35915600Y-15871146D01*
X35884365Y-15714115D01*
X35823094Y-15566195D01*
X35734143Y-15433070D01*
X35620930Y-15319857D01*
X35487805Y-15230906D01*
X35339885Y-15169635D01*
X35182854Y-15138400D01*
X35022746Y-15138400D01*
X35010984Y-15140740D01*
X35071565Y-14994485D01*
X35102800Y-14837454D01*
X35102800Y-14677346D01*
X35071565Y-14520315D01*
X35010294Y-14372395D01*
X34921343Y-14239270D01*
X34808130Y-14126057D01*
X34675005Y-14037106D01*
X34527085Y-13975835D01*
X34370054Y-13944600D01*
X34209946Y-13944600D01*
X34052915Y-13975835D01*
X33904995Y-14037106D01*
X33771870Y-14126057D01*
X33658657Y-14239270D01*
X33629600Y-14282757D01*
X33600543Y-14239270D01*
X33487330Y-14126057D01*
X33354205Y-14037106D01*
X33206285Y-13975835D01*
X33049254Y-13944600D01*
X32889146Y-13944600D01*
X32732115Y-13975835D01*
X32584195Y-14037106D01*
X32537400Y-14068373D01*
X32537400Y-13130303D01*
X33932904Y-11734800D01*
X33989054Y-11734800D01*
X34146085Y-11703565D01*
X34294005Y-11642294D01*
X34427130Y-11553343D01*
X34540343Y-11440130D01*
X34629294Y-11307005D01*
X34690565Y-11159085D01*
X34721800Y-11002054D01*
X34721800Y-10841946D01*
X34690565Y-10684915D01*
X34629294Y-10536995D01*
X34540343Y-10403870D01*
X34427130Y-10290657D01*
X34294005Y-10201706D01*
X34146085Y-10140435D01*
X33989054Y-10109200D01*
X33828946Y-10109200D01*
X33671915Y-10140435D01*
X33523995Y-10201706D01*
X33390870Y-10290657D01*
X33277657Y-10403870D01*
X33188706Y-10536995D01*
X33127435Y-10684915D01*
X33096200Y-10841946D01*
X33096200Y-10847296D01*
X31953200Y-11990297D01*
X31953200Y-9955303D01*
X32434304Y-9474200D01*
X32465054Y-9474200D01*
X32622085Y-9442965D01*
X32770005Y-9381694D01*
X32903130Y-9292743D01*
X33016343Y-9179530D01*
X33105294Y-9046405D01*
X33166565Y-8898485D01*
X33197800Y-8741454D01*
X33197800Y-8581346D01*
X33166565Y-8424315D01*
X33105294Y-8276395D01*
X33016343Y-8143270D01*
X32903130Y-8030057D01*
X32770005Y-7941106D01*
X32622085Y-7879835D01*
X32465054Y-7848600D01*
X32304946Y-7848600D01*
X32147915Y-7879835D01*
X31999995Y-7941106D01*
X31866870Y-8030057D01*
X31753657Y-8143270D01*
X31664706Y-8276395D01*
X31603435Y-8424315D01*
X31572200Y-8581346D01*
X31572200Y-8612096D01*
X31157085Y-9027212D01*
X31150530Y-9020657D01*
X31017405Y-8931706D01*
X30869485Y-8870435D01*
X30712454Y-8839200D01*
X30581612Y-8839200D01*
X30581612Y-8253491D01*
X30935804Y-7899300D01*
X30966554Y-7899300D01*
X31123585Y-7868065D01*
X31271505Y-7806794D01*
X31404630Y-7717843D01*
X31517843Y-7604630D01*
X31606794Y-7471505D01*
X31668065Y-7323585D01*
X31699300Y-7166554D01*
X31699300Y-7006446D01*
X31668065Y-6849415D01*
X31606794Y-6701495D01*
X31517843Y-6568370D01*
X31404630Y-6455157D01*
X31271505Y-6366206D01*
X31123585Y-6304935D01*
X30966554Y-6273700D01*
X30806446Y-6273700D01*
X30649415Y-6304935D01*
X30501495Y-6366206D01*
X30368370Y-6455157D01*
X30255157Y-6568370D01*
X30166206Y-6701495D01*
X30104935Y-6849415D01*
X30073700Y-7006446D01*
X30073700Y-7037196D01*
X29562144Y-7548753D01*
X29538874Y-7567850D01*
X29462696Y-7660675D01*
X29406091Y-7766577D01*
X29390024Y-7819543D01*
X29371233Y-7881486D01*
X29359463Y-8000988D01*
X29362412Y-8030930D01*
X29362412Y-8595603D01*
X28450554Y-7683746D01*
X28428684Y-7657097D01*
X28322324Y-7569809D01*
X28200978Y-7504948D01*
X28069311Y-7465007D01*
X27966690Y-7454900D01*
X27966679Y-7454900D01*
X27932381Y-7451522D01*
X27898083Y-7454900D01*
X18958328Y-7454900D01*
X18759750Y-7256323D01*
X18868543Y-7147530D01*
X18957494Y-7014405D01*
X19018765Y-6866485D01*
X19050000Y-6709454D01*
X19050000Y-6549346D01*
X19018765Y-6392315D01*
X18968078Y-6269946D01*
X19507200Y-6269946D01*
X19507200Y-6430054D01*
X19538435Y-6587085D01*
X19599706Y-6735005D01*
X19688657Y-6868130D01*
X19801870Y-6981343D01*
X19934995Y-7070294D01*
X20082915Y-7131565D01*
X20239946Y-7162800D01*
X20400054Y-7162800D01*
X20557085Y-7131565D01*
X20705005Y-7070294D01*
X20838130Y-6981343D01*
X20951343Y-6868130D01*
X21040294Y-6735005D01*
X21101565Y-6587085D01*
X21132800Y-6430054D01*
X21132800Y-6269946D01*
X21101565Y-6112915D01*
X21040294Y-5964995D01*
X20951343Y-5831870D01*
X20838130Y-5718657D01*
X20705005Y-5629706D01*
X20557085Y-5568435D01*
X20400054Y-5537200D01*
X20239946Y-5537200D01*
X20082915Y-5568435D01*
X19934995Y-5629706D01*
X19801870Y-5718657D01*
X19688657Y-5831870D01*
X19599706Y-5964995D01*
X19538435Y-6112915D01*
X19507200Y-6269946D01*
X18968078Y-6269946D01*
X18957494Y-6244395D01*
X18868543Y-6111270D01*
X18755330Y-5998057D01*
X18622205Y-5909106D01*
X18474285Y-5847835D01*
X18317254Y-5816600D01*
X18157146Y-5816600D01*
X18000115Y-5847835D01*
X17852195Y-5909106D01*
X17719070Y-5998057D01*
X17605857Y-6111270D01*
X17516906Y-6244395D01*
X17455635Y-6392315D01*
X17451536Y-6412922D01*
X17318795Y-6467906D01*
X17185670Y-6556857D01*
X17072457Y-6670070D01*
X16983506Y-6803195D01*
X16922235Y-6951115D01*
X16891000Y-7108146D01*
X16891000Y-7268254D01*
X16922235Y-7425285D01*
X16983506Y-7573205D01*
X17072457Y-7706330D01*
X17185670Y-7819543D01*
X17318795Y-7908494D01*
X17466715Y-7969765D01*
X17505191Y-7977418D01*
X18150829Y-8623057D01*
X18172697Y-8649703D01*
X18199343Y-8671571D01*
X18199346Y-8671574D01*
X18279056Y-8736991D01*
X18315086Y-8756249D01*
X18400403Y-8801852D01*
X18532070Y-8841793D01*
X18634691Y-8851900D01*
X18634702Y-8851900D01*
X18669000Y-8855278D01*
X18703298Y-8851900D01*
X19507200Y-8851900D01*
X19507200Y-8970054D01*
X19538435Y-9127085D01*
X19599706Y-9275005D01*
X19688657Y-9408130D01*
X19710400Y-9429873D01*
X19710401Y-10970514D01*
X19687973Y-10992942D01*
X19599022Y-11126067D01*
X19537751Y-11273987D01*
X19526928Y-11328400D01*
X19477946Y-11328400D01*
X19320915Y-11359635D01*
X19172995Y-11420906D01*
X19039870Y-11509857D01*
X18926657Y-11623070D01*
X18837706Y-11756195D01*
X18776435Y-11904115D01*
X18745200Y-12061146D01*
X18745200Y-12221254D01*
X18747183Y-12231225D01*
X18741195Y-12233706D01*
X18608070Y-12322657D01*
X18494857Y-12435870D01*
X18405906Y-12568995D01*
X18344635Y-12716915D01*
X18313400Y-12873946D01*
X18313400Y-13034054D01*
X18344635Y-13191085D01*
X18405906Y-13339005D01*
X18494857Y-13472130D01*
X18608070Y-13585343D01*
X18741195Y-13674294D01*
X18889115Y-13735565D01*
X19046146Y-13766800D01*
X19206254Y-13766800D01*
X19363285Y-13735565D01*
X19511205Y-13674294D01*
X19644330Y-13585343D01*
X19666073Y-13563600D01*
X21712459Y-13563600D01*
X21742400Y-13566549D01*
X21772341Y-13563600D01*
X21861902Y-13554779D01*
X21976812Y-13519921D01*
X22082714Y-13463316D01*
X22175538Y-13387138D01*
X22194635Y-13363868D01*
X25169904Y-10388600D01*
X25774527Y-10388600D01*
X25796270Y-10410343D01*
X25929395Y-10499294D01*
X26077315Y-10560565D01*
X26234346Y-10591800D01*
X26394454Y-10591800D01*
X26551485Y-10560565D01*
X26699405Y-10499294D01*
X26832530Y-10410343D01*
X26945743Y-10297130D01*
X27034694Y-10164005D01*
X27095965Y-10016085D01*
X27127200Y-9859054D01*
X27127200Y-9698946D01*
X27095965Y-9541915D01*
X27034694Y-9393995D01*
X26945743Y-9260870D01*
X26832530Y-9147657D01*
X26699405Y-9058706D01*
X26551485Y-8997435D01*
X26394454Y-8966200D01*
X26234346Y-8966200D01*
X26077315Y-8997435D01*
X25929395Y-9058706D01*
X25796270Y-9147657D01*
X25774527Y-9169400D01*
X24947341Y-9169400D01*
X24917399Y-9166451D01*
X24797897Y-9178221D01*
X24763039Y-9188795D01*
X24682988Y-9213079D01*
X24577086Y-9269684D01*
X24484262Y-9345862D01*
X24465169Y-9369127D01*
X21489897Y-12344400D01*
X20346305Y-12344400D01*
X20350388Y-12323872D01*
X20399370Y-12323872D01*
X20556401Y-12292637D01*
X20704321Y-12231366D01*
X20837446Y-12142415D01*
X20950659Y-12029202D01*
X21039610Y-11896077D01*
X21100881Y-11748157D01*
X21132116Y-11591126D01*
X21132116Y-11431018D01*
X21100881Y-11273987D01*
X21039610Y-11126067D01*
X20950659Y-10992942D01*
X20929600Y-10971883D01*
X20929600Y-9652184D01*
X21052326Y-9676595D01*
X21212434Y-9676595D01*
X21369465Y-9645360D01*
X21517385Y-9584089D01*
X21650510Y-9495138D01*
X21763723Y-9381925D01*
X21852674Y-9248800D01*
X21913945Y-9100880D01*
X21945180Y-8943849D01*
X21945180Y-8851900D01*
X27641428Y-8851900D01*
X27562657Y-8930671D01*
X27473706Y-9063796D01*
X27412435Y-9211716D01*
X27381200Y-9368747D01*
X27381200Y-9528855D01*
X27412435Y-9685886D01*
X27473706Y-9833806D01*
X27562657Y-9966931D01*
X27584401Y-9988675D01*
X27584401Y-11633200D01*
X27504346Y-11633200D01*
X27347315Y-11664435D01*
X27199395Y-11725706D01*
X27066270Y-11814657D01*
X26953057Y-11927870D01*
X26864106Y-12060995D01*
X26802835Y-12208915D01*
X26771600Y-12365946D01*
X26771600Y-12526054D01*
X26802835Y-12683085D01*
X26864106Y-12831005D01*
X26953057Y-12964130D01*
X27066270Y-13077343D01*
X27199395Y-13166294D01*
X27347315Y-13227565D01*
X27504346Y-13258800D01*
X27584400Y-13258800D01*
X27584400Y-13863858D01*
X27581451Y-13893800D01*
X27593221Y-14013301D01*
X27628079Y-14128211D01*
X27684684Y-14234113D01*
X27760862Y-14326938D01*
X27784132Y-14346035D01*
X27814479Y-14376383D01*
X27789062Y-14401800D01*
X25861857Y-14401800D01*
X25867330Y-14398143D01*
X25980543Y-14284930D01*
X26069494Y-14151805D01*
X26130765Y-14003885D01*
X26162000Y-13846854D01*
X26162000Y-13686746D01*
X26130765Y-13529715D01*
X26069494Y-13381795D01*
X25980543Y-13248670D01*
X25867330Y-13135457D01*
X25734205Y-13046506D01*
X25586285Y-12985235D01*
X25481082Y-12964309D01*
X25485294Y-12958005D01*
X25546565Y-12810085D01*
X25577800Y-12653054D01*
X25577800Y-12492946D01*
X25546565Y-12335915D01*
X25485294Y-12187995D01*
X25396343Y-12054870D01*
X25283130Y-11941657D01*
X25150005Y-11852706D01*
X25002085Y-11791435D01*
X24845054Y-11760200D01*
X24684946Y-11760200D01*
X24527915Y-11791435D01*
X24379995Y-11852706D01*
X24246870Y-11941657D01*
X24133657Y-12054870D01*
X24044706Y-12187995D01*
X23989722Y-12320736D01*
X23969115Y-12324835D01*
X23821195Y-12386106D01*
X23688070Y-12475057D01*
X23574857Y-12588270D01*
X23485906Y-12721395D01*
X23424635Y-12869315D01*
X23393400Y-13026346D01*
X23393400Y-13186454D01*
X23424635Y-13343485D01*
X23485906Y-13491405D01*
X23574857Y-13624530D01*
X23688070Y-13737743D01*
X23821195Y-13826694D01*
X23969115Y-13887965D01*
X24081863Y-13910392D01*
X24044706Y-13966001D01*
X23983435Y-14113921D01*
X23952200Y-14270952D01*
X23952200Y-14401800D01*
X18897600Y-14401800D01*
X18897600Y-14321736D01*
X18866365Y-14164705D01*
X18805094Y-14016785D01*
X18716143Y-13883660D01*
X18602930Y-13770447D01*
X18469805Y-13681496D01*
X18321885Y-13620225D01*
X18164854Y-13588990D01*
X18004746Y-13588990D01*
X17847715Y-13620225D01*
X17699795Y-13681496D01*
X17566670Y-13770447D01*
X17453457Y-13883660D01*
X17365941Y-14014637D01*
X13684887Y-10333584D01*
X13665790Y-10310314D01*
X13572966Y-10234136D01*
X13467064Y-10177531D01*
X13352154Y-10142673D01*
X13329431Y-10140435D01*
X13232652Y-10130903D01*
X13202711Y-10133852D01*
X8527736Y-10133852D01*
X8497795Y-10130903D01*
X8378292Y-10142673D01*
X8263383Y-10177531D01*
X8157481Y-10234136D01*
X8064657Y-10310314D01*
X8045569Y-10333574D01*
X7711143Y-10668000D01*
X7680393Y-10668000D01*
X7523362Y-10699235D01*
X7375442Y-10760506D01*
X7258424Y-10838695D01*
X7141405Y-10760506D01*
X6993485Y-10699235D01*
X6836454Y-10668000D01*
X6676346Y-10668000D01*
X6519315Y-10699235D01*
X6371395Y-10760506D01*
X6238270Y-10849457D01*
X6125057Y-10962670D01*
X6036106Y-11095795D01*
X5974835Y-11243715D01*
X5943600Y-11400746D01*
X5943600Y-11560854D01*
X5974835Y-11717885D01*
X6036106Y-11865805D01*
X6125057Y-11998930D01*
X6238270Y-12112143D01*
X6371395Y-12201094D01*
X6519315Y-12262365D01*
X6676346Y-12293600D01*
X6707096Y-12293600D01*
X6964573Y-12551078D01*
X6983662Y-12574338D01*
X7076486Y-12650516D01*
X7121545Y-12674600D01*
X7182387Y-12707121D01*
X7297297Y-12741979D01*
X7416800Y-12753749D01*
X7446741Y-12750800D01*
X13006297Y-12750800D01*
X16489574Y-16234079D01*
X16508662Y-16257338D01*
X16601486Y-16333516D01*
X16683192Y-16377188D01*
X16707388Y-16390121D01*
X16822297Y-16424979D01*
X16941800Y-16436749D01*
X16971741Y-16433800D01*
X26417497Y-16433800D01*
X27711400Y-17727704D01*
X27711400Y-17758454D01*
X27742635Y-17915485D01*
X27803906Y-18063405D01*
X27892857Y-18196530D01*
X28006070Y-18309743D01*
X28139195Y-18398694D01*
X28287115Y-18459965D01*
X28444146Y-18491200D01*
X28604254Y-18491200D01*
X28761285Y-18459965D01*
X28909205Y-18398694D01*
X29042330Y-18309743D01*
X29155543Y-18196530D01*
X29244494Y-18063405D01*
X29305765Y-17915485D01*
X29337000Y-17758454D01*
X29337000Y-17598346D01*
X29305765Y-17441315D01*
X29244494Y-17293395D01*
X29155543Y-17160270D01*
X29042330Y-17047057D01*
X28909205Y-16958106D01*
X28761285Y-16896835D01*
X28604254Y-16865600D01*
X28573504Y-16865600D01*
X28342670Y-16634766D01*
X28373779Y-16640954D01*
X28533887Y-16640954D01*
X28690918Y-16609719D01*
X28838838Y-16548448D01*
X28971963Y-16459497D01*
X28997857Y-16433603D01*
X28999680Y-16439612D01*
X29056285Y-16545514D01*
X29132463Y-16638339D01*
X29155733Y-16657436D01*
X30226000Y-17727704D01*
X30226000Y-17758454D01*
X30257235Y-17915485D01*
X30318506Y-18063405D01*
X30407457Y-18196530D01*
X30484117Y-18273190D01*
X29562292Y-19195015D01*
X28628618Y-19195015D01*
X28628618Y-19114960D01*
X28597383Y-18957929D01*
X28536112Y-18810009D01*
X28447161Y-18676884D01*
X28333948Y-18563671D01*
X28200823Y-18474720D01*
X28052903Y-18413449D01*
X27895872Y-18382214D01*
X27735764Y-18382214D01*
X27578733Y-18413449D01*
X27430813Y-18474720D01*
X27297688Y-18563671D01*
X27184475Y-18676884D01*
X27095524Y-18810009D01*
X27034253Y-18957929D01*
X27003018Y-19114960D01*
X27003018Y-19194118D01*
X26982185Y-19192066D01*
X26862682Y-19203836D01*
X26783685Y-19227800D01*
X26747773Y-19238694D01*
X26641871Y-19295299D01*
X26549047Y-19371477D01*
X26529960Y-19394735D01*
X26087296Y-19837400D01*
X24714200Y-19837400D01*
X24714200Y-19681156D01*
X24682965Y-19524125D01*
X24621694Y-19376205D01*
X24532743Y-19243080D01*
X24419530Y-19129867D01*
X24286405Y-19040916D01*
X24138485Y-18979645D01*
X23981454Y-18948410D01*
X23821346Y-18948410D01*
X23664315Y-18979645D01*
X23516395Y-19040916D01*
X23383270Y-19129867D01*
X23270057Y-19243080D01*
X23181106Y-19376205D01*
X23119835Y-19524125D01*
X23112999Y-19558495D01*
X21762835Y-18208332D01*
X21743738Y-18185062D01*
X21650914Y-18108884D01*
X21545012Y-18052279D01*
X21430102Y-18017421D01*
X21415654Y-18015998D01*
X21310600Y-18005651D01*
X21280659Y-18008600D01*
X19177000Y-18008600D01*
X19177000Y-17928536D01*
X19145765Y-17771505D01*
X19084494Y-17623585D01*
X18995543Y-17490460D01*
X18882330Y-17377247D01*
X18749205Y-17288296D01*
X18601285Y-17227025D01*
X18444254Y-17195790D01*
X18284146Y-17195790D01*
X18127115Y-17227025D01*
X17979195Y-17288296D01*
X17846070Y-17377247D01*
X17824327Y-17398990D01*
X15949694Y-17398990D01*
X13863435Y-15312732D01*
X13844338Y-15289462D01*
X13751514Y-15213284D01*
X13645612Y-15156679D01*
X13530702Y-15121821D01*
X13411200Y-15110051D01*
X13381259Y-15113000D01*
X4220941Y-15113000D01*
X4191000Y-15110051D01*
X4071497Y-15121821D01*
X3992124Y-15145899D01*
X3956588Y-15156679D01*
X3850686Y-15213284D01*
X3757862Y-15289462D01*
X3738773Y-15312722D01*
X3506696Y-15544800D01*
X3475946Y-15544800D01*
X3318915Y-15576035D01*
X3170995Y-15637306D01*
X3037870Y-15726257D01*
X2924657Y-15839470D01*
X2835706Y-15972595D01*
X2774435Y-16120515D01*
X2743200Y-16277546D01*
X2743200Y-16437654D01*
X2774435Y-16594685D01*
X2835706Y-16742605D01*
X2924657Y-16875730D01*
X3037870Y-16988943D01*
X3170995Y-17077894D01*
X3318915Y-17139165D01*
X3475946Y-17170400D01*
X3636054Y-17170400D01*
X3793085Y-17139165D01*
X3941005Y-17077894D01*
X4074130Y-16988943D01*
X4187343Y-16875730D01*
X4276294Y-16742605D01*
X4337565Y-16594685D01*
X4368800Y-16437654D01*
X4368800Y-16406904D01*
X4443504Y-16332200D01*
X6934200Y-16332200D01*
X6934200Y-16383001D01*
X5287737Y-16383001D01*
X5257798Y-16380052D01*
X5227859Y-16383001D01*
X5227858Y-16383001D01*
X5138297Y-16391822D01*
X5023387Y-16426680D01*
X4917485Y-16483285D01*
X4824661Y-16559463D01*
X4805568Y-16582728D01*
X3532097Y-17856200D01*
X3501346Y-17856200D01*
X3344315Y-17887435D01*
X3196395Y-17948706D01*
X3063270Y-18037657D01*
X2950057Y-18150870D01*
X2861106Y-18283995D01*
X2799835Y-18431915D01*
X2768600Y-18588946D01*
X2768600Y-18749054D01*
X2799835Y-18906085D01*
X2800075Y-18906664D01*
X2703571Y-18971146D01*
X2590358Y-19084359D01*
X2501407Y-19217484D01*
X2440136Y-19365404D01*
X2408901Y-19522435D01*
X1193800Y-19522435D01*
X1193800Y-14951262D01*
X1240746Y-14960600D01*
X1400854Y-14960600D01*
X1557885Y-14929365D01*
X1705805Y-14868094D01*
X1838930Y-14779143D01*
X1952143Y-14665930D01*
X2041094Y-14532805D01*
X2102365Y-14384885D01*
X2123478Y-14278744D01*
X2231346Y-14300200D01*
X2391454Y-14300200D01*
X2548485Y-14268965D01*
X2696405Y-14207694D01*
X2829530Y-14118743D01*
X2942743Y-14005530D01*
X3031694Y-13872405D01*
X3092965Y-13724485D01*
X3124200Y-13567454D01*
X3124200Y-13407346D01*
X3092965Y-13250315D01*
X3031694Y-13102395D01*
X2942743Y-12969270D01*
X2829530Y-12856057D01*
X2696405Y-12767106D01*
X2548485Y-12705835D01*
X2391454Y-12674600D01*
X2231346Y-12674600D01*
X2074315Y-12705835D01*
X1926395Y-12767106D01*
X1793270Y-12856057D01*
X1771527Y-12877800D01*
X1045938Y-12877800D01*
X1015999Y-12874851D01*
X986060Y-12877800D01*
X986059Y-12877800D01*
X896498Y-12886621D01*
X781588Y-12921479D01*
X675686Y-12978084D01*
X583000Y-13054149D01*
X583000Y-8756249D01*
X1817000Y-8756249D01*
X1817000Y-9023751D01*
X1869187Y-9286114D01*
X1971556Y-9533254D01*
X2120172Y-9755675D01*
X2309325Y-9944828D01*
X2531746Y-10093444D01*
X2778886Y-10195813D01*
X3041249Y-10248000D01*
X3308751Y-10248000D01*
X3571114Y-10195813D01*
X3818254Y-10093444D01*
X4040675Y-9944828D01*
X4229828Y-9755675D01*
X4354543Y-9569025D01*
X4354543Y-9740000D01*
X4364351Y-9839585D01*
X4393399Y-9935343D01*
X4440571Y-10023595D01*
X4504052Y-10100948D01*
X4581405Y-10164429D01*
X4669657Y-10211601D01*
X4765415Y-10240649D01*
X4865000Y-10250457D01*
X6565000Y-10250457D01*
X6664585Y-10240649D01*
X6760343Y-10211601D01*
X6848595Y-10164429D01*
X6925948Y-10100948D01*
X6989429Y-10023595D01*
X7036601Y-9935343D01*
X7065649Y-9839585D01*
X7075457Y-9740000D01*
X7075457Y-8403546D01*
X9601200Y-8403546D01*
X9601200Y-8563654D01*
X9632435Y-8720685D01*
X9693706Y-8868605D01*
X9782657Y-9001730D01*
X9895870Y-9114943D01*
X10028995Y-9203894D01*
X10176915Y-9265165D01*
X10333946Y-9296400D01*
X10494054Y-9296400D01*
X10651085Y-9265165D01*
X10799005Y-9203894D01*
X10932130Y-9114943D01*
X11045343Y-9001730D01*
X11134294Y-8868605D01*
X11195565Y-8720685D01*
X11226800Y-8563654D01*
X11226800Y-8403546D01*
X11195565Y-8246515D01*
X11134294Y-8098595D01*
X11045343Y-7965470D01*
X10932130Y-7852257D01*
X10799005Y-7763306D01*
X10651085Y-7702035D01*
X10494054Y-7670800D01*
X10333946Y-7670800D01*
X10176915Y-7702035D01*
X10028995Y-7763306D01*
X9895870Y-7852257D01*
X9782657Y-7965470D01*
X9693706Y-8098595D01*
X9632435Y-8246515D01*
X9601200Y-8403546D01*
X7075457Y-8403546D01*
X7075457Y-8040000D01*
X7065649Y-7940415D01*
X7036601Y-7844657D01*
X6989429Y-7756405D01*
X6925948Y-7679052D01*
X6848595Y-7615571D01*
X6760343Y-7568399D01*
X6664585Y-7539351D01*
X6565000Y-7529543D01*
X4865000Y-7529543D01*
X4765415Y-7539351D01*
X4669657Y-7568399D01*
X4581405Y-7615571D01*
X4504052Y-7679052D01*
X4440571Y-7756405D01*
X4393399Y-7844657D01*
X4364351Y-7940415D01*
X4354543Y-8040000D01*
X4354543Y-8210975D01*
X4229828Y-8024325D01*
X4040675Y-7835172D01*
X3818254Y-7686556D01*
X3571114Y-7584187D01*
X3308751Y-7532000D01*
X3041249Y-7532000D01*
X2778886Y-7584187D01*
X2531746Y-7686556D01*
X2309325Y-7835172D01*
X2120172Y-8024325D01*
X1971556Y-8246746D01*
X1869187Y-8493886D01*
X1817000Y-8756249D01*
X583000Y-8756249D01*
X583000Y-4364946D01*
X5156200Y-4364946D01*
X5156200Y-4525054D01*
X5187435Y-4682085D01*
X5248706Y-4830005D01*
X5337657Y-4963130D01*
X5450870Y-5076343D01*
X5583995Y-5165294D01*
X5731915Y-5226565D01*
X5888946Y-5257800D01*
X6049054Y-5257800D01*
X6206085Y-5226565D01*
X6354005Y-5165294D01*
X6487130Y-5076343D01*
X6600343Y-4963130D01*
X6689294Y-4830005D01*
X6750565Y-4682085D01*
X6781800Y-4525054D01*
X6781800Y-4364946D01*
X6750565Y-4207915D01*
X6689294Y-4059995D01*
X6600343Y-3926870D01*
X6487130Y-3813657D01*
X6354005Y-3724706D01*
X6206085Y-3663435D01*
X6049054Y-3632200D01*
X5888946Y-3632200D01*
X5731915Y-3663435D01*
X5583995Y-3724706D01*
X5450870Y-3813657D01*
X5337657Y-3926870D01*
X5248706Y-4059995D01*
X5187435Y-4207915D01*
X5156200Y-4364946D01*
X583000Y-4364946D01*
X583000Y-583000D01*
X9451622Y-583000D01*
X9436900Y-631532D01*
G04 #@! TA.AperFunction,Conductor*
D19*
G36*
X9436900Y-631532D02*
G01*
X9420000Y-803123D01*
X9420000Y-2117876D01*
X9436900Y-2289467D01*
X9503688Y-2509636D01*
X9517735Y-2535917D01*
X9454947Y-2587446D01*
X9318985Y-2753115D01*
X9217957Y-2942126D01*
X9155743Y-3147215D01*
X9140000Y-3307054D01*
X9140000Y-4413945D01*
X9155743Y-4573784D01*
X9217956Y-4778873D01*
X9318984Y-4967885D01*
X9454946Y-5133554D01*
X9620615Y-5269516D01*
X9809626Y-5370544D01*
X10014715Y-5432757D01*
X10228000Y-5453764D01*
X10441284Y-5432757D01*
X10646373Y-5370544D01*
X10835385Y-5269516D01*
X11001054Y-5133554D01*
X11069013Y-5050746D01*
X11734800Y-5050746D01*
X11734800Y-5210854D01*
X11766035Y-5367885D01*
X11827306Y-5515805D01*
X11916257Y-5648930D01*
X12029470Y-5762143D01*
X12162595Y-5851094D01*
X12310515Y-5912365D01*
X12467546Y-5943600D01*
X12627654Y-5943600D01*
X12784685Y-5912365D01*
X12932605Y-5851094D01*
X13065730Y-5762143D01*
X13178943Y-5648930D01*
X13267894Y-5515805D01*
X13329165Y-5367885D01*
X13360400Y-5210854D01*
X13360400Y-5050746D01*
X13329165Y-4893715D01*
X13267894Y-4745795D01*
X13178943Y-4612670D01*
X13065730Y-4499457D01*
X12932605Y-4410506D01*
X12784685Y-4349235D01*
X12627654Y-4318000D01*
X12467546Y-4318000D01*
X12310515Y-4349235D01*
X12162595Y-4410506D01*
X12029470Y-4499457D01*
X11916257Y-4612670D01*
X11827306Y-4745795D01*
X11766035Y-4893715D01*
X11734800Y-5050746D01*
X11069013Y-5050746D01*
X11137016Y-4967885D01*
X11238044Y-4778874D01*
X11300257Y-4573785D01*
X11316000Y-4413946D01*
X11316000Y-3307054D01*
X11300257Y-3147215D01*
X11261329Y-3018888D01*
X11417897Y-2890397D01*
X11563855Y-2712546D01*
X11672312Y-2509637D01*
X11739100Y-2289468D01*
X11756000Y-2117877D01*
X11756000Y-803123D01*
X11739100Y-631532D01*
X11724378Y-583000D01*
X15961622Y-583000D01*
X15946900Y-631532D01*
X15930000Y-803123D01*
X15930000Y-2117876D01*
X15946900Y-2289467D01*
X16013688Y-2509636D01*
X16122145Y-2712545D01*
X16268103Y-2890397D01*
X16424671Y-3018889D01*
X16385743Y-3147215D01*
X16370000Y-3307054D01*
X16370000Y-4413945D01*
X16385743Y-4573784D01*
X16447956Y-4778873D01*
X16548984Y-4967885D01*
X16684946Y-5133554D01*
X16850615Y-5269516D01*
X17039626Y-5370544D01*
X17244715Y-5432757D01*
X17458000Y-5453764D01*
X17671284Y-5432757D01*
X17876373Y-5370544D01*
X18065385Y-5269516D01*
X18231054Y-5133554D01*
X18367016Y-4967885D01*
X18468044Y-4778874D01*
X18530257Y-4573785D01*
X18546000Y-4413946D01*
X18546000Y-3307054D01*
X18530257Y-3147215D01*
X18468044Y-2942126D01*
X18367016Y-2753115D01*
X18231054Y-2587446D01*
X18168265Y-2535916D01*
X18182312Y-2509637D01*
X18249100Y-2289468D01*
X18266000Y-2117877D01*
X18266000Y-1672546D01*
X19380200Y-1672546D01*
X19380200Y-1832654D01*
X19411435Y-1989685D01*
X19472706Y-2137605D01*
X19561657Y-2270730D01*
X19674870Y-2383943D01*
X19807995Y-2472894D01*
X19955915Y-2534165D01*
X20112946Y-2565400D01*
X20273054Y-2565400D01*
X20430085Y-2534165D01*
X20578005Y-2472894D01*
X20711130Y-2383943D01*
X20824343Y-2270730D01*
X20913294Y-2137605D01*
X20974565Y-1989685D01*
X21005800Y-1832654D01*
X21005800Y-1672546D01*
X25476200Y-1672546D01*
X25476200Y-1832654D01*
X25507435Y-1989685D01*
X25568706Y-2137605D01*
X25657657Y-2270730D01*
X25770870Y-2383943D01*
X25903995Y-2472894D01*
X26051915Y-2534165D01*
X26208946Y-2565400D01*
X26369054Y-2565400D01*
X26526085Y-2534165D01*
X26674005Y-2472894D01*
X26807130Y-2383943D01*
X26920343Y-2270730D01*
X27009294Y-2137605D01*
X27070565Y-1989685D01*
X27101800Y-1832654D01*
X27101800Y-1672546D01*
X27070565Y-1515515D01*
X27009294Y-1367595D01*
X26920343Y-1234470D01*
X26807130Y-1121257D01*
X26674005Y-1032306D01*
X26526085Y-971035D01*
X26369054Y-939800D01*
X26208946Y-939800D01*
X26051915Y-971035D01*
X25903995Y-1032306D01*
X25770870Y-1121257D01*
X25657657Y-1234470D01*
X25568706Y-1367595D01*
X25507435Y-1515515D01*
X25476200Y-1672546D01*
X21005800Y-1672546D01*
X20974565Y-1515515D01*
X20913294Y-1367595D01*
X20824343Y-1234470D01*
X20711130Y-1121257D01*
X20578005Y-1032306D01*
X20430085Y-971035D01*
X20273054Y-939800D01*
X20112946Y-939800D01*
X19955915Y-971035D01*
X19807995Y-1032306D01*
X19674870Y-1121257D01*
X19561657Y-1234470D01*
X19472706Y-1367595D01*
X19411435Y-1515515D01*
X19380200Y-1672546D01*
X18266000Y-1672546D01*
X18266000Y-803123D01*
X18249100Y-631532D01*
X18234378Y-583000D01*
X52757000Y-583000D01*
X52757001Y-48312000D01*
X41684028Y-48312000D01*
X41685343Y-48311601D01*
X41773595Y-48264429D01*
X41850948Y-48200948D01*
X41914429Y-48123595D01*
X41961601Y-48035343D01*
X41990649Y-47939585D01*
X42000457Y-47840000D01*
X42000457Y-46909946D01*
X45034200Y-46909946D01*
X45034200Y-47070054D01*
X45065435Y-47227085D01*
X45126706Y-47375005D01*
X45215657Y-47508130D01*
X45328870Y-47621343D01*
X45461995Y-47710294D01*
X45609915Y-47771565D01*
X45766946Y-47802800D01*
X45927054Y-47802800D01*
X46084085Y-47771565D01*
X46232005Y-47710294D01*
X46365130Y-47621343D01*
X46478343Y-47508130D01*
X46567294Y-47375005D01*
X46628565Y-47227085D01*
X46659800Y-47070054D01*
X46659800Y-46909946D01*
X46628565Y-46752915D01*
X46567294Y-46604995D01*
X46478343Y-46471870D01*
X46365130Y-46358657D01*
X46232005Y-46269706D01*
X46084085Y-46208435D01*
X45927054Y-46177200D01*
X45766946Y-46177200D01*
X45609915Y-46208435D01*
X45461995Y-46269706D01*
X45328870Y-46358657D01*
X45215657Y-46471870D01*
X45126706Y-46604995D01*
X45065435Y-46752915D01*
X45034200Y-46909946D01*
X42000457Y-46909946D01*
X42000457Y-46140000D01*
X41990649Y-46040415D01*
X41961601Y-45944657D01*
X41914429Y-45856405D01*
X41850948Y-45779052D01*
X41773595Y-45715571D01*
X41685343Y-45668399D01*
X41589585Y-45639351D01*
X41490000Y-45629543D01*
X41319025Y-45629543D01*
X41505675Y-45504828D01*
X41694828Y-45315675D01*
X41843444Y-45093254D01*
X41945813Y-44846114D01*
X41998000Y-44583751D01*
X41998000Y-44316249D01*
X41945813Y-44053886D01*
X41843444Y-43806746D01*
X41694828Y-43584325D01*
X41505675Y-43395172D01*
X41283254Y-43246556D01*
X41122574Y-43180000D01*
X41283254Y-43113444D01*
X41505675Y-42964828D01*
X41694828Y-42775675D01*
X41843444Y-42553254D01*
X41945813Y-42306114D01*
X41998000Y-42043751D01*
X41998000Y-41776249D01*
X41945813Y-41513886D01*
X41843444Y-41266746D01*
X41694828Y-41044325D01*
X41505675Y-40855172D01*
X41283254Y-40706556D01*
X41122574Y-40640000D01*
X41283254Y-40573444D01*
X41505675Y-40424828D01*
X41694828Y-40235675D01*
X41843444Y-40013254D01*
X41945813Y-39766114D01*
X41998000Y-39503751D01*
X41998000Y-39236249D01*
X41945813Y-38973886D01*
X41843444Y-38726746D01*
X41694828Y-38504325D01*
X41505675Y-38315172D01*
X41283254Y-38166556D01*
X41122574Y-38100000D01*
X41283254Y-38033444D01*
X41505675Y-37884828D01*
X41694828Y-37695675D01*
X41843444Y-37473254D01*
X41945813Y-37226114D01*
X41998000Y-36963751D01*
X41998000Y-36696249D01*
X41945813Y-36433886D01*
X41843444Y-36186746D01*
X41694828Y-35964325D01*
X41505675Y-35775172D01*
X41283254Y-35626556D01*
X41122574Y-35560000D01*
X41283254Y-35493444D01*
X41505675Y-35344828D01*
X41694828Y-35155675D01*
X41843444Y-34933254D01*
X41945813Y-34686114D01*
X41998000Y-34423751D01*
X41998000Y-34156249D01*
X41945813Y-33893886D01*
X41843444Y-33646746D01*
X41694828Y-33424325D01*
X41505675Y-33235172D01*
X41283254Y-33086556D01*
X41036114Y-32984187D01*
X40773751Y-32932000D01*
X40506249Y-32932000D01*
X40243886Y-32984187D01*
X39996746Y-33086556D01*
X39774325Y-33235172D01*
X39585172Y-33424325D01*
X39436556Y-33646746D01*
X39334187Y-33893886D01*
X39318000Y-33975264D01*
X39318000Y-32413633D01*
X39320820Y-32385000D01*
X39309564Y-32270712D01*
X39276227Y-32160816D01*
X39222092Y-32059536D01*
X39149237Y-31970763D01*
X39060464Y-31897908D01*
X38959184Y-31843773D01*
X38849288Y-31810436D01*
X38763633Y-31802000D01*
X38735000Y-31799180D01*
X38706367Y-31802000D01*
X14633633Y-31802000D01*
X14605000Y-31799180D01*
X14576367Y-31802000D01*
X14490712Y-31810436D01*
X14380816Y-31843773D01*
X14279536Y-31897908D01*
X14190763Y-31970763D01*
X14117908Y-32059536D01*
X14063773Y-32160816D01*
X14030436Y-32270712D01*
X14019180Y-32385000D01*
X14022000Y-32413633D01*
X14022000Y-33628808D01*
X13971641Y-33523080D01*
X13797588Y-33289731D01*
X13581355Y-33094822D01*
X13331252Y-32945843D01*
X13056891Y-32848519D01*
X12827000Y-32969186D01*
X12827000Y-34163000D01*
X12847000Y-34163000D01*
X12847000Y-34417000D01*
X12827000Y-34417000D01*
X12827000Y-34437000D01*
X12573000Y-34437000D01*
X12573000Y-34417000D01*
X11379845Y-34417000D01*
X11258524Y-34646890D01*
X11303175Y-34794099D01*
X11428359Y-35056920D01*
X11602412Y-35290269D01*
X11818645Y-35485178D01*
X12056389Y-35626795D01*
X11834325Y-35775172D01*
X11645172Y-35964325D01*
X11496556Y-36186746D01*
X11394187Y-36433886D01*
X11342000Y-36696249D01*
X11342000Y-36963751D01*
X11388220Y-37196117D01*
X11074400Y-36882297D01*
X11074400Y-33933110D01*
X11258524Y-33933110D01*
X11379845Y-34163000D01*
X12573000Y-34163000D01*
X12573000Y-32969186D01*
X12343109Y-32848519D01*
X12068748Y-32945843D01*
X11818645Y-33094822D01*
X11602412Y-33289731D01*
X11428359Y-33523080D01*
X11303175Y-33785901D01*
X11258524Y-33933110D01*
X11074400Y-33933110D01*
X11074400Y-29894303D01*
X11150600Y-29818104D01*
X11150600Y-29848854D01*
X11181835Y-30005885D01*
X11243106Y-30153805D01*
X11332057Y-30286930D01*
X11445270Y-30400143D01*
X11578395Y-30489094D01*
X11726315Y-30550365D01*
X11760200Y-30557105D01*
X11760200Y-30585454D01*
X11791435Y-30742485D01*
X11852706Y-30890405D01*
X11941657Y-31023530D01*
X12054870Y-31136743D01*
X12187995Y-31225694D01*
X12335915Y-31286965D01*
X12492946Y-31318200D01*
X12653054Y-31318200D01*
X12810085Y-31286965D01*
X12958005Y-31225694D01*
X13091130Y-31136743D01*
X13204343Y-31023530D01*
X13293294Y-30890405D01*
X13354565Y-30742485D01*
X13385800Y-30585454D01*
X13385800Y-30425346D01*
X13354565Y-30268315D01*
X13293294Y-30120395D01*
X13204343Y-29987270D01*
X13182600Y-29965527D01*
X13182600Y-27605946D01*
X14173200Y-27605946D01*
X14173200Y-27766054D01*
X14204435Y-27923085D01*
X14265706Y-28071005D01*
X14354657Y-28204130D01*
X14467870Y-28317343D01*
X14600995Y-28406294D01*
X14748915Y-28467565D01*
X14905946Y-28498800D01*
X15066054Y-28498800D01*
X15223085Y-28467565D01*
X15371005Y-28406294D01*
X15504130Y-28317343D01*
X15617343Y-28204130D01*
X15706294Y-28071005D01*
X15767565Y-27923085D01*
X15798800Y-27766054D01*
X15798800Y-27605946D01*
X15767565Y-27448915D01*
X15706294Y-27300995D01*
X15638509Y-27199546D01*
X17907000Y-27199546D01*
X17907000Y-27359654D01*
X17938235Y-27516685D01*
X17999506Y-27664605D01*
X18088457Y-27797730D01*
X18201670Y-27910943D01*
X18334795Y-27999894D01*
X18482715Y-28061165D01*
X18639746Y-28092400D01*
X18799854Y-28092400D01*
X18956885Y-28061165D01*
X19104805Y-27999894D01*
X19237930Y-27910943D01*
X19351143Y-27797730D01*
X19440094Y-27664605D01*
X19501365Y-27516685D01*
X19532600Y-27359654D01*
X19532600Y-27199546D01*
X19501365Y-27042515D01*
X19440094Y-26894595D01*
X19351143Y-26761470D01*
X19237930Y-26648257D01*
X19104805Y-26559306D01*
X18956885Y-26498035D01*
X18799854Y-26466800D01*
X18639746Y-26466800D01*
X18482715Y-26498035D01*
X18334795Y-26559306D01*
X18201670Y-26648257D01*
X18088457Y-26761470D01*
X17999506Y-26894595D01*
X17938235Y-27042515D01*
X17907000Y-27199546D01*
X15638509Y-27199546D01*
X15617343Y-27167870D01*
X15504130Y-27054657D01*
X15371005Y-26965706D01*
X15223085Y-26904435D01*
X15066054Y-26873200D01*
X14905946Y-26873200D01*
X14748915Y-26904435D01*
X14600995Y-26965706D01*
X14467870Y-27054657D01*
X14354657Y-27167870D01*
X14265706Y-27300995D01*
X14204435Y-27448915D01*
X14173200Y-27605946D01*
X13182600Y-27605946D01*
X13182600Y-24865113D01*
X14730504Y-23317210D01*
X14761254Y-23317210D01*
X14918285Y-23285975D01*
X15066205Y-23224704D01*
X15199330Y-23135753D01*
X15312543Y-23022540D01*
X15401494Y-22889415D01*
X15462765Y-22741495D01*
X15494000Y-22584464D01*
X15494000Y-22583827D01*
X15540795Y-22615094D01*
X15688715Y-22676365D01*
X15845746Y-22707600D01*
X16005854Y-22707600D01*
X16162885Y-22676365D01*
X16310805Y-22615094D01*
X16355816Y-22585019D01*
X16332200Y-22703746D01*
X16332200Y-22863854D01*
X16363435Y-23020885D01*
X16424706Y-23168805D01*
X16513657Y-23301930D01*
X16626870Y-23415143D01*
X16759995Y-23504094D01*
X16907915Y-23565365D01*
X17064946Y-23596600D01*
X17225054Y-23596600D01*
X17382085Y-23565365D01*
X17530005Y-23504094D01*
X17663130Y-23415143D01*
X17776343Y-23301930D01*
X17865294Y-23168805D01*
X17926565Y-23020885D01*
X17957800Y-22863854D01*
X17957800Y-22703746D01*
X17926565Y-22546715D01*
X17865294Y-22398795D01*
X17776343Y-22265670D01*
X17663130Y-22152457D01*
X17530005Y-22063506D01*
X17382085Y-22002235D01*
X17225054Y-21971000D01*
X17064946Y-21971000D01*
X16907915Y-22002235D01*
X16759995Y-22063506D01*
X16714984Y-22093581D01*
X16738600Y-21974854D01*
X16738600Y-21814746D01*
X16707365Y-21657715D01*
X16646094Y-21509795D01*
X16557143Y-21376670D01*
X16443930Y-21263457D01*
X16310805Y-21174506D01*
X16162885Y-21113235D01*
X16005854Y-21082000D01*
X15845746Y-21082000D01*
X15688715Y-21113235D01*
X15540795Y-21174506D01*
X15407670Y-21263457D01*
X15385927Y-21285200D01*
X14076141Y-21285200D01*
X14046199Y-21282251D01*
X13926697Y-21294021D01*
X13896762Y-21303102D01*
X13811788Y-21328879D01*
X13705886Y-21385484D01*
X13613062Y-21461662D01*
X13593969Y-21484927D01*
X12090401Y-22988496D01*
X12090401Y-22351047D01*
X12508549Y-21932900D01*
X12539299Y-21932900D01*
X12696330Y-21901665D01*
X12844250Y-21840394D01*
X12977375Y-21751443D01*
X13090588Y-21638230D01*
X13179539Y-21505105D01*
X13240810Y-21357185D01*
X13272045Y-21200154D01*
X13272045Y-21040046D01*
X13240810Y-20883015D01*
X13179539Y-20735095D01*
X13090588Y-20601970D01*
X12977375Y-20488757D01*
X12844250Y-20399806D01*
X12696330Y-20338535D01*
X12539299Y-20307300D01*
X12379191Y-20307300D01*
X12222160Y-20338535D01*
X12074240Y-20399806D01*
X11941115Y-20488757D01*
X11827902Y-20601970D01*
X11738951Y-20735095D01*
X11729989Y-20756731D01*
X11664563Y-20658813D01*
X11551350Y-20545600D01*
X11418225Y-20456649D01*
X11270305Y-20395378D01*
X11113274Y-20364143D01*
X10953166Y-20364143D01*
X10796135Y-20395378D01*
X10648215Y-20456649D01*
X10515090Y-20545600D01*
X10401877Y-20658813D01*
X10312926Y-20791938D01*
X10251655Y-20939858D01*
X10220420Y-21096889D01*
X10220420Y-21256997D01*
X10251655Y-21414028D01*
X10312926Y-21561948D01*
X10401877Y-21695073D01*
X10423621Y-21716817D01*
X10423619Y-25569676D01*
X9956800Y-26036496D01*
X9956800Y-23091867D01*
X9959749Y-23061928D01*
X9955706Y-23020885D01*
X9947979Y-22942427D01*
X9913121Y-22827517D01*
X9856516Y-22721615D01*
X9780338Y-22628791D01*
X9757074Y-22609699D01*
X8269622Y-21122248D01*
X8269622Y-21091497D01*
X8238387Y-20934466D01*
X8177116Y-20786546D01*
X8088165Y-20653421D01*
X7974952Y-20540208D01*
X7841827Y-20451257D01*
X7693907Y-20389986D01*
X7536876Y-20358751D01*
X7376768Y-20358751D01*
X7219737Y-20389986D01*
X7071817Y-20451257D01*
X6938692Y-20540208D01*
X6825479Y-20653421D01*
X6759337Y-20752410D01*
X6757738Y-20750462D01*
X6664914Y-20674284D01*
X6559012Y-20617679D01*
X6444102Y-20582821D01*
X6324600Y-20571051D01*
X6294659Y-20574000D01*
X6183452Y-20574000D01*
X6148095Y-20538643D01*
X6014970Y-20449692D01*
X5867050Y-20388421D01*
X5710019Y-20357186D01*
X5549911Y-20357186D01*
X5392880Y-20388421D01*
X5244960Y-20449692D01*
X5111835Y-20538643D01*
X4998622Y-20651856D01*
X4909671Y-20784981D01*
X4848400Y-20932901D01*
X4817165Y-21089932D01*
X4817165Y-21250040D01*
X4848400Y-21407071D01*
X4909671Y-21554991D01*
X4998622Y-21688116D01*
X5111835Y-21801329D01*
X5244960Y-21890280D01*
X5392880Y-21951551D01*
X5549911Y-21982786D01*
X5710019Y-21982786D01*
X5867050Y-21951551D01*
X6014970Y-21890280D01*
X6107410Y-21828514D01*
X8305801Y-24026906D01*
X8305800Y-44228658D01*
X8302851Y-44258600D01*
X8305800Y-44288540D01*
X8314621Y-44378101D01*
X8349479Y-44493011D01*
X8406084Y-44598913D01*
X8482262Y-44691738D01*
X8505532Y-44710835D01*
X11194569Y-47399873D01*
X11213662Y-47423138D01*
X11306486Y-47499316D01*
X11339543Y-47516985D01*
X11339543Y-47840000D01*
X11349351Y-47939585D01*
X11378399Y-48035343D01*
X11425571Y-48123595D01*
X11489052Y-48200948D01*
X11566405Y-48264429D01*
X11654657Y-48311601D01*
X11655972Y-48312000D01*
X583000Y-48312000D01*
X583000Y-46097146D01*
X3581400Y-46097146D01*
X3581400Y-46257254D01*
X3612635Y-46414285D01*
X3673906Y-46562205D01*
X3762857Y-46695330D01*
X3876070Y-46808543D01*
X4009195Y-46897494D01*
X4157115Y-46958765D01*
X4314146Y-46990000D01*
X4474254Y-46990000D01*
X4631285Y-46958765D01*
X4779205Y-46897494D01*
X4912330Y-46808543D01*
X5025543Y-46695330D01*
X5114494Y-46562205D01*
X5175765Y-46414285D01*
X5207000Y-46257254D01*
X5207000Y-46097146D01*
X5175765Y-45940115D01*
X5114494Y-45792195D01*
X5025543Y-45659070D01*
X4912330Y-45545857D01*
X4779205Y-45456906D01*
X4631285Y-45395635D01*
X4474254Y-45364400D01*
X4314146Y-45364400D01*
X4157115Y-45395635D01*
X4009195Y-45456906D01*
X3876070Y-45545857D01*
X3762857Y-45659070D01*
X3673906Y-45792195D01*
X3612635Y-45940115D01*
X3581400Y-46097146D01*
X583000Y-46097146D01*
X583000Y-39289946D01*
X965200Y-39289946D01*
X965200Y-39450054D01*
X996435Y-39607085D01*
X1057706Y-39755005D01*
X1146657Y-39888130D01*
X1259870Y-40001343D01*
X1392995Y-40090294D01*
X1540915Y-40151565D01*
X1697946Y-40182800D01*
X1858054Y-40182800D01*
X2015085Y-40151565D01*
X2163005Y-40090294D01*
X2296130Y-40001343D01*
X2409343Y-39888130D01*
X2498294Y-39755005D01*
X2559565Y-39607085D01*
X2590800Y-39450054D01*
X2590800Y-39289946D01*
X2559565Y-39132915D01*
X2498294Y-38984995D01*
X2409343Y-38851870D01*
X2296130Y-38738657D01*
X2163005Y-38649706D01*
X2015085Y-38588435D01*
X1858054Y-38557200D01*
X1697946Y-38557200D01*
X1540915Y-38588435D01*
X1392995Y-38649706D01*
X1259870Y-38738657D01*
X1146657Y-38851870D01*
X1057706Y-38984995D01*
X996435Y-39132915D01*
X965200Y-39289946D01*
X583000Y-39289946D01*
X583000Y-23618146D01*
X1778004Y-23618146D01*
X1778004Y-23778254D01*
X1809239Y-23935285D01*
X1870510Y-24083205D01*
X1959461Y-24216330D01*
X1981205Y-24238074D01*
X1981204Y-35047462D01*
X1978255Y-35077404D01*
X1990025Y-35196906D01*
X2000599Y-35231764D01*
X2024883Y-35311815D01*
X2081488Y-35417717D01*
X2157666Y-35510542D01*
X2180936Y-35529639D01*
X3632200Y-36980904D01*
X3632200Y-37011654D01*
X3663435Y-37168685D01*
X3724706Y-37316605D01*
X3813657Y-37449730D01*
X3926870Y-37562943D01*
X4059995Y-37651894D01*
X4207915Y-37713165D01*
X4364946Y-37744400D01*
X4525054Y-37744400D01*
X4682085Y-37713165D01*
X4830005Y-37651894D01*
X4963130Y-37562943D01*
X5076343Y-37449730D01*
X5165294Y-37316605D01*
X5201739Y-37228621D01*
X5248703Y-37342002D01*
X5337654Y-37475127D01*
X5450867Y-37588340D01*
X5583992Y-37677291D01*
X5731912Y-37738562D01*
X5888943Y-37769797D01*
X6049051Y-37769797D01*
X6206082Y-37738562D01*
X6354002Y-37677291D01*
X6487127Y-37588340D01*
X6600340Y-37475127D01*
X6689291Y-37342002D01*
X6750562Y-37194082D01*
X6781797Y-37037051D01*
X6781797Y-36876943D01*
X6750562Y-36719912D01*
X6689291Y-36571992D01*
X6600340Y-36438867D01*
X6564067Y-36402594D01*
X6614130Y-36369143D01*
X6727343Y-36255930D01*
X6816294Y-36122805D01*
X6877565Y-35974885D01*
X6908800Y-35817854D01*
X6908800Y-35657746D01*
X6877565Y-35500715D01*
X6816294Y-35352795D01*
X6727343Y-35219670D01*
X6614130Y-35106457D01*
X6481005Y-35017506D01*
X6333085Y-34956235D01*
X6176054Y-34925000D01*
X6119904Y-34925000D01*
X4902200Y-33707297D01*
X4902200Y-28915955D01*
X5046109Y-28975565D01*
X5203140Y-29006800D01*
X5363248Y-29006800D01*
X5520279Y-28975565D01*
X5668199Y-28914294D01*
X5801324Y-28825343D01*
X5914537Y-28712130D01*
X6003488Y-28579005D01*
X6064759Y-28431085D01*
X6095994Y-28274054D01*
X6095994Y-28113946D01*
X6064759Y-27956915D01*
X6003488Y-27808995D01*
X5914537Y-27675870D01*
X5801324Y-27562657D01*
X5668199Y-27473706D01*
X5520279Y-27412435D01*
X5363248Y-27381200D01*
X5203140Y-27381200D01*
X5046109Y-27412435D01*
X4902200Y-27472045D01*
X4902200Y-25787473D01*
X4923943Y-25765730D01*
X5012894Y-25632605D01*
X5074165Y-25484685D01*
X5105400Y-25327654D01*
X5105400Y-25167546D01*
X5074165Y-25010515D01*
X5012894Y-24862595D01*
X4923943Y-24729470D01*
X4810730Y-24616257D01*
X4677605Y-24527306D01*
X4529685Y-24466035D01*
X4372654Y-24434800D01*
X4212546Y-24434800D01*
X4055515Y-24466035D01*
X3907595Y-24527306D01*
X3835410Y-24575538D01*
X3835410Y-23552273D01*
X3857153Y-23530530D01*
X3946104Y-23397405D01*
X4007375Y-23249485D01*
X4038610Y-23092454D01*
X4038610Y-22932346D01*
X4007375Y-22775315D01*
X3946104Y-22627395D01*
X3857153Y-22494270D01*
X3743940Y-22381057D01*
X3610815Y-22292106D01*
X3462895Y-22230835D01*
X3305864Y-22199600D01*
X3145756Y-22199600D01*
X2988725Y-22230835D01*
X2840805Y-22292106D01*
X2707680Y-22381057D01*
X2594467Y-22494270D01*
X2505516Y-22627395D01*
X2444245Y-22775315D01*
X2418706Y-22903708D01*
X2353719Y-22916635D01*
X2205799Y-22977906D01*
X2072674Y-23066857D01*
X1959461Y-23180070D01*
X1870510Y-23313195D01*
X1809239Y-23461115D01*
X1778004Y-23618146D01*
X583000Y-23618146D01*
X583000Y-22973661D01*
X601115Y-22981165D01*
X758146Y-23012400D01*
X918254Y-23012400D01*
X1075285Y-22981165D01*
X1223205Y-22919894D01*
X1356330Y-22830943D01*
X1469543Y-22717730D01*
X1558494Y-22584605D01*
X1619765Y-22436685D01*
X1651000Y-22279654D01*
X1651000Y-22231395D01*
X1705805Y-22208694D01*
X1838930Y-22119743D01*
X1952143Y-22006530D01*
X2041094Y-21873405D01*
X2102365Y-21725485D01*
X2133600Y-21568454D01*
X2133600Y-21408346D01*
X2102365Y-21251315D01*
X2041094Y-21103395D01*
X1952143Y-20970270D01*
X1838930Y-20857057D01*
X1705805Y-20768106D01*
X1557885Y-20706835D01*
X1400854Y-20675600D01*
X1240746Y-20675600D01*
X1193800Y-20684938D01*
X1193800Y-19522435D01*
X2408901Y-19522435D01*
X2408901Y-19682543D01*
X2440136Y-19839574D01*
X2501407Y-19987494D01*
X2590358Y-20120619D01*
X2597017Y-20127278D01*
X2581012Y-20165918D01*
X2549777Y-20322949D01*
X2549777Y-20483057D01*
X2581012Y-20640088D01*
X2642283Y-20788008D01*
X2731234Y-20921133D01*
X2844447Y-21034346D01*
X2977572Y-21123297D01*
X3125492Y-21184568D01*
X3282523Y-21215803D01*
X3442631Y-21215803D01*
X3599662Y-21184568D01*
X3747582Y-21123297D01*
X3880707Y-21034346D01*
X3993920Y-20921133D01*
X4082871Y-20788008D01*
X4144142Y-20640088D01*
X4167019Y-20525076D01*
X6226297Y-18465800D01*
X7074945Y-18465800D01*
X7026706Y-18537995D01*
X6965435Y-18685915D01*
X6934200Y-18842946D01*
X6934200Y-19003054D01*
X6965435Y-19160085D01*
X7026706Y-19308005D01*
X7115657Y-19441130D01*
X7228870Y-19554343D01*
X7361995Y-19643294D01*
X7509915Y-19704565D01*
X7666946Y-19735800D01*
X7827054Y-19735800D01*
X7984085Y-19704565D01*
X8132005Y-19643294D01*
X8265130Y-19554343D01*
X8378343Y-19441130D01*
X8467294Y-19308005D01*
X8528565Y-19160085D01*
X8559800Y-19003054D01*
X8559800Y-18842946D01*
X8528565Y-18685915D01*
X8467294Y-18537995D01*
X8419055Y-18465800D01*
X9614945Y-18465800D01*
X9566706Y-18537995D01*
X9505435Y-18685915D01*
X9474200Y-18842946D01*
X9474200Y-19003054D01*
X9505435Y-19160085D01*
X9566706Y-19308005D01*
X9655657Y-19441130D01*
X9768870Y-19554343D01*
X9901995Y-19643294D01*
X10049915Y-19704565D01*
X10206946Y-19735800D01*
X10367054Y-19735800D01*
X10524085Y-19704565D01*
X10672005Y-19643294D01*
X10805130Y-19554343D01*
X10918343Y-19441130D01*
X11007294Y-19308005D01*
X11068565Y-19160085D01*
X11099800Y-19003054D01*
X11099800Y-18842946D01*
X11068565Y-18685915D01*
X11007294Y-18537995D01*
X10959055Y-18465800D01*
X13539697Y-18465800D01*
X13804993Y-18731096D01*
X13738114Y-18775783D01*
X13624901Y-18888996D01*
X13535950Y-19022121D01*
X13474679Y-19170041D01*
X13443444Y-19327072D01*
X13443444Y-19487180D01*
X13474679Y-19644211D01*
X13535950Y-19792131D01*
X13624901Y-19925256D01*
X13738114Y-20038469D01*
X13871239Y-20127420D01*
X14019159Y-20188691D01*
X14176190Y-20219926D01*
X14336298Y-20219926D01*
X14493329Y-20188691D01*
X14641249Y-20127420D01*
X14774374Y-20038469D01*
X14887587Y-19925256D01*
X14930865Y-19860486D01*
X14933862Y-19864138D01*
X15026686Y-19940316D01*
X15125482Y-19993123D01*
X15132588Y-19996921D01*
X15247497Y-20031779D01*
X15367000Y-20043549D01*
X15396941Y-20040600D01*
X17704838Y-20040600D01*
X17704970Y-20040613D01*
X17704971Y-20040613D01*
X17734910Y-20043562D01*
X17764849Y-20040613D01*
X18949910Y-20040613D01*
X20858369Y-21949073D01*
X20877462Y-21972338D01*
X20970286Y-22048516D01*
X21076188Y-22105121D01*
X21155604Y-22129212D01*
X21191097Y-22139979D01*
X21310599Y-22151749D01*
X21340541Y-22148800D01*
X26144385Y-22148800D01*
X26024870Y-22228657D01*
X25911657Y-22341870D01*
X25822706Y-22474995D01*
X25761435Y-22622915D01*
X25730200Y-22779946D01*
X25730200Y-22940054D01*
X25761435Y-23097085D01*
X25822706Y-23245005D01*
X25911657Y-23378130D01*
X26024870Y-23491343D01*
X26157995Y-23580294D01*
X26305915Y-23641565D01*
X26462946Y-23672800D01*
X26623054Y-23672800D01*
X26780085Y-23641565D01*
X26928005Y-23580294D01*
X27061130Y-23491343D01*
X27174343Y-23378130D01*
X27263294Y-23245005D01*
X27324565Y-23097085D01*
X27355800Y-22940054D01*
X27355800Y-22779946D01*
X27324565Y-22622915D01*
X27263294Y-22474995D01*
X27174343Y-22341870D01*
X27061130Y-22228657D01*
X26941615Y-22148800D01*
X29922696Y-22148800D01*
X28093897Y-23977600D01*
X15830673Y-23977600D01*
X15808930Y-23955857D01*
X15675805Y-23866906D01*
X15527885Y-23805635D01*
X15370854Y-23774400D01*
X15210746Y-23774400D01*
X15053715Y-23805635D01*
X14905795Y-23866906D01*
X14772670Y-23955857D01*
X14659457Y-24069070D01*
X14570506Y-24202195D01*
X14509235Y-24350115D01*
X14492124Y-24436138D01*
X14469515Y-24440635D01*
X14321595Y-24501906D01*
X14188470Y-24590857D01*
X14075257Y-24704070D01*
X13986306Y-24837195D01*
X13925035Y-24985115D01*
X13893800Y-25142146D01*
X13893800Y-25302254D01*
X13925035Y-25459285D01*
X13986306Y-25607205D01*
X14075257Y-25740330D01*
X14188470Y-25853543D01*
X14321595Y-25942494D01*
X14469515Y-26003765D01*
X14626546Y-26035000D01*
X14786654Y-26035000D01*
X14943685Y-26003765D01*
X15091605Y-25942494D01*
X15224730Y-25853543D01*
X15246473Y-25831800D01*
X23240095Y-25831800D01*
X23215600Y-25954946D01*
X23215600Y-26115054D01*
X23246835Y-26272085D01*
X23308106Y-26420005D01*
X23397057Y-26553130D01*
X23510270Y-26666343D01*
X23643395Y-26755294D01*
X23791315Y-26816565D01*
X23948346Y-26847800D01*
X24108454Y-26847800D01*
X24265485Y-26816565D01*
X24413405Y-26755294D01*
X24546530Y-26666343D01*
X24553641Y-26659232D01*
X24659395Y-26729894D01*
X24807315Y-26791165D01*
X24964346Y-26822400D01*
X25124454Y-26822400D01*
X25281485Y-26791165D01*
X25429405Y-26729894D01*
X25562530Y-26640943D01*
X25584273Y-26619200D01*
X29777469Y-26619200D01*
X29807410Y-26622149D01*
X29837351Y-26619200D01*
X29926912Y-26610379D01*
X30041822Y-26575521D01*
X30147724Y-26518916D01*
X30240548Y-26442738D01*
X30259645Y-26419468D01*
X33413700Y-23265413D01*
X33413701Y-26910464D01*
X33354054Y-26898600D01*
X33193946Y-26898600D01*
X33036915Y-26929835D01*
X32888995Y-26991106D01*
X32755870Y-27080057D01*
X32734127Y-27101800D01*
X24339673Y-27101800D01*
X24317930Y-27080057D01*
X24184805Y-26991106D01*
X24036885Y-26929835D01*
X23879854Y-26898600D01*
X23719746Y-26898600D01*
X23562715Y-26929835D01*
X23414795Y-26991106D01*
X23281670Y-27080057D01*
X23168457Y-27193270D01*
X23079506Y-27326395D01*
X23018235Y-27474315D01*
X22987000Y-27631346D01*
X22987000Y-27791454D01*
X23018235Y-27948485D01*
X23079506Y-28096405D01*
X23168457Y-28229530D01*
X23281670Y-28342743D01*
X23414795Y-28431694D01*
X23562715Y-28492965D01*
X23719746Y-28524200D01*
X23879854Y-28524200D01*
X24036885Y-28492965D01*
X24184805Y-28431694D01*
X24317930Y-28342743D01*
X24339673Y-28321000D01*
X25904888Y-28321000D01*
X25822706Y-28443995D01*
X25761435Y-28591915D01*
X25730200Y-28748946D01*
X25730200Y-28909054D01*
X25761435Y-29066085D01*
X25822706Y-29214005D01*
X25911657Y-29347130D01*
X26024870Y-29460343D01*
X26157995Y-29549294D01*
X26305915Y-29610565D01*
X26462946Y-29641800D01*
X26623054Y-29641800D01*
X26780085Y-29610565D01*
X26928005Y-29549294D01*
X26960622Y-29527500D01*
X28608898Y-29527500D01*
X28515715Y-29546035D01*
X28367795Y-29607306D01*
X28234670Y-29696257D01*
X28121457Y-29809470D01*
X28032506Y-29942595D01*
X27971235Y-30090515D01*
X27940000Y-30247546D01*
X27940000Y-30407654D01*
X27971235Y-30564685D01*
X28032506Y-30712605D01*
X28121457Y-30845730D01*
X28234670Y-30958943D01*
X28367795Y-31047894D01*
X28515715Y-31109165D01*
X28672746Y-31140400D01*
X28832854Y-31140400D01*
X28989885Y-31109165D01*
X29137805Y-31047894D01*
X29270930Y-30958943D01*
X29384143Y-30845730D01*
X29473094Y-30712605D01*
X29534365Y-30564685D01*
X29565600Y-30407654D01*
X29565600Y-30247546D01*
X29534365Y-30090515D01*
X29473094Y-29942595D01*
X29384143Y-29809470D01*
X29339617Y-29764944D01*
X41452800Y-29764944D01*
X41452800Y-29925052D01*
X41484035Y-30082083D01*
X41545306Y-30230003D01*
X41634257Y-30363128D01*
X41747470Y-30476341D01*
X41880595Y-30565292D01*
X42028515Y-30626563D01*
X42185546Y-30657798D01*
X42345654Y-30657798D01*
X42502685Y-30626563D01*
X42650605Y-30565292D01*
X42783730Y-30476341D01*
X42896943Y-30363128D01*
X42985894Y-30230003D01*
X43047165Y-30082083D01*
X43078400Y-29925052D01*
X43078400Y-29764944D01*
X43047165Y-29607913D01*
X42985894Y-29459993D01*
X42896943Y-29326868D01*
X42783730Y-29213655D01*
X42650605Y-29124704D01*
X42502685Y-29063433D01*
X42345654Y-29032198D01*
X42185546Y-29032198D01*
X42028515Y-29063433D01*
X41880595Y-29124704D01*
X41747470Y-29213655D01*
X41634257Y-29326868D01*
X41545306Y-29459993D01*
X41484035Y-29607913D01*
X41452800Y-29764944D01*
X29339617Y-29764944D01*
X29270930Y-29696257D01*
X29137805Y-29607306D01*
X28989885Y-29546035D01*
X28896702Y-29527500D01*
X33155884Y-29527500D01*
X33190182Y-29530878D01*
X33224480Y-29527500D01*
X33224491Y-29527500D01*
X33327112Y-29517393D01*
X33458779Y-29477452D01*
X33580125Y-29412591D01*
X33686485Y-29325303D01*
X33708357Y-29298652D01*
X34581857Y-28425153D01*
X34608503Y-28403285D01*
X34630373Y-28376637D01*
X34695791Y-28296926D01*
X34760651Y-28175581D01*
X34760652Y-28175579D01*
X34800593Y-28043912D01*
X34810700Y-27941291D01*
X34810700Y-27941281D01*
X34814078Y-27906983D01*
X34810700Y-27872685D01*
X34810700Y-24430946D01*
X46736000Y-24430946D01*
X46736000Y-24591054D01*
X46767235Y-24748085D01*
X46828506Y-24896005D01*
X46917457Y-25029130D01*
X47030670Y-25142343D01*
X47163795Y-25231294D01*
X47311715Y-25292565D01*
X47468746Y-25323800D01*
X47628854Y-25323800D01*
X47785885Y-25292565D01*
X47933805Y-25231294D01*
X48066930Y-25142343D01*
X48180143Y-25029130D01*
X48269094Y-24896005D01*
X48330365Y-24748085D01*
X48361600Y-24591054D01*
X48361600Y-24430946D01*
X48330365Y-24273915D01*
X48269094Y-24125995D01*
X48180143Y-23992870D01*
X48066930Y-23879657D01*
X47933805Y-23790706D01*
X47785885Y-23729435D01*
X47628854Y-23698200D01*
X47468746Y-23698200D01*
X47311715Y-23729435D01*
X47163795Y-23790706D01*
X47030670Y-23879657D01*
X46917457Y-23992870D01*
X46828506Y-24125995D01*
X46767235Y-24273915D01*
X46736000Y-24430946D01*
X34810700Y-24430946D01*
X34810700Y-22742927D01*
X35459481Y-22094146D01*
X39827200Y-22094146D01*
X39827200Y-22254254D01*
X39858435Y-22411285D01*
X39919706Y-22559205D01*
X40008657Y-22692330D01*
X40121870Y-22805543D01*
X40254995Y-22894494D01*
X40402915Y-22955765D01*
X40559946Y-22987000D01*
X40720054Y-22987000D01*
X40877085Y-22955765D01*
X41025005Y-22894494D01*
X41158130Y-22805543D01*
X41271343Y-22692330D01*
X41360294Y-22559205D01*
X41421565Y-22411285D01*
X41452800Y-22254254D01*
X41452800Y-22094146D01*
X41421565Y-21937115D01*
X41360294Y-21789195D01*
X41271343Y-21656070D01*
X41158130Y-21542857D01*
X41025005Y-21453906D01*
X40877085Y-21392635D01*
X40720054Y-21361400D01*
X40559946Y-21361400D01*
X40402915Y-21392635D01*
X40254995Y-21453906D01*
X40121870Y-21542857D01*
X40008657Y-21656070D01*
X39919706Y-21789195D01*
X39858435Y-21937115D01*
X39827200Y-22094146D01*
X35459481Y-22094146D01*
X38531567Y-19022061D01*
X38558213Y-19000193D01*
X38580083Y-18973545D01*
X38645501Y-18893834D01*
X38710361Y-18772489D01*
X38710362Y-18772487D01*
X38750303Y-18640820D01*
X38760410Y-18538199D01*
X38760410Y-18538189D01*
X38763788Y-18503891D01*
X38760410Y-18469593D01*
X38760410Y-17572946D01*
X41452800Y-17572946D01*
X41452800Y-17733054D01*
X41484035Y-17890085D01*
X41545306Y-18038005D01*
X41634257Y-18171130D01*
X41747470Y-18284343D01*
X41880595Y-18373294D01*
X42028515Y-18434565D01*
X42185546Y-18465800D01*
X42345654Y-18465800D01*
X42502685Y-18434565D01*
X42650605Y-18373294D01*
X42783730Y-18284343D01*
X42896943Y-18171130D01*
X42985894Y-18038005D01*
X43047165Y-17890085D01*
X43078400Y-17733054D01*
X43078400Y-17572946D01*
X43047165Y-17415915D01*
X42985894Y-17267995D01*
X42896943Y-17134870D01*
X42783730Y-17021657D01*
X42650605Y-16932706D01*
X42502685Y-16871435D01*
X42345654Y-16840200D01*
X42185546Y-16840200D01*
X42028515Y-16871435D01*
X41880595Y-16932706D01*
X41747470Y-17021657D01*
X41634257Y-17134870D01*
X41545306Y-17267995D01*
X41484035Y-17415915D01*
X41452800Y-17572946D01*
X38760410Y-17572946D01*
X38760410Y-17100683D01*
X38801070Y-17141343D01*
X38934195Y-17230294D01*
X39082115Y-17291565D01*
X39239146Y-17322800D01*
X39399254Y-17322800D01*
X39556285Y-17291565D01*
X39704205Y-17230294D01*
X39837330Y-17141343D01*
X39950543Y-17028130D01*
X40039494Y-16895005D01*
X40100765Y-16747085D01*
X40132000Y-16590054D01*
X40132000Y-16429946D01*
X40100765Y-16272915D01*
X40039494Y-16124995D01*
X39950543Y-15991870D01*
X39837330Y-15878657D01*
X39704205Y-15789706D01*
X39556285Y-15728435D01*
X39399254Y-15697200D01*
X39239146Y-15697200D01*
X39082115Y-15728435D01*
X38934195Y-15789706D01*
X38801070Y-15878657D01*
X38760410Y-15919317D01*
X38760410Y-12619946D01*
X45872400Y-12619946D01*
X45872400Y-12780054D01*
X45903635Y-12937085D01*
X45964906Y-13085005D01*
X46053857Y-13218130D01*
X46167070Y-13331343D01*
X46300195Y-13420294D01*
X46448115Y-13481565D01*
X46605146Y-13512800D01*
X46765254Y-13512800D01*
X46922285Y-13481565D01*
X47070205Y-13420294D01*
X47203330Y-13331343D01*
X47316543Y-13218130D01*
X47405494Y-13085005D01*
X47466765Y-12937085D01*
X47498000Y-12780054D01*
X47498000Y-12619946D01*
X47466765Y-12462915D01*
X47405494Y-12314995D01*
X47316543Y-12181870D01*
X47203330Y-12068657D01*
X47070205Y-11979706D01*
X46922285Y-11918435D01*
X46765254Y-11887200D01*
X46605146Y-11887200D01*
X46448115Y-11918435D01*
X46300195Y-11979706D01*
X46167070Y-12068657D01*
X46053857Y-12181870D01*
X45964906Y-12314995D01*
X45903635Y-12462915D01*
X45872400Y-12619946D01*
X38760410Y-12619946D01*
X38760410Y-8632146D01*
X39827200Y-8632146D01*
X39827200Y-8792254D01*
X39858435Y-8949285D01*
X39919706Y-9097205D01*
X40008657Y-9230330D01*
X40121870Y-9343543D01*
X40254995Y-9432494D01*
X40402915Y-9493765D01*
X40559946Y-9525000D01*
X40720054Y-9525000D01*
X40877085Y-9493765D01*
X41025005Y-9432494D01*
X41158130Y-9343543D01*
X41254782Y-9246891D01*
X46183519Y-9246891D01*
X46280843Y-9521252D01*
X46429822Y-9771355D01*
X46624731Y-9987588D01*
X46858080Y-10161641D01*
X47120901Y-10286825D01*
X47268110Y-10331476D01*
X47498000Y-10210155D01*
X47498000Y-9017000D01*
X46304186Y-9017000D01*
X46183519Y-9246891D01*
X41254782Y-9246891D01*
X41271343Y-9230330D01*
X41360294Y-9097205D01*
X41421565Y-8949285D01*
X41452800Y-8792254D01*
X41452800Y-8632146D01*
X41433101Y-8533109D01*
X46183519Y-8533109D01*
X46304186Y-8763000D01*
X47498000Y-8763000D01*
X47498000Y-7569845D01*
X47752000Y-7569845D01*
X47752000Y-8763000D01*
X47772000Y-8763000D01*
X47772000Y-9017000D01*
X47752000Y-9017000D01*
X47752000Y-10210155D01*
X47981890Y-10331476D01*
X48129099Y-10286825D01*
X48391920Y-10161641D01*
X48625269Y-9987588D01*
X48808867Y-9783903D01*
X48814351Y-9839585D01*
X48843399Y-9935343D01*
X48890571Y-10023595D01*
X48954052Y-10100948D01*
X49031405Y-10164429D01*
X49119657Y-10211601D01*
X49215415Y-10240649D01*
X49315000Y-10250457D01*
X51015000Y-10250457D01*
X51114585Y-10240649D01*
X51210343Y-10211601D01*
X51298595Y-10164429D01*
X51375948Y-10100948D01*
X51439429Y-10023595D01*
X51486601Y-9935343D01*
X51515649Y-9839585D01*
X51525457Y-9740000D01*
X51525457Y-8040000D01*
X51515649Y-7940415D01*
X51486601Y-7844657D01*
X51439429Y-7756405D01*
X51375948Y-7679052D01*
X51298595Y-7615571D01*
X51210343Y-7568399D01*
X51114585Y-7539351D01*
X51015000Y-7529543D01*
X49315000Y-7529543D01*
X49215415Y-7539351D01*
X49119657Y-7568399D01*
X49031405Y-7615571D01*
X48954052Y-7679052D01*
X48890571Y-7756405D01*
X48843399Y-7844657D01*
X48814351Y-7940415D01*
X48808867Y-7996097D01*
X48625269Y-7792412D01*
X48391920Y-7618359D01*
X48129099Y-7493175D01*
X47981890Y-7448524D01*
X47752000Y-7569845D01*
X47498000Y-7569845D01*
X47268110Y-7448524D01*
X47120901Y-7493175D01*
X46858080Y-7618359D01*
X46624731Y-7792412D01*
X46429822Y-8008645D01*
X46280843Y-8258748D01*
X46183519Y-8533109D01*
X41433101Y-8533109D01*
X41421565Y-8475115D01*
X41360294Y-8327195D01*
X41271343Y-8194070D01*
X41158130Y-8080857D01*
X41025005Y-7991906D01*
X40877085Y-7930635D01*
X40720054Y-7899400D01*
X40559946Y-7899400D01*
X40402915Y-7930635D01*
X40254995Y-7991906D01*
X40121870Y-8080857D01*
X40008657Y-8194070D01*
X39919706Y-8327195D01*
X39858435Y-8475115D01*
X39827200Y-8632146D01*
X38760410Y-8632146D01*
X38760410Y-6092208D01*
X38763788Y-6057910D01*
X38760410Y-6023612D01*
X38760410Y-6023601D01*
X38750303Y-5920980D01*
X38710362Y-5789313D01*
X38676055Y-5725130D01*
X38645501Y-5667966D01*
X38580084Y-5588256D01*
X38580077Y-5588249D01*
X38558212Y-5561607D01*
X38531572Y-5539744D01*
X38118774Y-5126946D01*
X45872400Y-5126946D01*
X45872400Y-5287054D01*
X45903635Y-5444085D01*
X45964906Y-5592005D01*
X46053857Y-5725130D01*
X46167070Y-5838343D01*
X46300195Y-5927294D01*
X46448115Y-5988565D01*
X46605146Y-6019800D01*
X46765254Y-6019800D01*
X46922285Y-5988565D01*
X47070205Y-5927294D01*
X47203330Y-5838343D01*
X47316543Y-5725130D01*
X47405494Y-5592005D01*
X47466765Y-5444085D01*
X47498000Y-5287054D01*
X47498000Y-5126946D01*
X47466765Y-4969915D01*
X47405494Y-4821995D01*
X47316543Y-4688870D01*
X47203330Y-4575657D01*
X47070205Y-4486706D01*
X46922285Y-4425435D01*
X46765254Y-4394200D01*
X46605146Y-4394200D01*
X46448115Y-4425435D01*
X46300195Y-4486706D01*
X46167070Y-4575657D01*
X46053857Y-4688870D01*
X45964906Y-4821995D01*
X45903635Y-4969915D01*
X45872400Y-5126946D01*
X38118774Y-5126946D01*
X36576001Y-3584174D01*
X36576001Y-2967946D01*
X38481000Y-2967946D01*
X38481000Y-3128054D01*
X38512235Y-3285085D01*
X38573506Y-3433005D01*
X38662457Y-3566130D01*
X38775670Y-3679343D01*
X38908795Y-3768294D01*
X39056715Y-3829565D01*
X39213746Y-3860800D01*
X39373854Y-3860800D01*
X39530885Y-3829565D01*
X39678805Y-3768294D01*
X39811930Y-3679343D01*
X39925143Y-3566130D01*
X40014094Y-3433005D01*
X40075365Y-3285085D01*
X40106600Y-3128054D01*
X40106600Y-2967946D01*
X40075365Y-2810915D01*
X40014094Y-2662995D01*
X39925143Y-2529870D01*
X39811930Y-2416657D01*
X39678805Y-2327706D01*
X39530885Y-2266435D01*
X39373854Y-2235200D01*
X39213746Y-2235200D01*
X39056715Y-2266435D01*
X38908795Y-2327706D01*
X38775670Y-2416657D01*
X38662457Y-2529870D01*
X38573506Y-2662995D01*
X38512235Y-2810915D01*
X38481000Y-2967946D01*
X36576001Y-2967946D01*
X36576001Y-2737374D01*
X36579379Y-2703076D01*
X36576001Y-2668778D01*
X36576001Y-2668768D01*
X36565894Y-2566147D01*
X36525953Y-2434480D01*
X36461092Y-2313134D01*
X36443612Y-2291835D01*
X36395675Y-2233423D01*
X36395668Y-2233416D01*
X36373803Y-2206774D01*
X36347162Y-2184910D01*
X36278571Y-2116319D01*
X36270918Y-2077844D01*
X36209647Y-1929924D01*
X36156475Y-1850346D01*
X41478200Y-1850346D01*
X41478200Y-2010454D01*
X41509435Y-2167485D01*
X41570706Y-2315405D01*
X41659657Y-2448530D01*
X41772870Y-2561743D01*
X41905995Y-2650694D01*
X42053915Y-2711965D01*
X42210946Y-2743200D01*
X42371054Y-2743200D01*
X42528085Y-2711965D01*
X42676005Y-2650694D01*
X42809130Y-2561743D01*
X42922343Y-2448530D01*
X43011294Y-2315405D01*
X43072565Y-2167485D01*
X43103800Y-2010454D01*
X43103800Y-1850346D01*
X43072565Y-1693315D01*
X43011294Y-1545395D01*
X42922343Y-1412270D01*
X42809130Y-1299057D01*
X42676005Y-1210106D01*
X42528085Y-1148835D01*
X42371054Y-1117600D01*
X42210946Y-1117600D01*
X42053915Y-1148835D01*
X41905995Y-1210106D01*
X41772870Y-1299057D01*
X41659657Y-1412270D01*
X41570706Y-1545395D01*
X41509435Y-1693315D01*
X41478200Y-1850346D01*
X36156475Y-1850346D01*
X36120696Y-1796799D01*
X36007483Y-1683586D01*
X35874358Y-1594635D01*
X35726438Y-1533364D01*
X35569407Y-1502129D01*
X35409299Y-1502129D01*
X35252268Y-1533364D01*
X35104348Y-1594635D01*
X34971223Y-1683586D01*
X34858010Y-1796799D01*
X34769059Y-1929924D01*
X34707788Y-2077844D01*
X34676553Y-2234875D01*
X34676553Y-2394983D01*
X34682978Y-2427285D01*
X34660870Y-2442057D01*
X34547657Y-2555270D01*
X34458706Y-2688395D01*
X34397435Y-2836315D01*
X34370486Y-2971800D01*
X33178879Y-2971800D01*
X33270339Y-2880340D01*
X33359290Y-2747215D01*
X33420561Y-2599295D01*
X33451796Y-2442264D01*
X33451796Y-2282156D01*
X33420561Y-2125125D01*
X33359290Y-1977205D01*
X33270339Y-1844080D01*
X33157126Y-1730867D01*
X33024001Y-1641916D01*
X32876081Y-1580645D01*
X32719050Y-1549410D01*
X32558942Y-1549410D01*
X32401911Y-1580645D01*
X32253991Y-1641916D01*
X32120866Y-1730867D01*
X32007653Y-1844080D01*
X31918702Y-1977205D01*
X31857431Y-2125125D01*
X31826196Y-2282156D01*
X31826196Y-2442264D01*
X31857431Y-2599295D01*
X31910488Y-2727384D01*
X31623000Y-2439897D01*
X31623000Y-2409146D01*
X31591765Y-2252115D01*
X31530494Y-2104195D01*
X31441543Y-1971070D01*
X31328330Y-1857857D01*
X31195205Y-1768906D01*
X31047285Y-1707635D01*
X30890254Y-1676400D01*
X30730146Y-1676400D01*
X30573115Y-1707635D01*
X30425195Y-1768906D01*
X30292070Y-1857857D01*
X30178857Y-1971070D01*
X30089906Y-2104195D01*
X30028635Y-2252115D01*
X29997400Y-2409146D01*
X29997400Y-2569254D01*
X30028635Y-2726285D01*
X30089906Y-2874205D01*
X30178857Y-3007330D01*
X30292070Y-3120543D01*
X30425195Y-3209494D01*
X30573115Y-3270765D01*
X30730146Y-3302000D01*
X30760897Y-3302000D01*
X31319696Y-3860800D01*
X30433741Y-3860800D01*
X30403800Y-3857851D01*
X30284297Y-3869621D01*
X30169387Y-3904479D01*
X30137143Y-3921714D01*
X30063486Y-3961084D01*
X29970662Y-4037262D01*
X29951569Y-4060527D01*
X28551097Y-5461000D01*
X28520346Y-5461000D01*
X28363315Y-5492235D01*
X28215395Y-5553506D01*
X28082270Y-5642457D01*
X27969057Y-5755670D01*
X27880106Y-5888795D01*
X27818835Y-6036715D01*
X27787600Y-6193746D01*
X27787600Y-6353854D01*
X27818835Y-6510885D01*
X27880106Y-6658805D01*
X27969057Y-6791930D01*
X28082270Y-6905143D01*
X28215395Y-6994094D01*
X28363315Y-7055365D01*
X28520346Y-7086600D01*
X28680454Y-7086600D01*
X28837485Y-7055365D01*
X28985405Y-6994094D01*
X29118530Y-6905143D01*
X29231743Y-6791930D01*
X29320694Y-6658805D01*
X29381965Y-6510885D01*
X29413200Y-6353854D01*
X29413200Y-6323103D01*
X30656304Y-5080000D01*
X34316897Y-5080000D01*
X36017200Y-6780304D01*
X36017200Y-6811076D01*
X36048435Y-6968107D01*
X36109706Y-7116027D01*
X36198657Y-7249152D01*
X36311870Y-7362365D01*
X36444995Y-7451316D01*
X36592915Y-7512587D01*
X36749946Y-7543822D01*
X36910054Y-7543822D01*
X36957001Y-7534484D01*
X36957000Y-12472896D01*
X36399697Y-13030200D01*
X36368946Y-13030200D01*
X36211915Y-13061435D01*
X36063995Y-13122706D01*
X35930870Y-13211657D01*
X35817657Y-13324870D01*
X35728706Y-13457995D01*
X35667435Y-13605915D01*
X35636200Y-13762946D01*
X35636200Y-13923054D01*
X35667435Y-14080085D01*
X35728706Y-14228005D01*
X35817657Y-14361130D01*
X35930870Y-14474343D01*
X36063995Y-14563294D01*
X36211915Y-14624565D01*
X36368946Y-14655800D01*
X36399697Y-14655800D01*
X36957001Y-15213105D01*
X36957000Y-17997906D01*
X34859390Y-20095517D01*
X34787789Y-20023916D01*
X36020679Y-18791026D01*
X36043938Y-18771938D01*
X36120116Y-18679114D01*
X36164675Y-18595749D01*
X36176721Y-18573213D01*
X36211579Y-18458303D01*
X36223349Y-18338800D01*
X36220400Y-18308859D01*
X36220400Y-16489138D01*
X36223349Y-16459199D01*
X36217547Y-16400295D01*
X36211579Y-16339698D01*
X36176721Y-16224788D01*
X36120116Y-16118886D01*
X36043938Y-16026062D01*
X36020679Y-16006974D01*
X35915600Y-15901896D01*
X35915600Y-15871146D01*
X35884365Y-15714115D01*
X35823094Y-15566195D01*
X35734143Y-15433070D01*
X35620930Y-15319857D01*
X35487805Y-15230906D01*
X35339885Y-15169635D01*
X35182854Y-15138400D01*
X35022746Y-15138400D01*
X35010984Y-15140740D01*
X35071565Y-14994485D01*
X35102800Y-14837454D01*
X35102800Y-14677346D01*
X35071565Y-14520315D01*
X35010294Y-14372395D01*
X34921343Y-14239270D01*
X34808130Y-14126057D01*
X34675005Y-14037106D01*
X34527085Y-13975835D01*
X34370054Y-13944600D01*
X34209946Y-13944600D01*
X34052915Y-13975835D01*
X33904995Y-14037106D01*
X33771870Y-14126057D01*
X33658657Y-14239270D01*
X33629600Y-14282757D01*
X33600543Y-14239270D01*
X33487330Y-14126057D01*
X33354205Y-14037106D01*
X33206285Y-13975835D01*
X33049254Y-13944600D01*
X32889146Y-13944600D01*
X32732115Y-13975835D01*
X32584195Y-14037106D01*
X32537400Y-14068373D01*
X32537400Y-13130303D01*
X33932904Y-11734800D01*
X33989054Y-11734800D01*
X34146085Y-11703565D01*
X34294005Y-11642294D01*
X34427130Y-11553343D01*
X34540343Y-11440130D01*
X34629294Y-11307005D01*
X34690565Y-11159085D01*
X34721800Y-11002054D01*
X34721800Y-10841946D01*
X34690565Y-10684915D01*
X34629294Y-10536995D01*
X34540343Y-10403870D01*
X34427130Y-10290657D01*
X34294005Y-10201706D01*
X34146085Y-10140435D01*
X33989054Y-10109200D01*
X33828946Y-10109200D01*
X33671915Y-10140435D01*
X33523995Y-10201706D01*
X33390870Y-10290657D01*
X33277657Y-10403870D01*
X33188706Y-10536995D01*
X33127435Y-10684915D01*
X33096200Y-10841946D01*
X33096200Y-10847296D01*
X31953200Y-11990297D01*
X31953200Y-9955303D01*
X32434304Y-9474200D01*
X32465054Y-9474200D01*
X32622085Y-9442965D01*
X32770005Y-9381694D01*
X32903130Y-9292743D01*
X33016343Y-9179530D01*
X33105294Y-9046405D01*
X33166565Y-8898485D01*
X33197800Y-8741454D01*
X33197800Y-8581346D01*
X33166565Y-8424315D01*
X33105294Y-8276395D01*
X33016343Y-8143270D01*
X32903130Y-8030057D01*
X32770005Y-7941106D01*
X32622085Y-7879835D01*
X32465054Y-7848600D01*
X32304946Y-7848600D01*
X32147915Y-7879835D01*
X31999995Y-7941106D01*
X31866870Y-8030057D01*
X31753657Y-8143270D01*
X31664706Y-8276395D01*
X31603435Y-8424315D01*
X31572200Y-8581346D01*
X31572200Y-8612096D01*
X31157085Y-9027212D01*
X31150530Y-9020657D01*
X31017405Y-8931706D01*
X30869485Y-8870435D01*
X30712454Y-8839200D01*
X30581612Y-8839200D01*
X30581612Y-8253491D01*
X30935804Y-7899300D01*
X30966554Y-7899300D01*
X31123585Y-7868065D01*
X31271505Y-7806794D01*
X31404630Y-7717843D01*
X31517843Y-7604630D01*
X31606794Y-7471505D01*
X31668065Y-7323585D01*
X31699300Y-7166554D01*
X31699300Y-7006446D01*
X31668065Y-6849415D01*
X31606794Y-6701495D01*
X31517843Y-6568370D01*
X31404630Y-6455157D01*
X31271505Y-6366206D01*
X31123585Y-6304935D01*
X30966554Y-6273700D01*
X30806446Y-6273700D01*
X30649415Y-6304935D01*
X30501495Y-6366206D01*
X30368370Y-6455157D01*
X30255157Y-6568370D01*
X30166206Y-6701495D01*
X30104935Y-6849415D01*
X30073700Y-7006446D01*
X30073700Y-7037196D01*
X29562144Y-7548753D01*
X29538874Y-7567850D01*
X29462696Y-7660675D01*
X29406091Y-7766577D01*
X29390024Y-7819543D01*
X29371233Y-7881486D01*
X29359463Y-8000988D01*
X29362412Y-8030930D01*
X29362412Y-8595603D01*
X28450554Y-7683746D01*
X28428684Y-7657097D01*
X28322324Y-7569809D01*
X28200978Y-7504948D01*
X28069311Y-7465007D01*
X27966690Y-7454900D01*
X27966679Y-7454900D01*
X27932381Y-7451522D01*
X27898083Y-7454900D01*
X18958328Y-7454900D01*
X18759750Y-7256323D01*
X18868543Y-7147530D01*
X18957494Y-7014405D01*
X19018765Y-6866485D01*
X19050000Y-6709454D01*
X19050000Y-6549346D01*
X19018765Y-6392315D01*
X18968078Y-6269946D01*
X19507200Y-6269946D01*
X19507200Y-6430054D01*
X19538435Y-6587085D01*
X19599706Y-6735005D01*
X19688657Y-6868130D01*
X19801870Y-6981343D01*
X19934995Y-7070294D01*
X20082915Y-7131565D01*
X20239946Y-7162800D01*
X20400054Y-7162800D01*
X20557085Y-7131565D01*
X20705005Y-7070294D01*
X20838130Y-6981343D01*
X20951343Y-6868130D01*
X21040294Y-6735005D01*
X21101565Y-6587085D01*
X21132800Y-6430054D01*
X21132800Y-6269946D01*
X21101565Y-6112915D01*
X21040294Y-5964995D01*
X20951343Y-5831870D01*
X20838130Y-5718657D01*
X20705005Y-5629706D01*
X20557085Y-5568435D01*
X20400054Y-5537200D01*
X20239946Y-5537200D01*
X20082915Y-5568435D01*
X19934995Y-5629706D01*
X19801870Y-5718657D01*
X19688657Y-5831870D01*
X19599706Y-5964995D01*
X19538435Y-6112915D01*
X19507200Y-6269946D01*
X18968078Y-6269946D01*
X18957494Y-6244395D01*
X18868543Y-6111270D01*
X18755330Y-5998057D01*
X18622205Y-5909106D01*
X18474285Y-5847835D01*
X18317254Y-5816600D01*
X18157146Y-5816600D01*
X18000115Y-5847835D01*
X17852195Y-5909106D01*
X17719070Y-5998057D01*
X17605857Y-6111270D01*
X17516906Y-6244395D01*
X17455635Y-6392315D01*
X17451536Y-6412922D01*
X17318795Y-6467906D01*
X17185670Y-6556857D01*
X17072457Y-6670070D01*
X16983506Y-6803195D01*
X16922235Y-6951115D01*
X16891000Y-7108146D01*
X16891000Y-7268254D01*
X16922235Y-7425285D01*
X16983506Y-7573205D01*
X17072457Y-7706330D01*
X17185670Y-7819543D01*
X17318795Y-7908494D01*
X17466715Y-7969765D01*
X17505191Y-7977418D01*
X18150829Y-8623057D01*
X18172697Y-8649703D01*
X18199343Y-8671571D01*
X18199346Y-8671574D01*
X18279056Y-8736991D01*
X18315086Y-8756249D01*
X18400403Y-8801852D01*
X18532070Y-8841793D01*
X18634691Y-8851900D01*
X18634702Y-8851900D01*
X18669000Y-8855278D01*
X18703298Y-8851900D01*
X19507200Y-8851900D01*
X19507200Y-8970054D01*
X19538435Y-9127085D01*
X19599706Y-9275005D01*
X19688657Y-9408130D01*
X19710400Y-9429873D01*
X19710401Y-10970514D01*
X19687973Y-10992942D01*
X19599022Y-11126067D01*
X19537751Y-11273987D01*
X19526928Y-11328400D01*
X19477946Y-11328400D01*
X19320915Y-11359635D01*
X19172995Y-11420906D01*
X19039870Y-11509857D01*
X18926657Y-11623070D01*
X18837706Y-11756195D01*
X18776435Y-11904115D01*
X18745200Y-12061146D01*
X18745200Y-12221254D01*
X18747183Y-12231225D01*
X18741195Y-12233706D01*
X18608070Y-12322657D01*
X18494857Y-12435870D01*
X18405906Y-12568995D01*
X18344635Y-12716915D01*
X18313400Y-12873946D01*
X18313400Y-13034054D01*
X18344635Y-13191085D01*
X18405906Y-13339005D01*
X18494857Y-13472130D01*
X18608070Y-13585343D01*
X18741195Y-13674294D01*
X18889115Y-13735565D01*
X19046146Y-13766800D01*
X19206254Y-13766800D01*
X19363285Y-13735565D01*
X19511205Y-13674294D01*
X19644330Y-13585343D01*
X19666073Y-13563600D01*
X21712459Y-13563600D01*
X21742400Y-13566549D01*
X21772341Y-13563600D01*
X21861902Y-13554779D01*
X21976812Y-13519921D01*
X22082714Y-13463316D01*
X22175538Y-13387138D01*
X22194635Y-13363868D01*
X25169904Y-10388600D01*
X25774527Y-10388600D01*
X25796270Y-10410343D01*
X25929395Y-10499294D01*
X26077315Y-10560565D01*
X26234346Y-10591800D01*
X26394454Y-10591800D01*
X26551485Y-10560565D01*
X26699405Y-10499294D01*
X26832530Y-10410343D01*
X26945743Y-10297130D01*
X27034694Y-10164005D01*
X27095965Y-10016085D01*
X27127200Y-9859054D01*
X27127200Y-9698946D01*
X27095965Y-9541915D01*
X27034694Y-9393995D01*
X26945743Y-9260870D01*
X26832530Y-9147657D01*
X26699405Y-9058706D01*
X26551485Y-8997435D01*
X26394454Y-8966200D01*
X26234346Y-8966200D01*
X26077315Y-8997435D01*
X25929395Y-9058706D01*
X25796270Y-9147657D01*
X25774527Y-9169400D01*
X24947341Y-9169400D01*
X24917399Y-9166451D01*
X24797897Y-9178221D01*
X24763039Y-9188795D01*
X24682988Y-9213079D01*
X24577086Y-9269684D01*
X24484262Y-9345862D01*
X24465169Y-9369127D01*
X21489897Y-12344400D01*
X20346305Y-12344400D01*
X20350388Y-12323872D01*
X20399370Y-12323872D01*
X20556401Y-12292637D01*
X20704321Y-12231366D01*
X20837446Y-12142415D01*
X20950659Y-12029202D01*
X21039610Y-11896077D01*
X21100881Y-11748157D01*
X21132116Y-11591126D01*
X21132116Y-11431018D01*
X21100881Y-11273987D01*
X21039610Y-11126067D01*
X20950659Y-10992942D01*
X20929600Y-10971883D01*
X20929600Y-9652184D01*
X21052326Y-9676595D01*
X21212434Y-9676595D01*
X21369465Y-9645360D01*
X21517385Y-9584089D01*
X21650510Y-9495138D01*
X21763723Y-9381925D01*
X21852674Y-9248800D01*
X21913945Y-9100880D01*
X21945180Y-8943849D01*
X21945180Y-8851900D01*
X27641428Y-8851900D01*
X27562657Y-8930671D01*
X27473706Y-9063796D01*
X27412435Y-9211716D01*
X27381200Y-9368747D01*
X27381200Y-9528855D01*
X27412435Y-9685886D01*
X27473706Y-9833806D01*
X27562657Y-9966931D01*
X27584401Y-9988675D01*
X27584401Y-11633200D01*
X27504346Y-11633200D01*
X27347315Y-11664435D01*
X27199395Y-11725706D01*
X27066270Y-11814657D01*
X26953057Y-11927870D01*
X26864106Y-12060995D01*
X26802835Y-12208915D01*
X26771600Y-12365946D01*
X26771600Y-12526054D01*
X26802835Y-12683085D01*
X26864106Y-12831005D01*
X26953057Y-12964130D01*
X27066270Y-13077343D01*
X27199395Y-13166294D01*
X27347315Y-13227565D01*
X27504346Y-13258800D01*
X27584400Y-13258800D01*
X27584400Y-13863858D01*
X27581451Y-13893800D01*
X27593221Y-14013301D01*
X27628079Y-14128211D01*
X27684684Y-14234113D01*
X27760862Y-14326938D01*
X27784132Y-14346035D01*
X27814479Y-14376383D01*
X27789062Y-14401800D01*
X25861857Y-14401800D01*
X25867330Y-14398143D01*
X25980543Y-14284930D01*
X26069494Y-14151805D01*
X26130765Y-14003885D01*
X26162000Y-13846854D01*
X26162000Y-13686746D01*
X26130765Y-13529715D01*
X26069494Y-13381795D01*
X25980543Y-13248670D01*
X25867330Y-13135457D01*
X25734205Y-13046506D01*
X25586285Y-12985235D01*
X25481082Y-12964309D01*
X25485294Y-12958005D01*
X25546565Y-12810085D01*
X25577800Y-12653054D01*
X25577800Y-12492946D01*
X25546565Y-12335915D01*
X25485294Y-12187995D01*
X25396343Y-12054870D01*
X25283130Y-11941657D01*
X25150005Y-11852706D01*
X25002085Y-11791435D01*
X24845054Y-11760200D01*
X24684946Y-11760200D01*
X24527915Y-11791435D01*
X24379995Y-11852706D01*
X24246870Y-11941657D01*
X24133657Y-12054870D01*
X24044706Y-12187995D01*
X23989722Y-12320736D01*
X23969115Y-12324835D01*
X23821195Y-12386106D01*
X23688070Y-12475057D01*
X23574857Y-12588270D01*
X23485906Y-12721395D01*
X23424635Y-12869315D01*
X23393400Y-13026346D01*
X23393400Y-13186454D01*
X23424635Y-13343485D01*
X23485906Y-13491405D01*
X23574857Y-13624530D01*
X23688070Y-13737743D01*
X23821195Y-13826694D01*
X23969115Y-13887965D01*
X24081863Y-13910392D01*
X24044706Y-13966001D01*
X23983435Y-14113921D01*
X23952200Y-14270952D01*
X23952200Y-14401800D01*
X18897600Y-14401800D01*
X18897600Y-14321736D01*
X18866365Y-14164705D01*
X18805094Y-14016785D01*
X18716143Y-13883660D01*
X18602930Y-13770447D01*
X18469805Y-13681496D01*
X18321885Y-13620225D01*
X18164854Y-13588990D01*
X18004746Y-13588990D01*
X17847715Y-13620225D01*
X17699795Y-13681496D01*
X17566670Y-13770447D01*
X17453457Y-13883660D01*
X17365941Y-14014637D01*
X13684887Y-10333584D01*
X13665790Y-10310314D01*
X13572966Y-10234136D01*
X13467064Y-10177531D01*
X13352154Y-10142673D01*
X13329431Y-10140435D01*
X13232652Y-10130903D01*
X13202711Y-10133852D01*
X8527736Y-10133852D01*
X8497795Y-10130903D01*
X8378292Y-10142673D01*
X8263383Y-10177531D01*
X8157481Y-10234136D01*
X8064657Y-10310314D01*
X8045569Y-10333574D01*
X7711143Y-10668000D01*
X7680393Y-10668000D01*
X7523362Y-10699235D01*
X7375442Y-10760506D01*
X7258424Y-10838695D01*
X7141405Y-10760506D01*
X6993485Y-10699235D01*
X6836454Y-10668000D01*
X6676346Y-10668000D01*
X6519315Y-10699235D01*
X6371395Y-10760506D01*
X6238270Y-10849457D01*
X6125057Y-10962670D01*
X6036106Y-11095795D01*
X5974835Y-11243715D01*
X5943600Y-11400746D01*
X5943600Y-11560854D01*
X5974835Y-11717885D01*
X6036106Y-11865805D01*
X6125057Y-11998930D01*
X6238270Y-12112143D01*
X6371395Y-12201094D01*
X6519315Y-12262365D01*
X6676346Y-12293600D01*
X6707096Y-12293600D01*
X6964573Y-12551078D01*
X6983662Y-12574338D01*
X7076486Y-12650516D01*
X7121545Y-12674600D01*
X7182387Y-12707121D01*
X7297297Y-12741979D01*
X7416800Y-12753749D01*
X7446741Y-12750800D01*
X13006297Y-12750800D01*
X16489574Y-16234079D01*
X16508662Y-16257338D01*
X16601486Y-16333516D01*
X16683192Y-16377188D01*
X16707388Y-16390121D01*
X16822297Y-16424979D01*
X16941800Y-16436749D01*
X16971741Y-16433800D01*
X26417497Y-16433800D01*
X27711400Y-17727704D01*
X27711400Y-17758454D01*
X27742635Y-17915485D01*
X27803906Y-18063405D01*
X27892857Y-18196530D01*
X28006070Y-18309743D01*
X28139195Y-18398694D01*
X28287115Y-18459965D01*
X28444146Y-18491200D01*
X28604254Y-18491200D01*
X28761285Y-18459965D01*
X28909205Y-18398694D01*
X29042330Y-18309743D01*
X29155543Y-18196530D01*
X29244494Y-18063405D01*
X29305765Y-17915485D01*
X29337000Y-17758454D01*
X29337000Y-17598346D01*
X29305765Y-17441315D01*
X29244494Y-17293395D01*
X29155543Y-17160270D01*
X29042330Y-17047057D01*
X28909205Y-16958106D01*
X28761285Y-16896835D01*
X28604254Y-16865600D01*
X28573504Y-16865600D01*
X28342670Y-16634766D01*
X28373779Y-16640954D01*
X28533887Y-16640954D01*
X28690918Y-16609719D01*
X28838838Y-16548448D01*
X28971963Y-16459497D01*
X28997857Y-16433603D01*
X28999680Y-16439612D01*
X29056285Y-16545514D01*
X29132463Y-16638339D01*
X29155733Y-16657436D01*
X30226000Y-17727704D01*
X30226000Y-17758454D01*
X30257235Y-17915485D01*
X30318506Y-18063405D01*
X30407457Y-18196530D01*
X30484117Y-18273190D01*
X29562292Y-19195015D01*
X28628618Y-19195015D01*
X28628618Y-19114960D01*
X28597383Y-18957929D01*
X28536112Y-18810009D01*
X28447161Y-18676884D01*
X28333948Y-18563671D01*
X28200823Y-18474720D01*
X28052903Y-18413449D01*
X27895872Y-18382214D01*
X27735764Y-18382214D01*
X27578733Y-18413449D01*
X27430813Y-18474720D01*
X27297688Y-18563671D01*
X27184475Y-18676884D01*
X27095524Y-18810009D01*
X27034253Y-18957929D01*
X27003018Y-19114960D01*
X27003018Y-19194118D01*
X26982185Y-19192066D01*
X26862682Y-19203836D01*
X26783685Y-19227800D01*
X26747773Y-19238694D01*
X26641871Y-19295299D01*
X26549047Y-19371477D01*
X26529960Y-19394735D01*
X26087296Y-19837400D01*
X24714200Y-19837400D01*
X24714200Y-19681156D01*
X24682965Y-19524125D01*
X24621694Y-19376205D01*
X24532743Y-19243080D01*
X24419530Y-19129867D01*
X24286405Y-19040916D01*
X24138485Y-18979645D01*
X23981454Y-18948410D01*
X23821346Y-18948410D01*
X23664315Y-18979645D01*
X23516395Y-19040916D01*
X23383270Y-19129867D01*
X23270057Y-19243080D01*
X23181106Y-19376205D01*
X23119835Y-19524125D01*
X23112999Y-19558495D01*
X21762835Y-18208332D01*
X21743738Y-18185062D01*
X21650914Y-18108884D01*
X21545012Y-18052279D01*
X21430102Y-18017421D01*
X21415654Y-18015998D01*
X21310600Y-18005651D01*
X21280659Y-18008600D01*
X19177000Y-18008600D01*
X19177000Y-17928536D01*
X19145765Y-17771505D01*
X19084494Y-17623585D01*
X18995543Y-17490460D01*
X18882330Y-17377247D01*
X18749205Y-17288296D01*
X18601285Y-17227025D01*
X18444254Y-17195790D01*
X18284146Y-17195790D01*
X18127115Y-17227025D01*
X17979195Y-17288296D01*
X17846070Y-17377247D01*
X17824327Y-17398990D01*
X15949694Y-17398990D01*
X13863435Y-15312732D01*
X13844338Y-15289462D01*
X13751514Y-15213284D01*
X13645612Y-15156679D01*
X13530702Y-15121821D01*
X13411200Y-15110051D01*
X13381259Y-15113000D01*
X4220941Y-15113000D01*
X4191000Y-15110051D01*
X4071497Y-15121821D01*
X3992124Y-15145899D01*
X3956588Y-15156679D01*
X3850686Y-15213284D01*
X3757862Y-15289462D01*
X3738773Y-15312722D01*
X3506696Y-15544800D01*
X3475946Y-15544800D01*
X3318915Y-15576035D01*
X3170995Y-15637306D01*
X3037870Y-15726257D01*
X2924657Y-15839470D01*
X2835706Y-15972595D01*
X2774435Y-16120515D01*
X2743200Y-16277546D01*
X2743200Y-16437654D01*
X2774435Y-16594685D01*
X2835706Y-16742605D01*
X2924657Y-16875730D01*
X3037870Y-16988943D01*
X3170995Y-17077894D01*
X3318915Y-17139165D01*
X3475946Y-17170400D01*
X3636054Y-17170400D01*
X3793085Y-17139165D01*
X3941005Y-17077894D01*
X4074130Y-16988943D01*
X4187343Y-16875730D01*
X4276294Y-16742605D01*
X4337565Y-16594685D01*
X4368800Y-16437654D01*
X4368800Y-16406904D01*
X4443504Y-16332200D01*
X6934200Y-16332200D01*
X6934200Y-16383001D01*
X5287737Y-16383001D01*
X5257798Y-16380052D01*
X5227859Y-16383001D01*
X5227858Y-16383001D01*
X5138297Y-16391822D01*
X5023387Y-16426680D01*
X4917485Y-16483285D01*
X4824661Y-16559463D01*
X4805568Y-16582728D01*
X3532097Y-17856200D01*
X3501346Y-17856200D01*
X3344315Y-17887435D01*
X3196395Y-17948706D01*
X3063270Y-18037657D01*
X2950057Y-18150870D01*
X2861106Y-18283995D01*
X2799835Y-18431915D01*
X2768600Y-18588946D01*
X2768600Y-18749054D01*
X2799835Y-18906085D01*
X2800075Y-18906664D01*
X2703571Y-18971146D01*
X2590358Y-19084359D01*
X2501407Y-19217484D01*
X2440136Y-19365404D01*
X2408901Y-19522435D01*
X1193800Y-19522435D01*
X1193800Y-14951262D01*
X1240746Y-14960600D01*
X1400854Y-14960600D01*
X1557885Y-14929365D01*
X1705805Y-14868094D01*
X1838930Y-14779143D01*
X1952143Y-14665930D01*
X2041094Y-14532805D01*
X2102365Y-14384885D01*
X2123478Y-14278744D01*
X2231346Y-14300200D01*
X2391454Y-14300200D01*
X2548485Y-14268965D01*
X2696405Y-14207694D01*
X2829530Y-14118743D01*
X2942743Y-14005530D01*
X3031694Y-13872405D01*
X3092965Y-13724485D01*
X3124200Y-13567454D01*
X3124200Y-13407346D01*
X3092965Y-13250315D01*
X3031694Y-13102395D01*
X2942743Y-12969270D01*
X2829530Y-12856057D01*
X2696405Y-12767106D01*
X2548485Y-12705835D01*
X2391454Y-12674600D01*
X2231346Y-12674600D01*
X2074315Y-12705835D01*
X1926395Y-12767106D01*
X1793270Y-12856057D01*
X1771527Y-12877800D01*
X1045938Y-12877800D01*
X1015999Y-12874851D01*
X986060Y-12877800D01*
X986059Y-12877800D01*
X896498Y-12886621D01*
X781588Y-12921479D01*
X675686Y-12978084D01*
X583000Y-13054149D01*
X583000Y-8756249D01*
X1817000Y-8756249D01*
X1817000Y-9023751D01*
X1869187Y-9286114D01*
X1971556Y-9533254D01*
X2120172Y-9755675D01*
X2309325Y-9944828D01*
X2531746Y-10093444D01*
X2778886Y-10195813D01*
X3041249Y-10248000D01*
X3308751Y-10248000D01*
X3571114Y-10195813D01*
X3818254Y-10093444D01*
X4040675Y-9944828D01*
X4229828Y-9755675D01*
X4354543Y-9569025D01*
X4354543Y-9740000D01*
X4364351Y-9839585D01*
X4393399Y-9935343D01*
X4440571Y-10023595D01*
X4504052Y-10100948D01*
X4581405Y-10164429D01*
X4669657Y-10211601D01*
X4765415Y-10240649D01*
X4865000Y-10250457D01*
X6565000Y-10250457D01*
X6664585Y-10240649D01*
X6760343Y-10211601D01*
X6848595Y-10164429D01*
X6925948Y-10100948D01*
X6989429Y-10023595D01*
X7036601Y-9935343D01*
X7065649Y-9839585D01*
X7075457Y-9740000D01*
X7075457Y-8403546D01*
X9601200Y-8403546D01*
X9601200Y-8563654D01*
X9632435Y-8720685D01*
X9693706Y-8868605D01*
X9782657Y-9001730D01*
X9895870Y-9114943D01*
X10028995Y-9203894D01*
X10176915Y-9265165D01*
X10333946Y-9296400D01*
X10494054Y-9296400D01*
X10651085Y-9265165D01*
X10799005Y-9203894D01*
X10932130Y-9114943D01*
X11045343Y-9001730D01*
X11134294Y-8868605D01*
X11195565Y-8720685D01*
X11226800Y-8563654D01*
X11226800Y-8403546D01*
X11195565Y-8246515D01*
X11134294Y-8098595D01*
X11045343Y-7965470D01*
X10932130Y-7852257D01*
X10799005Y-7763306D01*
X10651085Y-7702035D01*
X10494054Y-7670800D01*
X10333946Y-7670800D01*
X10176915Y-7702035D01*
X10028995Y-7763306D01*
X9895870Y-7852257D01*
X9782657Y-7965470D01*
X9693706Y-8098595D01*
X9632435Y-8246515D01*
X9601200Y-8403546D01*
X7075457Y-8403546D01*
X7075457Y-8040000D01*
X7065649Y-7940415D01*
X7036601Y-7844657D01*
X6989429Y-7756405D01*
X6925948Y-7679052D01*
X6848595Y-7615571D01*
X6760343Y-7568399D01*
X6664585Y-7539351D01*
X6565000Y-7529543D01*
X4865000Y-7529543D01*
X4765415Y-7539351D01*
X4669657Y-7568399D01*
X4581405Y-7615571D01*
X4504052Y-7679052D01*
X4440571Y-7756405D01*
X4393399Y-7844657D01*
X4364351Y-7940415D01*
X4354543Y-8040000D01*
X4354543Y-8210975D01*
X4229828Y-8024325D01*
X4040675Y-7835172D01*
X3818254Y-7686556D01*
X3571114Y-7584187D01*
X3308751Y-7532000D01*
X3041249Y-7532000D01*
X2778886Y-7584187D01*
X2531746Y-7686556D01*
X2309325Y-7835172D01*
X2120172Y-8024325D01*
X1971556Y-8246746D01*
X1869187Y-8493886D01*
X1817000Y-8756249D01*
X583000Y-8756249D01*
X583000Y-4364946D01*
X5156200Y-4364946D01*
X5156200Y-4525054D01*
X5187435Y-4682085D01*
X5248706Y-4830005D01*
X5337657Y-4963130D01*
X5450870Y-5076343D01*
X5583995Y-5165294D01*
X5731915Y-5226565D01*
X5888946Y-5257800D01*
X6049054Y-5257800D01*
X6206085Y-5226565D01*
X6354005Y-5165294D01*
X6487130Y-5076343D01*
X6600343Y-4963130D01*
X6689294Y-4830005D01*
X6750565Y-4682085D01*
X6781800Y-4525054D01*
X6781800Y-4364946D01*
X6750565Y-4207915D01*
X6689294Y-4059995D01*
X6600343Y-3926870D01*
X6487130Y-3813657D01*
X6354005Y-3724706D01*
X6206085Y-3663435D01*
X6049054Y-3632200D01*
X5888946Y-3632200D01*
X5731915Y-3663435D01*
X5583995Y-3724706D01*
X5450870Y-3813657D01*
X5337657Y-3926870D01*
X5248706Y-4059995D01*
X5187435Y-4207915D01*
X5156200Y-4364946D01*
X583000Y-4364946D01*
X583000Y-583000D01*
X9451622Y-583000D01*
X9436900Y-631532D01*
G37*
G04 #@! TD.AperFunction*
M02*
